<svg xmlns="http://www.w3.org/2000/svg" width="598.854" height="663.058" viewBox="0 0 598.854 663.058">
  <g id="Investing" transform="translate(-19.046 -5.012)">
    <path id="Path_1116" data-name="Path 1116" d="M63.137,286.01s-19.151-.391-23.937-8.149c-2.385-3.864-2.641-11.567-1.633-15.3.915-3.43,2.849-2.972,6.532-4.715,11.718-5.577,34.855,15.969,41.179,4.116,1.191-2.234.83,6.5,1.017,7.349a10.289,10.289,0,0,1-2.27,7.833C79.421,283.536,70.351,284.942,63.137,286.01Z" transform="translate(23.111 324.055)" fill="#fff" fill-rule="evenodd"/>
    <path id="Path_1117" data-name="Path 1117" d="M57.517,257.525c5.565,1.694,11.837,4.751,16.835,6.274,9.5,2.911,9.6-1.276,11.028-2.5a1.857,1.857,0,0,1,2.826.59c.892,1.685.373,5.895.686,8.878A11.7,11.7,0,0,1,86.4,278.5c-4.939,6.935-13.934,8.263-22.389,9.214-6.683,0-16.362-1.166-21.9-4.9a10.764,10.764,0,0,1-4.324-5.394A26.9,26.9,0,0,1,36.314,267.4c.27-6.674,2.136-7.865,5.163-8.993C45.471,256.937,48.048,254.632,57.517,257.525ZM88.786,270v-.05Zm-3.583-6.56h0l-.011-.032Zm0,0Zm-2.392,15.175a11.284,11.284,0,0,0,3.007-6.889c-.032-.935-.174-.835-.242-2.037-.037-.777-.062-2.339-.1-3.183-8.718,7.056-27.209-8.805-38.058-6.649a47.062,47.062,0,0,0-5,1.857,5.3,5.3,0,0,0-1.45.7c-1.914,1.518-1.777,10.84-.016,14.835,2.771,6.354,16.323,8.611,23.107,9.025,6.578-1.187,14.325-2.685,18.749-7.66Z" transform="translate(22.183 323.067)" fill="#212121" fill-rule="evenodd"/>
    <path id="Path_1118" data-name="Path 1118" d="M62.812,282.138s-19.151-.391-23.937-8.149c-11.528-18.69,33.97-30,45.681-11.053a9.356,9.356,0,0,1-.857,10.328C79.085,279.664,70.014,281.07,62.812,282.138Z" transform="translate(23.123 319.247)" fill="#fff" fill-rule="evenodd"/>
    <path id="Path_1119" data-name="Path 1119" d="M63.647,283.865a57.389,57.389,0,0,1-16.362-2.273c-5.106-1.685-8.689-4.054-10.355-9-5.762-17.039,29.7-27.243,45.6-14.469,10.724,8.615,5.378,20.029-7.575,23.8a75.071,75.071,0,0,1-11.307,1.941Zm.649-1.543c7.17-1.335,16.005-3.247,19.584-9.626h0a8.549,8.549,0,0,0,1.107-5.369,12.4,12.4,0,0,0-5.259-6.985h0c-14.224-10.01-47.36-1.351-38.721,13.767,2.572,4.422,10.381,6.443,15.388,7.383a40.552,40.552,0,0,0,7.9.83Z" transform="translate(22.201 318.238)" fill="#212121" fill-rule="evenodd"/>
    <path id="Path_1120" data-name="Path 1120" d="M80.612,254.839c-.242,10.826,3.562,46.114,3.871,65.407.185,11.563,41.253,10.335,42.732,1.475.624-3.738,2.847-67.737.583-69.28C124.7,250.341,80.612,254.839,80.612,254.839Z" transform="translate(79.189 317.591)" fill="#fff" fill-rule="evenodd"/>
    <path id="Path_1121" data-name="Path 1121" d="M81.027,254.933c9.85-1.2,30.545-3.43,41.385-3.658,6.594-.112,7.285.437,7.76,2.8,1.873,9.916-.057,66.715-.869,69.39-1.6,5.03-10.765,6.738-15.992,7.337-7.6.814-18.626.517-25.266-3.084a7.929,7.929,0,0,1-4.724-6.551c-.457-21.287-3.887-65.535-2.934-65.535A.713.713,0,0,1,81.027,254.933Zm.793,1.358c.137,11.661,4.477,46.063,4.8,64.771.329,8.078,29.146,8.263,37.528,3.139a4.047,4.047,0,0,0,1.758-1.8c.551-1.729,2.794-67.68,1.093-68C120.461,253.264,88.373,255.763,81.82,256.291Zm45.713-1.754-.025-.014Zm-.039-.021.032.014-.034-.014Zm0,0h-.016Z" transform="translate(78.701 316.792)" fill="#212121" fill-rule="evenodd"/>
    <path id="Path_1122" data-name="Path 1122" d="M20.08,247.762c-.24,10.826,3.565,46.114,3.871,65.407.185,11.563,41.255,10.335,42.734,1.475.624-3.738,2.847-67.737.583-69.28C64.175,243.271,20.08,247.762,20.08,247.762Z" transform="translate(1.316 308.491)" fill="#fff" fill-rule="evenodd"/>
    <path id="Path_1123" data-name="Path 1123" d="M20.495,247.866c9.848-1.2,30.545-3.43,41.385-3.658,6.6-.112,7.285.437,7.763,2.8,1.87,9.916-.057,66.715-.869,69.39-1.6,5.03-10.765,6.738-15.992,7.337-7.607.814-18.626.517-25.265-3.087A7.93,7.93,0,0,1,22.79,314.1c-.457-21.289-3.887-65.535-2.931-65.535A.713.713,0,0,1,20.495,247.866Zm.793,1.358c.137,11.661,4.477,46.063,4.8,64.771.329,8.078,29.146,8.263,37.528,3.139a4.054,4.054,0,0,0,1.756-1.8c.553-1.729,2.794-67.68,1.1-68-6.539-1.141-38.63,1.358-45.181,1.886ZM67,247.47l-.027-.014Zm-.039-.021.032.014-.034-.014Zm.011,0h-.016Z" transform="translate(0.831 307.701)" fill="#212121" fill-rule="evenodd"/>
    <path id="Path_1124" data-name="Path 1124" d="M128.755,260.2c-4.452,12.278-29.7,12.642-42.089,8.122a17.743,17.743,0,0,1-5.394-2.972c-.327-.3-.229-.1-.32-1.253,1.461-.107.61-.2,1.957.492,7.388,3.626,38.4,5.458,44.559-4.978l.944-.352Z" transform="translate(79.64 327.08)" fill="#212121" fill-rule="evenodd"/>
    <path id="Path_1125" data-name="Path 1125" d="M67.88,252.183l.343.949c-4.344,11.983-29.5,12.976-42.6,7.932a17.968,17.968,0,0,1-4.975-2.869c-.229-.229-.151-.044-.229-1.173,1.408-.1.647-.2,1.861.441,7.088,3.61,36.568,5.321,43.928-3.85C67.3,252.233,66.426,252.725,67.88,252.183Z" transform="translate(1.77 317.978)" fill="#212121" fill-rule="evenodd"/>
    <path id="Path_1126" data-name="Path 1126" d="M127.73,267.573c-5.89,9.281-36.62,9.125-45.782,2.437-.457-.348-.338-.112-.553-1.29,1.754-.316.2-.229,3.084.672,5.327,1.585,19.574,2.691,31.553.972,3.286-.471,8.282-1.253,10.577-3.658l1-.135Z" transform="translate(80.21 336.489)" fill="#212121" fill-rule="evenodd"/>
    <path id="Path_1127" data-name="Path 1127" d="M67.082,259.5l.119,1c-5.915,9.317-36.812,9.162-45.88,2.367-.364-.279-.249-.087-.457-1.219,1.761-.318.217-.229,2.961.633,7.911,2.467,36.652,3.226,42.254-2.65Z" transform="translate(2.338 327.392)" fill="#212121" fill-rule="evenodd"/>
    <path id="Path_1128" data-name="Path 1128" d="M126.761,273.472l-.32.956a46.512,46.512,0,0,1-34.283,5.526c-3.148-.7-8.124-1.662-10.145-4.44l.057-1.015c1.674.1.512-.073,1.985.736a13.634,13.634,0,0,0,4.445,1.2,109.07,109.07,0,0,0,12.861,1.077,76.553,76.553,0,0,0,24.44-4.344Z" transform="translate(81.004 344.972)" fill="#212121" fill-rule="evenodd"/>
    <path id="Path_1129" data-name="Path 1129" d="M66.23,266.4l-.32.956a46.515,46.515,0,0,1-34.286,5.526c-3.148-.7-8.122-1.662-10.143-4.44l.057-1.015c1.674.1.512-.073,1.985.736a13.632,13.632,0,0,0,4.445,1.2,109.07,109.07,0,0,0,12.861,1.077,76.553,76.553,0,0,0,24.44-4.344Z" transform="translate(3.133 335.876)" fill="#212121" fill-rule="evenodd"/>
    <path id="Path_1130" data-name="Path 1130" d="M126.335,279.467c-.229,2.472-3.455,4.317-5.728,5.311-7.5,3.283-19.707,3.658-27.438,2.115-3.846-.807-9.224-2.671-11.025-6.174l.229-.992.99.229c3.489,4.363,17.695,4.454,23.263,4.145,3.743-.229,16.691-1.271,18.246-4.683.13-.3-.089-.094.915-.782Z" transform="translate(81.174 352.011)" fill="#212121" fill-rule="evenodd"/>
    <path id="Path_1131" data-name="Path 1131" d="M65.355,274.452c-.229,2.472-3.455,4.317-5.728,5.311-7.5,3.283-19.707,3.658-27.438,2.115-3.846-.807-9.224-2.671-11.023-6.174l.229-.992.992.229c3.487,4.363,17.695,4.454,23.26,4.145,3.745-.229,16.691-1.271,18.246-4.683.13-.3-.087-.094.915-.782Z" transform="translate(2.729 345.559)" fill="#212121" fill-rule="evenodd"/>
    <path id="Path_1132" data-name="Path 1132" d="M106.081,275.55s-19.151-.389-23.937-8.149c-11.528-18.687,33.97-30,45.681-11.053a9.361,9.361,0,0,1-.857,10.33C122.365,273.076,113.295,274.484,106.081,275.55Z" transform="translate(78.787 310.772)" fill="#fff" fill-rule="evenodd"/>
    <path id="Path_1133" data-name="Path 1133" d="M106.921,277.276A57.308,57.308,0,0,1,90.559,275c-5.106-1.685-8.689-4.054-10.355-9-5.762-17.036,29.7-27.241,45.6-14.469,10.724,8.615,5.378,20.029-7.575,23.8a75.055,75.055,0,0,1-11.307,1.941Zm.647-1.543c7.173-1.335,16.005-3.247,19.586-9.626h0a8.561,8.561,0,0,0,1.107-5.369A12.411,12.411,0,0,0,123,253.753h0c-14.226-10.01-47.362-1.349-38.724,13.769,2.575,4.42,10.383,6.441,15.39,7.381a40.368,40.368,0,0,0,7.9.83Z" transform="translate(77.871 309.764)" fill="#212121" fill-rule="evenodd"/>
    <path id="Path_1134" data-name="Path 1134" d="M45.548,268.478s-19.151-.389-23.935-8.149c-11.528-18.687,33.97-30,45.681-11.053a9.361,9.361,0,0,1-.857,10.33C61.834,266.011,52.764,267.41,45.548,268.478Z" transform="translate(0.915 301.674)" fill="#fff" fill-rule="evenodd"/>
    <path id="Path_1135" data-name="Path 1135" d="M46.39,270.2a57.386,57.386,0,0,1-16.362-2.273c-5.106-1.685-8.689-4.054-10.355-9-5.762-17.036,29.7-27.241,45.6-14.469,10.724,8.615,5.378,20.029-7.575,23.8A75.071,75.071,0,0,1,46.39,270.2Zm.647-1.543c7.173-1.335,16.005-3.247,19.584-9.626h0a8.549,8.549,0,0,0,1.109-5.369,12.411,12.411,0,0,0-5.259-6.985h0c-14.226-10.01-47.362-1.349-38.724,13.769,2.572,4.42,10.381,6.441,15.39,7.381A40.363,40.363,0,0,0,47.037,268.661Z" transform="translate(0 300.666)" fill="#212121" fill-rule="evenodd"/>
    <path id="Path_1136" data-name="Path 1136" d="M134.324,264.91a5.652,5.652,0,0,1-3.023,2.11c-1.877,1.216-1.9,6.631-6.288,14.466a7.235,7.235,0,0,1-2.417,2.872,2.252,2.252,0,0,1-2.947-.768,6.4,6.4,0,0,1-1.111-3c-.393-2.716-.046-3.238-.078-12.6a207.843,207.843,0,0,1,.983-25.814c.24-3.089.755-6.905,3.414-8.421,5.03-2.673,12.727,5.574,16.273,10.026-.652.563-.791.686,0,0C139.622,244.449,137.077,260.449,134.324,264.91Zm-9.07-29.063c-1.418.03-1.9,1.2-2.241,2.575a55.2,55.2,0,0,0-.6,7.632c-.686,10.552-.3,10.71-.512,31.055a21.314,21.314,0,0,0,.1,2.593c4.9-8.558,4.116-14.105,8.652-15.7.748-.247.96-.256,1.31-.739,2.584-3.848,4.953-14.876,5.849-18.79a53.341,53.341,0,0,0-6.007-5.43,13.987,13.987,0,0,0-6.551-3.192Z" transform="translate(127.751 293.597)" fill="#212121" fill-rule="evenodd"/>
    <path id="Path_1137" data-name="Path 1137" d="M123.657,170.978c-11.835,10.767-1.829,108.125,16.476,154.412l-5.065-3.933L129.78,347.6s11.789,26.578,43.2,49.136c12.708,9.13,46.018,10.858,48.814,3.087,14.553-40.471,16.506-123.6,20.3-118.624,5.366,7.029,6.994,90.165,21.657,108.994,12.8,16.442,57.452,5.835,66.308,3.99,17.814-3.709,17.967-43.852,20.482-55.81,5.1-24.253,8.634-111.3,5.106-124.5-1.1-4.116-3.4-13.556-6.7-16.641-4.71-4.388-14.247-5.629-20.258-6.45-17.722-2.424-36.06-.318-53.872-.272A437.567,437.567,0,0,1,201.8,185.06c-10.371-1.735-20.441-4.77-30.806-6.484C155.69,176.04,123.657,170.978,123.657,170.978Z" transform="translate(127.992 213.511)" fill="#fff" fill-rule="evenodd"/>
    <path id="Path_1138" data-name="Path 1138" d="M334.738,190.509c5.885.992,13.719,2.817,17.1,7.7a38.31,38.31,0,0,1,4.1,9.67c2.35,7.8,2.972,10.234,3.176,28,.229,27.246-2.074,80.289-6.194,102.05-2.961,15.162-2.956,51.658-20.226,57.882-2.14.752-12.26,2.668-15.829,3.279-17.512,2.952-45.773,5.812-55.292-9.089-12.628-19.892-14.94-84.307-19.206-103.511-2.531,15.118-5.3,61.664-13.49,96.633a165.564,165.564,0,0,1-5.3,18.145c-3.112,6.313-18.587,5.817-25.624,5.112-19.538-2.092-25.974-7.948-33.218-13.906-16.849-13.895-29.338-30.527-35.379-42.924a11.342,11.342,0,0,1-.526-1.164c0-1.408,5.382-26.946,5.51-27.209a1.335,1.335,0,0,1,1.969-.364c1.667,1.3,1.438,1.214,1.29.793-12.139-34.539-21.973-97.013-18.763-135.21.393-4.614,1.372-12.393,4.756-15.548h0c.366-.293.439-.2,2,.037,7.527,1.143,31.61,4.884,45.976,7.189,16.444,2.707,33.993,9.5,81.991,11.222C294.633,190.722,308.743,186.222,334.738,190.509Zm-214.5-1.74c-1.372,25.711,2.158,56.288,6.878,81.6,7.116,38.051,14.633,54.32,14.745,55.387a1.315,1.315,0,0,1-1.043,1.324c-.915.117-.819-.043-4.376-2.8-4.872,24.079-4.854,23.349-4.744,23.578,5.965,12.326,18.42,28.688,35.669,42.709,7.125,5.716,10.166,7.927,18.129,10.189a77.148,77.148,0,0,0,16.826,2.659c4.667.215,14.06.112,17.549-2.744.652-.549.748-.526,2.552-6.379,10.925-35.85,13.778-94.836,16.8-110.066.364-1.795.775-3.839,2.257-4.463,1.427-.471,2.355.4,3.016,1.758,5.453,11.54,6.807,87.217,20.542,107.249,9.134,12.96,38.7,9.132,54.379,6.256,2.243-.414,10.518-2.058,11.933-2.515,14.992-5.1,15.418-41.815,18.029-54.672,4.493-22.179,8-96.489,5.808-119.027a58.107,58.107,0,0,0-5.773-18.694,13.676,13.676,0,0,0-7.1-4.694c-7.054-2.472-19.5-3.638-27.047-3.887-19.325-.578-53.412,3.245-100.742-3.146-20.089-2.716-24.465-4.7-37.955-7.516-6.1-1.262-19.252-3.37-52.23-8.734-3.116,3.094-3.844,12.228-4.1,16.62Z" transform="translate(127.577 213.103)" fill="#212121" fill-rule="evenodd"/>
    <path id="Path_1139" data-name="Path 1139" d="M199.069,300.534c-12.157,10.506-64.389,9.4-74.189,8.583-77.811-6.51-79.267-92.147-82.837-151.929C37.989,89.325,46.028,15.107,126.7,6.281c11.784-1.292,36.856.121,48.537,1.987,39.327,6.281,49.491,34.926,53.174,42.334,20,40.21,19.872,81.467,16.344,125.623C240.776,226.178,238.266,266.655,199.069,300.534Z" transform="translate(28.51 0.99)" fill="#fff" fill-rule="evenodd"/>
    <path id="Path_1140" data-name="Path 1140" d="M121.64,310.791c-61.531-7.431-74.276-64.778-78.719-126.042C39.133,130.816,34.093,60.708,76.455,25.43,92.6,12.073,114.353,5.565,134.721,5.044A292.047,292.047,0,0,1,170.39,6.7c26.267,2.972,45.691,13.959,57.775,38.326,14.151,28.86,22.067,54.592,20.7,102.7-.565,17.572-3.212,48.016-4.877,62.158-3.7,30.552-10.312,56.247-30.684,79.569a136.155,136.155,0,0,1-12.829,12.624C188.361,312.421,136.55,312.515,121.64,310.791ZM139.346,8.542a99.489,99.489,0,0,0-17.434,1.276C52.053,20.921,40.7,84.755,44.522,155.7c1.02,18.9,2.04,38.378,4.193,55.756,7.152,56.556,26.834,95.8,84.026,97.957,14.092.492,56,.707,66.788-8.421h0c21.735-19.067,32.946-40.4,38.689-69.12,4.507-22.773,7.385-67.572,7.717-86.289.8-44.927-7.056-72.282-21.529-100.317a61.081,61.081,0,0,0-38.42-32C172.957,9.452,151.183,8.542,139.346,8.542Z" transform="translate(27.582)" fill="#212121" fill-rule="evenodd"/>
    <path id="Path_1141" data-name="Path 1141" d="M88.091,289.427c1.246-35.754,1.562-26.708,1.168-222.128" transform="translate(88.824 80.131)" fill="#fff" fill-rule="evenodd"/>
    <path id="Path_1142" data-name="Path 1142" d="M93.5,79.992c2.378,48.608,2.389,76.96,1.941,131.662a659.3,659.3,0,0,1-2.883,69.118c-.9,11.222-.551,9.256-1.395,10.975l-1.239.485H89.9l-1.2-.569-.519-1.278c0-29.386-2.563-97.6-1.111-163.645.423-19.513,2.25-57.921,2.3-58.435l.558-1.26,1.2-.53h.018C93.3,67.453,92.819,66.191,93.5,79.992Z" transform="translate(86.939 79.119)" fill="#212121" fill-rule="evenodd"/>
    <path id="Path_1143" data-name="Path 1143" d="M115.991,150.292c-5.515-10.378-37.727-56.6-48.839-71.361" transform="translate(61.887 95.095)" fill="#fff" fill-rule="evenodd"/>
    <path id="Path_1144" data-name="Path 1144" d="M69.508,78.81a203.91,203.91,0,0,1,21.708,25.764c9.942,14.007,20.763,29.724,27.2,45.544.146.366.1.078.16,1.685l-.777,1.015h-.016l-1.271.085c-1.6-1.143-.608-.2-2.972-3.254-3.533-4.536-6.6-7.948-12.713-16.069-28.608-39.595-30.1-46.173-34.148-52.644l-.258-1.372.6-1.107h.014l1.23-.265Z" transform="translate(60.941 94.145)" fill="#212121" fill-rule="evenodd"/>
    <path id="Path_1145" data-name="Path 1145" d="M246.242,173.461c.784.633,1.58,1.253,2.348,1.907,1.468,1.251,4.552,2.616,4.875,4.765.064.434-1.452,1.774-1.7,2.058-1.6,1.8-2.888,3.887-4.3,5.833-2,2.76-4.171,5.392-6.231,8.106-.67.878-2.058,2.744-3.26,2.952-.572.1-2.671-2.241-3.075-2.57-1.569-1.276-3.142-2.588-4.69-3.933C235.45,185.582,234.261,187.834,246.242,173.461Z" transform="translate(271.652 216.705)" fill="#fff" fill-rule="evenodd"/>
    <path id="Path_1146" data-name="Path 1146" d="M247.985,173.528c5.664,4,3.087,2.005,5.236,3.489a5.117,5.117,0,0,1,2.515,3.647,3.862,3.862,0,0,1-1.2,2.074,90.718,90.718,0,0,0-5.7,7.98c-1.244,1.7-5.68,7.486-5.869,7.721a10.429,10.429,0,0,1-2.152,2.129c-2.058,1.372-3.18.556-4.946-1.166-2.012-1.969-1.39-1.2-5.826-5.1a1.747,1.747,0,0,1-.407-2.126,122.249,122.249,0,0,1,10.877-12.251c6.711-7.12,6.375-6.974,7.052-6.674l.1.069h0Zm-14.4,19.179a38.028,38.028,0,0,1,4.559,3.926c.272.265.569.56.894.844.974-.766,8.039-9.969,8.211-10.2,5.35-7.23,4.241-5.2,5.851-6.942a5.424,5.424,0,0,0-1.575-1.852,39.783,39.783,0,0,1-4.189-3.558c-9.525,12.978-6.736,8.531-13.755,17.78Zm19.6-11.963v-.119a.226.226,0,0,0,0,.119Z" transform="translate(270.668 216.297)" fill="#212121" fill-rule="evenodd"/>
    <path id="Path_1147" data-name="Path 1147" d="M231.559,204.55c3.642-8.947,9.887-16.529,16.181-23.727,1.065-1.219,4.088-6.377,6.057-6.468,3.887-.176,13.069,8.542,15.521,11.121a24.112,24.112,0,0,0,5.316,4.978c1.475.748,6.281-.508,7.751-.974,6.809-2.163,12.834-2.687,13.447,4.392.229,2.588-2.835,5.3-11.7,5.945-.7.05.048,1.5.284,2.1,1.761,4.488,4.417,8.659,6.478,13.015,3.2,6.75,5.931,13.7,9.07,20.473,1.427,3.08,4.888,10.216,2.415,13.518-2.744,3.679-8.46-1.674-9.994-3.674-6.361-8.343-11.133-18.292-16.309-27.438-.181-.32.592,1.18,1.116,2,.933,1.461,1.559,3.041,2.371,4.573,1.927,3.629,8.154,11.016,5.211,15.28-4.388,6.363-11.867-3.473-13.847-6.921a28.73,28.73,0,0,0-2.668-4.431c-.023,0,.373,1.111.407,1.2.576,1.413,1.452,2.771,1.886,4.232a4.7,4.7,0,0,1-3.4,5.325c-2.058.809-3.967-.864-5.142-2.426a52.956,52.956,0,0,1-6.99-13.049c-.512-1.372-.35-3.905-1.642-4.85C248.266,215,231.559,204.55,231.559,204.55Z" transform="translate(273.392 217.851)" fill="#fff" fill-rule="evenodd"/>
    <path id="Path_1148" data-name="Path 1148" d="M296.458,190a9.324,9.324,0,0,1,1.443,4.774c-.018,4.927-6.594,6.67-11.469,7.237,1.687,4.26,4.445,8.6,6.594,13.161,2.618,5.556,4.7,10.65,7.232,16.357,2.04,4.6,5.083,10.129,5.174,14.862.037,5.6-4.594,8.618-10.8,3.814a34.911,34.911,0,0,1-7.669-9.573c-2.357,4.493-8.064,5.716-14.844-3.24a7,7,0,0,1-5.588,3.924,7.66,7.66,0,0,1-5.837-4.168,54.6,54.6,0,0,1-6.441-12.832c-.318-1.168-.375-3.219-.972-3.919l.014.016c-.229-.274-3.295-2.389-3.59-2.6-17.944-12.377-18.786-11.65-18.4-12.859h0c4.772-12.153,13.522-20.61,17.786-26.683,1.443-2.021,3.238-4.573,5.558-4.445,3.187.2,7.317,3.626,9.814,5.654a66.583,66.583,0,0,1,8.149,7.692c.594.629,2.428,2.563,3.357,2.671C280.816,190.3,291.794,183.37,296.458,190Zm-17.876,49.44c1.6,1.182,3.331,1.985,4.712.567a3.066,3.066,0,0,0,.933-1.774,5.748,5.748,0,0,0-.574-3.11c-2.764-4.813-7.751-14.064-8.254-14.951a3.446,3.446,0,0,1-.686-1.754c.133-.229-.158-.748.846-1.479a1.749,1.749,0,0,1,1.955.1c.434.389.293.2,1.475,2.309.931,1.669-.654-1.23,3.2,5.826,1.941,3.567,1.493,2.415,3.153,5.389a55.623,55.623,0,0,0,4.719,8.291,73.425,73.425,0,0,0,4.694,6.619,13.671,13.671,0,0,0,4.436,3.334,2.538,2.538,0,0,0,1.578.194c.686-.229.985-1.113,1.075-1.829a20.956,20.956,0,0,0-2.463-9.034c-4.374-9.569-6.217-14.4-9.352-21.166-1.548-3.318-6.926-12.976-7.424-15.569a2.3,2.3,0,0,1,.3-1.758c.885-1.184,1.351-.633,5.243-1.292a14.436,14.436,0,0,0,5.133-1.747c1.536-1.029,1.356-1.761,1.232-2.6-1.109-6.734-9.313-2.435-15.331-1.413-6.562,1.113-6.1-1.475-13.241-8.231-2.385-2.243-7.737-7.111-10.861-8a2.608,2.608,0,0,0-.883-.11h.034c-1.335.416-3.9,4.221-4.779,5.385-1.845,2.41-11.576,11.967-16.586,23.322,1.6.976,20.715,12.633,22.023,14.046,1.276,1.456,1.077,3.558,1.681,5.092a51.708,51.708,0,0,0,6.889,12.454c.871,1.107,2.252,2.451,3.574,1.943,1.349-.556,2.826-1.829,2.623-3.27-.174-1.258-1.7-3.35-2.431-5.766a1.537,1.537,0,0,1,2.666-1.411h0c1.658,1.781,3.5,7.527,8.684,11.4Zm-2.874-49.648h0Zm.023,0h-.025Zm0,0h-.021Zm-21.493-13.559Zm0,0Zm0,0h.021Zm0,0h.027ZM254.238,176.234Z" transform="translate(272.987 217.174)" fill="#212121" fill-rule="evenodd"/>
    <path id="Path_1149" data-name="Path 1149" d="M88.746,152.009c8.714-10.824,37.466-47.874,45.48-60.553" transform="translate(89.667 111.208)" fill="#fff" fill-rule="evenodd"/>
    <path id="Path_1150" data-name="Path 1150" d="M136.134,90.887h.014l.672,1.049a5.529,5.529,0,0,1-.979,3.2,140.78,140.78,0,0,1-11.185,19.506,345.511,345.511,0,0,1-21.6,27.518c-2.2,2.369-5.6,5.81-6.288,6.475-6.763,6.539-5.3,5.277-6.953,6.025l-1.228-.306h-.014L88,153.212c.332-1.564.192-1.216.631-1.948a229.009,229.009,0,0,1,20.491-30.55c15.411-20.276,13.5-16.691,23.494-28.044,1.312-1.5.732-1.029,2.286-1.953Z" transform="translate(88.712 110.258)" fill="#212121" fill-rule="evenodd"/>
    <path id="Path_1151" data-name="Path 1151" d="M63.711,163.907,77.862,315.061c12.418,3.343,100.888-.48,100.888-.48l13.364-149.764S71.59,163.5,63.711,163.907Z" transform="translate(57.46 204.314)" fill="#e8505b" fill-rule="evenodd"/>
    <path id="Path_1152" data-name="Path 1152" d="M119.016,163.448c.739,0,73.144.121,74.047.354a1.6,1.6,0,0,1,1.07,1.386c0,2.268-12.683,144.276-13.2,150.043a1.806,1.806,0,0,1-1.413,1.582c-1.841.229-82.423,3.455-99.919.7-1.53-.258-2.712-.329-2.972-1.809C72.717,272.95,66.91,205.728,63.4,164.466h0C63.409,163.4,61.406,163.439,119.016,163.448Zm-53.821,1.637c-.444,0-.75-4.589,5.629,58.248,9.525,95.154,8.732,90.814,9.114,90.88,14.633,2.414,82.727-.229,97.6-.848,4.045-45.5,9.041-101.348,13.232-146.483-40.875-.613-113.18-1.921-125.571-1.8Z" transform="translate(57.051 203.821)" fill="#212121" fill-rule="evenodd"/>
    <path id="Path_1153" data-name="Path 1153" d="M233.326,89.631c1.85.311,3.457,1.516,5.293,1.918,6.173,1.354,12.031,1.692,17.958-1.239a17.377,17.377,0,0,0,4.685-4.4c7.774-8.6,8.071-21.872-.846-29.608-12.777-11.08-27.163.069-27.163.069-7.353-4.225-12.713-8.131-19.609-9.391a64.8,64.8,0,0,0-22.5-.819,37.69,37.69,0,0,0-16.264,7.385c-8.871,7.637-12.678,22.579-13.095,33.787a34.333,34.333,0,0,0,4.04,18.214c.432.812,1.95,4.879,1.8,4.07-.94-5.172,12.361-9.407,15.763-.839.066.167,4.452-23.466,4.452-23.466C190.812,88.321,206.46,100.881,233.326,89.631Z" transform="translate(183.561 52.139)" fill="#212121" fill-rule="evenodd"/>
    <path id="Path_1154" data-name="Path 1154" d="M220.294,47.806A66.926,66.926,0,0,1,230.953,53.5c3.546,2.092,3.112,1.9,3.341,1.751,23.13-14.777,44.687,10.33,30.719,29.978a44.186,44.186,0,0,1-3.571,4.2,12.118,12.118,0,0,1-3.135,2.62,24.413,24.413,0,0,1-15.413,1.939,18.616,18.616,0,0,1-5.785-1.55C234,91,234.566,91.27,232.993,91.915c-18.248,7.342-33.5,4.481-43.276-3.082-2.744,15.806-3.684,21.106-4.01,21.735a1.584,1.584,0,0,1-1.47.755c-1.525-.245-1.109-1.18-2.33-2.655a5.984,5.984,0,0,0-3.777-2.072,8.611,8.611,0,0,0-7.378,2.286,1.76,1.76,0,0,0-.489,1.372,1.733,1.733,0,0,1-3.318.985c-.4-.846-1.161-2.824-1.617-3.807a36.029,36.029,0,0,1-3.235-8.167c-2.209-8.759-.848-19.6,1.863-28.3,4.379-13.719,11.89-21.843,26.214-25.24a63.107,63.107,0,0,1,30.124,2.081Zm-37.459,61.506ZM189.177,85c.6.229,10.847,11.647,31.309,8.7a77.61,77.61,0,0,0,13.92-3.8h0a14.452,14.452,0,0,1,3.482,1.221,29.916,29.916,0,0,0,11.256,1.44,20.386,20.386,0,0,0,7.4-1.948,13.541,13.541,0,0,0,4.7-4.333c15.29-17.427-3.457-41.449-24.408-28.688-1.941,1.178-1.994,1.653-3.2,1.315-1.049-.489-8.874-5.2-10.705-6.146-4.475-2.286-7.545-3.256-15.811-4.148a49.471,49.471,0,0,0-16.387.622,35.4,35.4,0,0,0-13.918,6.8c-10.207,9.048-14.4,30.55-11.279,42.64a36.922,36.922,0,0,0,3.03,7.591,11.5,11.5,0,0,1,15.015-.505c.937-4.669,3.876-19.735,4.065-20.139A1.335,1.335,0,0,1,189.177,85Z" transform="translate(182.605 51.17)" fill="#212121" fill-rule="evenodd"/>
    <path id="Path_1155" data-name="Path 1155" d="M180.87,85.664c.119.229.229.48.332.736.066.167,4.452-23.466,4.452-23.466,2.972,3.011,18.616,15.571,45.482,4.321,1.85.311,3.457,1.516,5.293,1.918,6.677,1.466,6.034.4,6.247,1.408a68.036,68.036,0,0,1-.279,13.961s8.689-.373,9.768,5.259a15.66,15.66,0,0,1-4.3,13.8c-1.216,1.038-2.73,1.063-3.908,1.9a14.3,14.3,0,0,0,.027,2.677c-.126,8.558-5.01,23.692-11.775,30.047-3.594,3.375-9.679,4.742-14.428,5.54-14.734,2.476-30.41-1.651-37.283-16.017a51.578,51.578,0,0,1-3.528-15.934,34.823,34.823,0,0,0-1.054-8.414c-.4-1.013-4.18-.588-5.334-.988C157.143,97.75,165,76.49,174.982,81.61a10.559,10.559,0,0,1,5.9,4.283S180.877,85.8,180.87,85.664Z" transform="translate(185.751 74.515)" fill="#fff" fill-rule="evenodd"/>
    <path id="Path_1156" data-name="Path 1156" d="M186.384,62.475c.6.123.4.188,1.742,1.3,8.412,6.827,21.79,9.891,37.933,4.543,5.547-1.882,4.966-2.2,6.173-1.989,3.313.686,2.273,1.6,8.876,2.515,2.488.318,2.465.094,3.183.661,1.621,1.8.8,11.57.585,14a11.688,11.688,0,0,1,8.165,3.489c3.046,3.78,2.088,13.84-3.505,18.616a10.449,10.449,0,0,1-3.258,1.58c0,.327.064,1.045.08,1.443.229,7.074-4.5,23.83-12.041,31.219-10.015,9.637-46.573,12.642-55.646-13.294A68.733,68.733,0,0,1,176,109.862a19.79,19.79,0,0,0-.617-5.115c-2.019-.588-3.816.521-7.655-2.113-9.432-6.738-3.43-23.059,5.556-22.046a7.975,7.975,0,0,1,2.613.835,11.028,11.028,0,0,1,5.522,3.775c4.173-23.205,3.505-22,4.287-22.574a1.075,1.075,0,0,1,.675-.149Zm-4.079,25.06h0a.732.732,0,0,1-1.063-.073,1.336,1.336,0,0,1-.213-.441,10.6,10.6,0,0,0-5.373-3.962c-.78-.21-.743-.359-1.786-.629-7.477-1.754-12.8,12.9-4.658,18.262,2.65,1.683,3.162,1.052,6.011,1.372,2.028.261,2.4.931,2.817,2.266,1.107,3.658.652,11.878,3.2,20.034A26.82,26.82,0,0,0,201.509,142.3c12.1,2.769,25.656-.871,29.953-4.646,5.186-4.738,8.389-13.719,10.143-20.5,2.879-11.485-.944-11.661,3.658-13.364a5.031,5.031,0,0,0,2.728-1.569c3.622-3.924,4.038-11.16,2.286-13.166A8.172,8.172,0,0,0,245.4,87c-2.627-.338-2.707.151-3.631-.686-.574-.736-.471-1.084-.375-2a69.5,69.5,0,0,0,.4-12.061,26.335,26.335,0,0,1-9.72-2.677c-.229-.069-.048-.094-.983.272-18.664,7.234-34.388,3.928-44.145-4.225C183.226,84.073,182.671,87.143,182.305,87.534Zm-6.747,17.286-.023-.014Zm-.025-.016.027.016Zm.014.011-.016-.011h0Zm-.014-.011.021.011-.023-.011Zm0,0h0ZM175.533,104.8Zm0,0ZM175.533,104.8Z" transform="translate(185.147 73.916)" fill="#212121" fill-rule="evenodd"/>
    <path id="Path_1157" data-name="Path 1157" d="M198.117,67.977c4.664.325,10.545-.686,13.586-3.386a39.268,39.268,0,0,1-3.016,20.894c-.293.663-.567,1.539-.915,2.357a.964.964,0,0,0-.032-.181c-1.077-5.622-9.768-5.259-9.768-5.259C198.284,79.529,199.029,70.732,198.117,67.977Z" transform="translate(230.184 76.647)" fill="#212121" fill-rule="evenodd"/>
    <path id="Path_1158" data-name="Path 1158" d="M212.719,63.926c1.372.242,1.4,1.23,1.639,2.773A40.372,40.372,0,0,1,211.1,87.278c-.864,2.124-.725,2.236-1.372,2.838a1.767,1.767,0,0,1-2.234-.064c-.86-.878-.384-1.31-1.107-2.44-1.754-2.744-7.559-2.744-8-2.851a1.557,1.557,0,0,1-1.075-1.649c.29-2.085.633-4.191.933-7.394a26.069,26.069,0,0,0,.094-7.111.7.7,0,0,1,.716-.471h0a21.671,21.671,0,0,0,11.416-2.911h0C211.665,64.406,211.6,63.912,212.719,63.926Zm-12.754,5.741a58.63,58.63,0,0,1,.51,12.029,15.7,15.7,0,0,1,4.138.686,9.4,9.4,0,0,1,3.754,2.142,41.614,41.614,0,0,0,2.915-16.511,22.222,22.222,0,0,1-11.318,1.653Z" transform="translate(229.315 75.791)" fill="#212121" fill-rule="evenodd"/>
    <path id="Path_1159" data-name="Path 1159" d="M247.143,80.415a.981.981,0,0,1,.675.473,34.823,34.823,0,0,1,1.054,8.414,51.577,51.577,0,0,0,3.528,15.934c6.873,14.368,22.549,18.493,37.283,16.005,4.749-.8,10.833-2.163,14.428-5.54,7.191-6.757,12.162-23.711,11.75-30.593q2.529.412,5,.839c82,14.13,121.988,87.752,104.979,180.275-3.953,21.493-14.238,39.49-27.55,48.059-20.425,13.147-40.882,17.8-64.193,19.606-45.329,3.523-94.623,7.952-139.632-1.36-11.35-2.348-23.537-5.108-34.068-10.081-5.069-2.389-41.355-32.642-47.261-52.132-19-62.713,12.018-126.442,63.155-166.789C195.72,88.207,220.977,81.883,247.143,80.415Z" transform="translate(113.792 97.004)" fill="#fff" fill-rule="evenodd"/>
    <path id="Path_1160" data-name="Path 1160" d="M249.743,82.175a40.48,40.48,0,0,1,.686,6.7c.149,1.662.759,6.681,1.491,10.044,4.4,19.481,23.393,25.709,43.118,20.761a21.742,21.742,0,0,0,8.981-4.155C310.1,110,314.2,97.547,315.257,89.991c.613-4.731.062-4.116.382-4.987a1.2,1.2,0,0,1,1.292-.686A157.077,157.077,0,0,1,344.1,90.624c65.016,21.758,93.105,83.408,87.451,152.736-1.71,20.928-5.2,41.529-17.055,58.5-5.888,8.433-13.289,15.628-31.937,23.649a130.714,130.714,0,0,1-32.4,8.881c-13.513,2-53.545,4.619-67.332,5.259a442.43,442.43,0,0,1-57.018-.608c-18.724-1.589-45.841-6.272-62.466-13.348-4-1.717-5.545-2.714-11.467-7.591-13.033-10.767-34.828-31.409-39.666-47.643-12.1-41.367-3.286-83.705,21.1-120.819,15.253-23.112,37.345-43.834,52.614-52.941a123.582,123.582,0,0,1,48.016-15.36c3.4-.423,13.568-1.388,14.3-1.2h0C249.294,80.454,249.432,80.98,249.743,82.175Zm-2.286-.631c-21.264,1.4-42.553,5.869-60.752,16.975-11.16,6.827-24.424,19.3-33.35,29.217-31.4,34.983-49.8,80.644-41.358,127.615a119.13,119.13,0,0,0,4.116,16.4,34.982,34.982,0,0,0,1.66,3.683c9.265,17.793,38.042,42.5,44.065,45.75a114.121,114.121,0,0,0,20.942,7.134c34.338,8.5,64.885,9.375,100.987,7.712,19.5-.933,52.426-3.56,58.04-4.155,20.087-2.177,37.171-6.834,54.528-17.485,8.231-5.11,15.28-12.189,21.479-25.275a102.531,102.531,0,0,0,8.384-29.777c7.852-51.416-1-105.47-39.458-140.792-20.1-18.347-42.823-27.239-68.8-31.608a60.012,60.012,0,0,1-7.518,23.944c-4.116,6.859-8.023,9.327-16.378,11.144-14.377,2.972-29.324.8-38.152-10.543a31.178,31.178,0,0,1-6.174-15.861c-1.347-9.327-.64-10.783-1.539-13.648-.158-.476-.037-.473-.732-.43Z" transform="translate(112.917 96.62)" fill="#212121" fill-rule="evenodd"/>
    <path id="Path_1161" data-name="Path 1161" d="M223.914,83.992c73.81,19.017,108.953,89.806,92.8,177.659-3.953,21.5-14.238,39.492-27.55,48.059-20.425,13.147-40.882,17.8-64.193,19.609-9.5.739-19.165,1.516-28.933,2.2a398.554,398.554,0,0,1-3.672-48.133c.121-44.659,5.181-88.621,8.977-132.935q.617-7.239,1.386-14.437c1.482-1.724,2.819-3.517,3.976-4.749,11.412-12.143,15.443-30.639,17.208-47.275Z" transform="translate(222.974 101.599)" fill="#e8505b" fill-rule="evenodd"/>
    <path id="Path_1162" data-name="Path 1162" d="M225.046,83.7h0c72.669,18.244,104.656,84.254,97.01,159.767-2.4,23.279-7.58,47.838-25.336,63.809-6.647,5.977-18.315,11.81-26.663,15.091-21.872,8.46-41.943,9.05-65.622,10.8-8.122.6-7.607.686-8.444.215-.86-.713-.686-.723-1.28-5.746-2.794-24.125-4.875-43.068-.8-98.106,1.587-21.228,3.569-40.7,5.648-62.192,3.279-34.116,2.744-30.979,3.709-32.113,1.477-1.742,2.181-2.682,3.281-3.905a46.769,46.769,0,0,0,3.908-4.628c12.084-16.463,13.314-41.385,13.781-42.608a.7.7,0,0,1,.809-.384Zm-6.679,32.747c-4.5,10.694-8.709,14.32-12.761,19.355-1.045,1.29-.853.9-.928,1.623.229.037-6.265,67.5-8.35,104.757-2.348,42.617-1.219,57.448,1.372,80.527.928,8.138.775,7.317,1,7.317-.258-.265,35.353-1.372,55.984-6.512,13.719-3.48,32.239-11.066,42.16-21.248,11.366-11.748,16.986-27.929,19.769-44.09C330.024,178.716,301.48,105.809,225.494,85.3A111.407,111.407,0,0,1,218.367,116.448Z" transform="translate(222.021 101.204)" fill="#212121" fill-rule="evenodd"/>
    <path id="Path_1163" data-name="Path 1163" d="M229.32,81.225a145.4,145.4,0,0,0,.206,17.814c.633,14.691,6.773,32.518,17.377,44.129.05.78.094,1.562.123,2.341,1.758,42.855,3.43,86.33.613,129.124-1.088,16.549-1.344,44.963-9.669,62.041a271.67,271.67,0,0,1-65-10.447c-5.554-2.353-11.119-4.838-16.593-7.516-11-8.293-38.184-32.777-43.214-49.418-19-62.713,12.018-126.442,63.155-166.789C191.276,90.709,209.693,84.243,229.32,81.225Z" transform="translate(113.822 98.046)" fill="#e8505b" fill-rule="evenodd"/>
    <path id="Path_1164" data-name="Path 1164" d="M230.408,80.92a.707.707,0,0,1,.585.75h0a146.255,146.255,0,0,0,1.18,25.519,72.1,72.1,0,0,0,15.777,34.78c1.283,1.434,1.011.153,1.372,7.909,3.642,79.073,2.531,99.919.046,141.533a190.7,190.7,0,0,1-4.424,33.751,65.259,65.259,0,0,1-4.6,12.932c-.821.967-1.511.734-2.89.668a271.18,271.18,0,0,1-49.088-6.539,95.576,95.576,0,0,1-27.154-9.274c-5.59-2.613-4.726-2.19-6.93-3.933-12.962-10.255-35.8-31.807-41.447-47.54a131.086,131.086,0,0,1-5.03-22.865c-6.093-48.866,15.251-95.1,49.875-129.844,21.751-21.68,36.947-29.445,56.595-34.635a139.2,139.2,0,0,1,16.131-3.21Zm-.928,1.548c-30.367,5.172-45.766,15.26-63.013,31.174-43.047,39.993-67.556,97.436-51.093,154.09a41.805,41.805,0,0,0,6.745,13.412c8.352,11.94,22.75,25.746,33.8,34.6,2.341,1.861,1.39,1.53,9.916,5.394a68.046,68.046,0,0,0,16.614,6.025,273.462,273.462,0,0,0,55.417,8.115c4.116-8.974,5.993-20.885,7.04-30.657,1.049-9.942,3.26-44.719,3.6-69.879.3-24.365-.229-46.374-1.022-70.668-.727-21.884-.6-19.92-.956-20.318A69.527,69.527,0,0,1,232.528,116.9c-2.076-7.365-3.082-13.467-3.215-27.895-.041-6.91.4-6.567.167-6.528Z" transform="translate(112.857 97.654)" fill="#212121" fill-rule="evenodd"/>
    <path id="Path_1165" data-name="Path 1165" d="M204.035,221.123c-66.246-18.884-57.912-14.487-75.931-21.513-1.258-.492-4.447-.841-5.193-2.115-.9-1.534.229-3.409.549-4.955.5-2.334.133-5.78,1.2-7.984.647-1.328,4.653.229,5.526.4,5.773,1.1,11.531,2.023,17.235,3.487,22.62,5.814,45.9,8.49,68.448,14.439.457.123-.094,1.669-.171,1.9a39.611,39.611,0,0,1-3,5.716c-1.429,2.709-2.533,5.641-4.02,8.309-.288.519-.894,2.321-1.5,2.6C206.152,221.9,205.039,221.365,204.035,221.123Z" transform="translate(133.183 230.293)" fill="#fff" fill-rule="evenodd"/>
    <path id="Path_1166" data-name="Path 1166" d="M127.257,183.129a29.241,29.241,0,0,1,5,1.063c24.58,4.6,13.623,3.343,41.264,8.8,5.876,1.143,33.979,6.473,44.005,9.782,2.867,1.29-1.111,6.759-2.549,9.269-1.251,2.216-2.286,4.644-3.59,7.109-.686,1.285-.6,1.059-.782,1.406-.823,1.637-1.12,2.94-2.886,3.075-.942.071.951.322-22.851-5.716-45.272-11.453-41.127-9.974-48.1-12.287-4.82-1.621-7.9-2.927-8.764-3.162s-1.674-.391-2.68-.718c-5.867-2.026-2.972-6.834-2.636-8.936C123.324,188.511,122.421,183.035,127.257,183.129Zm-.562,10.44a24.238,24.238,0,0,0-.937,3.958,26.469,26.469,0,0,0,4.2,1.372c19.652,7.749,10.088,2.334,75.454,22.581h0a5.715,5.715,0,0,0,2.337.359h-.021l.073-.021h-.021l.075-.025h-.023l.059-.023h0l.034-.039-.018.018.041-.048-.014.016c.384-.521.6-1.356,1.308-2.732,1.6-3.228,2.515-6.041,4.157-9a22.279,22.279,0,0,0,2.316-4.872c-11.565-2.826-26.866-5.273-39.7-7.623-22.273-4.077-25.448-5.456-32.7-7.008-2.671-.56-12.692-2.435-12.706-2.44a23.573,23.573,0,0,0-3.2-.8C126.946,188.815,127.021,191.525,126.694,193.569ZM207.882,221.788Zm0,0Zm0,0h0l.021-.018ZM207.882,221.788Zm0,0Zm0,0Zm0,0Zm0,0Zm.018,0h0l.037-.018Zm7.93-17.3Zm0,0Zm0-.014h0v-.011Z" transform="translate(132.038 229.141)" fill="#212121" fill-rule="evenodd"/>
    <path id="Path_1167" data-name="Path 1167" d="M157.037,226.023c.263-5.227,3.51-11.622,5.419-16.419,2.01-5.046,4.429-9.926,6.56-14.917.59-1.383,1.74-5.119,3.1-6.071,2.328-1.623,8.531,1.2,10.746,2.257,22.394,10.6,40.637,20.539,61.822,32.621C216.789,232.2,187.319,231.511,157.037,226.023Z" transform="translate(177.521 235.57)" fill="#fff" fill-rule="evenodd"/>
    <path id="Path_1168" data-name="Path 1168" d="M180.829,188.958c6.059,2.309,34.606,16.716,49.985,25.3,16.668,9.3,15.511,8.625,15.912,9.413a1.777,1.777,0,0,1-.59,2.1,107.757,107.757,0,0,1-12.875,3.482c-21.063,4.424-41.335,3.91-62.524.711-.741-.114-13.278-2.113-13.819-2.609a.647.647,0,0,1-.187-.524h0a23.456,23.456,0,0,1,1-5.629c1.879-6.507,10.06-25.051,10.68-26.772C170.554,188.487,171.439,185.426,180.829,188.958Zm-7.424,1.669h0l-.075.046.034-.023a17.666,17.666,0,0,0-2.577,5.1c-2.828,6.731-11.752,23.551-12.576,30.527,8.211,1.21,13.666,2.021,23.967,2.744a174.725,174.725,0,0,0,58.4-5.186c-12.525-7.072-22.144-12.55-33.84-18.463-14.332-7.317-30.25-16.284-33.33-14.745Z" transform="translate(177.122 234.711)" fill="#212121" fill-rule="evenodd"/>
    <path id="Path_1169" data-name="Path 1169" d="M121.671,308.165s-19.151-.391-23.937-8.149c-2.382-3.864-2.639-11.57-1.633-15.3.915-3.43,2.849-2.972,6.532-4.715,11.718-5.577,34.855,15.971,41.182,4.116,1.189-2.232.83,6.505,1.015,7.349a10.289,10.289,0,0,1-2.27,7.836C137.969,305.689,128.887,307.1,121.671,308.165Z" transform="translate(98.415 352.554)" fill="#fff" fill-rule="evenodd"/>
    <path id="Path_1170" data-name="Path 1170" d="M116.053,279.681c5.565,1.692,11.837,4.749,16.835,6.274,9.5,2.908,9.6-1.278,11.028-2.5a1.859,1.859,0,0,1,2.826.59c.894,1.685.373,5.9.686,8.878a11.714,11.714,0,0,1-2.488,7.735c-4.939,6.937-13.936,8.263-22.391,9.217-6.683,0-16.362-1.168-21.9-4.907a10.746,10.746,0,0,1-4.321-5.394,26.848,26.848,0,0,1-1.477-10.019c.27-6.677,2.138-7.868,5.163-8.993C104.008,279.091,106.585,276.786,116.053,279.681Zm31.27,12.482h0v-.048ZM143.74,285.6h0v-.032Zm0,0h0v-.014Zm-2.392,15.173a11.3,11.3,0,0,0,3.009-6.887c-.034-.937-.176-.835-.245-2.037-.037-.78-.062-2.339-.1-3.185-8.716,7.056-27.209-8.805-38.058-6.649a48.556,48.556,0,0,0-5,1.857,5.316,5.316,0,0,0-1.447.7c-1.914,1.518-1.779,10.84-.018,14.835,2.771,6.356,16.323,8.611,23.107,9.027,6.578-1.2,14.313-2.691,18.749-7.671Z" transform="translate(97.485 351.568)" fill="#212121" fill-rule="evenodd"/>
    <path id="Path_1171" data-name="Path 1171" d="M46.62,305.075s-19.151-.389-23.937-8.147c-2.385-3.864-2.641-11.57-1.633-15.3.915-3.43,2.847-2.972,6.532-4.715,11.718-5.577,34.853,15.971,41.179,4.116,1.191-2.232.83,6.505,1.015,7.349a10.273,10.273,0,0,1-2.27,7.836C62.9,302.594,53.834,304,46.62,305.075Z" transform="translate(1.862 348.582)" fill="#fff" fill-rule="evenodd"/>
    <path id="Path_1172" data-name="Path 1172" d="M41,276.588c5.563,1.692,11.837,4.749,16.833,6.274,9.5,2.908,9.6-1.278,11.03-2.515a1.854,1.854,0,0,1,2.824.59c.894,1.685.375,5.9.686,8.878a11.7,11.7,0,0,1-2.488,7.735c-4.939,6.937-13.934,8.263-22.389,9.217-6.683,0-16.364-1.168-21.9-4.907a10.763,10.763,0,0,1-4.321-5.394A26.893,26.893,0,0,1,19.8,286.447c.272-6.677,2.138-7.868,5.163-8.993C28.957,276,31.531,273.7,41,276.588Zm31.27,12.482v-.05Zm-3.583-6.562h0l-.014-.032Zm0,0h0v-.014ZM66.3,297.681a11.3,11.3,0,0,0,3.009-6.887c-.032-.937-.176-.835-.242-2.037-.037-.78-.062-2.339-.1-3.185-8.718,7.056-27.209-8.805-38.058-6.649a48.442,48.442,0,0,0-5,1.857,5.349,5.349,0,0,0-1.447.7c-1.914,1.518-1.779,10.84-.016,14.835,2.769,6.356,16.321,8.611,23.107,9.027,6.587-1.194,14.309-2.691,18.744-7.669Z" transform="translate(0.932 347.591)" fill="#212121" fill-rule="evenodd"/>
    <path id="Path_1173" data-name="Path 1173" d="M193.17,311.06s-19.151-.389-23.937-8.149c-2.383-3.864-2.639-11.567-1.633-15.3.915-3.43,2.849-2.972,6.532-4.715,11.718-5.577,34.855,15.969,41.182,4.116,1.191-2.234.83,6.5,1.015,7.349a10.289,10.289,0,0,1-2.27,7.833C209.457,308.579,200.386,309.992,193.17,311.06Z" transform="translate(190.396 356.281)" fill="#fff" fill-rule="evenodd"/>
    <path id="Path_1174" data-name="Path 1174" d="M187.552,282.584c5.565,1.694,11.837,4.751,16.835,6.274,9.5,2.911,9.6-1.276,11.03-2.5a1.854,1.854,0,0,1,2.824.59c.894,1.685.373,5.9.686,8.878a11.713,11.713,0,0,1-2.488,7.735c-4.939,6.935-13.936,8.263-22.391,9.214-6.683,0-16.362-1.166-21.9-4.9a10.757,10.757,0,0,1-4.321-5.394,26.854,26.854,0,0,1-1.477-10.019c.27-6.677,2.138-7.868,5.163-8.995C175.507,281.985,178.084,279.68,187.552,282.584Zm31.27,12.484h0v-.046Zm-3.583-6.562h0v-.032Zm0,0h0v-.014Zm-2.392,15.175a11.3,11.3,0,0,0,3.009-6.887c-.034-.937-.176-.837-.245-2.04-.034-.777-.062-2.337-.1-3.183-8.716,7.056-27.209-8.805-38.058-6.649a47.878,47.878,0,0,0-5,1.857,5.315,5.315,0,0,0-1.447.7c-1.914,1.518-1.779,10.84-.018,14.835,2.771,6.356,16.323,8.611,23.109,9.025,6.576-1.207,14.311-2.693,18.747-7.68Z" transform="translate(189.466 355.296)" fill="#212121" fill-rule="evenodd"/>
    <path id="Path_1175" data-name="Path 1175" d="M188.04,131.567A27.356,27.356,0,0,1,177.186,144.3a33.314,33.314,0,0,1,10.746,13.947,24.863,24.863,0,0,1,11.3-14.38A26.845,26.845,0,0,1,188.04,131.567Z" transform="translate(203.443 162.809)" fill="#fff" fill-rule="evenodd"/>
    <path id="Path_1176" data-name="Path 1176" d="M191.725,135.073a26.46,26.46,0,0,0,5.446,5.451c3.693,2.712,4.424,2.172,4.573,3.757-.155,1.866-1.772,1.191-5.853,5.552a23.342,23.342,0,0,0-3.565,5.094c-2.078,4.008-1.406,4.669-2.812,5.382a1.768,1.768,0,0,1-1.987-.457c-.4-.521-.247-.444-.979-2.042a37.209,37.209,0,0,0-9.8-12.276c-1.683-3.343,5.259-1.852,11.542-13.861h0a.7.7,0,0,1,.528-.414C189.717,131.189,189.431,131.961,191.725,135.073ZM180.7,144.752a34.3,34.3,0,0,1,7.98,9.48,25.046,25.046,0,0,1,8.526-10.04,26.69,26.69,0,0,1-8.247-10.333,27.148,27.148,0,0,1-8.259,10.893Z" transform="translate(202.545 162.408)" fill="#212121" fill-rule="evenodd"/>
    <path id="Path_1177" data-name="Path 1177" d="M270.971,120.428a27.367,27.367,0,0,1-10.854,12.74,33.307,33.307,0,0,1,10.746,13.947,24.861,24.861,0,0,1,11.3-14.377A26.868,26.868,0,0,1,270.971,120.428Z" transform="translate(310.131 148.479)" fill="#fff" fill-rule="evenodd"/>
    <path id="Path_1178" data-name="Path 1178" d="M274.653,123.929a26.445,26.445,0,0,0,5.446,5.449c3.693,2.714,4.424,2.172,4.573,3.759-.158,1.863-1.774,1.189-5.853,5.552a23.162,23.162,0,0,0-3.567,5.094c-2.078,4.008-1.4,4.667-2.812,5.382a1.772,1.772,0,0,1-1.987-.457c-.4-.521-.247-.441-.976-2.04a37.223,37.223,0,0,0-9.8-12.271c-1.68-3.341,5.259-1.85,11.542-13.858h0a.686.686,0,0,1,.528-.412C272.648,120.042,272.362,120.817,274.653,123.929Zm-11.021,9.676a34.318,34.318,0,0,1,7.98,9.482,25.069,25.069,0,0,1,8.526-10.042,26.655,26.655,0,0,1-8.247-10.333A27.1,27.1,0,0,1,263.632,133.605Z" transform="translate(309.236 148.084)" fill="#212121" fill-rule="evenodd"/>
    <path id="Path_1179" data-name="Path 1179" d="M222.929,109.039a27.385,27.385,0,0,1-10.856,12.738,33.307,33.307,0,0,1,10.746,13.948,24.874,24.874,0,0,1,11.3-14.377,26.839,26.839,0,0,1-11.188-12.308Z" transform="translate(248.324 133.828)" fill="#fff" fill-rule="evenodd"/>
    <path id="Path_1180" data-name="Path 1180" d="M223.835,108.73c1.1.075,1.978,5.165,9.708,10.289,2.412,1.564,2.972,1.392,3.08,2.744-.119,1.413-.686,1.031-3.581,3.4a23.446,23.446,0,0,0-6.258,8.085c-1.694,3.6-1.107,3.887-2.394,4.541-3.567,1.086-.983-4.042-11.183-13.314-1.372-1.228-1.223-.979-1.578-1.456-1.683-3.341,5.259-1.847,11.54-13.858h0a.686.686,0,0,1,.665-.432Zm-8.243,13.49a34.274,34.274,0,0,1,7.98,9.48,25.065,25.065,0,0,1,8.526-10.04,26.689,26.689,0,0,1-8.247-10.333A27.105,27.105,0,0,1,215.592,122.221Z" transform="translate(247.425 133.43)" fill="#212121" fill-rule="evenodd"/>
    <path id="Path_1181" data-name="Path 1181" d="M281.465,153.743a27.38,27.38,0,0,1-10.854,12.738,33.32,33.32,0,0,1,10.746,13.947,24.884,24.884,0,0,1,11.3-14.377,26.838,26.838,0,0,1-11.19-12.308Z" transform="translate(323.631 191.338)" fill="#fff" fill-rule="evenodd"/>
    <path id="Path_1182" data-name="Path 1182" d="M285.145,157.245a26.387,26.387,0,0,0,5.446,5.449c3.693,2.714,4.424,2.174,4.573,3.759-.158,1.866-1.772,1.191-5.853,5.552a23.3,23.3,0,0,0-3.567,5.094c-2.078,4.008-1.4,4.667-2.812,5.382a1.772,1.772,0,0,1-1.987-.457c-.393-.521-.247-.444-.976-2.042a37.27,37.27,0,0,0-9.8-12.271c-1.683-3.341,5.259-1.85,11.54-13.858h0a.686.686,0,0,1,.526-.414C283.142,153.358,282.854,154.135,285.145,157.245Zm-11.021,9.679a34.3,34.3,0,0,1,7.98,9.48,25.049,25.049,0,0,1,8.529-10.04,26.715,26.715,0,0,1-8.25-10.333,27.107,27.107,0,0,1-8.259,10.9Z" transform="translate(322.736 190.939)" fill="#212121" fill-rule="evenodd"/>
    <path id="Path_1183" data-name="Path 1183" d="M193.423,241.826s8.048,87.869,8.846,90.791c4.55,16.657,107.007,18.438,111.381-2.888.729-3.558,15.2-87.9,13.232-89.931-2.972-3.082-8.936-3.171-12.736-3.988-9.109-1.957-17.976-4.971-27.1-6.821a117.711,117.711,0,0,0-30.3-1C234.874,229.29,214.152,236.064,193.423,241.826Z" transform="translate(224.331 286.154)" fill="#e8505b" fill-rule="evenodd"/>
    <path id="Path_1184" data-name="Path 1184" d="M308.578,233.465c10.767,2.7,11.611,1.909,15.777,3.382a10.612,10.612,0,0,1,4.182,2.561c.832.949.739,2.629.457,6.1-1.075,12.057-5.57,39.961-7.511,51.885-5.833,35.721-5.732,34.455-6.773,36.282a19.392,19.392,0,0,1-8.952,7.024c-16.764,7.6-48.361,8.076-67.732,6.329-9.578-.894-33.7-3.828-36.716-12.985-.83-2.712-8.414-91.354-8.186-91.377v-.123a.848.848,0,0,1,.062-.229c.382-.672,26.807-8.023,29.173-8.65a190.286,190.286,0,0,1,31.62-5.945C282.766,225.159,289.234,228.538,308.578,233.465Zm-113.967,9.878c.915,9.114,8.076,79.446,9.331,88.642a4.87,4.87,0,0,0,2.515,3.887,32.826,32.826,0,0,0,9.889,4.225c14.567,4,35.07,4.827,50.117,4.173,11.2-.505,37.727-2.776,44.611-11.567a6.771,6.771,0,0,0,1.413-3.542c1.187-6.562,14-81.49,13.25-87.7-2.387-2.12-7.372-2.467-10.561-3.046-6.349-1.159-18.978-5.229-28.039-7.154a85.74,85.74,0,0,0-17.176-1.585c-24.381-.046-40.4,3.871-64.25,10.408C193.351,243.487,194.579,243.032,194.611,243.343Z" transform="translate(223.941 285.378)" fill="#212121" fill-rule="evenodd"/>
    <path id="Path_1185" data-name="Path 1185" d="M193.974,248.858c6.8,5.183,44.886,17.359,73.97,11.112,9.864-2.12,73.069-5.988,56.364-22.256-10.961-10.678-65.011-14.839-73.718-12.594-7.968,2.058-66.886,9-56.615,23.738Z" transform="translate(223.499 282.404)" fill="#fff" fill-rule="evenodd"/>
    <path id="Path_1186" data-name="Path 1186" d="M260.669,223.808a231.5,231.5,0,0,1,44.257,5c8.46,1.916,23.619,5.9,24.365,14.524.915,14.51-48.21,16.666-61.277,19.293a94.161,94.161,0,0,1-25.512,1.125c-21.207-1.706-41.23-8.643-47.495-12.665a.672.672,0,0,1-.686-.19l-.08-.1h0a10.976,10.976,0,0,1-1.283-2.076c-5.138-11.995,29.8-18.774,42.933-21.358C252.246,224.176,252.1,223.79,260.669,223.808ZM251.2,227.64c-8.211,1.882-61.838,7.971-56.865,20.494.526,1.244.643,1.274,2.19,2.117,8.282,4.436,24.129,8.051,34.144,9.5a106.2,106.2,0,0,0,37.907-.551c9.31-1.77,45.583-4.543,55.264-12.347,2.181-1.774,2.337-3.249,1.271-4.994a12.528,12.528,0,0,0-4.941-4.266c-15.708-8.389-60.795-11.908-68.971-9.958Z" transform="translate(223.074 281.474)" fill="#212121" fill-rule="evenodd"/>
    <path id="Path_1187" data-name="Path 1187" d="M290.569,280.2c-20.613-7.294-42.153-12.162-62.649-20.075-12.656-4.882-25.476-8.988-37.151-16.072-6.734-4.084-11.935-6.731-16.067-13.81a36.624,36.624,0,0,1-5.417-12.619c-1.479-10.682,3.8-16.444,12.8-20.9a45.743,45.743,0,0,1,38.106-.732A85.011,85.011,0,0,1,239.7,209.246a151.9,151.9,0,0,1,34.407,39.261C283.106,264.016,280.815,259.578,290.569,280.2Z" transform="translate(192.96 240.791)" fill="#fff" fill-rule="evenodd"/>
    <path id="Path_1188" data-name="Path 1188" d="M215.624,193.127a48.366,48.366,0,0,1,12.7,5.668,153.76,153.76,0,0,1,20.546,16.435c16.319,15.219,24.79,27.927,34.7,47.042,1.907,3.7,2.206,4.488,8.423,18.1.284.624.295.608.3.867a.709.709,0,0,1-.944.627c.288-.814.343-.972,0,0-16.614-5.586-30.181-8.746-47.282-14.039-6.194-1.927-9.464-2.95-28.755-10.134a145.836,145.836,0,0,1-23.85-10.861c-8.716-5.206-12.964-7.369-17.892-15.806a35.046,35.046,0,0,1-5.005-12.057,20.137,20.137,0,0,1,1.761-12.521C175.515,196.756,195.082,187.482,215.624,193.127ZM202.7,194.956c-11.419.089-21.427,4.671-26.34,9.375a14.108,14.108,0,0,0-4.052,6.793,19.577,19.577,0,0,0,.027,8.737,48.342,48.342,0,0,0,6.489,12.939,24.551,24.551,0,0,0,3.19,3.558,104.413,104.413,0,0,0,16.1,10.31,191.729,191.729,0,0,0,20.688,8.949c12.877,4.9,12.5,4.914,19.3,7.349,16.874,6,35.36,10.9,52.074,16.943a256.315,256.315,0,0,0-17.331-31.894,126.348,126.348,0,0,0-11.613-15.619A187.392,187.392,0,0,0,228.035,202.7a44.15,44.15,0,0,0-25.336-7.751Z" transform="translate(191.939 239.796)" fill="#212121" fill-rule="evenodd"/>
    <path id="Path_1189" data-name="Path 1189" d="M223.2,283.674c20.089-8.627,41.269-14.892,61.207-24.129,12.308-5.7,24.833-10.634,36.019-18.466,6.452-4.516,11.471-7.5,15.132-14.832A36.651,36.651,0,0,0,340.13,213.3c.777-10.746-4.863-16.161-14.144-20.023a45.743,45.743,0,0,0-38.072,1.763,84.975,84.975,0,0,0-18.6,14.505,151.907,151.907,0,0,0-31.766,41.424C229.6,267.038,231.589,262.463,223.2,283.674Z" transform="translate(262.638 237.927)" fill="#fff" fill-rule="evenodd"/>
    <path id="Path_1190" data-name="Path 1190" d="M309.644,189.181c9.471.078,21.317,3.455,27.614,9.85,5.9,6.087,6.352,14.8,3.158,22.8-3.693,9.146-6.859,12.973-11.876,16.86-2.156,1.669-7.4,5.259-8.622,6.059a118.548,118.548,0,0,1-11.4,6.576c-8.231,4.2-28.547,12.962-28.778,13.058-19.083,8-36.469,12.983-55.856,20.949h0a.706.706,0,0,1-.956-.444c-.085-.384-.2.091,2.113-5.981,3.393-8.935,3.373-8.9,3.937-10.319a228.739,228.739,0,0,1,14.343-28.714,162.565,162.565,0,0,1,24.664-29.953C280.51,197.76,291.3,189.142,309.644,189.181Zm-18.669,7.5c-9.246,4.3-18.461,13.15-26.157,21.036a141.533,141.533,0,0,0-26.98,37.087,228.4,228.4,0,0,0-12.9,28.508c27.708-12.118,30.266-10.328,74.2-31.03a128.705,128.705,0,0,0,21.914-12.425c8.231-5.73,10.561-7.545,14.633-16.024,2.394-5.06,3.965-9.391,2.774-15.29a14.337,14.337,0,0,0-5.9-8.881C322.951,192.57,305.963,189.872,290.975,196.681Z" transform="translate(262.243 236.928)" fill="#212121" fill-rule="evenodd"/>
    <path id="Path_1191" data-name="Path 1191" d="M184.956,204.8c29.907,2.321,79,41.175,83.408,57.406" transform="translate(213.438 257.022)" fill="#fff" fill-rule="evenodd"/>
    <path id="Path_1192" data-name="Path 1192" d="M185.6,204.5c20.1.713,45.062,16.559,60.713,29.459,7.426,6.173,20.77,18.918,23.093,28.265.069.261.112.089-.446,1.079-1.127-.645-.734-.229-1.207-1.411-6.267-15.29-52.289-50.43-79.654-55.536-3.469-.643-2.495-.078-3.455-1.2C185.525,204.4,185.347,204.486,185.6,204.5Z" transform="translate(213.032 256.62)" fill="#212121" fill-rule="evenodd"/>
    <path id="Path_1193" data-name="Path 1193" d="M303.383,202.692c-29.694,4.271-76.139,46.253-79.478,62.736" transform="translate(263.545 254.31)" fill="#fff" fill-rule="evenodd"/>
    <path id="Path_1194" data-name="Path 1194" d="M304.484,202.983c-1.168,1.566.306.188-5.846,2.136-26.37,8.314-64.6,41.842-72.445,57.674-1.9,3.942-.434,2.668-2.042,3.732l-.549-.841c2.744-17.352,47.225-58.973,78.991-63.18C303.942,202.331,303.491,202.244,304.484,202.983Z" transform="translate(263.155 253.914)" fill="#212121" fill-rule="evenodd"/>
    <path id="Path_1195" data-name="Path 1195" d="M222.565,180.046c2.666,12.484,1.143,26.649.686,39.327-.686,18.818-1.77,71.626-.652,77.381" transform="translate(261.245 225.176)" fill="#fff" fill-rule="evenodd"/>
    <path id="Path_1196" data-name="Path 1196" d="M226.12,179.5c.775,1.013,1.171.72,2.641,7.925a117.1,117.1,0,0,1,1.909,22.263c-.375,65.585-3.151,73.4-3.6,86.378a5.831,5.831,0,0,1-.421,2.892l-1.13.793h-.018l-1.372-.327c-1.04-1.443-.871-1.143-.956-1.493-.265-1.171-.43-2.286-.6-3.471-2.785-19.737-2.652-35.244-2.2-54.907.851-34.816,3.549-39.929,3.142-53.353-.2-6.023-.6-3.544.046-6.173l1.143-.835h.016Z" transform="translate(258.682 224.085)" fill="#212121" fill-rule="evenodd"/>
    <path id="Path_1197" data-name="Path 1197" d="M51.406,245.91c-.24,10.824,3.565,46.111,3.873,65.393.183,11.563,41.253,10.337,42.732,1.475.624-3.738,2.847-67.734.583-69.28C95.5,241.41,51.406,245.91,51.406,245.91Z" transform="translate(41.616 306.094)" fill="#fff" fill-rule="evenodd"/>
    <path id="Path_1198" data-name="Path 1198" d="M51.82,246c9.848-1.2,30.545-3.43,41.385-3.658,6.6-.11,7.285.439,7.763,2.8,1.873,9.919-.057,66.715-.869,69.392-1.6,5.03-10.765,6.736-15.992,7.337-7.607.814-18.626.514-25.266-3.087a7.932,7.932,0,0,1-4.726-6.549c-.457-21.289-3.887-65.537-2.931-65.537a.711.711,0,0,1,.636-.7Zm.793,1.356c.137,11.661,4.477,46.063,4.8,64.773.329,8.076,29.146,8.261,37.528,3.137a4.042,4.042,0,0,0,1.756-1.8c.553-1.729,2.794-67.68,1.1-68-6.539-1.136-38.628,1.379-45.181,1.9ZM98.327,245.6l-.025-.014Zm-.039-.018h.032l-.034-.014Zm0,0h-.016Z" transform="translate(41.13 305.301)" fill="#212121" fill-rule="evenodd"/>
    <path id="Path_1199" data-name="Path 1199" d="M99.549,251.266c-4.454,12.276-29.7,12.64-42.089,8.122a17.786,17.786,0,0,1-5.4-2.972c-.327-.3-.229-.1-.318-1.253,1.459-.105.608-.194,1.957.492,7.388,3.626,38.413,5.458,44.559-4.975l.944-.352Z" transform="translate(42.068 315.589)" fill="#212121" fill-rule="evenodd"/>
    <path id="Path_1200" data-name="Path 1200" d="M98.524,258.64c-5.892,9.279-36.62,9.123-45.784,2.437-.457-.348-.338-.114-.551-1.292,1.751-.316.2-.229,3.084.672,5.327,1.587,19.574,2.693,31.553.972,3.286-.471,8.282-1.251,10.577-3.658l1-.133Z" transform="translate(42.638 324.997)" fill="#212121" fill-rule="evenodd"/>
    <path id="Path_1201" data-name="Path 1201" d="M97.555,264.543l-.32.958a46.534,46.534,0,0,1-34.283,5.52c-3.151-.7-8.124-1.662-10.145-4.443l.057-1.013c1.674.094.512-.073,1.985.736a13.575,13.575,0,0,0,4.445,1.2,108.109,108.109,0,0,0,12.861,1.077,76.553,76.553,0,0,0,24.44-4.344Z" transform="translate(43.431 333.477)" fill="#212121" fill-rule="evenodd"/>
    <path id="Path_1202" data-name="Path 1202" d="M97.121,270.535c-.229,2.472-3.455,4.315-5.716,5.309-7.5,3.286-19.707,3.658-27.438,2.115-3.846-.807-9.221-2.668-11.023-6.174l.229-.99.992.229c3.489,4.36,17.695,4.454,23.263,4.143,3.743-.229,16.691-1.271,18.246-4.68.128-.3-.089-.1.915-.784Z" transform="translate(43.609 340.517)" fill="#212121" fill-rule="evenodd"/>
    <path id="Path_1203" data-name="Path 1203" d="M188.488,74.542c-.071,4.459,1.573,9.269,2.286,13.666.185,1.12,1.356,3.274.816,4.388-.915,1.868-3.121,2.451-4.948,3.009a9.1,9.1,0,0,1-3.466.329" transform="translate(211.15 89.448)" fill="#fff" fill-rule="evenodd"/>
    <path id="Path_1204" data-name="Path 1204" d="M188.905,73.76l1.248.537.512,1.26c0,5.472,1.42,9.052,1.923,13.415.114,1.143,1.21,3.112.645,4.836h0c-.953,2.952-6.631,4.287-9.72,3.841l-.645-.773c1.28-1.052.247-.414,2.387-.734a16.755,16.755,0,0,0,3.768-1.3c1.8-.915,1.964-1.987,1.861-1.756v-.053l-.014.05v-.025c.071-.782-.757-1.955-1.239-4.2a69.855,69.855,0,0,1-2.538-12.873c0-.608-.089-.27.53-1.708l1.258-.512Z" transform="translate(210.754 88.442)" fill="#212121" fill-rule="evenodd"/>
    <path id="Path_1205" data-name="Path 1205" d="M184.869,71.9a26.1,26.1,0,0,0-10.746,2.792" transform="translate(199.502 86.05)" fill="#fff" fill-rule="evenodd"/>
    <path id="Path_1206" data-name="Path 1206" d="M186.444,71.589l.569,1.232v.018l-.478,1.271c-1.548.718-.947.551-2.142.572a42.478,42.478,0,0,0-7.383.974c-2.908.716-1.619.812-3.167.382.345-1.114.041-.848,1.31-1.665a21.557,21.557,0,0,1,8.968-3.153C185.406,71.07,184.948,71.029,186.444,71.589Z" transform="translate(199.142 85.05)" fill="#212121" fill-rule="evenodd"/>
    <path id="Path_1207" data-name="Path 1207" d="M189.03,71.8a6.02,6.02,0,0,1,4.155-.188c2.437.478,4.728.686,7.122,1.326" transform="translate(218.68 85.317)" fill="#fff" fill-rule="evenodd"/>
    <path id="Path_1208" data-name="Path 1208" d="M196.622,71.631A41.056,41.056,0,0,1,201.46,73.2l.54.873-.9.5c-1.7-.2-2.959-.2-4.907-.295-2.209-.117-4.518-.583-5.115-.123l-.016.016h0l-.03.023-1.326.295-1.143-.718v-.016l-.295-1.326.72-1.143C191.11,69.871,194.141,70.941,196.622,71.631Z" transform="translate(217.704 84.365)" fill="#212121" fill-rule="evenodd"/>
    <path id="Path_1209" data-name="Path 1209" d="M177.26,75.467a14.314,14.314,0,0,0-.11,4.276" transform="translate(203.254 90.638)" fill="#fff" fill-rule="evenodd"/>
    <path id="Path_1210" data-name="Path 1210" d="M178.154,82.5a1.788,1.788,0,0,1-1.763-1.5,16.074,16.074,0,0,1,.114-4.87,1.788,1.788,0,0,1,3.521.613,12.607,12.607,0,0,0-.107,3.681,1.788,1.788,0,0,1-1.765,2.074Z" transform="translate(202.249 89.665)" fill="#212121"/>
    <path id="Path_1211" data-name="Path 1211" d="M190.676,75.041a14.81,14.81,0,0,0,.144,4.381" transform="translate(220.669 90.09)" fill="#fff" fill-rule="evenodd"/>
    <path id="Path_1212" data-name="Path 1212" d="M191.819,82.249a1.786,1.786,0,0,1-1.761-1.491,17,17,0,0,1-.137-5,1.788,1.788,0,1,1,3.514.649,13.33,13.33,0,0,0,.146,3.759,1.788,1.788,0,0,1-1.763,2.083Z" transform="translate(219.668 89.049)" fill="#212121"/>
    <path id="Path_1213" data-name="Path 1213" d="M182.2,93.506a11.38,11.38,0,0,0,11.935-5.058" transform="translate(209.893 107.338)" fill="#fff" fill-rule="evenodd"/>
    <path id="Path_1214" data-name="Path 1214" d="M195.528,88.184l.192.995a11.743,11.743,0,0,1-12.274,6.482c-.686-.059-.3.085-1.685-.75l-.336-1.317v-.016l.7-1.164c2.17-.558.487-.286,3.046-.1a10.888,10.888,0,0,0,7.863-2.417C195.1,88.163,193.8,88.552,195.528,88.184Z" transform="translate(208.896 106.998)" fill="#212121" fill-rule="evenodd"/>
    <path id="Path_1215" data-name="Path 1215" d="M173.133,92.042l-.094,1.006c-47.419,40.679-75.284,101.734-57.32,161.557,4.251,14.08,24.4,33.588,35.463,43,10.884-8.828,8.35-6.087,28.252-19.721l-1.21-2.892h0a109.681,109.681,0,0,0-5.083-11.359c-4.678-8.654-9.493-13.92-11.009-16.812a87.836,87.836,0,0,1-3.706-8.65,1.617,1.617,0,0,1-.1-.725h0c.171-.956.245-.75,3.229-3.382a40.2,40.2,0,0,0,7.406-8.471c6.272-8.641,19.73-33.43,24.429-42.739,5.739-11.416,12.05-25.572,14.43-38.067,1.4-7.456.188-5.689,1.621-6.937.793.915.727.4.54,2.481-1.573,16.991-11.627,38.294-19.435,53.442-3.3,6.363-12.733,23.891-16.563,29.875a54.694,54.694,0,0,1-12.141,14.425c4.168,10.479,3.7,7.516,10.022,16.92a78.668,78.668,0,0,1,7.33,13.419c4.376,10.465,4.216,9.621,4.022,10.593-.318.816.3.332-9.729,7.134-6.032,4.072-8.032,5.2-10.854,7.17-10.019,7.038-10,8.517-11.81,8.336-.6-.167-.425.046-4.939-3.956-10.863-9.635-28.581-27.168-33.234-40.99a130.421,130.421,0,0,1-4.8-22.007c-7.049-54.772,20.974-107.069,64.275-142.726Z" transform="translate(112.852 111.865)" fill="#212121" fill-rule="evenodd"/>
    <path id="Path_1216" data-name="Path 1216" d="M149.495,174.65c.583.821,1.18,1.635,1.74,2.474,1.072,1.6,3.67,3.754,3.393,5.911-.055.437-1.879,1.312-2.193,1.511a70.762,70.762,0,0,0-5.716,4.443c-2.68,2.108-5.488,4.054-8.2,6.1-.883.663-2.719,2.083-3.94,1.955-.576-.059-1.959-2.886-2.259-3.311-1.162-1.653-2.319-3.345-3.443-5.06C135.812,183.375,134.054,185.22,149.495,174.65Z" transform="translate(141.289 218.234)" fill="#fff" fill-rule="evenodd"/>
    <path id="Path_1217" data-name="Path 1217" d="M151.3,174.928c4.363,5.4,2.426,2.769,4.093,4.783a5.124,5.124,0,0,1,1.429,4.2,3.887,3.887,0,0,1-1.722,1.669,86.527,86.527,0,0,0-7.653,6.128c-1.66,1.3-7.52,5.668-7.749,5.833a10.405,10.405,0,0,1-2.65,1.461c-2.348.768-3.2-.327-4.44-2.467-1.324-2.307-1.214-1.852-4.221-6.494a1.747,1.747,0,0,1,.187-2.156,122.276,122.276,0,0,1,13.8-8.83c8.394-5.03,8.032-4.975,8.6-4.5l.078.091-.133.1.142-.1Zm-19.083,14.535a38.219,38.219,0,0,1,3.32,5.019c.187.329.4.686.631,1.054,1.143-.471,10.447-7.4,10.676-7.577a43.9,43.9,0,0,1,6.379-4.5c.4-.2.636-.309.944-.48.229-.13.2-.091.185-.2a9.765,9.765,0,0,0-2.01-3.5,32.412,32.412,0,0,1-2.058-3.185c-12.523,9.756-8.885,6.434-18.068,13.358Zm22.115-6.173a.692.692,0,0,1,.021-.117.6.6,0,0,0-.021.1Z" transform="translate(140.301 217.842)" fill="#212121" fill-rule="evenodd"/>
    <path id="Path_1218" data-name="Path 1218" d="M128.608,199.637c5.945-7.619,14.012-13.214,22.028-18.429,1.356-.88,5.67-5.03,7.589-4.573,3.78.883,10.25,11.775,11.908,14.924a24.1,24.1,0,0,0,3.761,6.235c1.216,1.123,6.221.823,7.724,1.173a25.5,25.5,0,0,1,12.884,8.673c.167.265-.942.645-1.063.675a11.286,11.286,0,0,1-3.551-.041,32.085,32.085,0,0,0-7.177.6c-2.172.341-2.771.091-2.515,2.611.473,4.8,1.9,9.535,2.693,14.288,1.232,7.362,1.978,14.8,3.155,22.179.535,3.352,1.925,11.16-1.354,13.664-3.658,2.789-7.694-3.917-8.618-6.256-3.85-9.761-5.732-20.638-8.231-30.833a6.211,6.211,0,0,0,.149.727,63,63,0,0,1,1.418,6.544c.867,4.017,4.847,12.82.857,16.122-5.945,4.93-10.477-6.571-11.432-10.429a28.845,28.845,0,0,0-1.372-4.989c-.023,0,.057,1.171.066,1.264.169,1.516.643,3.064.663,4.589.034,2.579-2.515,3.985-4.719,4.2s-3.583-1.911-4.287-3.734a52.912,52.912,0,0,1-3.176-14.46c-.119-1.457.727-3.853-.258-5.113C141.851,214.24,128.608,199.637,128.608,199.637Z" transform="translate(140.948 220.743)" fill="#fff" fill-rule="evenodd"/>
    <path id="Path_1219" data-name="Path 1219" d="M131.62,204.36c-3.491-3.992-3.2-3.6-3.295-3.869a.7.7,0,0,1,.123-.626h0c7.106-9.349,16.691-15.068,22.156-19.023,2.417-1.829,5.849-5.389,8.51-4.664a8.172,8.172,0,0,1,3.071,1.911,66.839,66.839,0,0,1,10.223,14.665,21.524,21.524,0,0,0,2.5,4.207c.347.389.361.5,1.527.686,4.155.6,5.657-.636,12.118,3.066a30.655,30.655,0,0,1,4.626,3.256,12.56,12.56,0,0,1,3.368,4.061c.146,1.143-.492,1.815-1.559,2.286a10.389,10.389,0,0,1-5.108.263,50.742,50.742,0,0,0-7.637.793,113.927,113.927,0,0,0,2.337,12.5c.967,4.827,1.857,12.038,2.8,18.955a87.642,87.642,0,0,1,1.587,13.607c-.245,7.465-4.589,9.4-8.106,7.683-4.936-2.563-7.118-9.962-8.554-14.773a5.816,5.816,0,0,1-.649.6c-5.488,4.344-10.209-1.237-12.752-7.753l-.1.112a7.317,7.317,0,0,1-5.737,2.261c-2.76-.354-4.116-2.9-5.019-5.5a49.846,49.846,0,0,1-2.744-15.045,8.313,8.313,0,0,0,.089-3.313v.016C144.881,219.6,132.363,205.213,131.62,204.36Zm37.8,19.49c.446,0,.992,2.824,1.3,4.1,3.729,16.188-.409-1.34,2.609,10.662a93.519,93.519,0,0,0,3.871,14.27,18.259,18.259,0,0,0,3.039,6.034c1.4,1.758,3.05,3.224,4.278,1.386,1.847-2.87.368-10.129-.142-13.5-2.058-13.973-1.429-13.719-4.427-28.021a59.354,59.354,0,0,1-1.047-6.452,5.094,5.094,0,0,1,.229-2.6c.636-1.466,1.861-1.614,3.565-1.829a39.48,39.48,0,0,1,7.25-.642c2.286.119,2.3.343,2.023.057a26.77,26.77,0,0,0-9.42-5.9,17.766,17.766,0,0,0-4.9-.569c-6.958-.592-4.85-3.176-11.956-14.059-1.4-2.126-4.856-7.545-7.273-8.275l-.075-.021h0c-1.413.039-5,3.078-6.16,3.953-2.655,1.966-14.265,8.252-22.208,17.85,4.015,4.317,11.675,12.656,15.662,17.325,1.5,1.761,2.158,2.232,2.1,4.479a16.785,16.785,0,0,0,.24,6.2,47.838,47.838,0,0,0,3.075,11.247c.489,1.018,1.292,2.245,2.426,2.321a4.715,4.715,0,0,0,3.075-1.278c1.372-1.429,0-3.441-.183-7.278a1.521,1.521,0,0,1,.67-1.395h0a1.564,1.564,0,0,1,2.286.67,13.3,13.3,0,0,1,.807,2.568,37.234,37.234,0,0,0,1.045,4.024c.937,2.744,3.658,8.874,6.544,8.954a3.286,3.286,0,0,0,2.149-1.091c1.713-1.975.412-5.259-.19-7.82-3.055-13.067-1.79-8.037-2.922-12.7-.457-1.8-.187-1.525-.187-1.875a1.749,1.749,0,0,1,2.87-.787Zm12.336-12.361ZM175.3,197.361h0Zm.016,0-.025-.014Zm0,0-.016-.014Zm0,0-.021-.014Zm-16.934-18.875h-.025Zm0,0h-.03Zm-.016,0Zm-.021,0ZM158.344,178.486Z" transform="translate(140.55 220.075)" fill="#212121" fill-rule="evenodd"/>
    <path id="Path_1220" data-name="Path 1220" d="M327.9,165.1c-20.068-34.2-63.509-33.382-72.543-32.136-10.691,1.472-22.179,3.489-31.51,9.212a66.765,66.765,0,0,0-21.678,20.48,78.6,78.6,0,0,0-12.493,29.267c-6.96,40.816,28.48,71.432,64.975,79.341,7.815,1.694,15.059.485,22.842-.428,16.117-1.889,33.84-7.669,44.328-20.631C340.667,226.891,347.087,197.805,327.9,165.1Z" transform="translate(218.373 164.05)" fill="#fff" fill-rule="evenodd"/>
    <path id="Path_1221" data-name="Path 1221" d="M278.442,133.109c21.93,3.5,40.279,13.719,51.318,32.868h0c17.878,30.181,15.022,60.242-6.084,86.216-9.6,11.819-25,17.777-40,20.35-20.633,3.407-26.15,1.955-34.091-.229a99.626,99.626,0,0,1-26.066-11.531c-33.154-20.972-46.562-56.268-25-93.226a68.916,68.916,0,0,1,25.023-25.75,56.3,56.3,0,0,1,15.61-6.434,91.553,91.553,0,0,1,39.293-2.264Zm-34.025,4.116A58.36,58.36,0,0,0,217.3,150.186a74.82,74.82,0,0,0-20.647,28.581c-15.87,37.123,6.761,71.923,44.383,86.936a79.269,79.269,0,0,0,19.584,5.259c6.894.578,20.7-1.39,25.515-2.323,24.262-4.8,35.015-15.189,44.154-31.194,13.216-23.349,11.547-47.408-2.058-71.256h0c-9.926-16.5-25.812-25.737-44.742-29.667a86.486,86.486,0,0,0-39.078.707Zm85.34,28.748h0l-.066-.11Z" transform="translate(217.418 163.305)" fill="#212121" fill-rule="evenodd"/>
    <path id="Path_1222" data-name="Path 1222" d="M314.488,165.053c-17.377-28.012-55.006-27.339-62.83-26.32-9.26,1.207-19.206,2.858-27.291,7.545a56.633,56.633,0,0,0-18.776,16.774,62.594,62.594,0,0,0-10.82,23.965c-6.027,33.426,24.669,58.5,56.277,64.977,6.768,1.388,13.033.4,19.783-.35,13.959-1.546,29.31-6.281,38.392-16.9C325.55,215.662,331.11,191.842,314.488,165.053Z" transform="translate(225.083 171.577)" fill="#fff" fill-rule="evenodd"/>
    <path id="Path_1223" data-name="Path 1223" d="M274.179,139.277c17.251,3.112,32.559,11.158,41.927,26.523a88.968,88.968,0,0,1,4.385,7.989,53.3,53.3,0,0,1,3.635,39.062,65.048,65.048,0,0,1-17.03,27.33c-11.753,10.237-28.188,13.243-43.672,14.444a43.592,43.592,0,0,1-16.719-1.681c-32.587-8.659-59.791-35.344-52.02-68a67.908,67.908,0,0,1,16.874-29.511A61.813,61.813,0,0,1,227.962,144a68.085,68.085,0,0,1,17.3-4.815,77.831,77.831,0,0,1,28.919.089ZM233.685,144.6c-13.913,4.815-26.679,16.476-33.783,33.8-11.853,29.093,6.841,55.58,36.876,68.077a80.314,80.314,0,0,0,18.411,5.19c6.887.709,19.76-1.13,24.157-1.992,19.8-3.93,28.752-11.89,36.412-23.937,12.544-19.826,10.948-40.013-.931-59.718h0C298.77,140.8,261.98,135.044,233.685,144.6ZM316.1,165.8h0l-.064-.1Z" transform="translate(224.235 170.927)" fill="#212121" fill-rule="evenodd"/>
    <path id="Path_1224" data-name="Path 1224" d="M254.341,164.6c-.915-17.553-34.139-22.046-35.744-1.287-.7,9.07,7.214,14.153,15,16.408,11.181,3.24,25.908,8.627,22.828,19.792-6.279,22.753-45.354,14.487-42.261-1.957" transform="translate(250.786 185.891)" fill="#fff" fill-rule="evenodd"/>
    <path id="Path_1225" data-name="Path 1225" d="M234.9,148.613c10.367.1,20.99,6.743,21.159,17.08l-1.017,1.143c-1.713-1.532-.8-.338-1.509-3.105-3.027-10.831-20.05-14.428-27.982-7.47a12.413,12.413,0,0,0-3.338,12.395,12.576,12.576,0,0,0,5.286,6.363c4.116,2.709,7.4,3.119,13.3,5.122,9.692,3.309,20.366,8.83,19.222,19.044a20.159,20.159,0,0,1-3.489,8.652c-12.194,17.194-46.447,7.068-42.773-9.315l1.239-.86c.988,1.438.864,1.12.809,1.6-1.39,13.948,31.284,19.954,38.118,2.6a7.852,7.852,0,0,0-.492-8.256c-4.779-6.512-18.4-9.425-23.061-11.236-13.771-5.419-13.49-14.928-13.637-15.194C215.861,157.251,222.69,148.613,234.9,148.613Z" transform="translate(250.14 184.739)" fill="#212121" fill-rule="evenodd"/>
    <path id="Path_1226" data-name="Path 1226" d="M226.269,144.568c-.016,13.291-3.046,68.569-3.64,85.2" transform="translate(261.904 179.535)" fill="#fff" fill-rule="evenodd"/>
    <path id="Path_1227" data-name="Path 1227" d="M228.173,145.178c1.326,17.347.194,39.538-.828,56.99-.437,6.631-.7,10.358-2.826,28.242l-1.1,1.036-1.024-1.114c-.535-11.89-.457-21.193-.242-28.416,1.5-39.279,2.817-44.031,3.869-56.746L227.1,144.1Z" transform="translate(261.077 178.929)" fill="#212121" fill-rule="evenodd"/>
    <path id="Path_1228" data-name="Path 1228" d="M76.875,266.617s-19.154-.391-23.937-8.149c-11.528-18.69,33.97-30,45.681-11.053a9.356,9.356,0,0,1-.857,10.328C93.159,264.141,84.089,265.549,76.875,266.617Z" transform="translate(41.214 299.28)" fill="#fff" fill-rule="evenodd"/>
    <path id="Path_1229" data-name="Path 1229" d="M77.715,268.351a57.391,57.391,0,0,1-16.362-2.286c-5.106-1.683-8.689-4.054-10.355-9-5.762-17.036,29.7-27.241,45.6-14.466,10.724,8.615,5.378,20.027-7.575,23.8a75.068,75.068,0,0,1-11.307,1.953Zm.647-1.546c7.173-1.335,16.005-3.245,19.584-9.624h0a8.549,8.549,0,0,0,1.109-5.369,12.415,12.415,0,0,0-5.259-6.987h0c-14.226-10.008-47.362-1.349-38.724,13.769,2.572,4.42,10.381,6.443,15.39,7.383a40.542,40.542,0,0,0,7.9.828Z" transform="translate(40.299 298.265)" fill="#212121" fill-rule="evenodd"/>
    <path id="Path_1230" data-name="Path 1230" d="M121.342,304.291S102.19,303.9,97.4,296.142c-11.528-18.687,33.97-30,45.681-11.053a9.375,9.375,0,0,1-.855,10.33C137.626,301.817,128.556,303.225,121.342,304.291Z" transform="translate(98.42 347.747)" fill="#fff" fill-rule="evenodd"/>
    <path id="Path_1231" data-name="Path 1231" d="M122.184,306.017a57.316,57.316,0,0,1-16.362-2.273c-5.106-1.685-8.689-4.054-10.353-9-5.762-17.036,29.7-27.241,45.6-14.469,10.721,8.615,5.375,20.029-7.577,23.8a75.015,75.015,0,0,1-11.307,1.941Zm.649-1.543c7.173-1.335,16.005-3.247,19.584-9.626h0a8.545,8.545,0,0,0,1.107-5.369,12.407,12.407,0,0,0-5.259-6.985h0c-14.226-10.01-47.362-1.349-38.724,13.769,2.572,4.42,10.381,6.441,15.388,7.381a40.387,40.387,0,0,0,7.9.83Z" transform="translate(97.509 346.738)" fill="#212121" fill-rule="evenodd"/>
    <path id="Path_1232" data-name="Path 1232" d="M46.288,301.2s-19.151-.391-23.935-8.149c-11.528-18.69,33.97-30,45.681-11.053a9.356,9.356,0,0,1-.857,10.328C62.574,298.728,53.5,300.137,46.288,301.2Z" transform="translate(1.867 343.768)" fill="#fff" fill-rule="evenodd"/>
    <path id="Path_1233" data-name="Path 1233" d="M47.13,302.929a57.389,57.389,0,0,1-16.362-2.286c-5.106-1.683-8.689-4.054-10.355-9-5.762-17.025,29.7-27.23,45.592-14.457,10.724,8.615,5.378,20.03-7.575,23.8A74.874,74.874,0,0,1,47.13,302.929Zm.647-1.546c7.173-1.335,16.005-3.247,19.584-9.626h0a8.545,8.545,0,0,0,1.109-5.366,12.415,12.415,0,0,0-5.259-6.987h0c-14.226-10.008-47.362-1.349-38.724,13.769,2.572,4.42,10.381,6.441,15.39,7.383a40.542,40.542,0,0,0,7.9.828Z" transform="translate(0.952 342.762)" fill="#212121" fill-rule="evenodd"/>
    <path id="Path_1234" data-name="Path 1234" d="M192.841,307.189s-19.151-.391-23.937-8.149c-11.528-18.69,33.97-30,45.681-11.053a9.356,9.356,0,0,1-.855,10.328C209.127,304.713,200.055,306.121,192.841,307.189Z" transform="translate(190.401 351.475)" fill="#fff" fill-rule="evenodd"/>
    <path id="Path_1235" data-name="Path 1235" d="M193.684,308.919a57.386,57.386,0,0,1-16.36-2.286c-5.108-1.683-8.689-4.054-10.355-9-5.762-17.036,29.7-27.241,45.6-14.466,10.721,8.615,5.375,20.027-7.577,23.8a74.833,74.833,0,0,1-11.307,1.955Zm.649-1.546c7.173-1.335,16.005-3.247,19.584-9.624h0a8.567,8.567,0,0,0,1.109-5.369,12.425,12.425,0,0,0-5.259-6.987h0c-14.226-10.008-47.362-1.349-38.724,13.769,2.572,4.42,10.381,6.441,15.39,7.383a40.52,40.52,0,0,0,7.891.837Z" transform="translate(189.492 350.454)" fill="#212121" fill-rule="evenodd"/>
    <path id="Path_1236" data-name="Path 1236" d="M176.413,96.948c9.448,4.815,21.507,4.573,31.455,1.527-2.591,6.091-5.366,12.1-8.483,17.981-1.829,3.446-5.012,14.54-9.237,15.671-.057.016-1.793-5.75-1.911-6.093C184.907,116.367,184.967,118.862,176.413,96.948Z" transform="translate(202.448 118.273)" fill="#fff" fill-rule="evenodd"/>
    <path id="Path_1237" data-name="Path 1237" d="M177.127,96.717h0c9.283,4.235,20.407,3.64,30.232.707a1.79,1.79,0,0,1,2.037.247c.775.864.567,1.456.156,2.444-5.371,12.877-7.571,15.886-9.192,19.794a56.861,56.861,0,0,1-5.334,11.1c-1.173,1.6-3.3,3.738-5.163,3.137-.229-.229-.631-.176-.983-1.049-.043-.119-1.783-5.945-2.648-8.46-2.8-8.058-3.745-8.878-7.648-19.984-2.73-7.76-2.691-7.358-2.257-7.824a.686.686,0,0,1,.8-.112Zm15.018,35.136ZM178.46,99.367c7.522,17.3,7.362,15.463,10.2,22.423,3.318,8.259,2.444,8.5,3.13,7.644a37.6,37.6,0,0,0,4.237-8.314c2.952-7.294,3.921-7.721,9.331-19.808a46.148,46.148,0,0,1-20.009.064C178.113,99.625,177.9,98.082,178.46,99.367Z" transform="translate(202.054 117.871)" fill="#212121" fill-rule="evenodd"/>
    <path id="Path_1238" data-name="Path 1238" d="M192.544,117.087a19.492,19.492,0,0,0,7.641-4.013c7.191-6.757,12.162-23.713,11.75-30.593a175.143,175.143,0,0,1,17.181,3.448c-1.767,16.632-5.8,35.134-17.208,47.275-2.815,3-6.686,9.32-11.165,9.864-1.406.171-3.542-5.693-4.271-6.747a58.977,58.977,0,0,0-8.147-9.8C189.8,123.407,191.195,120.251,192.544,117.087Z" transform="translate(217.773 99.662)" fill="#fff" fill-rule="evenodd"/>
    <path id="Path_1239" data-name="Path 1239" d="M212.753,81.786c7.008,1.077,9.722,1.617,13.57,2.469,5.895,1.342,5.419.581,4.543,7.4-1.5,11.7-4.315,23.884-10.186,34.169a51.4,51.4,0,0,1-7.616,10.159c-3.055,3.519-6.491,8.5-11.053,9.4a2.515,2.515,0,0,1-2.79-1.043,29.136,29.136,0,0,1-2.95-5.716,13.928,13.928,0,0,0-1.635-2.6c-5.337-7.667-6.619-7.422-6.743-8.547.021-.416-.094-.034,1.523-3.341,3.382-6.933,2.918-6.585,3.471-6.809h0a22.654,22.654,0,0,0,5.309-2.488c5.526-3.734,9.009-12.852,10.794-19.3,3.267-11.913.958-12.027,2.515-13.431A1.658,1.658,0,0,1,212.753,81.786Zm-11.126,60.832-.03-.025.041.03-.034-.025.032.018-.041-.025h.025l-.037-.018Zm-.048-.039Zm6.53-37.189c-4.5,8.867-8.558,11.432-14.245,13.149-.505.146.281-.725-3.793,8.652a57.522,57.522,0,0,1,7.545,8.666c1.406,1.918,2.778,5.556,3.825,6.6,3.183-.766,6.372-5.419,8.613-8.144a65.021,65.021,0,0,0,4.829-5.885c7.79-10.986,11.126-25.865,12.747-39.122,0-.057.133-1.086.137-1.143-3.809-1.086-11.947-2.515-13.7-2.828A59.624,59.624,0,0,1,208.109,105.39Z" transform="translate(217.218 98.747)" fill="#212121" fill-rule="evenodd"/>
    <path id="Path_1240" data-name="Path 1240" d="M179.016,80.414c1.082-.064,1.283,7.42,1.454,8.917A51.578,51.578,0,0,0,184,105.266a27.68,27.68,0,0,0,12.615,12.962c1.459,3.736,2.9,7.481,4.429,11.2-1.6,2.73-11.615,19.632-15.518,21.036-1.434.514-5.529-4.616-6.363-5.488-10.975-11.6-17.409-29.724-18.063-44.863a145.4,145.4,0,0,1-.206-17.814C166.53,81.4,173.234,80.757,179.016,80.414Z" transform="translate(182.248 97.002)" fill="#fff" fill-rule="evenodd"/>
    <path id="Path_1241" data-name="Path 1241" d="M186.753,106.671a26.4,26.4,0,0,0,9.932,9.788c2.792,1.571,1.1-.732,6.37,12.02.727,1.749,1.079,1.006-4.127,9.317-2.186,3.466-7.545,11.837-10.922,14.112a3.052,3.052,0,0,1-3.741.2,14.4,14.4,0,0,1-2.675-2.238c-.953-.972-4.6-5.051-5.682-6.359A74.942,74.942,0,0,1,160.5,103.627c-.192-2.671-.823-20.327.229-21.651.327-.414.153-.487,6.905-1.111,8.881-.793,11.869-.645,12.1-.768C183.01,80.015,180.614,96.038,186.753,106.671ZM162.745,83.648a155.552,155.552,0,0,0,1.527,24.484,81.918,81.918,0,0,0,7.271,22.064,57.533,57.533,0,0,0,9.775,14.057A33.5,33.5,0,0,0,186,149c3.658-2.476,11.661-15.582,13.915-19.328-4.509-11.313-3.382-9.663-4.552-10.335-18.468-10.936-13.845-32.415-15.836-37.786-6.032.567-10.744,1.065-16.792,2.094Zm16.979-2.11h.066Z" transform="translate(181.508 96.595)" fill="#212121" fill-rule="evenodd"/>
    <path id="Path_1242" data-name="Path 1242" d="M244.962,244.853l2.463,1.166.928,2.561c-.716,6.91-.659,21.106-3.478,37.35-.915,5.158-2.179,10.362-2.515,11.508l-.638.915-1.02.229h-.018l-.853-.6c-.871-3.729.969,3.023,1.164-29.738.011-2.177.133-19.023.229-19.991l1.166-2.463,2.561-.928Z" transform="translate(283.734 308.549)" fill="#fff" fill-rule="evenodd"/>
  </g>
</svg>
