<svg xmlns="http://www.w3.org/2000/svg" width="644.382" height="591.259" viewBox="0 0 644.382 591.259">
  <g id="Meeting" transform="translate(-5.001 -16.951)">
    <path id="Path_418" data-name="Path 418" d="M172.679,76.039c-3.646-1.313-21.954-9.373-52.616-2.242a134.011,134.011,0,0,0-79.4,48.934c-22.354,28.56-44.73,92.519-17.9,134.6A54.393,54.393,0,0,0,61.968,282.1c2,.284,10.941-28.08,31.193-33.964a42.865,42.865,0,0,0-5.528-12.035c-.375-4.24,170.339-24.22,229.8-24.22,12.423-46.807,12.268-94.437,10.733-142.171a254.443,254.443,0,0,1-27.907-.973c-5.193-.667-29,65.119-36.1,72.216a.244.244,0,0,1-.3,0c-1.318-1.313-26.5-31.868-50.587-46.072C188.962,80.539,186.14,80.887,172.679,76.039Z" transform="translate(6.726 63.284)" fill="#e8505b" fill-rule="evenodd"/>
    <path id="Path_419" data-name="Path 419" d="M145.232,70.854a76.52,76.52,0,0,1,28.273,5.273c0,.444,10.639,2.711,23.554,9.219,23.885,12.283,38.937,22.443,67.59,55.018,7.333-9.475,27.469-64.808,34.348-71.256,1.946-1.778-.044-.313,18.09.022,6.335.1,9.675.013,11.915.013a1.182,1.182,0,0,1,.971.927c.32,2.4,1.393,42.87.34,64.49a362.191,362.191,0,0,1-10.088,74.954c-.947,3.842-.982,3.706-1.333,4.022h0c-.889.576-.918-.073-21.092.824,0,.222-64.759,2.624-164.431,15.683-7.073.929-36.426,4.815-43.256,7.1a43.926,43.926,0,0,1,4.766,10.506c.247.862.444,1.333-.122,2.015h0c-1.629,1.411-12.966,1.162-26.8,26.793-4.706,8.768-3.617,8.024-9.368,6.866a55.307,55.307,0,0,1-34.046-21.5c-17.534-24-17.247-56.938-9.57-85.771,9.555-35.313,28.533-64.413,59.177-83.871C97.018,77.749,125.2,70.752,145.232,70.854Zm-16.785,2.711C83.768,81.12,49.813,106.1,30.95,141.4-.847,201.43,7.79,273.08,62.281,281.346c3.164-4.375,11.73-27.176,29.9-33.477a41.828,41.828,0,0,0-4.666-9.877c-.4-.638-.889-1.2-.318-2.133a5,5,0,0,1,2.682-1.431c19.792-5.831,170.326-23.08,227.168-23.278C328.93,165.9,329.128,118.11,327.661,71.5a240.483,240.483,0,0,1-26.793-1.04c-5.211,2.335-28.707,65.288-35.442,71.727a1.142,1.142,0,0,1-1.249.211c-1.011-.493-23.714-28.886-46.7-43.876a238.61,238.61,0,0,0-28.664-15.69c-4.829-2.053-8.888-3.231-15.674-5.688h0a83.327,83.327,0,0,0-44.69-3.582Z" transform="translate(6.082 62.683)" fill="#212121" fill-rule="evenodd"/>
    <path id="Path_420" data-name="Path 420" d="M62.638,71.327c26.887-4.744,42.943,2.309,46.332,3.529,7.377,2.666,11.555,3.755,17.839,6.564-2.329,23.356-1.778,10.148-7.111,87.275C102.921,139.71,71.748,87.057,62.638,71.327Z" transform="translate(70.435 64.467)" fill="#fff" fill-rule="evenodd"/>
    <path id="Path_421" data-name="Path 421" d="M89.453,69.671a83.55,83.55,0,0,1,23.414,5.7,153.7,153.7,0,0,1,14.723,5.351c1.938,1.031-.373-.689-4.724,66.519-.222,3.04-1.5,21.776-1.555,22.18a1.355,1.355,0,0,1-1.351,1.029c-1.111-.122-1.093-.629-2.742-3.455-.131-.222-52.885-91.088-54.784-95.066a.536.536,0,0,1,.413-.715l.02.107-.022-.116a98.291,98.291,0,0,1,26.609-1.535ZM63.8,72.151c11.332,19.156,15.217,24.482,55.144,92.468,5-71,4.56-60.013,6.855-82.044-4.024-1.813-8.426-3.3-12.59-4.748C104.765,74.833,90.495,67.907,63.8,72.151Z" transform="translate(70.143 64.057)" fill="#212121" fill-rule="evenodd"/>
    <path id="Path_422" data-name="Path 422" d="M84.715,130.277C85,123.063,84,94.209,84.144,89.614a40.378,40.378,0,0,0,6-.742s3.075,7.182,5.844,14.832c-1.275,16.3-1.5,26.458-2.653,43.108h0l.107-1.544C90.83,140.768,87.877,135.695,84.715,130.277Z" transform="translate(96.699 87.89)" fill="#212121" fill-rule="evenodd"/>
    <path id="Path_423" data-name="Path 423" d="M93.753,93.135c.875,2.173,2.5,6.182,3.544,9.039,1,2.633.782,1.182.36,7.493-.64,8.282-1.224,22.172-2.553,37.161-.071.824-.04,1.664-1.111,1.709a1.022,1.022,0,0,1-.942-1.071h.02v-.031l-.029.029.056-.775h-.02c.04-.889.76.784-5.893-11.366-2.415-4.413-2.275-4.069-2.3-4.349h0c0-8.139-1.149-27.389-1.282-37.372-.1-3.7-.053-3.74.4-4.222.58-.444.713-.276,1.744-.349C92.751,88.431,90.924,86.434,93.753,93.135ZM86.116,91.6c0,.236.322,37.484-.149,39.27.258.431,5.631,9.064,7.277,11.8.778-17.025.847-21.176,2.071-38.05.222,0-5.2-13.319-5.288-13.541C89.038,91.235,87.078,91.54,86.116,91.6Z" transform="translate(95.996 87.171)" fill="#212121" fill-rule="evenodd"/>
    <path id="Path_424" data-name="Path 424" d="M66.678,109.526a157.5,157.5,0,0,1-2.006,18.028c-2.4,14.093-8.928,33.727-16.58,46.147a50.919,50.919,0,0,1-4.628,6.687c-.546.553-.963.5-1.209.2l.083-.778.8.083a.536.536,0,0,0-.642-.142h.016l-.037.022.018-.013-.028.018.018-.014-.021.016.025-.025h-.014c1.768-1.725,12.564-21.716,19.421-51.341,4.513-19.687,2.885-18.365,4.283-19.5Z" transform="translate(44.67 112.388)" fill="#212121" fill-rule="evenodd"/>
    <path id="Path_425" data-name="Path 425" d="M121.852,99.9c.082-.387.1-.256.049-.478h0l-.02-.047.013.013-.013-.02h0c3.65,4.061,8.6,6.805,11.039,11.69a16.729,16.729,0,0,1,1.662,5.528l-.529.551-.542-.533v-.024h0v0l-1.851-3.816-3.378-4.2s-5.436-4.394-7.224-8.35c-.047-.1-.147-.318-.2-.467v-.064h0v-.1a.623.623,0,0,1,.042-.18h0l.04-.084h0l.753-.178h0Z" transform="translate(143.861 98.247)" fill="#212121" fill-rule="evenodd"/>
    <path id="Path_426" data-name="Path 426" d="M93.8,100.574c-3.291.82-3.793,1.478-4.48.793a87.633,87.633,0,0,0-9.435-7.017c2.993-5.7,6.257-13.872,6.944-15.11A23.192,23.192,0,0,0,89.6,80.273c3.246,3.364,6.151,6.244,7.068,7.088C96.366,90.912,96.477,99.9,93.8,100.574Z" transform="translate(91.507 76.12)" fill="#212121" fill-rule="evenodd"/>
    <path id="Path_427" data-name="Path 427" d="M90.394,79.64c.782.242.582.158,2.044,1.675,6.5,6.728,5.924,6,6.088,6.522A51.861,51.861,0,0,1,96.809,99.3c-.4,1.033-1.018,2.251-2.124,2.526h0c-5.753,1.815-3.264,2.06-7.644-1.007-6.7-4.691-8.068-4.5-7.664-6.119.184-.411-.071.173,1.3-2.684h0c1.484-3.02,5.226-12.261,5.917-13.023C87.61,78.173,88.075,78.9,90.394,79.64Zm3.977,21.149h-.013l.049-.018h0l.033-.016h0a1.434,1.434,0,0,0,.222-.156s.093-.1.1-.1l.013-.02.02-.02c1.464-2.2,1.333-8.8,1.333-11.843-.222-.222.413.4-1.889-1.758h0c-5.9-5.728-3.9-4.32-6.055-5.144-.5,1.111-3.3,7.684-5.2,11.421h0c-.222.444-.7,1.364-.813,1.587.516.378,2.344,1.6,5.333,4.022a26.731,26.731,0,0,1,3.111,2.866l-.027-.018.02.016.013.016L90.6,101.6l.033.022-.027-.016.027.018-.033-.013.027.013-.033-.011h.04c.444,0,1.76-.478,3.713-.858h0Z" transform="translate(90.812 75.373)" fill="#fff" fill-rule="evenodd"/>
    <path id="Path_428" data-name="Path 428" d="M86.381,72.628c5,1.718,8.626,2.849,13.452,4.973a97.2,97.2,0,0,1-.767,19.583c-.027.369-.373,5.111-.407,5.1-1.093-.547-2.411-2.624-3.462-3.466A123.865,123.865,0,0,1,84.255,88.342c.889.251,1.493.3,1.744.089C88.681,86.227,87.433,78.041,86.381,72.628Z" transform="translate(96.852 68.039)" fill="#fff" fill-rule="evenodd"/>
    <path id="Path_429" data-name="Path 429" d="M86.115,87.684h0l.013-.018.02-.02.013-.02.022-.02c2.7-4.057-.136-14.443.509-15.088l.073-.053a.562.562,0,0,1,.367-.071l.089.022h0a136.922,136.922,0,0,1,13.488,4.4c1.075.444.864.784,1.073,3.491a81.513,81.513,0,0,1-.564,15.752c-.68,6.5-.184,6.888-1.127,7.642h0c-1.749.991-3.189-1.722-4.86-3.333A88.123,88.123,0,0,1,85.9,91.479c-2.178-2.342-2.093-2.149-2.191-2.749a1.207,1.207,0,0,1,.9-1.253C85.309,87.362,85.393,87.613,86.115,87.684Zm1.4,1.833c1.7,1.729,5.426,5.38,7.808,7.395a15.969,15.969,0,0,1,2.889,2.711,156.107,156.107,0,0,0,1.262-17.159c0-.491,0-3.38-.053-3.875C97.139,77.365,88.635,74.123,87.8,73.8c.942,4.055,2.811,12.923-.284,15.721Zm-1.555-1.707h.013l-.033.029h.013l-.029.02.056-.042Zm.027-.016Z" transform="translate(96.18 67.746)" fill="#212121" fill-rule="evenodd"/>
    <path id="Path_430" data-name="Path 430" d="M78.1,69.794c1.933,3.273,23.765,16.781,33.506,20.98-.951,1.727-6.864,16.79-10.141,20.069-.547.609-26.589-21.085-36.908-31.4a40.194,40.194,0,0,1-4.96-6.826,111.6,111.6,0,0,1,18.5-2.82Z" transform="translate(66.722 64.576)" fill="#fff" fill-rule="evenodd"/>
    <path id="Path_431" data-name="Path 431" d="M78.768,69.559l.073.027a.548.548,0,0,1,.142.089l.062.06.047.067h0c1.911,3.124,26.193,16.912,27.058,17,6.666,3.455,6.366,2.842,6.973,3.493a1.251,1.251,0,0,1,.1,1.409c-.327.833,1.287-3.009-3.537,8.124-.918,2.055-5.271,11.988-7.433,12.637-.791.078-.964-.193-1.691-.54-2.909-1.453-18.912-15.383-21.092-17.274C62.7,79.792,62.821,79.2,59.379,73.521a.989.989,0,0,1-.109-1.053c.327-.52.6-.491,1.415-.667A108.743,108.743,0,0,1,78.768,69.559ZM61.685,73.5c2.889,4.389,3.171,4.593,9.361,10.19,6.188,5.555,23.8,20.943,30.622,25.758a123.217,123.217,0,0,0,8.784-17.776A172,172,0,0,1,92.294,81.231C90.487,80.074,79.242,72.6,78.357,70.657A113.39,113.39,0,0,0,61.685,73.5Z" transform="translate(66.192 64.289)" fill="#212121" fill-rule="evenodd"/>
    <path id="Path_432" data-name="Path 432" d="M96.979,74.976a257.708,257.708,0,0,1,23.154,12.512c-3.977,9.519-7.024,17.025-15.239,33.813-.462.953,11.4,1.413,13.257,3.264.48.478-30.749,70.39-30.851,70.612a1.577,1.577,0,0,1-.144.551c-.222.222-.067-.107.144-.551,1.167-7.2,5.5-82.033,8.222-106.5C96.028,84.1,96.524,79.538,96.979,74.976Z" transform="translate(100.264 70.909)" fill="#fff" fill-rule="evenodd"/>
    <path id="Path_433" data-name="Path 433" d="M110.528,81.018c.222.12,10.666,5.8,11.064,6.315.282.551.267.287-1.622,4.942-6.488,15.623-5.917,14.088-12.748,28.751,3.709.778,10.541,1.015,12.626,3.015.689.978,1.391-.353-13.183,32.731-16.93,38.266-16.888,37.855-16.888,38.079h0a9.255,9.255,0,0,1-.387.915h0c-.149.313-.067.747-.584,1.258h0a1.386,1.386,0,0,1-1.778.171h0a1.373,1.373,0,0,1-.516-1.555c1.518-5,3.777-62.353,10.292-117.006.389-3.513.253-3.893.962-3.9a.614.614,0,0,1,.178.044c-.184.411-.236.518,0,0C101.167,76.178,105.973,78.52,110.528,81.018ZM98.18,76.18c-4.115,43.27-4.637,67.4-8,111.08,2.269-5.222,25.269-56.406,27.233-61.837-1.911-.955-9.959-1.664-11.912-2.413a1.649,1.649,0,0,1-.964-.873c-.5-1.622,1.26-1.438,15.268-34.015a231.666,231.666,0,0,0-21.614-12.03Z" transform="translate(99.525 70.615)" fill="#212121" fill-rule="evenodd"/>
    <path id="Path_434" data-name="Path 434" d="M135.855,180.51c-20.554-12.443-60.819-37.621-61.226-38.843-.987-2.962,15.739-18.276,15.29-19.167-.569-1.142-35-36.886-41.228-43.259a166.077,166.077,0,0,1,30.991-8.806c9.11,15.73,40.283,68.383,57.062,97.368C136.433,172.329,136.133,176.613,135.855,180.51Z" transform="translate(53.391 65.359)" fill="#fff" fill-rule="evenodd"/>
    <path id="Path_435" data-name="Path 435" d="M74.715,143.445a1.84,1.84,0,0,1-.5-1.942c.931-4.046,11.592-14.086,14.817-18.021.109-.133.116-.082-.049-.267-4.1-4.569-22.274-23.409-26.618-27.927-15.39-15.968-14.121-14.4-14.274-15.15a1.353,1.353,0,0,1,.838-1.415,168.462,168.462,0,0,1,31.26-8.873,1.347,1.347,0,0,1,1.4.649c14.283,24.665,20.625,34.764,56.484,97.7.142.316.18-.711-.813,11.606-.122,1.493-.031,1.753-.5,1.953a.555.555,0,0,1-.184.024h-.1a.794.794,0,0,1-.169-.069c.2-.329.524-.853,0,0C131.372,178.8,78.868,147.261,74.715,143.445ZM51.828,80.49c.116.116.915.942,1.029,1.06,41.894,43.319,39.119,41.212,39.09,41.814-.144,1.3-1.651,2.493-8.595,9.926-1.413,1.52-6.177,6.628-6.793,8.633,5.431,4.457,53.718,34.726,59.551,38.384.08-1.111.371-6.177.7-11.608-.222.022-47.254-79.151-57.073-96.034A166.531,166.531,0,0,0,51.819,80.49Z" transform="translate(52.648 64.621)" fill="#212121" fill-rule="evenodd"/>
    <path id="Path_436" data-name="Path 436" d="M91.638,120.6a.779.779,0,0,1,.134.115l.054.071.039.075h0c.09.315-.32,1.445-.516,3.841-.939,7.784-.583,26.29-.583,46.672l-.583.577-.663-.511c-.093-.526-.738-5.17-.774-5.472a138.311,138.311,0,0,1-.356-35.339c.142-.85.575-3.934.725-4.165a37.211,37.211,0,0,1,1.521-5.515v.1l.039.169c.294.346.258.457.08-.5l.89-.12Z" transform="translate(98.539 126.708)" fill="#212121" fill-rule="evenodd"/>
    <path id="Path_437" data-name="Path 437" d="M90.367,137.484a20.417,20.417,0,0,1,.458-6.319,1.358,1.358,0,1,1,2.42,1.231,32.583,32.583,0,0,0-.162,4.866,1.367,1.367,0,1,1-2.715.222Z" transform="translate(104.234 138.666)" fill="#212121"/>
    <path id="Path_438" data-name="Path 438" d="M74.584,200.644c-3.171,35.3-13.286,113.513-19.021,152.03-1.555,10.464-1.444,10.013-2.022,10.686-1.953,2.242-9.064,1.333-11.806.344-1.344-.489-1.829-.744-2.044-1.989-1.6-10.641,8.517-136.355,8.861-155.727.047-2.786,0-2.486-.318-3.191.122-.316.258-.542.616-.6a.615.615,0,0,1,.18.013c.693.167.736,1.02.667,6.164-.6,34.011-8.377,142.568-7.368,152.667a17.214,17.214,0,0,0,9.033.624c.975-.622,20.207-143.844,22.154-161.133l.591-.489ZM49.106,203.25Z" transform="translate(42.184 223.749)" fill="#212121" fill-rule="evenodd"/>
    <path id="Path_439" data-name="Path 439" d="M274.4,189.436c-1.555,3.469,12.106,147.221,12.652,179.881a12,12,0,0,1-.422,4.691c-1.049,1.538-6.751,2.051-8.888,2.051a7.556,7.556,0,0,1-4.126-.951c-1.08-.782-.975-.929-1.975-7.568-6.082-40.019-16.516-122.388-19.554-155.587l.48-.6.591.489c3.333,29.922,18.6,139.182,22.056,161.078h0c1.987.92,6.759.222,9.088-.562,1.689-2.406-13.519-181.867-10.781-183.454l.1-.033.1-.013C274.124,188.891,274.264,189.076,274.4,189.436Zm-.942.433a.519.519,0,0,0,.222.089l-.245-.109Z" transform="translate(301.95 210.077)" fill="#212121" fill-rule="evenodd"/>
    <path id="Path_440" data-name="Path 440" d="M229.137,296.352c.411-.411-.222-34.282.578-41.788l.6-.476c.575.722.48.489.444.984-.222,5.048.593,25.725.815,36.71.062,5.8.258,6.206-1.182,6.782a37.412,37.412,0,0,1-8.484.6,1.284,1.284,0,0,1-1.222-.978c-.069-.431-.027-.147,0-1.126v-1.915c-2.558,0-39.9,9.395-48.529,9.395-1.464-.091-2.4-.462-2.4-2.055,0-11.692,20.016-21.094,30.913-25.458v-.344c.222,0-.082-22.412.644-22.992h0a.6.6,0,0,1,.327-.1h.087a.743.743,0,0,1,.164.06h0l.222.733h0a.575.575,0,0,0,.047-.136v-.02c0,11.137.711,23.331.211,24.085a125.694,125.694,0,0,0-20.121,10.915,30.953,30.953,0,0,0-8.288,8.1,9.5,9.5,0,0,0-1.575,4.582c3.966,0,17.647-2.98,21.512-3.8,27.722-6.055,28.424-6.444,29.231-4.826a19.454,19.454,0,0,1,.149,3.333A40.107,40.107,0,0,0,229.137,296.352Zm-.04.584v-.013h0Zm0-.02ZM201.375,254.6c.684-.04.529.013.724-.222Z" transform="translate(201.342 289.181)" fill="#212121" fill-rule="evenodd"/>
    <path id="Path_441" data-name="Path 441" d="M233.352,261.963c4.577,5.084,4.3,4.1,3.293,6.173-3.949,7.71-9.29,21.4-8.717,30.166a10.347,10.347,0,0,0,1.933,5.8,53.492,53.492,0,0,0,4.7-5.18c7.139-8.748,6.753-8.855,6.975-8.855,18.774-24.476,19.261-26.376,21.227-25.553a19.215,19.215,0,0,1,2.289,2.444,38.73,38.73,0,0,0,4.273-4.015c-.424-.5,1.055,1.187-3.766-4.548-2.444-2.855-20.843-24.271-22.856-27.313-.193-.309-.171-.093,0-.973.889.171.689.076.889.344,1.68,2.54,20.549,22.7,27.64,30.962,1.269,1.622,1.4,2.235-3.737,6.819-1.88,1.611-2.044,2-3.022,1.8-.584-.244-.222-.022-2.355-2.5-.784.667-8.468,11.059-18.443,24.174h0c-1.571,2.044-5.111,6.562-6.455,8.177h0a67.326,67.326,0,0,1-5.277,5.9c-1.08.927-2.193,1.8-3.315.889a10.481,10.481,0,0,1-2.531-4.18c-2.913-8.2,2.7-22.911,6.471-30.629,2.742-5.74,2.731-4.844,2.333-5.308h0c-14.923-17.759-14.565-17.459-14.49-17.863h0a.6.6,0,0,1,.18-.289l.071-.053a.708.708,0,0,1,.164-.06h0l.642.416C221.5,248.462,219.837,246.84,233.352,261.963Zm36.317,1.458v-.016h0Zm0-.02Zm-48.587-14.068c.493-.476.411-.333.411-.638Z" transform="translate(263.211 260.486)" fill="#212121" fill-rule="evenodd"/>
    <path id="Path_442" data-name="Path 442" d="M99.154,263.943c2.058,29.5,5.437,79.751,7.333,100.594h0a17.128,17.128,0,0,0,8.984.089c1.9-.473,1.475-146.539,3.535-158.023.24-1.264,1.127-1.2,1.4-.313a2.188,2.188,0,0,0-.418,1.442c-1.135,13.448.469,133.989-1.5,155.643-.127,1.347-.2,2.851-1.129,3.393a18.037,18.037,0,0,1-7.044,1.124c-.264,0-.822-.027-1.024-.029-1.922-.131-4.535-.469-5.308-2.222-1.055-2.591-8.73-118.457-9.719-163.267C95.94,200.557,94.627,198.646,99.154,263.943ZM119.5,206.692Z" transform="translate(109.084 225.856)" fill="#212121" fill-rule="evenodd"/>
    <path id="Path_443" data-name="Path 443" d="M226.388,200.3c-.913,41.365-8.466,161.689-10.015,163.764-1.8,2.364-8.946,1.944-11.757,1.142-1.373-.4-1.875-.622-2.173-1.846-2.3-10.466-.624-151.283-1.871-158.518-.362-.682-.362-.547-.276-.769.251-.667,1.082-.791,1.333.338,2.1,9.79,1.569,147.226,3.4,158.1a16.782,16.782,0,0,0,9.139-.04c.455-.52,9.764-131.249,11.146-162.209l.556-.527Zm-25.245,4.32h.011Z" transform="translate(238.602 223.372)" fill="#212121" fill-rule="evenodd"/>
    <path id="Path_444" data-name="Path 444" d="M112.134,260.582c.413-.444-7.855,16.156-6.911,16.992,2.911,2.613,37.259,30.031,46.818,31.593.829.136,3.006-4.5-.387-9.777-2.418-3.778-17.032-28.775-18.858-29.271" transform="translate(122.384 297.716)" fill="#212121" fill-rule="evenodd"/>
    <path id="Path_445" data-name="Path 445" d="M133.183,270.941l-.02-.013.02.013-.027-.02.02.013-.027-.013.027.013-.02-.013h.013l-.353-.667h0l.678-.353c1.131.378,4.493,5.373,5.16,6.362,2.635,3.809,14.239,21.776,15.457,24.207a9.7,9.7,0,0,1,.029,9.49c-.7.8-1.251,1.133-3.144.5-12.7-4.242-45.661-30.951-46.218-32.277-.527-1.578,1.915-6.3,5.688-14,1.778-3.537,1.431-2.911,1.635-3.32h0a.531.531,0,0,0,.049-.109v-.007a.354.354,0,0,1-.016.122v.116l.113.238.022.013c0-.809-.064-.782.258-.889l.087-.02a.622.622,0,0,1,.184.013l.089.027.073.042a.708.708,0,0,1,.129.116h0a.52.52,0,0,1,.129.3v.1a1.94,1.94,0,0,1-.1.347h0c-.513,1.375-5.517,12.426-6.3,15.554-.184.693-.64.122,3.415,3.284,8.126,6.346,28.131,21.345,37.424,26a22.708,22.708,0,0,0,4.555,1.9h0l.02-.033a7.7,7.7,0,0,0-.222-5.853c-.418-.889-14.052-24.836-18.77-31.124l-.02-.013-.033-.033h-.013l.013.013Zm-26.489,6.679v-.044h0v.04h0Zm5.953-16.221.273-.049a.76.76,0,0,0,.142-.093c-.889,0-.813-.056-.422.153Z" transform="translate(121.842 297.418)" fill="#212121" fill-rule="evenodd"/>
    <path id="Path_446" data-name="Path 446" d="M132.658,274.067c.013-.611,4.846,17.3,6.106,17.3,3.913.022,47.8-2.262,56-7.435.709-.444-.733-5.357-6.777-7.057-4.306-1.213-31.835-10.221-33.531-9.381" transform="translate(156.002 306.1)" fill="#212121" fill-rule="evenodd"/>
    <path id="Path_447" data-name="Path 447" d="M132.481,274.609c.2.222.038.133.4.282h.024l-.491-.553a1.015,1.015,0,0,1,.022-.138l.029-.062a1.365,1.365,0,0,1,.1-.151l.071-.064h0a.738.738,0,0,1,.16-.087l.082-.018a.752.752,0,0,1,.173,0h0a.555.555,0,0,1,.3.142c.313.355,4.02,12.526,5.677,15.916.284.6.251.487.367.718.187.262,44.192-2.586,54.416-7.193l.016-.013h0v-.038c-.038-.091,0-.035-.047-.124v-.038l-.022-.044V283.1a2.619,2.619,0,0,0-.122-.291,8.383,8.383,0,0,0-4.591-4.022c-.222-.089-32.46-10.915-34.028-10.495H155l-.709-.269h0c.262-.684.187-.8.636-.809,2.346-.629,33.084,8.428,35.482,9.333,5.444,2.444,6.862,6.913,5.859,8.375a15.462,15.462,0,0,1-5.8,2.529c-11.057,3.14-36.55,4.955-49.24,5.224-2.775.056-2.889.327-3.94-2-1.9-4.628-4.537-15.712-4.735-15.934a.571.571,0,0,0-.036-.113v.02Zm7.077,16.234.013.016h.02l-.018-.022.018.022-.022-.027h-.02Zm-6.584-15.974c.376-.093.269-.022.484-.293C133.539,274.331,133.583,274.331,132.974,274.869Z" transform="translate(155.699 305.793)" fill="#212121" fill-rule="evenodd"/>
    <path id="Path_448" data-name="Path 448" d="M167.81,59.86a3.422,3.422,0,0,1,2.8,2.078A7.438,7.438,0,0,1,171.2,64.1c.6,5.622-2.26,26.3-3.253,29.318-.169.287-.249.431-.529.458l-.6-.464.462-.6-.109.029-.089.042c-.162.127-.056.049-.142.14h0V93l-.013.018.013-.018-.013.016.013-.024v.016a192.736,192.736,0,0,0,2.282-26.9,6.249,6.249,0,0,0-.922-3.686h0a.975.975,0,0,0-.482-.269h-.122l-.082.029h-.013l-.027.011a1.018,1.018,0,0,0-.116.073,13.463,13.463,0,0,0-2.573,6.091c-.282,1.287-.511,3.706-.733,4.242a1.28,1.28,0,0,1-2.4-.384c0-4.289.122-3.373.122-4.9h0c0-.871.156-2.6.244-3.664.187-2.138.169-3.2.182-3.455a7.885,7.885,0,0,0-.611-4l-.04-.053v-.018l-.06-.011V56.1l-.013-.016v-.013l-.029-.024h0l-.013-.011h-.013l-.013-.016h-.013l-.036-.031c-.018,0-.04-.022-.06-.031h-.013c-.249-.124-.469,0-.693.127-1.915,1.724-2.5,6.515-2.62,9.057a19.374,19.374,0,0,1-.32,3.666c0,1.2.191,1.847-.644,2.471a1.353,1.353,0,0,1-1.682-.222,1.569,1.569,0,0,1-.4-1.2,7.707,7.707,0,0,1,.022-1.364,17.751,17.751,0,0,1,.067-3.475,34.4,34.4,0,0,0-1.333-14.208h0a.832.832,0,0,1-.053-.08v-.016l-.042-.049v-.016l-.027-.027v-.013l-.067-.056h-.027l-.02-.022h-.016l-.013-.011h0l-.02-.011h-.06a1.778,1.778,0,0,0-1.053.584,10.681,10.681,0,0,0-.964,4.826,37.47,37.47,0,0,0-.407,4.24c-.509,11.032-.047,13.219-2.164,13.47h0c-.944.076-1.407-.444-2.566-.629a16.124,16.124,0,0,0-3.009-.162,5.089,5.089,0,0,0-2.993.76h-.013v.011l-.013.011-.013.018-.013.011-.042.053h0l-.02.024h0l-.013.018v.016h0v.289l.013.044v.022l.02.076.013.027v.029l.013.027v.031l.029.06c.062.3.4.78,1.467,1.622.735.538,4.184,2.638,3.842,2.444.416.353,2.444.52,2.646,1.984.222,1.682-1.069,10.812-.767,12.3,0,.556.249.722-.047,1.111l-.069.06a.549.549,0,0,1-.327.113c-.427-.029-.338-.14-.407-.591l-.142.08v.069c-.54-2.222.182-7.73.182-12.875-.6-.3-1.035-.367-1.751-.68-2.993-1.642-7.071-3.482-6.686-6.593a3.555,3.555,0,0,1,2.986-2.444,14,14,0,0,1,6.993.178c.322-2.709.129-12.283.667-15.25a13.333,13.333,0,0,1,1.3-6.2,3.829,3.829,0,0,1,4.486-1.591c2.1,1.051,2.509,4.406,2.96,7.508a3.929,3.929,0,0,1,4.562-2.258c2.764.984,2.851,4.666,2.777,7.57-.031,1.18-.2.747.651-.069A3.04,3.04,0,0,1,167.81,59.86ZM146.576,80.571Zm0,0h0V80.54Zm2.091-9.281Zm0,0Zm-.013,0Zm-.027,0Z" transform="translate(162.718 37.827)" fill="#212121" fill-rule="evenodd"/>
    <path id="Path_449" data-name="Path 449" d="M259.457,77.776c-.035-.049,3.631-4.331,5.051-4.569a13.525,13.525,0,0,1,4.533-.133c4.6.92,6.444,8.817,5.473,12.666a9.663,9.663,0,0,1-6.273,5.6c-.475.093-3.733.533-3.733.533s-6.293,6.393,1.173,16.176c.638.838-12.368.287-14.525,8.455-2.573,9.724,12.221,7.864,12.279,7.919.122.12-7.942,16.61-3.151,21.354,6.222,6.162,16.13-5.977,16.221-5.877.149.149,2.762,7.062,3.306,8.155,3.006,6,8.681,7.308,15.639,5.453,7.5-2,5.333-13.741,5.333-13.741s8.5,9.735,19.45,6.962a5.242,5.242,0,0,0,3.5-5.628c0-3.28-6.517-12.408-6-12.408.862,0,20.29,2.538,24.145-4.535,2.524-4.626,2.18-9.85-2.666-12.539a113.094,113.094,0,0,0-12.272-4.4,41.977,41.977,0,0,0,7.475-3.735c4.711-4.726,4.906-8.339,2.267-13.072-1.542-2.758-6.964-2.135-9.741-2.135-.535,0-3.149.849-3.469.533-.142-.147,1.922-3.3,2.335-4.266a8.85,8.85,0,0,0-.069-7.073,12.917,12.917,0,0,0-8-6.137c-1.111-.16-4.862.244-4.8.133,3.393-6.688-3.482-18.814-13.075-15.477a52.484,52.484,0,0,0,4.535-6.8,13.157,13.157,0,0,0-3.333-13.739c-4.026-4.026-11.888-4.324-16.81-2.135-1.333.593-3.984,3.069-5.333,3.069a30.014,30.014,0,0,0,2.8-7.2,12.017,12.017,0,0,0-7.6-10.539c-9.264-4.117-19.167,4.329-26.549,10.4a5,5,0,0,0-2.138-5.868c-3.924-3-12.87-6.062-17.745-4.666a5.36,5.36,0,0,0-3.733,7.333,27.25,27.25,0,0,0,4.271,4.535c-2.222-1.9-4.155-3.837-5.206-4.535-7.006-4.666-14.29-6.355-22.274-2.666-3.006,1.384-8.666,5.231-8.01,9.2.34,2.013,7.488,3.726,7.075,3.871-.693.238-4.773.278-5.873.4-5.064.562-15.959,4.822-14.805,11.739a7.937,7.937,0,0,0,6.537,5.6c.28.031,3.733.307,3.733-.267,0-.076-1.906,1.14-2,1.2a16.346,16.346,0,0,0-2.931,2.8,12.848,12.848,0,0,0-2.14,12.541c1.215,3.633,5.084,6.933,9.077,5.6a11.333,11.333,0,0,0,4.269-3.2c.082-.082,1.847-1.642,2-1.333.211.424-.86,2.122-1.071,2.535a3.333,3.333,0,0,0,2.538,5.068,7.257,7.257,0,0,0,4.935-1.867,24.709,24.709,0,0,0,8.4-12.141c.667-1.829,1.638-8.268,1.731-7.87.624,2.5,1.76,6.959,3.606,8.8,3.584,3.584,9.761,6.031,14.81,4.137a19.9,19.9,0,0,0,5.6-3.2c.407-.342,1.6-1.869,2.131-1.869a22.5,22.5,0,0,0,5.606,9.606C250.875,78.825,259.457,77.776,259.457,77.776Z" transform="translate(212.697 0.728)" fill="#212121" fill-rule="evenodd"/>
    <path id="Path_450" data-name="Path 450" d="M315.782,68.811a9.229,9.229,0,0,1-.273,1.96,9.173,9.173,0,0,1,6.517,1.269,14.221,14.221,0,0,1,5.859,6.282,10.251,10.251,0,0,1,.251,6.111,11.818,11.818,0,0,1-1.589,3.406h0c.253-.058.476-.107.733-.142s3.351-.116,4.793-.049c3.111.167,5.333.8,6.651,3.318a9.93,9.93,0,0,1-.107,11.01,20.171,20.171,0,0,1-2.846,3.369,25.343,25.343,0,0,1-4.424,2.426c2.271.755,5.384,1.778,7.73,2.778a10.541,10.541,0,0,1,4.331,3.086,10.7,10.7,0,0,1,0,12.286c-4.044,5.777-15.8,5.528-22.856,4.975,1.48,2.5,4.889,7.866,5.057,10.712,0,5.982-3.275,7.742-9.239,7.584a20.6,20.6,0,0,1-9.788-3.018c-3.971-2.4-3.686-2.989-3.686-2.4a19.269,19.269,0,0,1-.555,5.111,8.79,8.79,0,0,1-4.444,5.931,19.572,19.572,0,0,1-9.164,1.247,11.3,11.3,0,0,1-7.926-4.571,36.364,36.364,0,0,1-4.031-8.935,29.006,29.006,0,0,1-7.311,5.6,9.026,9.026,0,0,1-6.077.931c-8.637-2.284-4.182-14.6-.747-22.914-6.826.251-13.039-1.669-11.866-8.444,1.555-6.719,7.677-8.208,14.3-9.313a14.221,14.221,0,0,1-2.606-12.5,10.034,10.034,0,0,1,2.24-3.889h0c.351-.222,3.662-.507,4.406-.74a9.826,9.826,0,0,0,5.084-4.222c1.46-2.666.073-10.179-3.462-12.241a8.686,8.686,0,0,0-5.248-.373,1.266,1.266,0,0,0-.542.149,18.178,18.178,0,0,0-3.577,3.226h0c-.849.911-.691.831-.822.949h0a1.063,1.063,0,0,0,.047-.107v-.042c0,.513-1.053.473-1.922.509-10.152.364-15.094-3.822-18.036-12.512h0c-.045.033-.271.264-.311.3a12.729,12.729,0,0,1-1.3,1.309,14.483,14.483,0,0,1-17.981,1.353,12,12,0,0,1-6.075-8.313,29.473,29.473,0,0,1-4.031,11h0a21.109,21.109,0,0,1-7.379,7.364,5.255,5.255,0,0,1-5.606.353,4.159,4.159,0,0,1-1.48-1.351l-.042-.053a5.372,5.372,0,0,1-.264-.5,3.961,3.961,0,0,1-.347-1.484c0-2.151.98-1.933-1.207-.3-4.171,3.42-11.137,1.233-13.034-6.371a13.848,13.848,0,0,1,4.515-14.105c-5.031-.642-9.41-5.866-6.762-11.035,2.3-4.444,8.573-7.293,13.428-8.328,2.149-.444,2.458-.262,2.222-.329a6.471,6.471,0,0,1-2.4-1.778c-1.18-1.711-.244-4.222,1.033-6.019a19.521,19.521,0,0,1,6.075-4.986,21.36,21.36,0,0,1,19.143-.858c4.582,1.955,3.906,2.624,4,1.4a6.611,6.611,0,0,1,2.729-4.755c4.782-3.349,13.554-.6,18.7,2.078a9.246,9.246,0,0,1,5.368,5.664c4.849-3.886,9.777-7.857,15.945-9.41a14.706,14.706,0,0,1,14.868,4.386,12.861,12.861,0,0,1,2.491,4,10.931,10.931,0,0,1,.733,4.5,10.89,10.89,0,0,1-.849,2.871c-.547,1.413-.473.416,1.893-.58a19.723,19.723,0,0,1,10.732-.964,13.11,13.11,0,0,1,8.777,5.391,14.37,14.37,0,0,1,2.289,12.692,20.7,20.7,0,0,1-2.933,5.042C310.656,54.69,316.213,62.114,315.782,68.811ZM200.747,38.169c-2.84.72-6.626-.722-13.977,2.951a14.039,14.039,0,0,0-4.615,3.542,5.077,5.077,0,0,0-1.04,5.066,7.279,7.279,0,0,0,5.3,3.891,17.6,17.6,0,0,0,2.729.062,1.358,1.358,0,0,1,1.235-.267h0a1,1,0,0,1,.429.264h0a1.14,1.14,0,0,1,.291.533h0c.3,1.633-1.533,1.255-3.5,3.193a19.434,19.434,0,0,0-2.62,2.993,10.727,10.727,0,0,0-1.242,2.733,12.666,12.666,0,0,0,.7,8.735,7.981,7.981,0,0,0,3.693,3.593c5.182,2.326,7.7-4.531,10.2-4.38.651.087,1.111.613.9,1.571-.307,1.36-1.533,2.4-1.533,3.893v.244c.016.078.031.162.047.222l.013.031.013.062.013.033v.029l.016.031v.031l.093.2.022.029.027.058.02.027.013.029.02.027.013.029c1.911,2.553,5.028.427,7.475-1.609a20.094,20.094,0,0,0,3.944-4.666h0c4.242-7.035,3.524-10.326,4.548-13.677a.838.838,0,0,1,1.127-.642h0a.7.7,0,0,1,.189.109l.089.073h0c.273.324.149.176.687,2.244.267.96.538,1.915.827,2.72A8.908,8.908,0,0,0,219.959,67a16.421,16.421,0,0,0,6.937,3.413,12.463,12.463,0,0,0,10.421-2.569c1.947-1.333,2.693-3.022,3.806-2.8.729.244.493,1.3,2.031,4.531a15.529,15.529,0,0,0,4.351,5.7,18.781,18.781,0,0,0,12.03,2.742c.311-.024.042.138.975-.909h0a14.968,14.968,0,0,1,4.333-3.7,14.424,14.424,0,0,1,4.764-.222c4.611.875,6.637,7.313,6.355,12.052a6.131,6.131,0,0,1-.849,2.875,10.51,10.51,0,0,1-6.439,4.715c-.729.118-2.2.324-2.931.429h0l-.251.033h-.016a10.19,10.19,0,0,0-1.493,9.648c1.309,4.409,4.222,5.584,2.709,6.666-1.471.931-12.172.633-14.132,8.07a4.509,4.509,0,0,0,3.482,5.977,23.482,23.482,0,0,0,8.139.582.955.955,0,0,1,.727.529h0c.182.476.14.518-.444,1.913-1.809,4.222-5.413,13.754-3.591,18a4.222,4.222,0,0,0,1.9,2c2.769,1.569,6.244-.4,8.8-2.309,4.724-3.711,4.551-5.148,5.94-4.733h0a.966.966,0,0,1,.318.189c.54.522,2.838,6.922,3.606,8.484a12.2,12.2,0,0,0,1.147,1.86c3.333,4.169,7.984,4.326,13.2,2.966,4.711-1.333,5.213-7.6,4.46-12.381a1.2,1.2,0,0,1,2.078-1.035,20.423,20.423,0,0,0,15.912,6.957,7.079,7.079,0,0,0,3.637-1.06c.084-.093.171-.153.278-.284a5.1,5.1,0,0,0,.964-3.266,13.727,13.727,0,0,0-1.893-4.986c-3.222-6.04-4.511-6.728-4.046-8.142.836-1.478,1.382-.331,9.626-.331a28.065,28.065,0,0,0,12.348-2.222,6.04,6.04,0,0,0,2.993-3.8c1.578-4.633-.027-7.777-3.584-9.406-1.878-.844-4.3-1.664-6.253-2.324-5.706-1.887-5.333-1.555-5.811-2.135a1.315,1.315,0,0,1,.062-1.607c.331-.342.307-.293,1.5-.784a31.084,31.084,0,0,0,6-3l.047-.04a11.308,11.308,0,0,0,3.578-6.362,7.441,7.441,0,0,0-.413-2.7,13.31,13.31,0,0,0-1.278-2.666c-1.053-1.649-6.531-1.231-8.275-1.215-.355,0-1.929.478-2.924.584-1.726.173-2.322-1.062-1.9-2.02.431-1.111,1.88-2.971,2.606-4.966a9.018,9.018,0,0,0,.271-1.46,6.351,6.351,0,0,0-1.084-4.5,13.044,13.044,0,0,0-4.915-4.091c-1.971-.829-1.973-.467-5.94-.327a1.4,1.4,0,0,1-1.555-.962c0-.222-.124-.173-.02-.731a8.749,8.749,0,0,0,.767-2.48,11.7,11.7,0,0,0-3.06-8.935,8.144,8.144,0,0,0-8.153-2.713c-1.055.264-1.36.587-2.18.024a1.333,1.333,0,0,1-.34-1.669,60.354,60.354,0,0,0,4.444-6.608,9.916,9.916,0,0,0,.591-2.384,11.159,11.159,0,0,0-.258-4.1c-1.98-7.319-8.421-10.048-15.763-8.619-3.626.764-3.831,1.693-6.415,3.244a5.486,5.486,0,0,1-2.015.815,1.378,1.378,0,0,1-1.655-1.655,38.058,38.058,0,0,0,2.762-6.8v-.024a10.51,10.51,0,0,0-6-8.977c-8.63-4.444-17.7,3.111-25.136,9.155-.8.667-1.129,1.111-2.058.909a1.333,1.333,0,0,1-.835-1.778,3.566,3.566,0,0,0-.991-3.678c-3.475-3.3-14.761-7.375-19.027-4.2a3.835,3.835,0,0,0-1.16,4.666h0c.171.222-.093.029,1.1,1.36,2.835,2.944,3.02,2.56,3.251,3.475a1.3,1.3,0,0,1-.82,1.424,1.384,1.384,0,0,1-1.529-.407c-3.371-2.915-4.515-4.58-9.164-6.711a19.719,19.719,0,0,0-10.2-1.958c-6.917.667-12.543,5.18-13.6,7.935a2.929,2.929,0,0,0-.264,1.5v.189h0c.627,1.064,5.42,2.56,6.233,2.889a1.249,1.249,0,0,1-.016,2.407Zm59.886,40.3h0v.056Z" transform="translate(212.063)" fill="#212121" fill-rule="evenodd"/>
    <path id="Path_451" data-name="Path 451" d="M221.09,111.018c-7.468-2.171-7.179-6.3-9.926-8.426-.264-.207-7.155,8.542-16.814.771-3.033-2.444-3.055-6.393-2.193-9.986a38.475,38.475,0,0,0,1.638-3.624s-1.358.72-1.427.749a13.863,13.863,0,0,1-3.882.864c-3.951.493-8,.242-9.45-4.14-2.538-7.617,4.568-12.888,10.57-15.761,3.535-1.689,3.131-2.34,7.975-3.089,0,0-2.606-.349-3.882-.653a12.379,12.379,0,0,1-6.542-3.742c-2.078-3.124.767-6.906,2.858-9.1a17.441,17.441,0,0,1,13.312-4.731c4.429,13.046,10.961,30.811,23.4,36.717,3.333,1.582,9.193,2.5,9.606,2.913.964.958,1.555,11.266.875,11.941C234.978,103.954,224.314,109.4,221.09,111.018Z" transform="translate(212.032 40.515)" fill="#212121" fill-rule="evenodd"/>
    <path id="Path_452" data-name="Path 452" d="M203.333,49.526c1.931,0,1.709.311,2.553,2.7,3.089,9.133,7.942,21.64,14.554,28.62,6.113,6.793,11.555,7.033,16.4,8.517a1.675,1.675,0,0,1,1.276,1.111,36.385,36.385,0,0,1,.713,11.843c-.136.649-.5.889-1.291,1.482a99.349,99.349,0,0,1-10.752,6.073c-3.655,1.849-5.242,2.729-5.137,2.313l-.02.087c-7.148-1.927-7.275-5.38-9.715-7.908-.444-.464-7.022,8.542-17.5.5a8.444,8.444,0,0,1-3.129-6.637,15.344,15.344,0,0,1,.644-4.9c.444-1.011.836-.338-3.766.091-4.293.356-7.726-.52-9.43-4.491-2.7-7.382,1.864-12.821,8.628-16.694,1.733-.978,2.486-1.255,3.531-1.858,1.164-.653,1.247-.707,1.824-1.013-8.564-2.9-8.928-8.666-2.742-14.954A18.6,18.6,0,0,1,203.333,49.526Zm-8.47,39.861c1.862.835-.144,3.133-.829,4.753-.1.209-.067.173-.1.222,0,.222-1.458,4.717.591,7.69a12.637,12.637,0,0,0,5.98,3.969,10.113,10.113,0,0,0,9.253-2c1.589-1.189,1.567-1.5,2.222-1.442,1.111.34,2.649,3.2,3.706,4.706a7.389,7.389,0,0,0,2.758,2.429,17.454,17.454,0,0,0,3.284,1.442c2.984-1.542,12.848-6.779,15.485-9.195a21.471,21.471,0,0,0-.069-5.575c-.058-.56-.429-5-.978-5.168-5.744-1.5-13.688-1.8-22.129-14.568a111.168,111.168,0,0,1-11-24.442,17.8,17.8,0,0,0-8.2,1.94,13.683,13.683,0,0,0-4.684,4.171,5.98,5.98,0,0,0-1.569,4.862,3.022,3.022,0,0,0,.571,1.029,12.05,12.05,0,0,0,5.646,2.953c3.682.822,4.04.289,4.684,1.378a1.333,1.333,0,0,1-.4,1.62c-.444.28-.444.222-1.235.364a10.552,10.552,0,0,0-4.371,1.442c-4.8,2.58-11.657,5.526-12.888,11.544a8.457,8.457,0,0,0,.584,4.689c1.555,3.375,5.555,3.058,9.177,2.524a8.282,8.282,0,0,0,3.375-1.162,1.271,1.271,0,0,1,1.14-.173Zm41.421,1.778h0v-.016Zm0,0Zm0,0h0l-.013-.022Zm-42.943-.729Z" transform="translate(211.343 39.788)" fill="#212121" fill-rule="evenodd"/>
    <path id="Path_453" data-name="Path 453" d="M256.819,50.44a6.286,6.286,0,0,1,4,1.351,14.077,14.077,0,0,1,3.591,13.846,11.421,11.421,0,0,1-6.646,5.6c-.613.144-1.964.324-3.584.549h-.027a9.224,9.224,0,0,0-1.778,6.819,15.012,15.012,0,0,0,3.393,7.457,1.455,1.455,0,0,1-1.038,2.209c-1.835.5-8.8.927-11.935,4.642-1.653,1.982-2.426,5.36-.482,7.111a11.139,11.139,0,0,0,6.477,1.858c3.506.142,4.1-.576,4.84.667a1.4,1.4,0,0,1,0,1.178,52.157,52.157,0,0,0-4.522,15.194,7.359,7.359,0,0,0,.733,4.146,4.543,4.543,0,0,0,1.615,1.369c2.444,1.173,5.348-.269,7.584-1.833,4.177-2.964,4.911-4.973,6.177-5.333h0a1.333,1.333,0,0,1,.74.06h0c.751.358.807.76,1.289,1.949,2.091,5.362,2.746,7.57,4.555,9.515,1.407,1.493,1.944,1.207,2.173,2.273.056.94-.38,1.2-1.658,2.158a64.634,64.634,0,0,1-9.626,5.671c-11.706,5.537-24.611,7.733-36.921,3.4-6.208-2.209-10.033-5.162-15.876-9.693-.284-.222-2.035-1.567-2.322-1.835a1.216,1.216,0,0,1-.1-1.513c.5-.613,12.774-6.244,17.11-9.717a37.073,37.073,0,0,0-.151-7.395,14.416,14.416,0,0,0-.529-3.1c-1.133-.358-3.906-.924-6.706-1.822-15.221-4.986-22.258-26.247-27.269-41.754a36.218,36.218,0,0,1-1.778-7.151c-.082-.564-.133-.649,0-.92l.053-.073a1,1,0,0,1,.156-.122l.076-.031a.638.638,0,0,1,.182-.029h0a3.148,3.148,0,0,0,.64-.058h0a9.184,9.184,0,0,0,3.238-1.638,19.419,19.419,0,0,0,5.008-5.255,31.476,31.476,0,0,0,3.462-7.379c.444-1.555,1.233-6.564,1.467-7.3a.8.8,0,0,1,.444-.475h0a.6.6,0,0,1,.34-.064h0a.857.857,0,0,1,.249.056h0c1.064.509,1.309,6.666,4.249,9.248a16.363,16.363,0,0,0,7.488,3.877,10.55,10.55,0,0,0,6.591-.562c6.022-2.522,6.042-5.555,7.928-4.9.691.34.542.629,1.255,2.5a20.037,20.037,0,0,0,3.111,5.611,10.874,10.874,0,0,0,5.26,3.64,21.949,21.949,0,0,0,7.928.953c.733-.042.4.1,1.169-.747C251.908,50.824,252.861,50.364,256.819,50.44ZM203.19,39.348A26.951,26.951,0,0,1,196.239,53.8a15.636,15.636,0,0,1-6.788,4.384h0c-.271.044-.222-.042-.169.356a157.183,157.183,0,0,0,9.095,25.511c3.369,6.833,7.275,14.221,14.188,18.8,3.791,2.615,7.333,3.04,11.6,4.146,1.093.3,1.386.482,1.778,1.593.667,2.575,1.433,10.066.644,12.012-1.053,1.984-14.119,8.739-15.836,9.581,2.415,1.842,6.666,5.082,9.333,6.666,16.165,9.495,36.526,4.522,50.389-5.577a12.722,12.722,0,0,1-1.493-1.651c-1.624-2.255-1.627-2.813-3.944-8.588-4.131,4.042-10.021,8.526-15.063,5.682a6.666,6.666,0,0,1-3.5-5.5,27.982,27.982,0,0,1,1.744-10.855c.62-1.82,1.313-3.777,2.158-5.777-10.559.147-13.488-4.988-11.132-10.875,2.033-5.088,7.924-6.8,13.306-7.679a14.759,14.759,0,0,1-2.491-11.457,10.653,10.653,0,0,1,2.666-5.015c.684-.424,3.777-.556,4.666-.864a8.605,8.605,0,0,0,2.586-1.511,8.417,8.417,0,0,0,1.853-2.038c1.389-2.366.4-6.775-.822-9.286a5,5,0,0,0-3.426-2.938,14.857,14.857,0,0,0-3.9.169,10.957,10.957,0,0,0-2.422,2c-2.291,2.244-1.791,2.46-2.926,2.566a27.039,27.039,0,0,1-5.18-.087c-8.184-.982-11.486-4.869-14.323-12.31a18.3,18.3,0,0,1-7.677,4.6,14.174,14.174,0,0,1-9.421-.929,17.776,17.776,0,0,1-5.777-4.031,13.7,13.7,0,0,1-2.222-4.373c-.6-1.738-.451-1.667-.549-1.175Zm21.369,80.327Zm-.46-10.535h-.013Zm0,0h-.013Zm25.32-52.04.04-.062v-.02Zm.1-.2a.318.318,0,0,1,.022-.053Z" transform="translate(223.719 22.024)" fill="#212121" fill-rule="evenodd"/>
    <path id="Path_454" data-name="Path 454" d="M198.767,48.57v-.009l.013.033v-.02l.013.04v-.022l.022.047v-.016l.04.053v-.013l.089-.767.767.091a1.708,1.708,0,0,1,.258.855,22.409,22.409,0,0,1-.6,8.973c-.8,4.157-.464,2.906-.753,4.135a18.2,18.2,0,0,0-.444,1.793,9.06,9.06,0,0,0,2.858.929,11.366,11.366,0,0,0,4.462.238h-.016l-.093.047-.211.247.027.147.373-.467a.52.52,0,0,1,.409.084l.067.056h0l.062.069a.62.62,0,0,1,.107.356l-.013.091-.033.089h0c-.156.336-.538.4-1.506.727a8.028,8.028,0,0,1-3,.482,9.761,9.761,0,0,1-4.34-.582c-2.6-1.184-1.824-3.009-1.227-5.4,0-1.778,2.053-7.826,2.267-10.221.327-1.253.34-1.807.407-2.029v-.04Zm6.524,17.254.3.144h.1c-.562-.444-.46-.42-.407-.149ZM198.021,63.6h0l-.033-.044Z" transform="translate(232.806 37.817)" fill="#212121" fill-rule="evenodd"/>
    <path id="Path_455" data-name="Path 455" d="M208.808,57.9a5.075,5.075,0,0,1-.429,2.786h0a6.91,6.91,0,0,1-1.8,2.2,7.573,7.573,0,0,1-4.855,1.989c-.222.02-.06.042-.842-.287.369-.889.044-.478,1.358-1.66,1.162-1.033,2.129-1.627,3.144-2.615.387-.376.964-.975.971-.98h0c.076-.069.191-.18.271-.26v-.011a6.207,6.207,0,0,0,1.111-1.333l.624-.444Z" transform="translate(239.37 49.293)" fill="#212121" fill-rule="evenodd"/>
    <path id="Path_456" data-name="Path 456" d="M203.459,54.354a1.36,1.36,0,0,1-1.333-1.169c-.191-1.333-1.26-3.977-.233-5.188a1.36,1.36,0,0,1,2.269,1.447c0,.742.569,2.735.653,3.362a1.358,1.358,0,0,1-1.355,1.549Zm.5-4.6Z" transform="translate(240.073 37.366)" fill="#212121"/>
    <path id="Path_457" data-name="Path 457" d="M193.58,54.806a1.36,1.36,0,0,1-1.333-1.164c-.189-1.3-.793-2.2-.507-3.526a1.415,1.415,0,0,1,2.244-1.491c.889.7.424,1.778.38,2.222.147.773.427,1.409.569,2.406a1.355,1.355,0,0,1-1.353,1.553Z" transform="translate(228.11 38.329)" fill="#212121"/>
    <path id="Path_458" data-name="Path 458" d="M194.425,44.1a4.055,4.055,0,0,1,3.02,1.111c.462.458.378.347.551,1.2l-.751.142c-.578-.036-1.269.236-2.235.249a19.721,19.721,0,0,1-3.071,0c-.635-.064-.329.162-1.173-.176h.02l-.044-.02h.016l.042-.016h-.018l.042-.02h0l.04-.02h0l.04-.024-.731-.033-.024-.02-.033-.036a.562.562,0,0,1-.138-.473c.144-.633.762-.536,1.164-.907h-.024V45.05l.013-.016-.044.011.024-.018-.053.016a3.446,3.446,0,0,1,1.5-.715h0A8.186,8.186,0,0,1,194.425,44.1Zm-3.464,1.62-.036.727.044-.04h0l.053-.064h0l.049-.082h0l.036-.1h0l.018-.1h0v-.071l-.013-.087h0l-.024-.073h0l-.024-.058h0l-.029-.044h0l-.024-.036h0l-.024-.027Z" transform="translate(226.038 33.174)" fill="#212121" fill-rule="evenodd"/>
    <path id="Path_459" data-name="Path 459" d="M204.4,44.165a6.3,6.3,0,0,1,5.2,2.235v.016l.16.749c-1.111.222-.336.142-1.822.024-.444-.029-1.013-.022-1.431-.082-3.864-.564-3.655-.129-5.617-.5h-.138l.018-.011h-.022L200,46.438c.162-.955-.067-.762,1.28-1.484a5.084,5.084,0,0,1,3.118-.789Z" transform="translate(238.297 33.239)" fill="#212121" fill-rule="evenodd"/>
    <path id="Path_460" data-name="Path 460" d="M194.553,54.647a7.7,7.7,0,0,0-1.167.618l.02-.016-.027.022.027-.018h-.013l.02-.018h0l.013-.013a14.6,14.6,0,0,0-2.167,3.766,12.013,12.013,0,0,0-.813,4.506,9.428,9.428,0,0,0,1.46,5.111,9.308,9.308,0,0,0,3.931,2.849,15.072,15.072,0,0,0,7.873,1.064H203.7l.04-.018h-.013l.036-.016-.013.011.027-.016-.013.013.02-.013-.02.016.02-.016-.02.018.02-.013-.02.02.02-.016-.02.022.013-.016-.02.024.013-.016-.013.027.013-.016-.009.027.013-.018-.022.033.009-.016-.022.038.016-.018-.016.038v-.018l-.013.04v.047h0v.024l.482-.593h0c.613.5.6.416.6.64h0c0,.5-.54.858-1.14,1.071a14.483,14.483,0,0,1-7.948.251,11.2,11.2,0,0,1-5.711-3.511h0a9.39,9.39,0,0,1-.6-.829,12.627,12.627,0,0,1-1.22-9.05v-.016a10.788,10.788,0,0,1,1.573-3.446,12.693,12.693,0,0,1,2.666-2.991,5.5,5.5,0,0,1,2.078-.667c.362.051.378.247.42.247l.042.073h0l.033.087a.649.649,0,0,1,.013.184l-.013.091-.033.087h0l-.707.271.013.011.156.036h.129Zm-.562-.32c.342.331.324.424,0-.444Z" transform="translate(223.43 44.73)" fill="#fff" fill-rule="evenodd"/>
    <path id="Path_461" data-name="Path 461" d="M221.749,50.682l.116.036.1.058.089.073a.636.636,0,0,1,.169.444l-.407.46h0A10.459,10.459,0,0,0,220,58.659a7.908,7.908,0,0,0,.618,2.889c1.829,4.151,5.368,7.7,9.85,7.379,10.524-.924,9-20.247-.889-20.712-1.315-.038-.736.222-1.6-.444l.469-.607c7.422-1.393,12.506,6.606,11.777,13.972a15.979,15.979,0,0,1-.6,3.111,11,11,0,0,1-2.606,4.444,9.946,9.946,0,0,1-7.135,2.929,12.841,12.841,0,0,1-11.357-9.333h0a9.278,9.278,0,0,1-.469-3.417,16.053,16.053,0,0,1,1.3-5.453,8.476,8.476,0,0,1,.964-1.609C221.067,50.927,221.242,50.622,221.749,50.682Zm-.611.68v.024h0v.036l.022.056a.478.478,0,0,0,.222.247l.1.04a.648.648,0,0,0,.136.022l-.482-.431V51.34Z" transform="translate(260.355 36.727)" fill="#fff" fill-rule="evenodd"/>
    <path id="Path_462" data-name="Path 462" d="M205.064,92.958a41.485,41.485,0,0,1-2.58,5.628c-.727,1.6-.607,1.3-3.069,7.706a80.52,80.52,0,0,0-3.375,10.29c-.313,1.32-2.029,9.668-2.222,12.466a12.3,12.3,0,0,0,.138,2.935c.2.889.111,2.951.344,3.7v0l.013.036v-.013c.153.444,1.14,1.535.258,2.2l-.04.022-.753-.147.149-.758.02-.016-.033.02.02-.018-.027.027.013-.018-.027.029v-.011h0l-.027.031.013-.018-.027.036v-.018l-.02.038v-.018l-.022.04v-.02l-.022.042v-.02l-.013.04v-.018l-.013.04v.058h0v0l-.013-.033v.016l-.013-.02V137.2h0c-.013-.018-.029-.047-.062-.089-.071-.109-.32-.427-.38-.513a13.75,13.75,0,0,1-1.058-3.92v-.018c-1.2-4.5-.482-7.555.324-12.221a50.813,50.813,0,0,1,1.827-8.1,65.772,65.772,0,0,1,9.566-19.432v.013l.013-.038v0h0v.027l.556-.52h0Z" transform="translate(228.031 92.186)" fill="#212121" fill-rule="evenodd"/>
    <path id="Path_463" data-name="Path 463" d="M241.034,88a309.073,309.073,0,0,0,6.279,35.046c2.133,9.3,2.5,7.677,1.827,9.033l-.687-.344A92.869,92.869,0,0,1,244.027,120c-.871-3.346-2.635-11.272-3.2-14.839a66.451,66.451,0,0,1-.958-15.912c.124-1.526-.091-1.078.618-1.8Z" transform="translate(286.878 86.159)" fill="#212121" fill-rule="evenodd"/>
    <path id="Path_464" data-name="Path 464" d="M224.269,145.124a2.149,2.149,0,0,1-1.167.86c-3.075.511-6.064-5.573-7.386-8.444h0c-9.221-21-16.91-56.744-14.745-61.577.136-.222-.042-.136.855-.331l.164.753-.013.02v.007l-.029.047v.013c-.027.044,0,.013-.027.06h0c-2.118,4.126,13.314,61.375,20.487,66.568,3.413-4.828,30.815-57.3,32-63.175v-.158l.5-.578.578.5C256.213,83.236,230.575,136.645,224.269,145.124Z" transform="translate(239.033 71.71)" fill="#212121" fill-rule="evenodd"/>
    <path id="Path_465" data-name="Path 465" d="M229.977,124.518a14.641,14.641,0,0,1-13.217,6.946,9.462,9.462,0,0,1-5.4-1.842,21.017,21.017,0,0,1-3.449-2.889,13.423,13.423,0,0,1,1.589-17.881c4.089-3.5,13.626-3.984,18.974.962h0a10.642,10.642,0,0,1,3.1,6.015,13.366,13.366,0,0,1-1.6,8.688ZM213.434,109.55h0c-6.364,2.544-7.164,12.319-2.775,16.145a17.721,17.721,0,0,0,3.777,2.666,10.817,10.817,0,0,0,5.071.518h0A12.11,12.11,0,0,0,230.6,117.934h0a9.666,9.666,0,0,0-1.52-4.751,8.737,8.737,0,0,0-1.806-2.02h0a15.092,15.092,0,0,0-13.839-1.613Z" transform="translate(244.685 109.022)" fill="#212121" fill-rule="evenodd"/>
    <path id="Path_466" data-name="Path 466" d="M201.645,263.864l.089.013-.069.271c.107-.444-.162-.273,1.493.033a73.627,73.627,0,0,0,21.7.849c4.755-.6,5.282-1.555,6.191-.644.347.507.222-.013.444,7.928.064,3.135.276,10.712.053,12.5-.187.833-.627,1.093-1.507,1.358a38.024,38.024,0,0,1-7.462.475c-.807,0-1.124.038-1.649-.444-.46-.627-.291-.5-.291-3.6-.238,0-1.893.333-2.14.38-23.129,4.817-44.95,10.379-48.067,8.506l-.06-.053c-.7-.56-.571-1.253-.571-2.131.544-7.082,7.79-12.412,13.686-16.123a104.018,104.018,0,0,1,17.581-8.444c0-.351-.033-.667.307-.829l.02-.013.089-.027a.58.58,0,0,1,.167,0Zm.5,1.364a1.33,1.33,0,0,1-.06.182l-.056.082a.678.678,0,0,1-.142.122l-.089.04h0a3.623,3.623,0,0,1-.347.142c-8.828,3.777-22.276,10.708-27.518,18.776a10.38,10.38,0,0,0-1.622,4.575c-.033.32-.067.238.338.238,10.6-1.18,17.365-3.16,43.921-8.75,7.111-1.315,6.7-1.389,6.7,3.4a30.05,30.05,0,0,0,5.791-.271c0-.444.12-1.16.027-17.319a66.852,66.852,0,0,1-23.776-.611c-3.1-.6-2.889-.711-3.151-.711A.581.581,0,0,0,202.148,265.229Zm26.869,19.127Z" transform="translate(201.376 301.733)" fill="#212121" fill-rule="evenodd"/>
    <path id="Path_467" data-name="Path 467" d="M255.359,237.692c.5.133-.238-.7,9.65,10.386.191.222,2.74,3.111,3.555,4.157,1.275,1.638,1.111,2.318-3.853,6.757-1.7,1.453-2.193,2.164-3.246,1.72-.429-.256-.089,0-2.155-2.409-.642.551-8.408,10.906-8.579,11.132-3.26,4.351-17.554,23.578-21.614,27.062a4.749,4.749,0,0,1-1.911,1.2c-1.042.222-1.6-.493-2.222-1.355-6.517-8.888,2.291-28.751,7.624-38.441.3-.549.28-.3-.049-.755a.527.527,0,0,1,.222-.762h0a67.6,67.6,0,0,0,21.272-17.907C254.437,237.872,254.67,237.639,255.359,237.692Zm-6.679,9.5a76.2,76.2,0,0,1-14.763,9.855h0c.831.971-3.144,5.177-6.99,18.427a43.2,43.2,0,0,0-1.969,12.357,11.431,11.431,0,0,0,2.027,6.991c.815.951,19.11-23.883,28.442-35.964,4.064-5.111,3.924-4.6,6.837-1.2a26.107,26.107,0,0,0,4.222-3.977c-.191-.222-.642-.931-11.255-13.161a46.322,46.322,0,0,1-6.551,6.677Zm18.141,6.977Z" transform="translate(266.007 269.745)" fill="#212121" fill-rule="evenodd"/>
    <path id="Path_468" data-name="Path 468" d="M284.9,102.1c9.861,6.459,12.6,14.061,14.9,25.242a158.466,158.466,0,0,1,2.64,35.59c-.444,15.97-2.833,39.8-3.062,40.237a.993.993,0,0,1-1.147.4c-1.244-.542-3.191-6.644-15.8-10.99-4.68-1.6-16.359-4.471-16.665-4.711a1.065,1.065,0,0,1-.116-.149l-.033-.089a1.043,1.043,0,0,1-.02-.184l.013-.093a.551.551,0,0,1,.2-.307c2.287-1.391,13.866-6.959,19.183-11.888a10.607,10.607,0,0,0,2.94-3.682c2.517-6.093,1.673-14.348.8-21.354-.58-4.682-2.289-14.925-3.555-19.856a71.1,71.1,0,0,0-4.133-11.11c-5.926-12.754-7.668-14.292-6.931-15.7.624-.851.889-.493,3.413-.731C283.894,102.134,282.57,100.578,284.9,102.1Zm-7.637,3.333c.533,1.489,3.538,6.666,7.026,14.705a68.027,68.027,0,0,1,5.14,18.823,160.452,160.452,0,0,1,2.131,18.187c.6,15.132-2.829,17.687-9.348,22.163a139.868,139.868,0,0,1-14.443,8c4.3,1,13,3.035,17.141,4.5a31.358,31.358,0,0,1,12.843,8.175c1.555-22.509,4.351-51.289-.971-73.809a54.7,54.7,0,0,0-3.76-11.63,28.7,28.7,0,0,0-9.695-10.272,26.089,26.089,0,0,1-6.064,1.147Z" transform="translate(318.46 103.264)" fill="#212121" fill-rule="evenodd"/>
    <path id="Path_469" data-name="Path 469" d="M230.86,85.185a93.834,93.834,0,0,0,13.734,9.506c11.028,5.466,26.887,5.637,43.974-4.52,5.526-3.224,5.066-4.186,6.482-3.689a9.631,9.631,0,0,0,2.871,1.271,16.468,16.468,0,0,0,8.317-.478c4.333-1.431,4.715-7.286,4.14-11.795a2.222,2.222,0,0,1-.053-.809,1.344,1.344,0,0,1,2.444-.516,20.49,20.49,0,0,0,15.11,6.837c3.966-.222,4.924-1.278,5.262-3.366a7.99,7.99,0,0,0,.087-1.527,19.037,19.037,0,0,0-1.438-3.942,1.349,1.349,0,0,1,.8-1.418c.54-.187.522-.276,5.362,1.124,17.776,5.2,27.271,12.788,37.275,24.62,9.006,11.068,9.4,13.519,17.223,20.481,8.393,7.475,12.728,6.784,16.163,10.564a7.968,7.968,0,0,1,1.4,7.139,4.784,4.784,0,0,1-1.671,2.391c-8.533,7.755-20.354,7.319-31.109,3.162-.08.1-.349.393-.444.489a22.363,22.363,0,0,1-9.19,5.388c-14.325,4.469-14.5-4.329-24.031-3.511-4.715.471-8.73,2.76-8.73,7.395,0,3.006,18.241,52.4,17.63,57.471a1.4,1.4,0,0,1-.638,1.071c-6.513,4.355-15.148,4.026-22.767,5.824-5.4,1.247-2.358,1.58-7.319.98-29.069-3.42-58.729-4.933-88.131-5.711-23.945-.611-23.8-.14-23.8-1.031a.27.27,0,0,1,.013-.1l.033-.082h0c4.155-9.5,12.139-18.325,19.509-25.62a43.733,43.733,0,0,1-4.6-5.446c-2.3-4.013-2.991-9.915-5.573-13.854h0a18.362,18.362,0,0,1-3.409,1.629,11.982,11.982,0,0,1-6.6.171c-5.615-1.391-8.444-6.639-12.51-7.915-6.853-2-17.372,6.606-23.949-1.013a11.554,11.554,0,0,1-2.011-3.229c-.349-1.258-.929-4-.149-5.051,1-1.2,2.413-1.418,4.444-2.269,1.244-.564,1.022-.533,2.778-2.318,4.364-4.337,6.844-6.615,8.755-8.6,12.748-12.752,20.185-35.155,36.4-47.081a36.905,36.905,0,0,1,3.3-2.182C229.6,83.663,229.3,83.823,230.86,85.185Zm-36.413,70.048c7.153.191,8.737,6.835,15.13,8.419,6.8,1.669,9.1-3.155,10.617-1.489,2.042,2.569,3.226,8,4.622,11.752a15.19,15.19,0,0,0,3.851,6.048c3.013,3.413,3.158,2.32.284,5.153-6.415,6.444-13.823,14.385-17.745,22.974,31.655.142,65.9,1.049,97.168,3.862,18.167,1.651,15.505,1.915,16.9,1.38,7.715-2.829,18.614-2.2,24.953-6.431,0-4.868-17.667-53.7-17.854-55.4-.749-6.748,3.957-10.73,10.795-11.472a13.817,13.817,0,0,1,8.322,1.5c4.271,2.086,6.071,4.506,14.079,2.418,7.8-2.2,9.9-5.9,10.392-6.335h0a1.393,1.393,0,0,1,1.44-.164,39.8,39.8,0,0,0,13.434,3.038,24.326,24.326,0,0,0,8.573-1.213,19.97,19.97,0,0,0,7.753-4.822l.013-.024a3.869,3.869,0,0,0,.433-2.486c-.578-4.566-4.953-4.526-10.915-8.339-10.521-6.815-16.428-16.4-20.752-21.916-11.11-14.108-21.176-22.516-40.492-27.724a7.355,7.355,0,0,1-2.171,8.377c-3.751,2.344-12.474,2.171-20.025-4.1,0,4.944-1.222,9.719-5.913,11.461a19.272,19.272,0,0,1-9.79.682c-3.957-.962-2.1-1.667-4-.3a68.169,68.169,0,0,1-11.472,6.339c-14.108,6.131-30.173,6.542-42.7-1.778-2.678-1.764-9-6.553-10.35-7.742a40.7,40.7,0,0,0-6.606,4.409c-14.528,11.937-21.7,32.642-34.708,45.458-.156.16-10.337,10.03-10.568,10.206a12,12,0,0,1-2.778,1.26,8.08,8.08,0,0,0-2.138,1l-.013.013h0a7.942,7.942,0,0,0,.373,3.18,9.019,9.019,0,0,0,1.622,2.624C178.7,160.79,187.559,155.142,194.448,155.233Z" transform="translate(201.852 65.608)" fill="#212121" fill-rule="evenodd"/>
    <path id="Path_470" data-name="Path 470" d="M373.037,132.7c112.529,0,159.971,7.575,206.545,20.172,30.886,8.357,28.267,36.357-9.217,46.885C328.009,267.8,65.46,228.265,22.725,193.339a9.149,9.149,0,0,1-2.286-2.649,55.442,55.442,0,0,0,29.389,13.248c2,.284,10.941-28.08,31.193-33.964A42.586,42.586,0,0,0,75.6,158.109c8.47-2.055,16.983-3.866,25.485-5.477,36.428-5.408,104.556-13.012,156.209-16.716C296.179,133.54,333.471,132.7,373.037,132.7Z" transform="translate(18.866 141.45)" fill="#fff" fill-rule="evenodd"/>
    <path id="Path_471" data-name="Path 471" d="M21.611,189.983a54.686,54.686,0,0,0,28.253,13.083c.429.067.322.142.562-.222,3.111-4.68,12.248-27.4,29.909-33.18a43.107,43.107,0,0,0-4.629-9.955c-.42-.678-.611-.851-.476-1.478a1.111,1.111,0,0,1,.793-.744c22.22-5.333,30.369-6.346,58.137-9.744,27.5-3.364,59.773-6.771,91.955-9.555C308,131.141,457.068,128.168,538.3,142.633c17.619,3.135,37.253,8.026,44.261,10.128a40.166,40.166,0,0,1,10.752,5.026c5.457,3.729,9.388,9.19,9.388,15.75,0,10.464-9.65,18.745-19.2,23.331h0c-8.108,3.8-14.637,5.4-31.346,9.708-114.033,29.051-237.189,37.706-352.011,28.873-44.523-3.444-129.387-13.879-168.777-35.01-2.784-1.515-10.652-6-11.475-9.09a1.247,1.247,0,0,1,1.718-1.367Zm280.866-55.175c-30.549,1.14-64.217,2.78-139.913,11.47-52.178,6-64.466,8.084-84.551,12.988a43.67,43.67,0,0,1,4.522,9.944c.253.869.513,1.333-.022,2h0A34.885,34.885,0,0,0,69.7,178.777c-11.415,10.555-16.254,26.153-18.836,26.784-1.044.211-4.251-.993.513.711,101.641,35.844,326.382,45.79,514.367-5.906,10.444-2.853,21.865-6.3,29.535-15.037,4.871-5.508,6.786-12.559,2.94-19.141-3.433-5.84-10.5-9.41-17.032-11.4a483.45,483.45,0,0,0-61.211-12.932c-60.742-8.779-159.656-9.13-217.486-7.053Z" transform="translate(18.174 141.003)" fill="#212121" fill-rule="evenodd"/>
    <path id="Path_472" data-name="Path 472" d="M601.275,150.836a2.574,2.574,0,0,1,.244,1.229c-.076,28.015-2.653,40.75-29.04,48.158-242.36,68.046-504.9,28.511-547.64-6.411-6.486-5.3-4.942-17.236-3.6-24.742a9.608,9.608,0,0,0,1.955,2.106c42.743,34.926,305.284,74.461,547.64,6.411C591.249,171.854,601.329,160.94,601.275,150.836Z" transform="translate(18.393 163.613)" fill="#fff" fill-rule="evenodd"/>
    <path id="Path_473" data-name="Path 473" d="M602.159,150.613a.764.764,0,0,1,.164.076.742.742,0,0,1,.129.122l.047.076h0c.373.913.333.833.284,5.333-.078,7.111-.411,16.585-2.633,23.385-4.909,14.888-16.343,18.741-31.722,23-120.23,33.088-253.33,42.6-370.654,32.775C155.218,232.068,69.758,221,32.548,200.326a44.919,44.919,0,0,1-8.941-6.222c-4.94-5.3-4.544-14.339-3.513-21.538.553-3.744.529-4.2,1.615-4.528,1.084-.136,1.315.509,1.778,1.082a13.176,13.176,0,0,0,2.444,2.189c49.251,36.69,309.464,70.419,540.5,7.311a87.773,87.773,0,0,0,16.983-5.828c7.333-3.58,15.11-9.344,17.4-17.167C601.992,151.588,600.952,150.4,602.159,150.613Zm-.529,6.073c-3.673,11.157-17.905,18.4-29.162,21.62-138.491,40.363-322.182,49.476-462.411,23.225-22-4.166-70.094-14.69-87.2-29.193-.869,5.742-1.515,13.746,1.675,18.6a28.253,28.253,0,0,0,8.781,6.726c59.975,33.628,300.5,64.724,526.919,5.635,20.587-5.444,35.517-8.07,39.888-28.507a109.016,109.016,0,0,0,1.507-18.1Z" transform="translate(17.652 163.312)" fill="#212121" fill-rule="evenodd"/>
    <path id="Path_474" data-name="Path 474" d="M25.314,172.261c38.188,21.752,156.623,43.372,298.32,38.206-.667,8.41-2.144,16.372-4.166,19.576-16.054,25.4-82.882,44-111.682,47.674-45.774,5.84-140.8-8.566-167.2-52.269A111.342,111.342,0,0,1,25.314,172.261Z" transform="translate(24.823 189.795)" fill="#fff" fill-rule="evenodd"/>
    <path id="Path_475" data-name="Path 475" d="M325.271,210.864a103.408,103.408,0,0,1-1.6,11.9c-1.349,6.608-2.666,8.2-3.924,10-7.006,9.637-20.081,17.261-30.817,22.476-24.494,12.072-65.048,23.209-87.2,24.749a247.936,247.936,0,0,1-48.312-1.555c-27.553-3.415-56.3-10.557-81.245-23.883C57.22,246.2,45.907,237.013,37.839,221.974a113.059,113.059,0,0,1-12.75-48.794c-.013-.551-.138-1.031.444-1.162h.089a.648.648,0,0,1,.171.033l.08.038h0a162.516,162.516,0,0,0,30.282,12.1c63.224,18.623,150.388,25.716,215.84,26C323.653,210.624,325.271,207.877,325.271,210.864ZM26.191,173.756c.855,23.06,10.3,46.641,20.467,58.606,20.2,23.68,59.253,35.526,89.717,41.008,24.258,4.546,56.815,6.666,81.327,1.778,27.382-4.862,85.189-21.9,100.745-45.223.138-.222.293-.444.413-.687,2.364-4.34,3.6-16.108,3.6-17.065-11.312.54-44.136,1.122-75.443.156-57.646-1.778-166.68-11.284-217.847-37.21C25.733,173.336,26.18,173.373,26.191,173.756Z" transform="translate(24.524 189.498)" fill="#212121" fill-rule="evenodd"/>
    <path id="Path_476" data-name="Path 476" d="M126.972,287.513c6.468,17.37,13.841,36.744,20.087,52.14-6.888,8.741-13.51,17.016-15.01,17.465-1.682.509-24.167-11.308-24.858-12.292C106.812,344.282,116.92,316.573,126.972,287.513Zm84.4-97.887c10.946,12.108,12.057,32.664,6.953,47.016a196.205,196.205,0,0,1-28.58,51.329c-1.282-34.11-5.166-72.634-14.819-97.967q17.9.1,36.446-.378Z" transform="translate(124.869 211.016)" fill="#fff" fill-rule="evenodd"/>
    <path id="Path_477" data-name="Path 477" d="M128.84,289.294c21.372,54,20.716,50.422,19.958,51.509-15.445,19.672-15.063,18.705-18.33,17.481a206.178,206.178,0,0,1-22.3-11.3c-2.555-1.555-2.022-1.3,1.691-12.15,7.279-20.276,10.69-29.147,15.836-43.108,1.687-4.573,1.462-4.342,2.035-4.413.444.067.424.353.476.353C128.364,288.052,128.242,287.741,128.84,289.294Zm-19.461,55.3a186.647,186.647,0,0,0,23.074,11.5c1,0,13.646-16.059,13.848-16.305l-.013-.027h0c-5.555-13.612-16.721-44.612-18.587-50.218-6.346,19.745-10.655,31.982-18.312,55.051ZM177.1,191.333a171.736,171.736,0,0,1,7.386,26.6c5.835,29.146,6.6,57.88,7.175,66.512A209.545,209.545,0,0,0,212.019,250.8c3.333-7.148,5.777-13.472,6.319-15.183,5.062-15.194,2.522-32.14-3.673-41.43a34.612,34.612,0,0,0-2.811-3.66c-9.6.367-24.882.8-34.748.8Zm42.074,8.635a49.415,49.415,0,0,1,3.555,15.294,56.9,56.9,0,0,1-2.389,21.4,165.83,165.83,0,0,1-11.364,25.6,222.262,222.262,0,0,1-15.3,23.949c-2.255,3.124-2.406,3.58-3.5,3.409a1.333,1.333,0,0,1-1.053-1.255c-.975-28.753-4.373-67.17-13.332-94.659-1.111-3.315-1.273-3.126-1.031-3.793.476-.793.667-.56,5.384-.5,27.936.338,31.84-.269,32.36.2-.278.249-.751.667,0,0a32.539,32.539,0,0,1,6.682,10.355Z" transform="translate(124.139 210.666)" fill="#212121" fill-rule="evenodd"/>
    <path id="Path_478" data-name="Path 478" d="M37.044,177.177c45.492,14.934,126.927,27.513,223.591,28.035,20.7,54.32,14.854,169.28,13.777,171.41-.1.2-28,6.842-28.564,6.293-7.435-7.439-49.569-124.932-49.569-124.932s-31.755.32-53.009-1.8c-20.956-2.091-57.664-13.055-74.734-26.4C42.684,209.563,37.706,188.085,37.044,177.177Z" transform="translate(39.158 195.802)" fill="#fff" fill-rule="evenodd"/>
    <path id="Path_479" data-name="Path 479" d="M214.732,203.127c40.952,1.827,45.981.429,47.165,1.555.222.32.149.167.944,2.329a219.339,219.339,0,0,1,9.606,41.694c7.19,50.762,5.333,115.015,3.684,128.107a1.84,1.84,0,0,1-.42,1.018h0c-.389.389-.324.418-6.131,1.793-4.124,1.011-16.694,3.931-20.947,4.666a7.842,7.842,0,0,1-2.866.222c-6.146-2.14-47.827-118.739-50.049-124.979-10.43.136-34.046-.3-48.663-1.615a200.623,200.623,0,0,1-58.5-15.668c-14.05-6.3-23.618-12.519-34.611-25.258-9.577-11.495-15.925-24.22-17.067-38.421-.078-1.064-.158-1.242.138-1.52l.073-.049a.5.5,0,0,1,.338-.06l.084.02c-.087.273-.1.307,0,0C87.211,193.347,161.894,200.771,214.732,203.127Zm-17.776,53.967c.813.342.8.758,1.278,2.091,10.019,27.58,25.791,70.341,36.853,97.383,9.981,24.322,11.392,24.7,11.684,25.287,6.571-1.1,24.029-5.235,26.764-6,1.584-9.488,5.444-119.366-13.481-169.1-11.628,0-33.491-.516-60.217-2.078-53.551-3.5-110.684-10.512-161.893-26.442a58.362,58.362,0,0,0,4.031,16.734c7.091,17.727,23.167,33.7,38.717,41.537a194.976,194.976,0,0,0,44.985,15.825,154.345,154.345,0,0,0,30.182,3.924c16.559,1.022,40.579.724,41.1.835Z" transform="translate(38.867 195.506)" fill="#212121" fill-rule="evenodd"/>
    <path id="Path_480" data-name="Path 480" d="M413.187,168.6a2.8,2.8,0,0,0,.938-.162s-.1,7.2-.278,9.508a71.132,71.132,0,0,1-12.666,34.868c-22.123,31.022-101.734,41.246-140.1,37.1-24.118-2.6-80.116-15.81-93.57-33.839a8.222,8.222,0,0,1-.889-1.6c72.621-3.631,150.672-14.39,226.735-35.746C402.563,176.137,408.869,172.9,413.187,168.6Z" transform="translate(197.514 185.117)" fill="#fff" fill-rule="evenodd"/>
    <path id="Path_481" data-name="Path 481" d="M415.011,168.2l.082.031a.639.639,0,0,1,.156.1,79.085,79.085,0,0,1-.284,12.506,72.3,72.3,0,0,1-9.91,28.993,46.681,46.681,0,0,1-10.4,12.295c-28.284,24.24-97.128,33.977-137.544,28.822-23.151-3.311-76.452-15.4-90.066-33.975a7.391,7.391,0,0,1-1.02-2.078,1.358,1.358,0,0,1,.855-1.384c2.7-.871,106.578-2.371,226.157-34.886,7.146-1.958,14.728-4.617,20.114-9.713.382-.364.444-.493.74-.544h0a3.252,3.252,0,0,0,.951-.171.67.67,0,0,1,.171,0Zm-17.792,10.57c-7.473,2.418-35.228,10.017-66.5,16.65A1060.569,1060.569,0,0,1,169.692,216c9.088,12.126,40.13,21.709,55.384,25.7a301.1,301.1,0,0,0,33.331,6.773c37.292,4.86,109.571-4.042,137.089-29.44,8-7.071,14.266-19.965,16.708-30.22a76.2,76.2,0,0,0,2.089-19.405,41.524,41.524,0,0,1-17.072,9.359Zm17.316-10.479-.02.02.033-.024Z" transform="translate(196.769 184.819)" fill="#212121" fill-rule="evenodd"/>
    <path id="Path_482" data-name="Path 482" d="M369.253,174.324c-.073.429-.129.833-.176,1.207a43.747,43.747,0,0,1-13.454,26.327c-31.933,31.184-108.24,30-109.482,31.24-.807.807-9.461,117.768-9.755,118.053-.949.944-48.732.836-54.958-2.28-.975-.482-10.155-97.805,6.222-143.877a1024.068,1024.068,0,0,0,181.6-30.669Z" transform="translate(211.396 192.316)" fill="#e8505b" fill-rule="evenodd"/>
    <path id="Path_483" data-name="Path 483" d="M370.079,174.09c.633.2.367.747.251,1.778a41.193,41.193,0,0,1-3.033,11.575c-10.281,25.3-44.259,36.259-70.972,41.468-22.469,4.386-45.741,5.024-48.467,5.444-.862,4.306-9.013,114.828-9.424,117.1a1.429,1.429,0,0,1-1.111,1.322c-4.035,1.007-46.547.729-54.916-2.055-1.691-.564-1.731-.484-2.424-6.959C176.417,308.519,175.1,241,185.93,208.5a36.164,36.164,0,0,1,1.42-4.017c.667-.738-.382-.251,16.176-1.778C308.115,193,368.106,173.786,370.079,174.09Zm-34.928,9.85a1022.051,1022.051,0,0,1-145.859,22.545c-.149.3-2.089,6.384-3.06,10.759-9.806,41-5.448,118.515-2.966,130.918h0c6.242,2.4,45.552,2.86,52.622,2.158,0-.222,8.93-114.791,9.861-117.361.456-.909,1.049-.913,4.78-1.153,18.221-1.138,42.537-2.784,65.126-9.395,18.887-5.462,40.486-15.225,49.249-32.746a41.64,41.64,0,0,0,4.351-14.052C369.346,174.914,370.781,175.536,335.151,183.94Z" transform="translate(210.693 192.026)" fill="#212121" fill-rule="evenodd"/>
    <path id="Path_484" data-name="Path 484" d="M221.76,187.109c29.169,25.869,96.719,89.2,96.437,89.488-9.428,9.43-48.44,33.039-48.44,33.039s-11.017-10.25-16.041-14.443c-20.4-17.005-39.257-35.924-59.662-52.929-10.808-9.008-22.687-25.42-23.834-51.06C187.154,190.251,204.368,188.9,221.76,187.109Z" transform="translate(201.904 207.94)" fill="#e8505b" fill-rule="evenodd"/>
    <path id="Path_485" data-name="Path 485" d="M171.664,192.381a72.8,72.8,0,0,0,6.911,27.553,63.208,63.208,0,0,0,16.488,21.438c12.572,10.535,17.332,14.939,33.868,30.024,23.891,21.854,18.238,15.69,41.448,36.832,1.244-.667,38.99-23.947,46.441-31.4-4-4.142-76.9-72.9-94.8-88.882C200.679,190.427,180.186,191.758,171.664,192.381ZM280.3,239.119c41.823,38.6,39.881,37.224,39.552,38.219,3.684,0-47.283,33.642-49.552,33.928-1.2,0-.016.16-15.45-13.435-27.313-23.214-39.8-36.308-61.148-54.3a68.406,68.406,0,0,1-23.256-43.8,54.408,54.408,0,0,1-.6-8.666c.667-1.018-.809,0,32.026-2.48,18.8-1.42,20.274-1.951,20.712-1.6-.256.287-.667.744,0,0C254.659,215.148,279.973,239.119,280.3,239.119Z" transform="translate(201.449 207.657)" fill="#212121" fill-rule="evenodd"/>
    <path id="Path_488" data-name="Path 488" d="M67.924,189.3c1.8.518,7.944,1.807,9.284,1.191.738-1.482-4.471-3.84-6-4.462-.815-.331-5.111-1.629-5.717-2.051a1.333,1.333,0,0,1-.327-1.631c1.022-1.6,2.091-.16,9.11,1.731,1.833.491,8.986,2.309,10.444,1.08l.027-.029c.3-.456-.2-1.973-5.266-4.169a56.935,56.935,0,0,0-9.013-2.9c-1.649-.444-2.506-.469-2.713-1.664a1.333,1.333,0,0,1,.953-1.4c1.267-.264,5,1.5,11.759,2.5,1.38.193,5.453.693,6.557-.162l.047-.04c.24-.26.071-1.007-1.467-1.9-4.951-2.822-15.15-3.584-18.57-7.593a7.17,7.17,0,0,1-2.051-4.7c.1-2.753,2.3-4.635,3.5-6.888.667-1.278,1-2.535-.16-3.375a2.706,2.706,0,0,0-2.233-.333,69.641,69.641,0,0,0-7.819,5.024c-.667.222-1.471-.584-5.073-4.106-.371-.369-.287-.124-.331-1.058.92-.042.693-.111,1.091.253.9.822,3.044,2.8,4.02,3.506,1.471-1.173,3.617-2.7,5.173-3.762a6.077,6.077,0,0,1,4.171-1.62,3.82,3.82,0,0,1,3.353,2.322c1.071,2.818-1.807,5.873-2.971,8.019a3.584,3.584,0,0,0,.444,4.58,5.729,5.729,0,0,0,2.358,2.046c5,2.429,14.848,3.389,18.116,6.808a3.175,3.175,0,0,1-.829,5.333,6.977,6.977,0,0,1-2.047.5c-1.5.164-1.609-.033-1.3.176,2.055,1.369,3.729,3.346,2.793,5.642-1.222,2.686-5.446,2.191-8.346,1.711a3.375,3.375,0,0,1,.562,3.626,2.444,2.444,0,0,1-2,1.453,29.874,29.874,0,0,1-10.908-1.76c-1.969-.667-9.11-3.453-14.3-5.9a88.36,88.36,0,0,1-10.364-5.737c-1.14-.751-6.18-4.266-6.317-5.193a.538.538,0,0,1,.751-.529h0l.1.247.082-.118C41.621,179.591,60.093,187.024,67.924,189.3Zm9.333,1.169ZM58.242,156.293h-.018Zm0,0h-.016Z" transform="translate(37.343 163.493)" fill="#212121" fill-rule="evenodd"/>
    <path id="Path_489" data-name="Path 489" d="M93.048,246.937c-.5.067,7.019-89.755,13.259-108.98,1.84-5.671,153.956-41.9,155.809-40.057,1.7,1.7-8.39,108.24-8.837,108.684C252.051,207.811,130.832,241.944,93.048,246.937Z" transform="translate(107.568 98.84)" fill="#fff" fill-rule="evenodd"/>
    <path id="Path_490" data-name="Path 490" d="M93.078,248.214c-1.455-.151,6.559-92.479,12.308-109.869h0c1.744-6.711,147.192-40.819,156.292-41.119,2.346-.064,2.127,1.747,2.127,4.28-.607,20.443-7.111,88.83-8.568,101.769-.5,4.757-.362,4.917-1.811,5.468-10.846,4.022-121.286,34.144-158.791,39.288a8.361,8.361,0,0,1-1.555.171Zm27.527-114.006c-12.666,3.911-12.906,4.888-13.128,4.966C100.891,162.2,93.732,242.918,93.732,247.06c33.2-4.786,146.581-36.3,158.531-40.643,1.8-15.976,8.826-91.237,8.826-106.436-11.348,1.329-102.536,22.52-140.484,34.226Z" transform="translate(107.422 98.097)" fill="#212121" fill-rule="evenodd"/>
    <path id="Path_491" data-name="Path 491" d="M190.025,104.044c2.242.444,2,2.269,2,4.575.24,7.4-1.509,29.224-1.7,31.911h0c-1.584,21.62-1.075,18.552-1.629,19.763l-.753.3h-.013l-.733-.342-.307-.775c0-10.937.811-28.987.918-41.388,0-8.924-.142-8.177-.142-9.477a142.1,142.1,0,0,0-32.924,7.486c-11.679,4-8.366,3.515-11.655,3.384l-1.413-1.515v-.013l.082-2.069c1.84-1.718.822-1.175,4.711-2.549a190.989,190.989,0,0,1,26.582-7.411,99.906,99.906,0,0,1,16.981-1.882Z" transform="translate(167.014 106.431)" fill="#212121" fill-rule="evenodd"/>
    <path id="Path_492" data-name="Path 492" d="M139.008,142.367c-2.6,24.258-4.466,46.978-4.486,49.843-11-.344-75.1-25.485-75.287-27.536-.149-1.629-.484-6.586.651-6.2,1.438.489,6.064,2.693,6.064,2.693S123.742,145.709,139.008,142.367Z" transform="translate(66.075 153.263)" fill="#212121" fill-rule="evenodd"/>
    <path id="Path_493" data-name="Path 493" d="M139.82,142.126a.524.524,0,0,1,.32.167l.06.071a1.15,1.15,0,0,1,.076.169l.013.093v.091h0c-.022.251-2.82,31.553-3.68,46.281-.258,4.151-.089,3.555-.3,4.062-.5.771-1.078.689-2.553.5-11.29-1.378-48.312-15.7-60.286-20.665-14.179-5.888-14.719-6.606-14.841-7.973-.147-1.755-.444-5.428.509-6.791h0c.889-1.155,1.958-.64,2.889-.258,1.389.582,3.126,1.391,4.493,2.035.889.418,3.28-1.1,49.314-12.275C118.319,147.03,139,142.1,139.82,142.126ZM66.3,162.733h0l-.173-.067c-3.431-1.629-4.7-2.12-4.924-2.222a25.2,25.2,0,0,0,.04,3.477c.04.549,0,.444.2.562,7.226,4.337,59.824,24.809,72.705,26.742,1.289-15.952,3.542-36.7,4.968-47.843C123.186,147.166,67.463,163,66.3,162.733Z" transform="translate(65.332 152.969)" fill="#212121" fill-rule="evenodd"/>
    <path id="Path_494" data-name="Path 494" d="M139.054,139.308c-2.6,24.258-4.466,46.976-4.486,49.843-11-.344-76.712-26.049-75.287-27.535C66.4,154.2,121.124,143.232,139.054,139.308Z" transform="translate(66.304 149.525)" fill="#fff" fill-rule="evenodd"/>
    <path id="Path_495" data-name="Path 495" d="M139.861,139.067a.586.586,0,0,1,.327.164l.053.073a1.146,1.146,0,0,1,.076.169l.013.093v.091h0c-4.709,54.589-3.6,49.458-3.98,50.347-.5.8-1.111.667-2.389.52-12.815-1.613-63.328-21.036-73.063-26.285-1.135-.613-2.244-1.173-2.244-2.371.364-2.769,11.332-6.419,13.9-7.268C93.182,147.851,139.638,139.058,139.861,139.067Zm-.822,1.264C124.48,143.718,72.706,155,62.18,161.885c9.348,4.975,60.551,24.767,71.994,26.256,0-1.933,1.744-19.141,1.942-21.047,2.918-28.091,3.28-26.842,2.922-26.762Z" transform="translate(65.566 149.23)" fill="#212121" fill-rule="evenodd"/>
    <path id="Path_496" data-name="Path 496" d="M169.653,136q.733-.122,1.467-.207c2.633-.3,7.555,1.182,9.864-.127.271-.158.413-1.513.509-1.86.576-2.1.836-4.189,1.235-6.324a124.473,124.473,0,0,1,4.969-16.1c4.48-.68,9.306-2.8,13.441-2.131,4.793.778,7.5,6.411,12.6,7.97,7.162,2.189,10.432-2.411,11.057-1.542,2.615,3.626,3.455,9.866,5.615,13.986a46.154,46.154,0,0,0,5.111,6.106c-8.288,8.193-16.15,16.632-20.507,27.062-7.284,6.708-12.735,12.057-22.945,14.083-4.324.86-9.53-.222-13.908-.316q-6.111-.14-12.221-.291C167,165.454,168.384,150.607,169.653,136Z" transform="translate(196.672 112.631)" fill="#fff" fill-rule="evenodd"/>
    <path id="Path_497" data-name="Path 497" d="M172.938,135.8c2.94.073,6.013.84,8.126-.047h0a11.443,11.443,0,0,0,.251-1.333c1.333-5.608.62-6.842,3.977-16.752,2.3-6.784,2-6.16,2.375-6.484.342-.211.236-.122,1.453-.371,6-1.22,11.03-3.9,16.414-.64,3.271,2.16,5.164,4.888,8.628,6.306a10.168,10.168,0,0,0,7.777-.149c1.858-.889,2.222-1.353,3.129-1.422,1.071-.016,1.413.64,2.124,1.849,2.466,4.222,3.233,10.97,6.048,14.443,3.526,4.38,4.613,4.311,4.066,5.777-1.2,1.973-14.252,12.5-20.385,26.767-.284.667.069.238-2.762,2.858a47.551,47.551,0,0,1-15.574,10.612c-6.828,2.513-10.146,2.1-17.41,1.371-2.324-.2-1.935-.113-11.63-.464-3.589-.122-3.266-.053-3.706-.349-.593-.6-.458-.282.32-7.424,3.731-35.433,3.466-33.9,3.746-34.146a.593.593,0,0,1,.158-.082l.087-.022h0A12.688,12.688,0,0,1,172.938,135.8Zm16.094-22.887c-.9,2.571-2.331,6.373-2.811,7.828-2.431,6.808-2.106,8.839-3.766,15.308a1.438,1.438,0,0,1-.482.8c-2.444,1.555-7.5-.276-11.241.244-.8,10.888-2.087,27.887-3.055,38.768a159.5,159.5,0,0,1,16.781.527,25.822,25.822,0,0,0,14.521-2.173,48.077,48.077,0,0,0,13.677-9.908c2.258-2.08,1.589-1.287,2.329-2.873,4.035-9.153,12.121-18.116,19.225-25.078a42.661,42.661,0,0,1-4.142-4.993c-2.158-3.715-3.222-10.181-5.308-13.621a13.515,13.515,0,0,1-4.622,1.789,13.368,13.368,0,0,1-7.244-.889c-3.673-1.555-6.259-5.042-8.824-6.6h0c-4.129-2.6-9.059-.149-15.037.878Z" transform="translate(196.102 112.01)" fill="#212121" fill-rule="evenodd"/>
    <path id="Path_498" data-name="Path 498" d="M296.7,147.221c.338.829-.2,1.8-2.222,6.1-6.086,12.888-18.37,37.108-23.976,46.3-2.16,3.373-2.033,3.258-6.319,3.22-12.3-.147-86.853-5.375-92.355-7.917a1.355,1.355,0,0,1-.638-1.978c2.315-4.211,41.917-50.283,47.138-54.069.164.222.2.275,0,0,.429-.249,48.44,4.309,62.344,5.748C296.345,146.279,296.222,146.264,296.7,147.221ZM218.573,140.1c-2.36,1.18-31.184,36.024-35.762,41.67-7.442,9.144-8.6,10.952-8.864,11.292.222.022,9.313,1.953,58.3,5.362,1.387.1,34.062,2.422,34.822,1.478,2.706-3.675,9.726-17.181,11.915-21.372,12.81-24.685,14.443-29.035,14.921-29.911C291.783,148.3,219.158,139.584,218.573,140.1Z" transform="translate(202.836 148.995)" fill="#212121" fill-rule="evenodd"/>
    <path id="Path_499" data-name="Path 499" d="M140.4,157.5c-4.462,0-8.455-1.058-10.2-5.18-1.411-3.32-1.791-4.222,7.713-24.554a7.866,7.866,0,0,1,6-4.444c5.044-.72,6.637,1.647,11.917,9.481,4.888,7.257,5.62,9.281,5.933,10.148a8.222,8.222,0,0,1-3.231,10.092A44.244,44.244,0,0,1,140.4,157.5Z" transform="translate(152.076 129.842)" fill="#e8505b"/>
    <path id="Path_500" data-name="Path 500" d="M235.151,164.147a379.856,379.856,0,0,0-44.523-7.322,1.358,1.358,0,0,1-1.415-2.235c.544-.547,1.111-1.111,20.769,1.989,9.366,1.478,21.1,3.555,25.929,4.96a1.359,1.359,0,1,1-.76,2.609ZM190.537,156.834Zm.6-.331Zm0,0Z" transform="translate(224.635 167.676)" fill="#212121"/>
    <path id="Path_501" data-name="Path 501" d="M231.066,154.3c-7.65-2.222-31.788-5.733-34.293-5.386a1.358,1.358,0,0,1-.347-2.693c3.126-.4,27.607,3.211,35.4,5.473a1.358,1.358,0,0,1-.758,2.606Z" transform="translate(232.482 157.937)" fill="#212121"/>
    <path id="Path_502" data-name="Path 502" d="M83.338,73.04a6.268,6.268,0,0,1-5.255-1.055c-.373-1.033-5.913-7.744-11.721-4.166-4.035,2.484-3.82,9.064-2.851,12.972,1.333,5.437,6.106,5.528,10.033,5.131.149-.013-.389,25.318.4,27.511,1.275,3.542,35.739,24.276,38.128,22.309,4.053-3.333-.875-20.309-.509-20.761.564-.689,9.288,1.971,17.312-1.111,15.47-5.964,13.739-22.26,13.554-32.717a160.149,160.149,0,0,0-3.909-28.94,113.041,113.041,0,0,0-4-14.066c-.835,3.72-6.782,5.333-9.9,5.957a59.551,59.551,0,0,1-31.586-2.54c-3.555-1.353-13.31-8.306-13.243-7.6a198.291,198.291,0,0,0,4.277,20.776c.875,4.062,2.973,9.148,2.355,13.439a5.348,5.348,0,0,1-3.082,4.86Z" transform="translate(70.78 20.731)" fill="#fff" fill-rule="evenodd"/>
    <path id="Path_503" data-name="Path 503" d="M134.565,37.394h0a1.371,1.371,0,0,1,1.724.909,150.519,150.519,0,0,1,6.022,24.942c1.978,11.019,2.651,27.611,1.5,34.046a22,22,0,0,1-10.666,16.759c-6.477,3.669-12.392,3.446-19.636,2.722h0c1.022,5.382,3.631,16.279.222,20.1a2.251,2.251,0,0,1-2.286.767,39.7,39.7,0,0,1-8.8-3.649,218.786,218.786,0,0,1-24.371-14.939c-1.764-1.333-4.457-3.264-5-4.771-.8-3.333-.222-21.4-.222-26.809-7.37.444-10.108-2.72-10.475-9.9-.444-11.332,8.4-13.463,14.019-8.266a14.7,14.7,0,0,1,1.213,1.187c1.822,2.126.722,1.451,1.882,2.042a5.16,5.16,0,0,0,3.875.522h0a4.566,4.566,0,0,0,1.3-.878,7.813,7.813,0,0,0,1.48-5.442A46.957,46.957,0,0,0,84.2,56.988,219.743,219.743,0,0,1,79.31,34.45a.953.953,0,0,1,.949-.953,26.249,26.249,0,0,1,6.293,3.517,34.591,34.591,0,0,0,13.554,5.942,60.849,60.849,0,0,0,11.615,1.5c5.842.158,15.214-.487,20.081-3.673,2.509-1.955,1.418-2.464,2.444-3.226h0a1.587,1.587,0,0,1,.32-.16ZM74.95,86.5c.191,1.744-.178,23.218.482,26.887.54,2.555,31.109,21.14,36.426,21.689a2.8,2.8,0,0,0,.591-1.235c1.111-3.435-.571-11.777-1.255-15.11a27.907,27.907,0,0,1-.544-3.086,1.478,1.478,0,0,1,.293-.96c.787-.889,1.944-.651,3.413-.5,7.291.773,12.688.667,18.818-3.322,8.042-5.806,8.7-14.863,8.444-25.007a131.154,131.154,0,0,0-2.742-26.627,151.541,151.541,0,0,0-4.189-17.543,12.292,12.292,0,0,1-4.711,2.853c-10.235,3.82-27.458,2.666-37.377-1.7-3.182-1.464-8.533-5.168-11.288-6.846.542,4.557,1.955,10.455,3.055,15.239.733,3.191.82,3.86,1.111,5.011,1.309,5.411,2.751,8.715,1.731,13.792A5.886,5.886,0,0,1,85.8,72.843a5.762,5.762,0,0,1-1.791,1.211h0A6.286,6.286,0,0,1,77.957,72.7h0v-.022l-.016-.02c-.016-.051-.049-.076-.073-.138-2.771-3.6-6.928-6-10.757-3.513-2.915,1.933-3.224,6.408-2.751,9.87a7.939,7.939,0,0,0,2.42,5.513c3.622,2.72,8.17-.242,8.17,2.106Zm.518,27.058Z" transform="translate(70.342 20.22)" fill="#212121" fill-rule="evenodd"/>
    <path id="Path_504" data-name="Path 504" d="M70.39,88.8a13.639,13.639,0,0,1-1.555-1.571c-5.088-6.044-9.777-8.753-10.4-19.876-.269-4.784-1.762-9.884-.531-14.692a29.953,29.953,0,0,1,5-9.435,20.012,20.012,0,0,1,10.279-6.588c1.084-.173,5.42.667,6.126.078,1.058-.889,3.449-8.7,9.15-10.872C143.075,5.066,146.348,42.459,146.632,42.8a38.924,38.924,0,0,1,6.088,7.4c4.3,8.806-.964,17.741-6.4,22.318a.651.651,0,0,1-.522.02,110.049,110.049,0,0,0-4.555-16.859c-.835,3.72-6.782,5.333-9.9,5.957A59.551,59.551,0,0,1,99.752,59.1c-3.555-1.353-13.31-8.306-13.243-7.6a198.3,198.3,0,0,0,4.277,20.776c.875,4.062,2.973,9.148,2.355,13.439a5.349,5.349,0,0,1-3.082,4.871A6.268,6.268,0,0,1,84.8,89.526c-.373-1.033-5.913-7.744-11.721-4.166A6.644,6.644,0,0,0,70.39,88.8Z" transform="translate(64.063 3.19)" fill="#212121" fill-rule="evenodd"/>
    <path id="Path_505" data-name="Path 505" d="M62.22,80.71a22.951,22.951,0,0,1-4.031-11.979c-.7-8.333-2.511-12.412.556-19.052a39.7,39.7,0,0,1,4.444-7.135,22.429,22.429,0,0,1,9.3-6.073,8.524,8.524,0,0,1,4-.107,10.79,10.79,0,0,0,2.655.038,43.68,43.68,0,0,1,4.175-7,12.621,12.621,0,0,1,5.52-4.129c23.109-8.846,49.107-11.135,58.013,12.035a33.659,33.659,0,0,1,1.513,5.555,30.1,30.1,0,0,1,6.326,7.984c3.48,8.144.4,16.168-5.933,22.425-1.042.964-1.378,1.407-2.4,1.333a1.627,1.627,0,0,1-.951-.358c-.889-.911.209-.222-3.653-13.73h0c-.164-.582-.149-.531-.3-1.024h0a9.8,9.8,0,0,1-1.86,1.469,27.131,27.131,0,0,1-9.45,3.015h0a60.662,60.662,0,0,1-15.632.389,54.531,54.531,0,0,1-15.843-3.951c-2.244-1.164-3.435-1.96-5.377-3.162-5.542-3.522-4.955-3.271-4.922-2.966.982,6.557,1.989,10.026,3.286,15.91.409,1.778.418,2.066.909,4.1A39.869,39.869,0,0,1,94.58,85.207c-.189,3.091-1.04,5.937-4.024,6.888a6.477,6.477,0,0,1-5.94-1.653,11.235,11.235,0,0,0-3.306-3.353,6.271,6.271,0,0,0-9.277,1.3,9.032,9.032,0,0,0-.68,1.371.529.529,0,0,1-.815.131c.247-.284.667-.758,0,0A106.637,106.637,0,0,1,62.22,80.71ZM87.2,51.021c1.478.207,7.333,4.606,12.443,7.164a36.818,36.818,0,0,0,5.391,1.86,59.624,59.624,0,0,0,24.7,1.333h0a21.047,21.047,0,0,0,9.466-3.415c1.607-1.5.913-2.044,1.8-2.726h0a1.349,1.349,0,0,1,.889-.222c1.16.184,1.333.933,2.444,4.76,0,.222,2.04,6.771,2.889,11.241,4.5-4.415,7.482-11.008,5.7-17.165-1.131-3.9-3.158-5.511-6.144-8.717-1.169-1.244-.842-.907-1.333-3.209a28.421,28.421,0,0,0-2.789-7.395c-5.675-9.686-14.854-13.332-26.522-12.943a88.028,88.028,0,0,0-27.151,6.246c-3.755,1.738-5.611,5.606-7.426,8.964-1.333,2.384-1.655,2.111-6.666,1.66a4.178,4.178,0,0,0-2.2.233,20.847,20.847,0,0,0-6.379,3.664,16.634,16.634,0,0,0-3.6,4.271c-4.526,6.806-4.284,9.833-3.333,17.676.411,3.46.291,4.222.589,6.388,1.129,8.31,4.38,10.532,9.406,16.4a17.122,17.122,0,0,0,1.313,1.471c2.666-5.691,10.061-5.491,14.63.384.733.931.36.74.889,1.022a7.09,7.09,0,0,0,2.62.8,2.869,2.869,0,0,0,1.913-.462c4.553-3.051.822-12.095-.6-18.092a188.9,188.9,0,0,1-4.255-19.945A1.162,1.162,0,0,1,87.2,51.021ZM79.219,36.436Z" transform="translate(63.569 2.5)" fill="#212121" fill-rule="evenodd"/>
    <path id="Path_506" data-name="Path 506" d="M96.618,46.479a143.106,143.106,0,0,1,3.72,13.841c.273,1.24.807,3.691.924,4.955a1.527,1.527,0,0,1-.8,1.555c-2.413,1.491-7.333,1.333-8.722,1.462h.013l.033-.011h0l.047-.024h0l.089-.062.109-.124c.089-.222.233-.276-.571.249l-.42-.64h0a.582.582,0,0,1,.067-.169h0l.049-.067h0a.556.556,0,0,1,.3-.193h0a59.655,59.655,0,0,0,7.111-2.278,109.206,109.206,0,0,1-3.049-18.4v-.071l.538-.556Zm2.4,18.2Z" transform="translate(105.149 35.438)" fill="#212121" fill-rule="evenodd"/>
    <path id="Path_507" data-name="Path 507" d="M98.86,62.112v.013a4.889,4.889,0,0,1-2.151,1.687h0a6.3,6.3,0,0,1-1.569.3c-.289.013-.4,0-.6,0h0a5.131,5.131,0,0,1-4.282-2.066.566.566,0,0,1-.129-.2l-.029-.08h0c0-.171-.04,0,0-.278h0l.036-.087h0l.04-.076a.68.68,0,0,1,.116-.124h0l.067-.047.082-.038h0l.693.309-.036-.08h0l-.06-.084h0L91,61.227h.02l-.027-.022h.027L91,61.192c.351.053,1.333.064,1.573.076a15.693,15.693,0,0,0,3.517.02h0c2.889-.1,1.778-.238,2.953.044Zm-8.03.044c.371-.349.291-.182.333-.64l-.027-.053Z" transform="translate(103.976 53.982)" fill="#212121" fill-rule="evenodd"/>
    <path id="Path_508" data-name="Path 508" d="M91.325,43.693a11.7,11.7,0,0,1,9.824,4.362c-.222,0,.491-.193,1.662,3.5,1.333,4.122,2.053,8-.338,11.59-6.237,8.473-22.887,5.555-22.887-7.906a12.714,12.714,0,0,1,5.586-10.1A10.666,10.666,0,0,1,91.325,43.693Zm.991,1.947a8.87,8.87,0,0,0-9.266,5.9,9.417,9.417,0,0,0-.367,6.777v.018a10.023,10.023,0,0,0,4.624,5.715A11.843,11.843,0,0,0,100,62.447a8.764,8.764,0,0,0,1.933-7.957,26.018,26.018,0,0,0-1.249-5.111,3.764,3.764,0,0,0-.407-.682h0a10.27,10.27,0,0,0-7.964-3.058Zm8.826,2.415h0l-.02-.013Z" transform="translate(91.146 32.648)" fill="#212121" fill-rule="evenodd"/>
    <path id="Path_509" data-name="Path 509" d="M111.707,46.45a8.944,8.944,0,0,0-9.361-3.526c-2.958.418-5.186,2.813-6.468,6.548-2.189,6.353,1.144,13.317,6.1,14.8a9.168,9.168,0,0,0,11.095-5.037,16.756,16.756,0,0,0-.158-9.384,9.639,9.639,0,0,0-1.209-3.4Z" transform="translate(110.218 31.443)" fill="#fff" fill-rule="evenodd"/>
    <path id="Path_510" data-name="Path 510" d="M104.588,42.3a9.379,9.379,0,0,1,8.306,4.375h0a7.938,7.938,0,0,1,1.173,2.613,19.058,19.058,0,0,1,.953,10.272h0a9.7,9.7,0,0,1-9.275,6.877,9.421,9.421,0,0,1-7.253-2.666c-6.444-6.1-4.3-17.867,2.251-20.821A8.561,8.561,0,0,1,104.588,42.3Zm-2.531,2.484c-3.031,1.371-4.691,5.637-4.815,8.553-.222,5.111,2.715,10.284,7.877,10.444a8.808,8.808,0,0,0,4.711-1.2,7.05,7.05,0,0,0,3.055-3.691,12.781,12.781,0,0,0,.444-5.555,21.43,21.43,0,0,0-1.3-6.013h0l-.029-.04-.018-.036h0a7.776,7.776,0,0,0-2.889-2.324A9.877,9.877,0,0,0,102.057,44.785ZM112.9,46.676h0v-.011Z" transform="translate(109.505 30.959)" fill="#212121" fill-rule="evenodd"/>
    <path id="Path_511" data-name="Path 511" d="M86.511,53.955A1.358,1.358,0,0,1,85.153,52.6c0-.7.062-1.5.062-3.526,0-2.615,3.222-1.94,2.733,0-.084,4.242-.08,2.558-.08,3.537a1.355,1.355,0,0,1-1.358,1.347Z" transform="translate(97.949 37.152)" fill="#212121"/>
    <path id="Path_512" data-name="Path 512" d="M98.832,52.412A1.355,1.355,0,0,1,97.5,51.267c-.087-.529-.238-1.88-.5-3.491-.418-2.578,2.889-2.422,2.693-.444.584,4.12.289,2.282.482,3.506a1.355,1.355,0,0,1-1.347,1.573Z" transform="translate(112.386 35.309)" fill="#212121"/>
    <path id="Path_513" data-name="Path 513" d="M91.118,51.206c-.813,0-1.053-.284-1.251-.971a1.358,1.358,0,0,1,.924-1.682c.6-.178-.915.242,3.364-.54a56.885,56.885,0,0,1,7.2-1.073,1.358,1.358,0,0,1,0,2.715C99.462,49.655,92.531,51.206,91.118,51.206Z" transform="translate(103.643 36.648)" fill="#212121"/>
    <path id="Path_514" data-name="Path 514" d="M87.633,50.422c-13.852,0-13.886-.267-14.041-1.555l1.347-.167.118-1.351c.493.033,9.913.349,12.577.349a1.358,1.358,0,1,1,0,2.715Z" transform="translate(83.821 37.147)" fill="#212121"/>
    <path id="Path_515" data-name="Path 515" d="M280.471,113.459c-.651-9,9.89-10.3,13.963-9.4,4.351.964,7.095,4.157,11.139,4.5,6.444.54,14.812-2.766,18.085-7.311a42.752,42.752,0,0,0,15.05,3.178c4.422,9.606,9.977,18.523,12.1,29.933,3.733,20.1,4.962,34.248,0,39.921-10.041,11.477-61.93,31.109-82.627,39.972-10.57,4.528-48.638,11.11-50.927,8.524-4.064-4.6,10.795-6.251,10.795-6.251s-14.148-.064-14.385-2.273c-.311-2.96,4.475-4.371,8.962-5.048a57.291,57.291,0,0,0,7.479-.629,64.158,64.158,0,0,0-7.479.629c-3.353.02-4.928-.282-5.371-2.464-.962-4.8,12.275-4.726,12.85-5.3.273-.269-.875-2.831-1.024-3.262a6.819,6.819,0,0,1,.822-6.524c3.111-3.111,8.4,8.195,8.966,8.768.022.022,7.435-2.244,7.435-2.244s42.065-45.245,47.681-45.616C293.988,152.56,286.655,131.762,280.471,113.459Z" transform="translate(254.982 103.015)" fill="#fff" fill-rule="evenodd"/>
    <path id="Path_516" data-name="Path 516" d="M280.646,113.726c-.376-6.02,4.177-9.3,10.175-10,7.111-.742,9.457,2.944,13.888,4.237,4.331,1.227,12.666-.784,17.243-4.873,1.793-1.6,1.469-1.809,2.044-2.16h0c1.082-.464,5.391,2.533,13.617,2.96,2.235.111,2.318-.251,2.911,1.058,5.846,12.415,10.052,17.876,12.73,32.915a181.661,181.661,0,0,1,2.606,18.947c.482,6.168.482,14.6-3.7,19.11C339.97,188,297.373,204.141,270.951,215.3a82.358,82.358,0,0,1-15.272,4.666c-4.6,1.067-34.915,7.417-38.5,4.344h0a4.234,4.234,0,0,1-1.067-1.615c-.767-2.322,1.14-3.951,3.4-4.889-1.849-.222-5.269-.642-6.191-2.209h0a3,3,0,0,1-.1-2.262,5.635,5.635,0,0,1,3.2-3.169c1.689-.76,1.422-.393,1.111-.86a4.222,4.222,0,0,1-.667-3.789c1.333-3.618,8.617-4.173,12.49-4.615h0c-.353-.949-.64-1.635-.691-1.778-1.042-2.755-.635-7.279,2.042-8.537,3.851-1.575,7.386,5.293,9.457,8.908,1.44-.427,3.789-1.129,5.388-1.611h0l.862-.262c0,.222,38.768-41.523,47.274-45.138C293.6,152.25,280.71,114.58,280.646,113.726Zm-49.569,93.992a1.32,1.32,0,0,1,.2,2.546,54.249,54.249,0,0,1-7.026.691c-2.029.056-8,1.289-8.479,3.158l-.013.027v.053l-.013.053h0c2.1,1.253,13.057,1.367,13.286,1.389a1.333,1.333,0,0,1,1.111,1.251c-.044,1.44-1.218,1.4-2.289,1.555-2.16.32-7.759,1.333-9.124,3.035l-.06.1h0v.016h0v.022h0v.047h0v.056a.857.857,0,0,0,.067.147v.024a2.543,2.543,0,0,0,.191.269c.291.444,5.4.222,10.053-.311a216.7,216.7,0,0,0,38.124-7.931c.258-.1,29.051-11.895,40.261-16.723,9.142-3.946,36.55-15.745,43.139-23.227a13.154,13.154,0,0,0,2.729-6.831c1.509-8.773-2.031-30.726-4.282-38.364-2.335-7.915-7.357-16.948-9.946-22.631-.211-.469-.013-.369-.727-.393a40.832,40.832,0,0,1-13.57-3.084A23.083,23.083,0,0,1,309.7,109.68a12.545,12.545,0,0,1-8.017-1.493c-3.4-1.755-5.28-3.406-9.47-3.32-5.691.142-10.852,2.991-10.459,8.646,0,.889,13.741,39,13.777,39.435a.8.8,0,0,1-.74.809c-5.275.529-46.907,45.643-47.129,45.8.273,0-4.129,1.32-6.531,2.055-2.52.755-2.033.68-4.257-3.111a16.357,16.357,0,0,0-4.731-5.708l-.089-.029a.745.745,0,0,0-.182-.033h-.076a.41.41,0,0,0-.082.029H231.7l-.04.024h-.02a2.444,2.444,0,0,0-.5.638,4.542,4.542,0,0,0-.475,1.893,7.465,7.465,0,0,0,.4,2.858c.667,1.88,1.589,3.284.8,4.4-.584.667-1.124.6-4.542,1.027a25.523,25.523,0,0,0-6.348,1.42,3.625,3.625,0,0,0-1.555,1.073v.02l-.042.06v.018l-.013.02-.013.036-.013.02-.013.036v.018l-.02.053v.018l-.013.038v.28l.013.056v.027c.013.071.04.178.053.24l.013.031.013.062.013.027v.029l.013.027.013.051.013.024v.022l.013.024v.022l.013.02.013.04.013.018v.02c.678.889,3.126.855,4.942.624a57.274,57.274,0,0,1,6.648-.351Zm-15.332,6.828Z" transform="translate(254.245 102.568)" fill="#212121" fill-rule="evenodd"/>
    <path id="Path_517" data-name="Path 517" d="M268.6,121.014l-.4.653c-1.347.564-3.878,1.7-4.915,2.087-.1.038-3.713,1.358-4.888,1.831a74.335,74.335,0,0,0-8.47,3.957h-.013v-.093l-.647.138h0a.761.761,0,0,1-.129-.124l-.053-.078-.033-.084a.637.637,0,0,1-.029-.182,10.6,10.6,0,0,1,2-2.222,16.2,16.2,0,0,1,2.587-1.953,31.5,31.5,0,0,1,13.239-4.222C268.156,120.592,267.768,120.514,268.6,121.014Z" transform="translate(298.199 126.693)" fill="#212121" fill-rule="evenodd"/>
    <path id="Path_518" data-name="Path 518" d="M64.934,140.857a7.066,7.066,0,0,1,2.638,1.08c3.107,2.018,9.633,10.582,9.551,12.378l-.453-.424,1.467.065v0h0v0l-.013-.031h0l-.016-.035H76.67c-.81-1.73-9.247-9.856-11.288-10.526h-.036c-15.123-4.008-35.082-.763-42.18,11.53l-.723.247-.259-.665C28.24,140.53,49.117,136.6,64.934,140.857Z" transform="translate(21 150.805)" fill="#212121" fill-rule="evenodd"/>
    <path id="Path_519" data-name="Path 519" d="M77.017,177.4c6.422,2.064,13.532,4.08,21.272,6.022C85.5,219.821,16.413,403.5,15.864,404.737c-3.542,7.942-13.346,5.715-9.3-5.357C7.285,397.413,65.513,222.467,77.017,177.4Z" transform="translate(0.734 196.075)" fill="#fff" fill-rule="evenodd"/>
    <path id="Path_520" data-name="Path 520" d="M92.81,181.445c7,1.849,6.517,1.5,6.815,1.955.789,1.778-80.729,220.449-82.4,223.368-4.828,7.85-14.559,4.648-11.715-5.94C6.261,398,63.75,227.091,76.484,180.339c.8-2.926.74-2.793.813-2.938C77.84,176.715,77.326,177.332,92.81,181.445ZM7.736,403.558a5.4,5.4,0,0,0,.835,3.915c1.793,2.189,5.013.382,6.484-2.362.2-.376,75.429-199.555,83.071-220.915-12.71-3.26-19.127-5.586-20-5.8C62.392,240.009,8.043,400.483,7.736,403.558Z" transform="translate(0 195.783)" fill="#212121" fill-rule="evenodd"/>
    <path id="Path_521" data-name="Path 521" d="M273.837,174.922c8.586,37.384,70.685,223.953,71.432,226,4.04,11.066-5.764,13.292-9.3,5.351-.584-1.3-77.427-205.623-84.006-225.921Q262.911,177.78,273.837,174.922Z" transform="translate(301.798 193.047)" fill="#fff" fill-rule="evenodd"/>
    <path id="Path_522" data-name="Path 522" d="M274.47,174.757l.067.047.062.062a.6.6,0,0,1,.089.149l.027.08h0c7.733,31.437,52.8,167.462,63.008,198.157,9.681,29.355,10.87,30.626,9.973,34.817-1.007,4.7-6.635,6.493-10.746,1.969a11.374,11.374,0,0,1-1.777-2.722c-2.284-5.333-84.173-224.19-83.5-226.9.369-.793-.2.076,20.325-5.208C274.272,174.643,274.177,174.606,274.47,174.757Zm-.829,1.167c-2.653.667-6.888,1.924-20.443,5.206.042.111.222.667.351,1.02,6.6,18.685,26.393,70.672,44.219,118.135,41.748,111.122,39.775,107.344,42.563,109.087a2.993,2.993,0,0,0,4.04-.393,3.318,3.318,0,0,0,.291-.427l.02-.049a4.218,4.218,0,0,0,.333-.807,6.608,6.608,0,0,0,.191-2.342c-.309-4-43.93-131.176-65.208-206.247-6.966-24.2-5.882-23.325-6.357-23.183Z" transform="translate(301.442 192.752)" fill="#212121" fill-rule="evenodd"/>
  </g>
</svg>
