<svg xmlns="http://www.w3.org/2000/svg" width="165.574" height="192.406" viewBox="0 0 165.574 192.406">
  <g id="Group_1259" data-name="Group 1259" transform="translate(-48.125 -34.917)">
    <path id="Path_570" data-name="Path 570" d="M139.381,215.831c-19.305,4.141-40.775-6.863-48.687-24.952-5.159-11.8-4.937-25.581-11.142-36.862-4.691-8.531-12.569-14.743-19.314-21.764S47.483,116.32,48.18,106.609c.589-8.195,5.907-15.342,12.086-20.758s13.362-9.593,19.526-15.026C88.057,63.54,94.384,54.092,103.429,47.8s22.646-8.4,30.38-.557Z" fill="#e0deff"/>
    <g id="Group_1214" data-name="Group 1214">
      <g id="Group_1211" data-name="Group 1211">
        <path id="Path_571" data-name="Path 571" d="M106.979,135.4l-5.434,12.4a23.263,23.263,0,0,0-1.715,12.681h0A23.263,23.263,0,0,0,109.969,176.5l23.663,15.735V124.365h-18.2Z" fill="#577f7e"/>
        <path id="Path_572" data-name="Path 572" d="M105.173,122.6a28.806,28.806,0,0,0-.275,9.451,24.835,24.835,0,0,0,4.477,10.106,74.38,74.38,0,0,0,7.322,8.392c-.539-10.735,7.055-21.284,7.055-21.284Z" fill="#73a29a"/>
        <path id="Path_573" data-name="Path 573" d="M143.007,132.162c-5.632-3.341-12.707-2.893-19.255-2.893l-3.417-17.319c5.149,0,10.229,3.04,13.84,6.712S140.721,127.547,143.007,132.162Z" fill="#73a29a"/>
        <g id="Group_1205" data-name="Group 1205">
          <path id="Path_574" data-name="Path 574" d="M116.445,116.407a22.011,22.011,0,0,0,1.92-9.124l-1.323-1.937L99.863,119.352l4.516,5.013a14.315,14.315,0,0,0,12.066-7.958Z" fill="#de8c9f"/>
          <path id="Path_575" data-name="Path 575" d="M124.7,116.563l-6.339-9.28a22.011,22.011,0,0,1-1.92,9.124,14.315,14.315,0,0,1-12.066,7.958l4.314,4.787a10.207,10.207,0,0,0,15.059.117h0A10.206,10.206,0,0,0,124.7,116.563Z" fill="#edc6d5"/>
        </g>
        <g id="Group_1210" data-name="Group 1210">
          <g id="Group_1206" data-name="Group 1206">
            <circle id="Ellipse_8" data-name="Ellipse 8" cx="6.573" cy="6.573" r="6.573" transform="translate(71.089 104.127)" fill="#edc6d5"/>
            <circle id="Ellipse_9" data-name="Ellipse 9" cx="3.407" cy="3.407" r="3.407" transform="translate(74.254 107.293)" fill="#de8c9f"/>
          </g>
          <path id="Path_576" data-name="Path 576" d="M79.849,111.95A40.416,40.416,0,0,1,65.691,92.882,34.9,34.9,0,0,1,64,75.64a27.584,27.584,0,0,1,7.862-15.311A25.233,25.233,0,0,1,95.506,54.3c-1.053-3.533-1.88-7.027-2.933-10.559a7.785,7.785,0,0,1,5.677,7.345c.764-3.492,1.776-6.42,2.541-9.912a9.672,9.672,0,0,1,.841,12.843c2.77-1.4,5.315-2.452,8.085-3.847a7.04,7.04,0,0,1-6.41,5.326c4.418-.274,8.886,2.742,11.658,6.193a25.539,25.539,0,0,1,4.859,12.194,43.5,43.5,0,0,1-.888,17.584A104.94,104.94,0,0,1,79.849,111.95Z" fill="#100063"/>
          <path id="Path_577" data-name="Path 577" d="M96.963,66.864A26.655,26.655,0,0,1,84.671,89.028c.267-4.307.465-8.742.732-13.048A21.781,21.781,0,0,1,75.1,91.459c1.559-5.809,2.881-12.1,4.441-17.908a33.718,33.718,0,0,0-9.444,19.1l6.238,15.457a22.747,22.747,0,0,0,29.606,12.581h0A22.746,22.746,0,0,0,118.517,91.08L117.4,88.322a21.958,21.958,0,0,1-10.076-5.5C102.844,78.619,99.849,72.294,96.963,66.864Z" fill="#edc6d5"/>
          <g id="Group_1207" data-name="Group 1207">
            <path id="Path_578" data-name="Path 578" d="M129.3,89.829a6.573,6.573,0,1,1-6.573-6.572A6.573,6.573,0,0,1,129.3,89.829Z" fill="#edc6d5"/>
            <path id="Path_579" data-name="Path 579" d="M126.138,89.829a3.407,3.407,0,1,1-3.407-3.406A3.407,3.407,0,0,1,126.138,89.829Z" fill="#de8c9f"/>
          </g>
          <g id="Group_1208" data-name="Group 1208">
            <path id="Path_580" data-name="Path 580" d="M79.677,92.958a6.21,6.21,0,0,0-2.851,4.985,38.321,38.321,0,0,1,8.561-5.6A6.212,6.212,0,0,0,79.677,92.958Z" fill="#100063"/>
          </g>
          <g id="Group_1209" data-name="Group 1209">
            <path id="Path_581" data-name="Path 581" d="M97.7,83.808a6.686,6.686,0,0,0-3.779,4.819,43.621,43.621,0,0,1,9.9-4.63A6.681,6.681,0,0,0,97.7,83.808Z" fill="#100063"/>
          </g>
          <path id="Path_582" data-name="Path 582" d="M86.446,99.975a1.926,1.926,0,1,1-1.927-1.927A1.926,1.926,0,0,1,86.446,99.975Z"/>
          <path id="Path_583" data-name="Path 583" d="M105.378,92.573a1.926,1.926,0,1,1-1.926-1.927A1.926,1.926,0,0,1,105.378,92.573Z"/>
          <path id="Path_584" data-name="Path 584" d="M99.811,101.984,92.835,105.3a4.173,4.173,0,0,0,4.72,1.177A4.425,4.425,0,0,0,99.811,101.984Z" fill="#de8c9f"/>
          <path id="Path_585" data-name="Path 585" d="M106.436,102.446a38.653,38.653,0,0,1-12.071,10.628c2.165,1.387,4.967,2.626,7.519,2.311a7.446,7.446,0,0,0,5.95-4.726C108.75,108.157,108.245,104.4,106.436,102.446Z" fill="#fff"/>
        </g>
        <path id="Path_586" data-name="Path 586" d="M112.765,162.051l22.265,11.423v3.263l-.231-.034a31.07,31.07,0,0,1-22.034-14.652Z" fill="#456b69"/>
      </g>
      <rect id="Rectangle_28" data-name="Rectangle 28" width="84.395" height="192.406" transform="translate(129.304 34.917)" fill="#cac8f4"/>
      <g id="Group_1212" data-name="Group 1212">
        <path id="Path_587" data-name="Path 587" d="M125.706,93.244h9.827a2.548,2.548,0,0,1,2.548,2.548h0a2.549,2.549,0,0,1-1.787,2.431l-8.01,2.508a3.134,3.134,0,0,1-3.757-1.622h0a4.458,4.458,0,0,1,.207-4.274Z" fill="#edc6d5"/>
        <path id="Path_588" data-name="Path 588" d="M125.706,93.244l-.738-.591a3.843,3.843,0,0,1-.055-5.957l.793-.659,8.227.544,4.886,1.354A2.7,2.7,0,0,1,140.8,90.54h0a2.7,2.7,0,0,1-2.7,2.7Z" fill="#edc6d5"/>
        <path id="Path_589" data-name="Path 589" d="M125.178,81.06l4-.782a4.387,4.387,0,0,1,2.258.154l4.467,1.525,2.325,1.55a2.108,2.108,0,0,1,.938,1.754h0a2.107,2.107,0,0,1-2.67,2.031l-2.565-.711-8.227-.544-1.454-1.145a2.168,2.168,0,0,1-.332-3.082h0A2.169,2.169,0,0,1,125.178,81.06Z" fill="#edc6d5"/>
        <path id="Path_590" data-name="Path 590" d="M126,80.9V79.284a3.552,3.552,0,0,1,2.682-3.444l1.347-.34a1.9,1.9,0,0,1,1.514.256l2.482,1.635a4.39,4.39,0,0,1,1.883,4.566h0l-4.467-1.525a4.387,4.387,0,0,0-2.258-.154Z" fill="#edc6d5"/>
        <path id="Path_591" data-name="Path 591" d="M125.706,93.244l2.435-.872a7.993,7.993,0,0,1,4.325-.3l5.631,1.173Z" fill="#de8c9f"/>
        <path id="Path_592" data-name="Path 592" d="M125.706,86.037l8.227.544,2.565.711h0a7.825,7.825,0,0,0-6.086-1.844Z" fill="#de8c9f"/>
        <path id="Path_593" data-name="Path 593" d="M126,80.9l3.183-.622a4.387,4.387,0,0,1,2.258.154l3.592,1.226-2.968-2.171a2.977,2.977,0,0,0-3.22-.191Z" fill="#de8c9f"/>
      </g>
      <g id="Group_1213" data-name="Group 1213">
        <path id="Path_594" data-name="Path 594" d="M125.706,197.322h9.827a2.548,2.548,0,0,0,2.548-2.548h0a2.549,2.549,0,0,0-1.787-2.431l-8.01-2.509a3.135,3.135,0,0,0-3.757,1.623h0a4.456,4.456,0,0,0,.207,4.273Z" fill="#edc6d5"/>
        <path id="Path_595" data-name="Path 595" d="M125.706,197.322l-.738.59a3.844,3.844,0,0,0-.055,5.958l.793.659,8.227-.544,4.886-1.354a2.7,2.7,0,0,0,1.981-2.606h0a2.7,2.7,0,0,0-2.7-2.7Z" fill="#edc6d5"/>
        <path id="Path_596" data-name="Path 596" d="M125.178,209.506l4,.782a4.387,4.387,0,0,0,2.258-.154l4.467-1.525,2.325-1.551a2.105,2.105,0,0,0,.938-1.753h0a2.107,2.107,0,0,0-2.67-2.031l-2.565.711-8.227.544-1.454,1.144a2.169,2.169,0,0,0-.332,3.083h0A2.169,2.169,0,0,0,125.178,209.506Z" fill="#edc6d5"/>
        <path id="Path_597" data-name="Path 597" d="M126,209.666v1.616a3.553,3.553,0,0,0,2.682,3.444l1.347.34a1.9,1.9,0,0,0,1.514-.256l2.482-1.635a4.39,4.39,0,0,0,1.883-4.566h0l-4.467,1.525a4.387,4.387,0,0,1-2.258.154Z" fill="#edc6d5"/>
        <path id="Path_598" data-name="Path 598" d="M125.706,197.322l2.435.872a7.993,7.993,0,0,0,4.325.3l5.631-1.173Z" fill="#de8c9f"/>
        <path id="Path_599" data-name="Path 599" d="M125.706,204.529l8.227-.544,2.565-.711h0a7.824,7.824,0,0,1-6.086,1.843Z" fill="#de8c9f"/>
        <path id="Path_600" data-name="Path 600" d="M126,209.666l3.183.622a4.387,4.387,0,0,0,2.258-.154l3.592-1.227-2.968,2.172a2.978,2.978,0,0,1-3.22.191Z" fill="#de8c9f"/>
      </g>
    </g>
  </g>
</svg>
