<svg xmlns="http://www.w3.org/2000/svg" width="177.129" height="197.628" viewBox="0 0 177.129 197.628">
  <g id="Group_1258" data-name="Group 1258" transform="translate(-274.746 -271.27)">
    <path id="Path_662" data-name="Path 662" d="M339.077,453.128c25.143,4.6,86.851,14.241,92.618-24.289,1.344-8.981-1.67-18.131-.766-27.168,1.207-12.055,9.082-22.2,14.9-32.826,7.67-14.026,9.454-34.89-3.019-46.988-16.3-15.812-46.146-5.4-64.019-19.413-5.539-4.342-9.227-10.57-13.937-15.8s-11.338-9.718-18.3-8.674Z" fill="#e0deff"/>
    <g id="Group_1256" data-name="Group 1256">
      <path id="Path_663" data-name="Path 663" d="M394.509,327.119c-.934-8.8-2.986-17.643-1.685-26.392,1.7-11.436,9.714-21.941,20.624-25.769s24.229-.29,31.139,8.98c7.571,10.157,6.59,24.268,3.618,36.583s-7.619,24.666-6.237,37.259c1.338,12.185,8.28,24.151,5.255,36.03-3.019,11.859-16.189,19.491-28.347,18.107s-22.6-10.424-27.766-21.518c-4.391-9.436-7.165-23.972-3.256-34.012,1.52-3.9,4.233-7.063,5.5-11.144C395.175,339.4,395.148,333.148,394.509,327.119Z" fill="#441d19"/>
      <g id="Group_1247" data-name="Group 1247">
        <path id="Path_664" data-name="Path 664" d="M355.429,328.746v16.318l11.461.541a36.385,36.385,0,0,1,4.967-14.845Z" fill="#edc6d5"/>
        <path id="Path_665" data-name="Path 665" d="M374.648,331.1l-2.791-.343a36.385,36.385,0,0,0-4.967,14.845l4.235.2Z" fill="#de8c9f"/>
      </g>
      <path id="Path_666" data-name="Path 666" d="M404.084,342.192l-9.96-6.245a55.15,55.15,0,0,0-15.306-6.623l-6.345-1.666-.2.563a32.159,32.159,0,0,0-.7,19.4h6.527l-13.659,8.447a10.508,10.508,0,0,0-4.9,10.248l.282,2.25a12.753,12.753,0,0,1-1.433,7.649l-2.954,5.47v62.19l9.066,8.884,15.968-13.934a217.549,217.549,0,0,0,35.5-39.6L435.75,370.81l-16.837-20.84Z" fill="#e09c44"/>
      <path id="Path_667" data-name="Path 667" d="M378.093,347.624l5.168-13.445-.571.55a15.377,15.377,0,0,0-4.6,12.895Z" fill="#d1832f"/>
      <path id="Path_668" data-name="Path 668" d="M360.9,375.064l11.065,5.017a12.392,12.392,0,0,1,6.649,7.4l1.27,3.842a10.415,10.415,0,0,0,2.01,3.546l.8.927a14.626,14.626,0,0,1,3.554,9.557h0Z" fill="#d1832f"/>
      <g id="Group_1248" data-name="Group 1248">
        <path id="Path_669" data-name="Path 669" d="M418.7,343.771a14.631,14.631,0,0,0,3.648-.716l2.017-3.9L407.9,334.179l-.7,1.448a11.333,11.333,0,0,0,11.505,8.144Z" fill="#de8c9f"/>
        <path id="Path_670" data-name="Path 670" d="M418.7,343.771a11.333,11.333,0,0,1-11.505-8.144l-5.723,12.066a8.316,8.316,0,0,0,2.8,10.481h0a8.315,8.315,0,0,0,12.07-3.048l6-12.071A14.631,14.631,0,0,1,418.7,343.771Z" fill="#edc6d5"/>
      </g>
      <path id="Path_671" data-name="Path 671" d="M424.368,375.5h0a19.076,19.076,0,0,0-12.1,10.8l-15.867,37.266,27.962-38.823Z" fill="#d1832f"/>
      <g id="Group_1251" data-name="Group 1251">
        <g id="Group_1249" data-name="Group 1249">
          <path id="Path_672" data-name="Path 672" d="M420.626,398.536a20.564,20.564,0,0,1-8.912-3.223l-10.232,17.651-34.993-9.484-4.644,11.051,36.9,12.519a11.8,11.8,0,0,0,13.511-4.482l17.222-25.007A20.552,20.552,0,0,1,420.626,398.536Z" fill="#edc6d5"/>
          <path id="Path_673" data-name="Path 673" d="M429.481,397.561l.1-.151-15.728-5.8-2.143,3.7a20.306,20.306,0,0,0,17.767,2.248Z" fill="#de8c9f"/>
        </g>
        <path id="Path_674" data-name="Path 674" d="M435.75,370.81l.49.742a16.474,16.474,0,0,1,2.227,13.094l-3.533,14.04h-3.28a32.754,32.754,0,0,1-20.154-6.935h0l7.7-10.936a23.536,23.536,0,0,1,13.8-9.349Z" fill="#e09c44"/>
        <g id="Group_1250" data-name="Group 1250">
          <path id="Path_675" data-name="Path 675" d="M363.712,394.266,361.76,392.6a4.135,4.135,0,0,0-4.442-.6l-6.519,3.064a2.917,2.917,0,0,0-1.675,2.639v1.322l-1.539.329a2.566,2.566,0,0,0-2.012,2.793h0a2.565,2.565,0,0,0,1.928,2.206l.082.02.027,1.177a3.515,3.515,0,0,0,2.344,3.233l.349.123-.055.581a3.35,3.35,0,0,0,1.882,3.331l2.41,1.16a10.033,10.033,0,0,0,10.09-.809h0a8.783,8.783,0,0,0,3.73-7.962l-.2-2.31A12.794,12.794,0,0,0,363.712,394.266Z" fill="#edc6d5"/>
          <path id="Path_676" data-name="Path 676" d="M350.3,408.914l6.364,1.5,4.152.317-1.707.587A6.4,6.4,0,0,1,354,410.9Z" fill="#de8c9f"/>
          <path id="Path_677" data-name="Path 677" d="M347.5,404.361l4.954-.792a7.125,7.125,0,0,1,3.337.263l3.621,1.184Z" fill="#de8c9f"/>
          <path id="Path_678" data-name="Path 678" d="M349.124,399.033l6.679-1.813a4.636,4.636,0,0,1,2.348-.021l3.054.768-2.112-1.382a4.892,4.892,0,0,0-4.982-.22Z" fill="#de8c9f"/>
        </g>
      </g>
      <g id="Group_1252" data-name="Group 1252">
        <path id="Path_679" data-name="Path 679" d="M401.676,361.693a12.4,12.4,0,0,0,8.578,1.207,21.055,21.055,0,0,0,6.879-2.845,33.774,33.774,0,0,1-7.052,1.681,12.79,12.79,0,0,1-7.618-1.4,10.143,10.143,0,0,1-4.508-6.094,18.339,18.339,0,0,1-.409-7.147,14.15,14.15,0,0,0-.736,7.416A10.388,10.388,0,0,0,401.676,361.693Z" fill="#d1832f"/>
        <path id="Path_680" data-name="Path 680" d="M386.092,350.833a30.484,30.484,0,0,0,7.192,26.771,51.1,51.1,0,0,1-7.192-26.771Z" fill="#d1832f"/>
        <path id="Path_681" data-name="Path 681" d="M390.434,366.358A30.589,30.589,0,0,0,414.4,376.764a54.162,54.162,0,0,1-23.968-10.406Z" fill="#d1832f"/>
        <path id="Path_682" data-name="Path 682" d="M434.317,394.338a71.737,71.737,0,0,1-18.926-4.554,21.019,21.019,0,0,0,18.926,4.554Z" fill="#d1832f"/>
        <path id="Path_683" data-name="Path 683" d="M355.868,428.678a54.769,54.769,0,0,0,14.983,12A149.47,149.47,0,0,1,357.3,427.413q-.953-1.071-1.868-2.164v2.912C355.578,428.332,355.717,428.509,355.868,428.678Z" fill="#d1832f"/>
        <path id="Path_684" data-name="Path 684" d="M383.533,429.014a85.013,85.013,0,0,1-16.185-3.053,79.871,79.871,0,0,1-11.919-4.71v.866a41.75,41.75,0,0,0,11.441,5.437A40.184,40.184,0,0,0,383.533,429.014Z" fill="#d1832f"/>
      </g>
      <rect id="Rectangle_31" data-name="Rectangle 31" width="80.683" height="197.628" transform="translate(274.746 271.27)" fill="#cac8f4"/>
      <path id="Path_685" data-name="Path 685" d="M364.495,452.762l-9.065,11.332V443.878Z" fill="#656eff"/>
      <g id="Group_1255" data-name="Group 1255">
        <path id="Path_686" data-name="Path 686" d="M402.933,303.09l-2.836,4.187-.395,10.5a20.86,20.86,0,1,0,41.626,2.791l.284-7.548a30.568,30.568,0,0,1-8.664-16.782C424.959,302.352,412.992,303.09,402.933,303.09Z" fill="#edc6d5"/>
        <g id="Group_1253" data-name="Group 1253">
          <path id="Path_687" data-name="Path 687" d="M413.531,305.267a6.709,6.709,0,0,0-5.6,2.644,41.661,41.661,0,0,1,11.029.341A6.709,6.709,0,0,0,413.531,305.267Z" fill="#441d19"/>
        </g>
        <path id="Path_688" data-name="Path 688" d="M414.967,312.915a1.734,1.734,0,1,1-1.733-1.734A1.734,1.734,0,0,1,414.967,312.915Z"/>
        <g id="Group_1254" data-name="Group 1254">
          <path id="Path_689" data-name="Path 689" d="M431.167,309.109a6.7,6.7,0,0,1,4.369,4.39,41.662,41.662,0,0,0-10.488-3.428A6.707,6.707,0,0,1,431.167,309.109Z" fill="#441d19"/>
        </g>
        <path id="Path_690" data-name="Path 690" d="M427.217,315.813a1.734,1.734,0,1,0,2.22-1.041A1.733,1.733,0,0,0,427.217,315.813Z"/>
        <path id="Path_691" data-name="Path 691" d="M423.817,323.707l-6.691-.981a3.321,3.321,0,0,0,2.462,2.444C421.039,325.463,422.522,324.425,423.817,323.707Z" fill="#de8c9f"/>
        <path id="Path_692" data-name="Path 692" d="M426.868,328.708a42.807,42.807,0,0,1-15.607-2.369A7.986,7.986,0,0,0,414,331.791a7.433,7.433,0,0,0,5.655,1.593C422.445,333,424.775,330.6,426.868,328.708Z" fill="#fff"/>
      </g>
    </g>
  </g>
</svg>
