<svg xmlns="http://www.w3.org/2000/svg" width="638.829" height="530.679" viewBox="0 0 638.829 530.679">
  <g id="Treasure_chest" data-name="Treasure chest" transform="translate(-5.013 -29.555)">
    <path id="Path_1243" data-name="Path 1243" d="M8.132,216.826c13.929,73.517,96.291,77.9,130.371,71.226C141.748,302.3,171.05,437.267,174.3,448.627c12.171,8.924,160.664,67.631,172.566,71.136C367.419,513,589.3,405.26,617.794,385.6c4.983-24.233,14.139-119.317,15.137-152.224.22-7.415.881-6.067-7.347-10.656a186.645,186.645,0,0,0-19.721-8.6c-2.108-.828-3.721,2.117-1.628,3.194,4.957,2.555,9.781,5.314,14.54,8.252,6.963,4.313,7.825,6.252.311,9.345-67.19,27.667-275.777,111.285-280.776,110.476-5.41-.9-182.883-56.6-194.477-61.711C137.972,277.134,83.608,133.459,73.4,63.2,43.384,78.341-8.187,130.7,8.132,216.826Zm393.816,47.033a1.9,1.9,0,0,1,3.388-.756c1.419,2.2,3.868,13.218,4.717,16.5,1.388,5.391.529,9.768-.22,15.441a53.632,53.632,0,0,1-1.855,9.627,2.016,2.016,0,0,1-3.862-.489,85.641,85.641,0,0,1,1.516-9.5,35.789,35.789,0,0,0,0-13.894C404.773,277.376,401.741,266.626,401.948,263.859Zm3.282-8.607c4.208-3.829,12.451-8.77,17.553-12.66a1.873,1.873,0,0,1,2.536,2.754c-3.76,3.653-13.2,11.356-17.844,13.1a1.969,1.969,0,0,1-2.245-3.19Zm26.482-17.1c5.653,7.032,11.442,14,16.767,21.278a1.936,1.936,0,0,1-3.027,2.412c-6.413-7.067-12.367-14.568-18.465-21.906-.9-1.084-28.046-7.735-30.291-8.325A230.841,230.841,0,0,0,373.94,246.25c7.347,4,16.687,6.655,24.4,10.076a2,2,0,0,1-1.4,3.686c-1.174-.359-26.191-8.847-26.568-9.228a130.354,130.354,0,0,0-9.252,18.049,406.523,406.523,0,0,0,39.7,15.006c2.412.806.947,4.21-1.4,3.608A285.677,285.677,0,0,1,362.3,275.266c4.307,9.556,10.079,17.93,14.462,27.246a1.879,1.879,0,0,1-3.19,1.895c-5.388-6.774-9.73-15.679-14.044-23.318-3.067-5.43-5.9-9.352-3.406-15.3a86.422,86.422,0,0,1,7.514-14.218,29.96,29.96,0,0,1,8.263-9.032A164.317,164.317,0,0,1,392.989,229a9.319,9.319,0,0,1,7.49-.753,250.112,250.112,0,0,1,26.951,7.179c2.52.875,2.6.628,4.283,2.727Zm-13.1,41.537c8.391-4.981,17.974-9.821,26.656-14.683,2.04-1.141,3.979.943,2.787,3.575-1.806,3.994-10.574,23.933-14.385,27.068-1.6,1.322-4.311-.44-3.252-2.119a225.54,225.54,0,0,0,11.662-21.878,151.148,151.148,0,0,1-21.461,11.59c-2.084.793-4.1-2.315-2.007-3.553Zm-134.687-15.4c.308,3.965-4.232,5.4-4.512.579-.749-12.859,5.437-28.147,4.58-39.913a89.763,89.763,0,0,0-9.693-34.908c-1.469,6.961-6.807,12.26-12.026,16.714A79.11,79.11,0,0,1,205.8,225.43c-2.32-.145-2.2-4.2.167-4.117,21.274.762,44.2-7.362,58.517-23.572,9.649-10.927,6.452-20.677-8.755-21.382-22.173-1.029-43.209,9.823-56.847,27.035-1.657,2.093-4.644-.441-3.172-2.582,13.368-19.437,37.437-30.5,60.854-29.317,13.982.707,18.91,8,24.1,20.408a122.044,122.044,0,0,1,7.691,28.2c1.76,13.634-5.527,30-4.432,44.185Zm-83.858-39.268c6.541,15.04,16.639,24.028,32.474,31.826,8.246,4.062,16.888,6.221,24.88,11.151a31.773,31.773,0,0,1,13.784,18.269,1.925,1.925,0,0,1-3.624,1.289c-3-8.025-10.9-15.059-18.516-19.014-8.426-4.368-13.357-4.884-21.862-8.858A59.993,59.993,0,0,1,196.4,226.325a1.95,1.95,0,0,1,3.67-1.306Zm363.856-56.052a173.9,173.9,0,0,0-15.394,21.589A143.272,143.272,0,0,0,536.7,213.94c-1.04,2.932-3.8.963-3.359-1.258,1.489-7.6,8.47-20.446,11.052-24.653a118.469,118.469,0,0,1,16.791-21.657C562.7,164.849,565.282,167.3,563.925,168.966Zm-22.217,2.276c-17.456,6.633-21.505-3.362-20.142-18.82a63.167,63.167,0,0,1,4.957-21.481c1-2.084,3.985-.522,3.538,1.52a169.407,169.407,0,0,0-3.924,18.644c-1.284,12.253-1.516,22.177,15.079,15.663a47.635,47.635,0,0,0,14.669-9.252,1.919,1.919,0,0,1,2.7,2.725A46.588,46.588,0,0,1,541.708,171.242Zm-21.062-43.134a62.9,62.9,0,0,1-8.545,21.864c-9.785,15.828-20.5,21.809-34.1,5.212a38.361,38.361,0,0,1-8.532-20.146c-.271-2.529,3.3-2.721,3.827-.37a42.557,42.557,0,0,0,7.552,16.683c12.427,16.353,20.928,7.512,28.577-5.6a70.5,70.5,0,0,0,7.29-18.285c.61-2.443,4.386-1.917,3.928.645Zm-57.352,7.622c5.536,17.857,8.151,42.894,4.664,61.3a1.886,1.886,0,1,1-3.745-.441c.881-22.653.586-37.485-4.562-59.819-.476-2.071,3-3.1,3.644-1.035Zm-6.2-23.27c2.555-3.02,7.45-4.78,10.964-2.287a1.954,1.954,0,0,1-1.381,3.485,5.54,5.54,0,0,0-6.646,2.282c-3.525,5.459.639,14.222,8.045,8.649a4.886,4.886,0,0,0,1.762-6.263,1.866,1.866,0,0,1,3.152-1.908,8.083,8.083,0,0,1-.846,10.246C461.538,138.264,448.155,123.022,457.1,112.461Zm63.91,9.4a10.281,10.281,0,0,1-1.421-10.059,9.913,9.913,0,0,1,7.832-6.437c3.664-.531,8.651,1.452,9.816,5.2a2,2,0,0,1-3.362,2,6.629,6.629,0,0,0-7.466-2.276c-4.869,1.884-3.95,7.728-.661,10.3,4.012,3.139,8.708,1.17,8.856-1.835.137-2.771,3.227-3.622,3.646-1.3C539.486,124.352,528.123,130.529,521,121.865Zm57.964,30.484c-2.011-2.24-4.349-4.294-7.567-3.3a5.706,5.706,0,0,0-2.465,9.548,4.487,4.487,0,0,0,6.124-.093c3.553-3.677,5.686.15,2.727,3.007a8.629,8.629,0,0,1-14.132-3.3,10.4,10.4,0,0,1,6.609-13.526c4.745-1.562,11.44,1.1,12.336,6.369a2,2,0,0,1-3.633,1.3ZM465.431,246.863a29.484,29.484,0,0,0-14.714,4.393c-2.17,1.214-3.569-2.143-1.941-3.6,4.675-4.186,12.352-5.708,18.437-5.662,10.59.077,29.561,7.772,26.2,20.844-1.542,5.963-7.611,8.664-12.918,10.466a2.053,2.053,0,0,1-1.445-3.84c3.794-1.381,9.237-3.443,10.035-8C490.825,251.5,473.267,246.469,465.431,246.863Zm-39.964-20.318a7.567,7.567,0,0,1-3.062-11.284c5.3-8.283,23.924-10.638,32.324-6.684a15.707,15.707,0,0,1,9.144,12.544,11.77,11.77,0,0,1-9.083,12.537,2.027,2.027,0,0,1-.932-3.943A7.873,7.873,0,0,0,458.91,219.4a13.2,13.2,0,0,0-11.777-8.1c-9.191-.709-18.747,1.87-21.018,7.1a3.888,3.888,0,0,0,.905,4.65c1.729,1.154.568,4.3-1.551,3.494Zm15.974-26.759a1.9,1.9,0,0,1-.154-3.745c6.237-.936,5.937-8.221,2.254-11.834-7.281-7.14-24.44-4.406-32.41.471-3.525,2.154-7.911,8.072-3.1,10.887,1.864,1.1,1.416,4.172-.868,3.818-5.439-.842-7.508-7.195-5.322-11.823,5.131-10.867,25.2-13.879,35.688-11.389C455.518,180.455,453.249,200.024,441.441,199.786Zm-54.6,8.7a9.184,9.184,0,0,0-1.855-11.834,16.062,16.062,0,0,0-13.438-3.1c-9.01,1.511-21.129,7.382-21.71,17.778a1.912,1.912,0,0,1-3.818.15c-.921-6.554,3.43-12.306,8.578-15.819a39.6,39.6,0,0,1,18.961-6.851,18.9,18.9,0,0,1,16.035,6.336,12.678,12.678,0,0,1,.084,15.965c-1.637,1.952-4.263-.659-2.837-2.619Zm-31.811,31.159a15.974,15.974,0,0,1-14.225,14.493,2.119,2.119,0,0,1-.5-4.205,11.676,11.676,0,0,0,9.559-14.636c-3.465-12.008-28.731-13.733-37.972-7.642a13.85,13.85,0,0,0-5.318,17.862c1.02,1.9-2.029,3.467-3.26,1.8a15.641,15.641,0,0,1,.553-18.763c11.883-16.031,52.512-10.852,51.159,11.107ZM334.545,330.82c2.168,1.018,1.143,4.406-1.234,3.6-7.64-2.566-16.207-6.684-18.666-15.062-5.591-19.049,21.082-25.094,35.875-21.2,7.505,1.983,16.394,6.433,19.994,13.713,4.512,9.127-3.5,15.78-11.1,19.071-2.423,1.051-4.241-2.591-1.815-3.708,8.085-3.723,14-9.534,5.657-17.335-10.711-10.017-39.825-13.449-44.165,3.045-2.562,9.748,8.5,14.614,15.456,17.884ZM302.4,306.246c2.247.548,1.5,4.238-.8,3.979A25.933,25.933,0,0,1,284,301.1c-15.421-19.606,8.574-36.228,30.729-33.37,7.384.952,14.76,4.516,16.586,12.337.593,2.551-3.3,3.32-3.965.813-1.983-7.521-11.378-8.781-17.873-8.966-12.777-.366-30.588,7.953-23.966,22.748,3.053,6.829,10.043,9.915,16.894,11.588Zm-83.675-14.057a44.866,44.866,0,0,0,19.606.282c5.333-1.1,12.24-3.152,14.927-8.406,1.119-2.19,4.626-.947,3.641,1.427-2.2,5.342-7.224,8.323-12.515,10.094a49.486,49.486,0,0,1-19.721,2.37c-11.588-.963-26.634-7.776-17.9-21.512,3.4-5.344,11.358-7.9,17.5-7.065a2.042,2.042,0,0,1,.119,4.025c-5.287.923-11.513,1.9-13.779,7.543-2.7,6.767,2.315,9.836,8.118,11.248Zm284.838-84.843a38.422,38.422,0,0,0-17.624-2.566c-7.219.855-8.519,3.578-12.621,8.521a1.983,1.983,0,0,1-3.377-1.355c.353-5.287,5.9-9.085,10.431-10.753,8.651-3.185,26.92-.419,32.736,7.349a14.958,14.958,0,0,1,1.571,15.02,14.489,14.489,0,0,1-14.24,8.072c-2.525-.22-2.69-4.1-.071-4.014a10.548,10.548,0,0,0,10.744-8.21C512.171,213.788,508.609,209.311,503.564,207.346Zm24.992,52.029a1.884,1.884,0,0,1,.635,3.712c-17.43,4.034-30.321-7.023-19.747-21.278,7.878-10.62,28.764-16.522,39.677-7.166,5.7,4.884,8.182,13.892,3.126,20.164a2,2,0,1,1-3.265-2.311c3.463-6.106,0-13.326-5.965-16.156-8.962-4.245-23.979.584-29.987,8.422C503.43,257.283,518.06,260.916,528.557,259.376Zm38.6-23.915c-2.381-.507-2.04-4.56.39-3.851,6.668,1.952,20.047,2.738,20.728-6.754.661-9.437-15.2-15.355-22.659-15.467-5.212-.077-14.117,2.011-12.577,9.081a1.925,1.925,0,0,1-3.633,1.117c-2.362-6.078,2.348-11.488,7.931-13.293,18.5-5.979,45.8,12.588,31.621,27.05C584.122,238.287,574.244,236.974,567.161,235.46Zm50.655-62.8a2.078,2.078,0,1,1,.8-4.078c7.543.643,16.467.93,23.774,2.26a1.906,1.906,0,0,1-.247,3.745C634.545,174.635,625.531,173.35,617.816,172.656Zm4.338-54.869c-7.435,3.862-15.075,7.4-22.719,10.83-2.3,1.029-3.745-2.461-1.52-3.573,7.49-3.763,15.051-7.455,22.737-10.781C622.942,113.273,624.317,116.664,622.154,117.787ZM549.289,89.274a1.826,1.826,0,0,1-3.009-1.983,139.008,139.008,0,0,1,8.591-15.172,1.879,1.879,0,0,1,3.384,1.63,141.41,141.41,0,0,1-8.966,15.524Zm-63.908-.22c.22-7.281.278-14.592.793-21.86a1.891,1.891,0,1,1,3.763.375c.055,7.29-.359,14.595-.6,21.88-.084,2.551-4.034,2.148-3.957-.4Zm-37.734,2.787c-2.514-7.034-5.488-14.526-7.536-21.648a1.851,1.851,0,1,1,3.562-1.007c2.837,6.853,5.188,14.559,7.611,21.629C452.074,93.121,448.468,94.114,447.647,91.841ZM523.182,480.2c2.593-.606,3.844,2.373,1.234,3.45-4.765,1.969-14.359,5.681-10.927,12.722,3.615,7.415,19.846,8.506,27.3,7.71,7.849-.846,20.488-5.8,12.616-15.667-4.963-6.221-14.346-5.917-21.5-5.814-2.465.035-2.864-3.683-.352-3.868,8.457-.615,18.064-.745,24.418,5.869,10.995,11.429-.3,22.69-13.13,24.356-9.9,1.287-28.035-.661-33.212-10.184C504.507,489.331,515.031,482.1,523.182,480.2Zm29.52-31.6c8.285-4.941,19.166-3.705,27.733-.053,2.8,1.192,1.055,5-1.727,4.258-6.712-1.8-13.438-4-20.355-1.738-13.136,4.289-13.658,18.567,4.611,21.611a47.414,47.414,0,0,0,19.166-.48c8.426-2.624,7.882-9.713,3.137-15.421-1.591-1.91,1.163-3.745,2.8-1.939,4.913,5.448,7.287,14.209.894,19.56-5.657,4.736-16.778,4.565-23.73,3.846-21.408-2.205-29.249-19.67-12.524-29.645Zm66.529,33.859a2,2,0,0,1-.685,3.895c-6.241.134-14.773-2.223-18.91,4.186-3.725,5.765.568,12.674,5.287,16.229,8.221,6.2,30.52,9.279,33.412-2.41,1.91-7.71-6.463-12.967-12.017-16.2-2.289-1.322-.123-4.736,2.168-3.47,6.93,3.84,14.377,9.083,14.445,17.879.13,17.071-28.2,16.69-39.873,8.433-6.344-4.49-11.436-12.337-8.591-20.333,3.487-9.766,16.238-11.008,24.781-8.213Z" transform="translate(0 40.471)" fill="#e8505b" fill-rule="evenodd"/>
    <path id="Path_1244" data-name="Path 1244" d="M500.948,352.039c-.941-10.286-13.132-11.5-16.247-.661-1.335,4.644.458,11.085,5.012,13.341a31.516,31.516,0,0,0,.709,9.473,3.379,3.379,0,0,0,5.992-.661,29.482,29.482,0,0,0-.108-9.107C499.965,362.375,501.509,358.166,500.948,352.039ZM333.062,401.029c3.593,49.3,5.708,98.8,7.9,148.175.108,2.474-3.763,3.044-3.939.425-3.322-49.232-6.215-98.871-7.871-148.18-.084-2.5,3.727-2.97,3.912-.421ZM603.757,303.2c-25.852,13.634-48.187,21.358-76.365,32.989-2.377.98-4.029-2.7-1.635-3.694,29.264-12.116,51.926-19.939,79.086-34.089a2.038,2.038,0,0,1,3.044,1.668,471.3,471.3,0,0,1-1.723,56.957,459.1,459.1,0,0,1-6.2,50.686c-.394,2.344-3.886,1.465-3.564-.839,2.864-20.477,4.25-30.33,5.758-50.954C603.588,336.506,603.33,322.136,603.757,303.2ZM354.8,401.484c37.563-12.867,74.581-27.125,111.417-41.927a2.782,2.782,0,0,1,3.906,2.707c.3,10.658,1.665,28.2,2.353,34.41a372.363,372.363,0,0,0,43.284-18.644c.507-13.528.562-23.81.328-37.36-.048-2.934,3.525-3.617,3.785-.39,1.22,15.2.615,25.156.637,35.1,0,2.895.066,5.287-2.489,6.719a263.469,263.469,0,0,1-46.262,19.587c-1.225.383-2.994.22-3.238-1.348-1.408-8.878-1.271-24.266-2.3-36.754-35.769,15.141-72.257,28.669-108.974,41.308.908,21.369,2.63,42.784,3.857,63.6,1.212,20.538,2.481,35.505,3.6,55.574,45.923-19.758,92.811-41.343,138.313-63.813,30.006-14.817,59.244-30.429,88.861-45.947,2.077-1.1,4.086,1.943,1.983,3.124-29.412,16.555-54.391,29.152-84.607,44.178-47.974,23.858-96.4,46.095-145.615,67.221a1.822,1.822,0,0,1-2.688-1.458c-1.386-21.657-2.6-37.248-3.877-58.909-1.176-19.948-2.668-40.488-3.562-60.454C353.431,405.985,352.622,402.231,354.8,401.484Zm-192.43-49.82c45.381,18.5,96.868,35.591,143.683,49.943,1.588.487,1.377,2.718,1.509,4.058,4.071,41.142,7.691,77.255,11.438,118.6.13,1.423-.912,2.644-2.395,2.13-22.569-7.666-44.72-16.875-66.994-25.358s-41.9-15.641-64-24.634a1.917,1.917,0,0,1,1.3-3.6c22.483,7.979,41.735,16.062,64.036,24.543,21.228,8.072,42.806,15.575,63.789,24.288-3.875-40.77-7.574-75.883-11.118-116.86-45.822-12.4-95.461-30.562-139.606-48.2,6.091,39.252,10.045,70.012,19.871,108.987.582,2.3-2.767,2.736-3.39.416-10.794-40.16-14.526-71.376-20.91-112.468C159.335,351.867,161.141,351.165,162.368,351.665ZM55.538,141.355c1.89-1.906,4.446,1.423,2.564,3.3-28.418,28.387-43.669,69.424-30.67,108.526,11.532,34.694,44.592,59.293,81.73,53.483a1386.746,1386.746,0,0,1-49.157-150.05,1.923,1.923,0,0,1,3.688-1.086C78.039,206.6,93.678,257.156,113.132,306.517c.5,1.269.868,3.1-.934,3.463-29.83,5.948-61.066-8.673-77.8-33.6C4.773,232.258,20.381,176.757,55.538,141.355ZM73.876,101.86c7.49,48.146,64.132,213.907,70.821,216.264s50.8-13.945,61.489-19.166c-19.474-17.844-45.892-59.26-.134-84.065,44.791-24.27,79.527-11.766,83.587,41.25,12.3-15.674,31.119-11.588,39.774-8.521,1.057-23.131,39.737-33.348,56.341-22.856,16.115-22.045,48.311-21.1,62.106-10.819-6.131-25.244-54.232-181.9-58.288-184.332S82.672,97.644,73.876,101.86ZM409.9,186.846a174.669,174.669,0,0,1,6.748-16.458,1.932,1.932,0,0,1,3.525,1.432,173.294,173.294,0,0,1-6.772,16.447C412.554,190.214,409.13,188.86,409.9,186.846ZM384,166.8c-.392-2.069,2.989-2.822,3.615-.824,2,6.389,3.571,13.925,5.054,20.51.458,2.04-3.055,2.848-3.615.822C387.22,180.649,385.286,173.573,384,166.8Zm-21.234,18.6A35.8,35.8,0,0,0,373.6,195.422c2.038,1.267.412,4.523-1.676,3.329a31.882,31.882,0,0,1-12.246-11.27,1.864,1.864,0,1,1,3.1-2.077ZM313.15,110.113a108.3,108.3,0,0,1,61.3-68.215,1.95,1.95,0,0,1,1.524,3.586,107.848,107.848,0,0,0-60.141,76.59c-6.168,31.187,1.427,69.834,29.6,88.3,1.881,1.234.035,4.576-1.983,3.489C308.425,195.081,302.5,144.994,313.15,110.113Zm-23.131,99.5a147.886,147.886,0,0,1,13.218-13.453c1.619-1.383,3.965,1.031,2.619,2.661a147.933,147.933,0,0,1-13.2,13.48C291.131,213.7,288.58,211.255,290.019,209.611Zm-28.9-18.972c1.806-5.754,4.166-15.148,6.609-20.518a1.857,1.857,0,0,1,3.589.782,207.435,207.435,0,0,1-6.483,21.058c-.775,2.421-4.47,1.088-3.719-1.322Zm-46.163-23.1c-.333-2.13,3.084-2.674,3.677-.661a231.7,231.7,0,0,1,5.439,24.294c.359,2.1-3.084,2.668-3.65.661a232.352,232.352,0,0,1-5.466-24.294ZM170,191.419c-1.258-1.542,1.2-4.027,2.864-2.465,4.677,4.36,9.841,10.25,14.1,15.11a1.9,1.9,0,0,1-2.531,2.844c-4.675-4.714-10.275-10.378-14.432-15.489Zm-18.044,90.914a112.785,112.785,0,0,0,17.038-4.78c2.434-.881,4,2.124,1.571,3.122a105.054,105.054,0,0,1-17.833,5.34,1.884,1.884,0,1,1-.775-3.681Zm-5.36-48.721a140.475,140.475,0,0,1,18.392,2.08,2.071,2.071,0,0,1-.09,4.139,143.559,143.559,0,0,1-18.912-2.355,1.983,1.983,0,0,1,.61-3.855Z" transform="translate(5.392 0)" fill-rule="evenodd"/>
  </g>
</svg>
