<svg xmlns="http://www.w3.org/2000/svg" width="614.034" height="580.977" viewBox="0 0 614.034 580.977">
  <g id="Searchng_User" data-name="Searchng User" transform="translate(-5.002 -14.688)">
    <path id="Path_344" data-name="Path 344" d="M152.4,172.172a14.845,14.845,0,0,1,5.774,7.216,20.648,20.648,0,0,1,.934,2.964,22.717,22.717,0,0,1-.212,11.2,12.726,12.726,0,0,1-10.879,10.13c1.7,10.642,3.307,17.7,3.652,19.387,1.66,7.133,1.533,5.357,1.309,7.091l-.879.714-1.116-.138-.722-.889c0-.227-2.251-6.691-4.341-15.906-2.964-13.047-2.645-12.213-2.3-13.075a2.213,2.213,0,0,1,.97-.961h0c.91-.341,2.033-.277,4.118-.934a6.564,6.564,0,0,0,3.65-2.5,16.831,16.831,0,0,0,1.438-15.1,9.723,9.723,0,0,0-4.828-5.615c-2.583-1.436-.366-2.8-2.191-12.63-6.513-33.468-43.673-34.38-58.756-14.337h0l-.963.593-1.059-.2h-.019l-.574-.915c.229-1.311.152-1.059.322-1.321v-.011C104.061,118.748,152.056,127.1,152.4,172.172Z" transform="translate(89.846 133.715)" fill-rule="evenodd"/>
    <path id="Path_345" data-name="Path 345" d="M98.571,145.452a6.822,6.822,0,0,1,4.845,1.851,4.62,4.62,0,0,1,1.556,2.388c0,.015-.2.961-.2.976-3.246.322-1.381.227-3.254-.093a8.182,8.182,0,0,0-1-.14l-.049-.013a7.681,7.681,0,0,0-3.434.025l-.059.028h0a4.4,4.4,0,0,0-1.717,1.105c-.265.362-.519.423-1.738,1.192-.229.182.083,0-2,.908-.919-2.117-.813-1.829-.836-2.056a4.69,4.69,0,0,1,.659-2.81,8.846,8.846,0,0,1,4.084-2.865h0a9.607,9.607,0,0,1,3.144-.5Z" transform="translate(95.722 150.035)" fill-rule="evenodd"/>
    <ellipse id="Ellipse_1" data-name="Ellipse 1" cx="4.872" cy="4.3" rx="4.872" ry="4.3" transform="translate(189.888 318.154) rotate(-87.504)"/>
    <path id="Path_346" data-name="Path 346" d="M102.42,176.227l-1.175-.3h0c-.277-.182-1.154-.6-1.461-.745h0c-.182-.087-1.906-.9-2.1-.991h0A16.612,16.612,0,0,1,96.2,173.4h0a10.666,10.666,0,0,0-2.983-1.143h0a4.235,4.235,0,0,0-.728-.061h-.423v.011h0l-.032.028h0l-.011.019h0v.019h-.011a1.487,1.487,0,0,0-.074.144h0l-.021.017-.042.057-.019.019-.021.038-.021.019h0l-.061.057-.021.038-.093.112h0a3.6,3.6,0,0,0-.4.567h0a6.392,6.392,0,0,0-.527.9v.028l-1.5,1.438c-1.609-1.675-1.429-1.228-1.806-2.878h0a9.121,9.121,0,0,1-.053-1.232h0a4.053,4.053,0,0,1,.288-1.256,5.55,5.55,0,0,1,2.043-2.34,5.929,5.929,0,0,1,3.557-.811,14.97,14.97,0,0,1,7.172,2.878h0a16.345,16.345,0,0,1,3.106,3.472l.368,1.148-.3.963h0Z" transform="translate(92.01 174.964)" fill-rule="evenodd"/>
    <path id="Path_347" data-name="Path 347" d="M88.882,177.031c.635.54,2.348,1.734,2.581,1.878a21.341,21.341,0,0,0,11.779,4.4,22.07,22.07,0,0,0,6.365-.572c1.639-.37,3.276-1.292,4.461,1.044a96.15,96.15,0,0,1,4.658,12.874c.76,2.329.635,1.463.618,3.022l-.707.819h-.021l-1.082.011c-1.059-.919-.65-.169-3.043-4.756-.112-.186-2.736-5.539-3.979-8.319a25.525,25.525,0,0,1-5.482.688,26.078,26.078,0,0,1-14.822-4.267,15.456,15.456,0,0,1-4.618-4.6v-.019A23.431,23.431,0,0,1,84,176.408h0l-.135-1.158.525-.864h.021l1-.161C87.21,175.205,85.378,174.047,88.882,177.031Z" transform="translate(88.118 183.209)" fill-rule="evenodd"/>
    <path id="Path_348" data-name="Path 348" d="M95.79,193.32c-3.756-1.353-8.736-2.81-9.778-6.649a84.435,84.435,0,0,1-1.927-8.4A44.077,44.077,0,0,1,83.7,167.1c.057-.409-.112-1.448.239-1.22,3.65,2.456,1.671,8.63,11.362,27.128" transform="translate(87.728 173.596)" fill-rule="evenodd"/>
    <path id="Path_349" data-name="Path 349" d="M89.286,199.2a14.053,14.053,0,0,0,6.693,1.3c-1.22-2.977-4.612-11.37-1.427-10.9,1.018.163,1.783,1.209,2.314,1.995,1.393,2.06,1.906,5.166,3.868,6.812,1.749,1.482,6.21-.567,7.957-1.27,1.152-.466,4.023-1.059,4.421-2.528.423-1.611-.949-3.731-1.541-5.141-1.289-3.062-2.657-6.14-4.108-9.145a15.135,15.135,0,0,0-3.176-5.044c-3.038-2.7-5.19-1.1-7.174-2.42-1.241-.847-1.832-2.3-.064-3.009a8.725,8.725,0,0,1,4.87.057,13.524,13.524,0,0,1,4.47,1.522c4.078,2.5,6.14,7.411,10.087,13.628,2.945,4.749,2.839,8.76,9.89.959,10.324-11.339,6.308-15.9,9.577-27.026.212-.692.716-2.778,1.806-2.526,1.709.423,2.223,2.975,2.4,4.408a41.457,41.457,0,0,1-.265,13.92,28.8,28.8,0,0,1-5.035,11.663c-2.964,3.695-10.229,11.085-18.038,14.314-1.717.707-7.737,3.4-9.147,3.758-10.8,2.778-19.923-1.633-21.35-4.813-.267-.635.015-1.249.764-1.207a8.029,8.029,0,0,1,2.291.716" transform="translate(90.754 162.984)" fill-rule="evenodd"/>
    <path id="Path_350" data-name="Path 350" d="M62.489,144.978c.923,1,.635.184,2.278,5.23,13.115,44.419-9.007,76.035-4.849,142.395,1.546,20.45,5.245,37.787,15.912,55.052a87.687,87.687,0,0,0,32.934,30.213c1.112.049,30.738,20.092,74.926,5.082h0l1.139.059.773.824c0,.03-.057,1.11-.059,1.139l-.824.783a104.038,104.038,0,0,1-27.314,6.234A91.738,91.738,0,0,1,66.83,341.33C52.254,311.981,53.006,269.3,57.346,236.845c2.678-22.853,10.826-55.808,5.681-80.215a80.923,80.923,0,0,0-2.528-9.846h0l.089-1.118.822-.745Z" transform="translate(55.416 153.522)" fill="#010101" fill-rule="evenodd"/>
    <path id="Path_351" data-name="Path 351" d="M66.275,143.435l.9.76c2.708,3.7,3.127,6.511,4.319,12.344a62.006,62.006,0,0,1,1.141,11.222,44.926,44.926,0,0,1-.773,6.738l-.561,1.038-.985.407h0l-.944-.489-.479-1.086h-.011c-.121-1.518-.834-6.564-1.141-10.068h0c-.8-9.12-2.541-12.533-3.026-16.53-.011-.085-.263-2.46-.28-2.541,0-.017.195-1.158.2-1.173l.665-.7h.021Z" transform="translate(66.417 147.802)" fill="#010101" fill-rule="evenodd"/>
    <path id="Path_352" data-name="Path 352" d="M74.355,142.657a4.893,4.893,0,0,1,1.66,1.984,15.777,15.777,0,0,1,1.565,3.24,62.277,62.277,0,0,1,1.874,11.663,32.384,32.384,0,0,1-.695,10.777c-.186,1.006-.792,2.734-.8,2.964l-.686.966-1.018.3h0l-.883-.6-.349-1.137h0c0-2.632-.254-11.368-.3-12.51a62.6,62.6,0,0,0-1.772-11.434c-.163-.94-.449-4.3-.44-4.459h0l.212-1.171.665-.692H73.4Z" transform="translate(75.424 146.875)" fill="#010101" fill-rule="evenodd"/>
    <path id="Path_353" data-name="Path 353" d="M82.73,145.67c.76,1.095.769.5,1.882,7.623a159.908,159.908,0,0,1,.567,27.283,113.877,113.877,0,0,0,.9,21.949c5.065,29.22,26.41,61.235,38.536,95.363a3.388,3.388,0,0,1,.332,2.257l-.815.775h0l-1.118-.057c-1.046-1.086-.459-.083-2.268-4.392-12.772-28.562-33.156-62.5-38.833-90.273-3.964-20.365.578-36.9-1.118-56.746-.343-2.812-.36-2.037-.025-3.426l.915-.612Z" transform="translate(84.065 151.377)" fill="#010101" fill-rule="evenodd"/>
    <path id="Path_354" data-name="Path 354" d="M118.254,208l.832.62c0,.015-.025,1.027-.028,1.044-2.795,3.6-8.535,5.359-14.961,9.1h0a10.329,10.329,0,0,1-3.974,1.465c-.449.123-.017.159-2.367-.328.485-2.355.347-1.935.635-2.312a8.962,8.962,0,0,1,3.333-2.986c.011-.246,8.232-4.275,9.48-4.87a39.32,39.32,0,0,1,3.839-1.258,6.491,6.491,0,0,1,3.212-.481Z" transform="translate(103.643 221.803)" fill="#010101" fill-rule="evenodd"/>
    <path id="Path_355" data-name="Path 355" d="M28.624,165.056h.019l.724.822c-.064,1.859.231.191-1.81,5.268-7.906,19.088-12.577,42.136-15.23,62.961-1.5,13.24-2.213,24.839-2.458,33.268a99.4,99.4,0,0,0,2.9,30A106.574,106.574,0,0,0,16.5,308.539a67.625,67.625,0,0,0,32.078,34.2,65.759,65.759,0,0,0,28.8,6.416,88.964,88.964,0,0,0,32.881-6.839c1.986-.8,8.074-3.551,8.321-3.784l1.135-.087c.017.013.862.716.874.731l.089,1.126c-.982,1.19.034.587-7.025,4.063a98.431,98.431,0,0,1-23.662,7.682,83.936,83.936,0,0,1-16.416,1.313c-1.294,0-2.573-.123-3.417-.159A68.033,68.033,0,0,1,58.6,351.346a67.127,67.127,0,0,1-11.11-3.879A68.688,68.688,0,0,1,26.1,331.892,67.856,67.856,0,0,1,13.135,312.85c-9.577-21.424-8.772-39.724-7.108-63.115,2.615-30.524,6.64-56.392,20.653-83.982h0l.847-.735Z" transform="translate(0 175.978)" fill="#010101" fill-rule="evenodd"/>
    <path id="Path_356" data-name="Path 356" d="M39.453,170.139l.934.51.392,1.059c0,.318-.053,3.97.1,6.687h0c0,1.5.212,4.819.248,5.493a186.21,186.21,0,0,0,2.5,24.528c2.329,15.512,9.7,36.864,15.569,51.27,5.274,12.946,4.584,10.03,4.684,12.048-.015.017-.705.847-.72.866s-1.112.057-1.124.057c-1.165-.989-.635-.3-2.4-3.538-1.23-2.365-4.821-9.043-7.741-15.965A201.541,201.541,0,0,1,38.13,204.341c-3.1-20.587-.36-30.914-.275-32.868l.559-.991,1.01-.345Z" transform="translate(35.37 179.295)" fill="#010101" fill-rule="evenodd"/>
    <path id="Path_357" data-name="Path 357" d="M62.535,207.278l.792.62c0,.015-.072.987-.072,1l-.8,1.018a21.694,21.694,0,0,1-4.87,3.066c-.243-.011-1.762.832-6.776,2.67h0a4.312,4.312,0,0,1-1.5.413c-.212.023-.94.038-1.095.032-1.4-.087-.733.108-2.992-.951,1.059-2.272.661-1.649,1.694-2.638a5.561,5.561,0,0,1,2.215-1.338c.436.019,7.919-3.46,10.587-3.724a6.591,6.591,0,0,1,2.814-.169Z" transform="translate(44.945 220.891)" fill="#010101" fill-rule="evenodd"/>
    <ellipse id="Ellipse_2" data-name="Ellipse 2" cx="5.361" cy="5.848" rx="5.361" ry="5.848" transform="translate(457.489 285.26) rotate(-4.024)"/>
    <path id="Path_358" data-name="Path 358" d="M230.579,133.363h0a12.494,12.494,0,0,1,1.728.847c.227.148.023-.036.963.989l.112,1.01h0l-.724.69-1.207.191a8.965,8.965,0,0,0-1.336-.049,17.151,17.151,0,0,0-3.049.394h-.013a10.455,10.455,0,0,0-3.1.862,12.213,12.213,0,0,0-3.559,2.458h0a5.86,5.86,0,0,1-1.188,1.059h0a6.682,6.682,0,0,1-3.712,1.654l-.517-2.012a10.24,10.24,0,0,1,.747-2.416h0a5.244,5.244,0,0,1,1.323-1.709h0a17.208,17.208,0,0,1,4.631-3.252,16.4,16.4,0,0,1,4.851-1.417A10.137,10.137,0,0,1,230.579,133.363Z" transform="translate(234.625 135.372)" fill="#010101" fill-rule="evenodd"/>
    <path id="Path_359" data-name="Path 359" d="M231.015,159.744l.771.7.212,1.181a17.269,17.269,0,0,1-1.372,4.855c-.123.229.3-.6-.576,1.145h0a24.54,24.54,0,0,1-8.906,8.258,15.834,15.834,0,0,1-3.837,1.626,10.934,10.934,0,0,1-3.312.072c-.8-.112-.294.159-2.221-1.376,1.851-2.346.47-1.027,4.068-3.129h0a21.511,21.511,0,0,0,5.435-2.964h0a26.1,26.1,0,0,0,4.923-5.065h0c.313-.364,1.27-1.565,1.832-2.416h0a15.855,15.855,0,0,0,1.114-1.844h0l.828-.86,1.023-.161Z" transform="translate(231.045 166.512)" fill="#010101" fill-rule="evenodd"/>
    <path id="Path_360" data-name="Path 360" d="M111.191,35.64l.913.544c.654,1.942.178-.669.284,9.189.1,10.244.061,9.74-.534,10.657-1.984,2.107-3.125-.423-7.87,1.074A8.45,8.45,0,0,0,99.9,59.9a7.339,7.339,0,0,0-1.436,5.391l.019.053v.051c.015.047.059.227.1.347a5.061,5.061,0,0,0,2.259,2.541c3.146,1.836,8.88.828,10.693,1.313,1.988.889,1.332,1.986,2.177,5.4a15.912,15.912,0,0,0,5.353,9.217h0c3.6,2.854,3.559-1.162,2.992,13.693-.133,4.146.011,3.229-.561,4.614l-1.006.466h0c-1.823-.769-1.44.519-2.249-14.231-4.235-1.969-7.847-6.166-9.41-13.763h0c-.085-.423-.114-.57-.152-.766A20.015,20.015,0,0,1,98.6,72.489a10.305,10.305,0,0,1-4.065-4.108,8.719,8.719,0,0,1-.915-4.453A13,13,0,0,1,107.646,51.84a99.682,99.682,0,0,1,1.114-10.555c.86-5.12.695-4.205,1.393-5.334l1.018-.309Z" transform="translate(99.001 23.412)" fill="#010101" fill-rule="evenodd"/>
    <path id="Path_361" data-name="Path 361" d="M128.6,36.394l.968.438.481,1.031c.047,1.421,1.029,9.814,1.143,14.523a16.441,16.441,0,0,1,7.411,1.669,10.081,10.081,0,0,1,5.022,8.993A11.971,11.971,0,0,1,143.458,65c-1.186,6.788-6.939,9.149-13.856,9.264-.423,0-.235-.14-.464.766A18.438,18.438,0,0,1,121.259,86.8c-.332.212-.106-.551-.544,5.789-.44,6.392-.07,4.783-.745,6.352l-1.006.459h-.019l-1.016-.423c-.686-1.482-.423-.4-.671-4.529-.33-10.375-.212-7.6-.269-8.374a2.139,2.139,0,0,1,.771-2h0a13.354,13.354,0,0,0,4.322-4.247c.019-.036.159-.269.2-.324a20.327,20.327,0,0,0,2.029-4.87c.807-2.717.2-3.538,1.571-4.715,1.245-.76,1.906-.256,5.327-.508a9.528,9.528,0,0,0,6-2.117,6.3,6.3,0,0,0,.98-7.042c-1.3-2.6-4.235-2.979-7.182-3.087-2.153-.07-3.481.328-4.389-1.567a5.486,5.486,0,0,1-.174-1.857,131.067,131.067,0,0,1,.673-15.9l.493-1.025.974-.423Z" transform="translate(125.104 24.254)" fill="#010101" fill-rule="evenodd"/>
    <path id="Path_362" data-name="Path 362" d="M120.488,52.388c-.146,2.2,0,2.031-.584,2.884a5.884,5.884,0,0,1-2.348,2.194,8.046,8.046,0,0,1-7.189-.5c-.811-.453-.847-.462-1.429-1.482h0c-.212-.455-.324-.847-.332-.847l-.212-2.062c4.385-.447,3.547.025,5.105.572,1.463.476,1.918-.123,3.1-.324C119.187,52.2,117.242,52.265,120.488,52.388Z" transform="translate(115.528 42.035)" fill="#010101" fill-rule="evenodd"/>
    <path id="Path_363" data-name="Path 363" d="M114.2,43.021c1.133,2.977.73,1.446.561,8.614a22.991,22.991,0,0,1-.7,6.738,4.286,4.286,0,0,1-.716,1.882l-.847.5h-.019l-.908-.423-.635-1.059h0c-1.315-4.36-1.071-5.44-.792-11.824a6.509,6.509,0,0,1,.62-3.528c.623-1.3.212-.779,2.039-2.441C112.819,41.5,114.174,42.985,114.2,43.021Z" transform="translate(117.237 29.932)" fill="#010101" fill-rule="evenodd"/>
    <ellipse id="Ellipse_3" data-name="Ellipse 3" cx="3.898" cy="2.924" rx="3.898" ry="2.924" transform="translate(216.778 78.144) rotate(-87.504)"/>
    <ellipse id="Ellipse_4" data-name="Ellipse 4" cx="3.898" cy="2.924" rx="3.898" ry="2.924" transform="translate(237.224 79.036) rotate(-87.504)"/>
    <path id="Path_364" data-name="Path 364" d="M123.213,158.415c9.721-2.242,26.512-15.633,24.286,9.058-1.315,14.46-5.45,30.99.1,45.124" transform="translate(132.088 158.863)" fill="none"/>
    <path id="Path_365" data-name="Path 365" d="M107.033,59.331a19.556,19.556,0,0,1,2.291.286,14.329,14.329,0,0,0,4.7,1.237c1.417.136,2.117.047,2.954.152,4.084.506,3.019.307,4.483.79l.618.758c0,.023-.271.94-.277.963l-.955.807h0a10.871,10.871,0,0,1-5.448,1.4,21.693,21.693,0,0,1-6.663-1.179,4.893,4.893,0,0,1-2.983-2.117c-.606-.946-.379-.241-.792-2.753C107.755,59.208,106.8,59.316,107.033,59.331Z" transform="translate(111.697 49.861)" fill-rule="evenodd"/>
    <path id="Path_366" data-name="Path 366" d="M110.308,68.454a21,21,0,0,1-1.677-21.686c-7.11-1.622-13.35-8.41-15.332-15.343,14.187,8.4,40.8-14.71,58.161-5.1,6.888,3.811,9.753,12.389,8.362,19.9,10.049,4.709,6.928,13.856,1.776,23.683a17.922,17.922,0,0,0-6.27-.944c-.464-7.256.4-14.53-.171-21.792a59.512,59.512,0,0,1-11.8,2.092c-9.033,1.059-19.076,1.412-27.924-1.033a40.58,40.58,0,0,0-4.8,21.064" transform="translate(98.663 10.34)" fill-rule="evenodd"/>
    <path id="Path_367" data-name="Path 367" d="M95.959,30.7c11.718,6.052,30.73-8.971,48.6-7.792,12.416.8,19.171,9.8,19.241,20.985.013,3.7-.942.993,2.446,4.087,6.14,6.187,3.915,13.564.167,21.441-1.283,2.5-1.677,4.355-4.059,4.053a15,15,0,0,0-5.825-.891c-2.6-.269-2.359-2.441-2.448-4.7-.157-3.873.252-12.637.123-16.463a55.937,55.937,0,0,1-5.609.887c-21.369,2.541-29.567-.445-30.241-.474-.445-.108-.714-.178-.716-.178a46.289,46.289,0,0,0-2.2,5.251,36.842,36.842,0,0,0-2.117,11.561c-.1,2.2.324,1.188-.326,3.036l-1,.515h-.019l-1.059-.362-.521-1.012h0v-.11l-.068-.044a24.119,24.119,0,0,1-4.561-15.315,21.438,21.438,0,0,1,1.239-5.819,23.651,23.651,0,0,1-10.72-8.112,24.378,24.378,0,0,1-3.76-7.026A3.775,3.775,0,0,1,92.22,32.1a2.393,2.393,0,0,1,2.374-1.848,2.594,2.594,0,0,1,1.366.453ZM111.85,47.292a2.011,2.011,0,0,1,0,1.366,18.457,18.457,0,0,0-1.472,14.987c.138.423.023.368.184-.675a44.831,44.831,0,0,1,3.013-11.15c1.455-3.362,1.516-3.765,2.64-4.156.227,0-.112-.055.635-.049a52.114,52.114,0,0,0,11.161,1.573,124.584,124.584,0,0,0,23.96-2.026,41.237,41.237,0,0,0,4.065-1.059,2.329,2.329,0,0,1,2.5,1.387c.786,2.374.184,13.642.309,20.418a19.838,19.838,0,0,1,2.774.387c.239-.44.722-1.467.953-1.929a27.245,27.245,0,0,0,2.253-6.058c1.237-5.524-.315-7.987-3.447-9.986-1.5-.864-1.51-.61-2.24-1.431-1.243-1.967.536-1.793-.459-8.681a15.334,15.334,0,0,0-6.352-10.07c-14.362-9.081-37.592,9.084-53.415,6.577a20.721,20.721,0,0,0,9.861,8.755C110.519,46.144,111.215,45.877,111.85,47.292Z" transform="translate(97.414 9.116)" fill-rule="evenodd"/>
    <path id="Path_368" data-name="Path 368" d="M218.582,98.736s-20.714,20.433-65.1,26.393c-18.066,2.424-36.506-3.1-52.7-11.1-7.8-3.856-17.2-8.5-22.783-15.33,1.787-5.435,7.038-10.413,11.347-13.945,10.466-8.569,23.643-15.556,37.281-17.092a18.972,18.972,0,0,0,9.952,8.662c12.594,5.6,26.021,1.294,34.035-9.588C189.233,68.874,209.988,83.512,218.582,98.736Z" transform="translate(81.565 59.876)" fill="#e8505b" fill-rule="evenodd"/>
    <path id="Path_369" data-name="Path 369" d="M209.054,109.945A127.2,127.2,0,0,1,169.9,125.957c-23.291,5.31-42.214,5.679-75.436-11.948a56.469,56.469,0,0,1-16.475-11.976,3.117,3.117,0,0,1-1.114-2.166,14.681,14.681,0,0,1,2.117-5.018A31.737,31.737,0,0,1,81.977,90.8,80.974,80.974,0,0,1,99.613,76.561,70.026,70.026,0,0,1,126.946,66.5a2.66,2.66,0,0,1,2.712.69,14,14,0,0,0,5.12,5.861c9.846,6.632,23.727,6.689,34.137-4.978h0c2.056-2.456,1.628-2.638,5.027-2.092,17.17,2.839,36.982,15.707,47.1,32.972a1.542,1.542,0,0,1-.165,1.992l-.019-.019A77.885,77.885,0,0,1,209.054,109.945ZM170.06,73.327A29.6,29.6,0,0,1,145.876,82.1c-9.022-1.014-16.727-6.14-19.336-10.727A68.326,68.326,0,0,0,98.9,82.695,70.007,70.007,0,0,0,85.248,94.34a21.809,21.809,0,0,0-3.238,5.012,39.283,39.283,0,0,0,7.277,6.073,159.43,159.43,0,0,0,24.947,12.493c17.013,6.517,29.8,7.411,41.215,5.829,19.692-2.793,41.406-9.4,58.177-20.911a52.052,52.052,0,0,0,4.307-3.265c-9.179-14.337-27.846-26.995-45.077-29.4A34.76,34.76,0,0,1,170.06,73.327Z" transform="translate(80.309 58.727)" fill="#e8505b" fill-rule="evenodd"/>
    <path id="Path_370" data-name="Path 370" d="M215.394,15.834c21,1.673,59.922,6.763,79.923,16.685a64.134,64.134,0,0,1,27.42,24.651A50.069,50.069,0,0,1,327.988,70.3c4.023,17.363-1.662,33.692-12.452,48.044a203.492,203.492,0,0,1-21.348,22.868,306.892,306.892,0,0,1-34.655,27.613c-14.347,9.85-14.079,8.4-10.945,8.258a48.783,48.783,0,0,1,18.489,2.64c8.5,2.9,11.328,10.979,8.046,17.619-8.565,17.32-49.657,13.422-56.791-1.046a10.61,10.61,0,0,1-.963-2.778c-30.088,2.685-68.108,9.964-118.186-17.25-12.933-7.108-24.409-14.724-32.862-26.732a80.428,80.428,0,0,1-8.192-14.187,79.157,79.157,0,0,1-3.314-56.113C73.482,20.5,154.144,10.831,215.394,15.834Zm23.12,163.643c.343-1.5-.044-.557,7-5.109,24.27-15.406,64.17-47.044,74.992-72.133a50.461,50.461,0,0,0,4.535-20.575,46.33,46.33,0,0,0-14.61-33.072c-9.482-8.978-18.686-13.363-31.17-17.2-14.33-4.317-34.776-7.51-48.5-9.194C184.921,16.677,119.47,17.655,83.415,46.6A71.32,71.32,0,0,0,57.9,119.76c5.586,22.355,17.261,36.152,34.395,46.926,36.631,22.768,68.407,27.4,107.873,23.829,19.715-1.838,19.88-2.482,21.244-.817a2.251,2.251,0,0,1,.4,1.616l-.015.341v.049c-.46,10.521,34.914,19.671,48.221,6.49,4.785-5.611,2.911-11.857-2.344-14.506a48.613,48.613,0,0,0-12.81-3.322,60.845,60.845,0,0,0-14.648.578v.025a1.5,1.5,0,0,1-1.7-1.491Z" transform="translate(51.606 0)" fill-rule="evenodd"/>
    <path id="Path_371" data-name="Path 371" d="M219.5,191.547c-8.516-6.7-19.668-10.466-30.067-12.831-13.174-3-39.667-.87-39.911-.635-10.206,9.643-19.59,19.935-31.82,27.255-4.889,2.928-15.836,4.734-13.172-4.447a31.246,31.246,0,0,0-11.47,7.8c5.293,11.724,9.816,21.189,15.152,32.856,5.541-2.257,9.317-2.979,14.86-5.207,16.776,11.3,28.117,32.2,34.259,51.08,2.391-4.042,4.815-8.18,7.519-12.023-3.127-8.827-7.009-26.548,7.326-27.314-.741-10.987,2.679-23.374,16.037-21.9-.487-5.62-.474-11.97,2.753-16.882,4.076-6.2,12.757-3.3,16.8,1.112C211.205,204.277,219.5,191.547,219.5,191.547Z" transform="translate(98.39 187.455)" fill="#e8505b" fill-rule="evenodd"/>
    <path id="Path_372" data-name="Path 372" d="M214.181,206.227c-4.125,6.795-3.735,7.231-5.4,7.159-.891-.212-.947-.512-1.376-.889a13.878,13.878,0,0,0-5.518-3.216,8.909,8.909,0,0,0-4.408-.279l-.049.017h-.059a5.505,5.505,0,0,0-2.293,1.139l-.032.036h0a15.52,15.52,0,0,0-3.727,10.051c-.286,6.577.673,6.761-.1,8.29a2.1,2.1,0,0,1-2.117.94,12.33,12.33,0,0,0-6.987,1.16,11.97,11.97,0,0,0-5.418,7.451,23.413,23.413,0,0,0-.771,3.576c-.959,7.536.775,8.127-1.328,9.649h0c-2.09.963-10.919-.809-8.7,14.9h0a55.678,55.678,0,0,0,2.467,9.638c.534,2.13-.345,1.4-6.818,12.52-.93,1.571-1.2,2.473-2.829,2.687a2.388,2.388,0,0,1-2.4-1.645,125.709,125.709,0,0,0-12.639-27.437,74.653,74.653,0,0,0-19.666-21.695c-1.821.572,2.181-.618-7.269,2.463-4.023,1.27-6.077,2.177-6.776,2.388a2.382,2.382,0,0,1-2.674-1.336c-10.39-22.811-15.355-32.409-15.364-34.073a2.306,2.306,0,0,1,.68-1.453,31.1,31.1,0,0,1,8.667-6.608,27.954,27.954,0,0,1,4.269-1.891,2.4,2.4,0,0,1,2.471,1.5c.33,1.124.093,1.184-.159,2.5a3.443,3.443,0,0,0-.074,1.285v.078a1.055,1.055,0,0,0,.032.138v.04a2.607,2.607,0,0,0,.085.256v.019l.019.021.017.04v.019a.8.8,0,0,1,.055.08v.019h0v.021h0v.021l.057.061h.019v.019h.019v.019l.019.011h.019l.028.03h.019l.019.021.057.032.019.019c.044.025.021,0,.066.034l.019.019.106.044.028.021.114.042.03.021c.089.036.341.11.423.138h.049a.683.683,0,0,1,.125.034h.049l.087.023h.049l.049.013c5.666.246,8.948-2.255,13.551-5.488,12.465-9.189,24.261-22.233,26.5-23.78,2.16-.934,27.594-2.215,40.2.455,10.7,2.367,23.431,6.954,31.848,13.962l.021-.019C223.091,192.94,222.327,192.811,214.181,206.227Zm-5.552,2.714h0c.847-1.571,9.7-15.336,10.1-15.791-7.741-5.666-19.107-9.278-28.506-11.2-6.64-1.635-21.191-1.306-28.011-1.046-1.918.1-8.453.449-10.35.682-13.9,13.39-17.3,17.132-27.651,24.479a26.1,26.1,0,0,1-10.765,5.025c-2.784.493-6.418.4-8.47-1.558a5.958,5.958,0,0,1-1.88-3.42,26.084,26.084,0,0,0-5.929,4.355c3.252,7.28,12.226,26.383,13.522,29.281,2.139-.847,9.183-2.964,11.269-3.811,2.9-1.059,2.431-1.3,6.115,1.389a79.19,79.19,0,0,1,18.836,20.833,130.344,130.344,0,0,1,12.251,24.875c.142-.229,2.846-4.692,4.284-6.74-2.477-7.718-4.741-18.648.474-24.985a11.765,11.765,0,0,1,7.15-3.991,26.639,26.639,0,0,1,4.658-16.829,13.874,13.874,0,0,1,3.108-2.85,14.694,14.694,0,0,1,8.425-2.374c-.326-6.63.955-15.639,6.676-18.87,3.42-1.95,9.058-1.853,14.69,2.549Z" transform="translate(97.14 186.215)" fill="#e8505b" fill-rule="evenodd"/>
    <path id="Path_373" data-name="Path 373" d="M173.63,309.926a54.087,54.087,0,0,1-23.08-51.745c-17.985,10.18-36.885,15.417-57.413,10.57,3.176,14.078,6.422,28.161,9.513,42.246,8.006-.282,47.476-.752,71.693-.62" transform="translate(98.481 280.077)" fill="#e8505b" fill-rule="evenodd"/>
    <path id="Path_374" data-name="Path 374" d="M152.207,257.072a2.412,2.412,0,0,1,1.988,2.282c-.032.447-.193,1.732-.212,1.961a50.27,50.27,0,0,0,1.334,17.93,54.611,54.611,0,0,0,9.761,20.462h.019a61.4,61.4,0,0,0,10.8,10.549l.786.326c1.419,3.348,1.55,2.416-29.057,3.026-31.672.923-9.78.078-43.631,1.016a2.38,2.38,0,0,1-2.416-1.872c-10.1-45.426-9.725-42.111-9.473-43.434a2.407,2.407,0,0,1,2.446-1.709,66.59,66.59,0,0,0,23.365,1.321,80.747,80.747,0,0,0,24.8-7.485C150.945,257.591,150.382,256.949,152.207,257.072Zm-50.227,16.687c-.231-.027-4.212-.534-4.447-.661,1.639,7.2,6.7,29.5,8.273,36.7,1.838-.531,54.722.066,64.737.227-.25-.14-2.1-1.616-3.233-2.59a51.117,51.117,0,0,1-5.232-5.272,54.161,54.161,0,0,1-13.094-38.481C134.3,271.31,118.473,275.807,101.981,273.759Z" transform="translate(97.231 278.823)" fill="#e8505b" fill-rule="evenodd"/>
    <path id="Path_375" data-name="Path 375" d="M205.135,177.223a19.8,19.8,0,0,0,3.377,1.98l1.336.684h0a21.618,21.618,0,0,0,7.2,2.666,27.919,27.919,0,0,0,7.347.379,45.655,45.655,0,0,0,8.584-1.539,15.089,15.089,0,0,0,2.892-1.181l1.15-.212.932.519h.011l.212,1.059-.553,1.031h0a19.987,19.987,0,0,1-3.113,2.234,22.547,22.547,0,0,1-8.842,2.765,32.321,32.321,0,0,1-13.3-1.349,24.87,24.87,0,0,1-4.984-2.3h0l-.767-.55a16.819,16.819,0,0,1-3.629-4.235h0l-.284-1.133.373-.929h0l.949-.28Z" transform="translate(220.915 186.069)" fill-rule="evenodd"/>
    <path id="Path_376" data-name="Path 376" d="M222.931,179.192c.718,1.368.438.322,1.018,3.936a56.7,56.7,0,0,1,.392,12.26,2.888,2.888,0,0,1-.345,1.643c-1.059,1.52-2.02,1.122-4.658,1.241a185.739,185.739,0,0,0-22.656,2.575c-3.583.65-2.117.667-3.96.423l-.737-.794c0-.03.112-1.059.116-1.1l.847-.792h0a55.514,55.514,0,0,1,19.317-4.682c7.944-.635,7.307-.244,7.32-.559,0-.423.028-2.23.032-3.388h0a35.9,35.9,0,0,1,.453-6.818c.015-.1.445-2.82.449-2.907h0l.534-1.031.917-.436h0Z" transform="translate(208.933 188.39)" fill-rule="evenodd"/>
    <path id="Path_377" data-name="Path 377" d="M254.679,139.482h0a27.565,27.565,0,0,1,2.615,1.567c10.758,7.86,10.083,20.977-.775,28.551a31.021,31.021,0,0,1-10.587,4.728,79.016,79.016,0,0,1-3.885,25.3,59.134,59.134,0,0,1-9.575,18.256c.021.267.159,11.21.773,20.763a188.884,188.884,0,0,1,23.158,8.11c2.475,1.167,1.846.739,2.837,1.832l-.03,1.12-.832.764c-.229,0-1.379-.021-1.15-.021a191.826,191.826,0,0,0-25.832-7.8,2.866,2.866,0,0,1-1.207-.315h0c-1.152-.739-1.141-1.529-1.27-2.924-.5-4.648-.991-11.252-1.2-20.266.036-3.737-.023-2.712,1.859-5.293l.8-1.116a54.056,54.056,0,0,0,5.245-9.545,72.473,72.473,0,0,0,5.505-30.755,2.388,2.388,0,0,1,1.683-2.365,26.835,26.835,0,0,0,5.109-1.289c6.867-2.835,12.67-7.381,12.281-14.771,0-.068-.03-.328-.034-.343a12.763,12.763,0,0,0-2.208-5.958h0a16.26,16.26,0,0,0-5.145-4.84,16.99,16.99,0,0,0-8.666-2.6l-1.044-.423-.464-.985h0l.4-1.016c1.182-.572.847-.506,1.846-.534a20.8,20.8,0,0,1,9.8,2.166Z" transform="translate(248.859 141.533)" fill-rule="evenodd"/>
    <path id="Path_378" data-name="Path 378" d="M211.988,160.625c6.151,3.223,12.05,6.892,18.9,8.518,15.266,3.621,32.983-2.467,44.383-12.874,1.66,17.007,5.037,36.186,23.41,40.8,1.213-10.562-.044-23.122-4.745-32.8-5.374-11.027-17-19.173-28.809-21.9a54.457,54.457,0,0,0-30.414,1.482c-4.023,1.522-7.589,4.218-11.766,5.374-1.736.481-4.22-.313-3.947-2.554a10.164,10.164,0,0,1,3.485-6.316,49.411,49.411,0,0,1,19.9-8.893c10.621-1.963,27.259.159,36.83,5.505a59.711,59.711,0,0,1,22.341,24.4c4.381.212,6.973.963,10.676-2.107,4.434-3.678,2.181-11.434-13.407-13.34a34.073,34.073,0,0,0,8.273-3.828,16.065,16.065,0,0,0,6.532-5.958c2.791-5.592-1.12-10.981-7.045-11.612-6.225-.663-13.117,3.955-17.322,8.2,3.068-4.806,6.947-9.2,8.671-14.743,2.219-7.1-.836-11.9-7.9-8.338-5.626,2.831-9.219,9.17-12.628,14.2a48.154,48.154,0,0,0,4.7-11.834c1.3-6.339.169-19.535-9.837-16.475-8.48,2.6-13.147,12.346-15.851,20.75.7-6.4,3.348-21.585.315-27.814a6.1,6.1,0,0,0-9.823-2.064,15.481,15.481,0,0,0-2.7,3.157c-5.19,7.834-5.238,17.678-5.929,26.711-1.482-6.352-3.458-13.551-8.387-18.21-7.542-7.11-13.81,2.628-14.3,9.861-.476,7.112,2.278,13.541,4.527,20.1-4.053-5.929-7.009-14.684-13.246-18.819-6.532-4.332-11.741,2.147-11.688,8.76.063,7.718,5.88,15.5,10.055,21.743-4.948-4.616-11.347-11.14-18.743-10.89-5.137.174-10.511,11.434-.5,22.355,6.865,7.5,16.194,7.623,25.447,8.446" transform="translate(195.95 80.844)" fill-rule="evenodd"/>
    <path id="Path_379" data-name="Path 379" d="M300.487,109.9c2.926,4.383.974,10.443-1.525,15.067.066-.025.288-.121.366-.155,16.636-6.494,24.61,10.523,13.018,18.525-1,.758-3.682,2.446-4.8,3.079a23.883,23.883,0,0,1,4.135,1.8c6.352,3.468,8.51,10.614,1.584,15.177-3.352,2.151-5.893,1.944-9.772,1.694-1.482-.1-1.482-.036-2.208-.375-1.469-.97-.282-.718-4.275-6.877a60.416,60.416,0,0,0-15.747-16.092c-11.322-7.311-30.393-8.863-40.508-5.982a48.771,48.771,0,0,0-14.333,6.564,9.4,9.4,0,0,0-3.011,2.842,7.837,7.837,0,0,0-1.135,2.964h0a1.553,1.553,0,0,0,.709.078,46.352,46.352,0,0,0,8.4-3.83c19.552-9.789,52.424-4.9,65.311,19.539a50.626,50.626,0,0,1,4.567,14.057,70.339,70.339,0,0,1,.769,19.311c-.172,1.433-.1,1.6-.563,2.395a2.374,2.374,0,0,1-2.7.847,29.565,29.565,0,0,1-4.946-1.766c-12.342-5.946-16.255-17.68-18.54-31.227-.188-1.27-.648-4.48-.775-5.994a55.95,55.95,0,0,1-32.8,11.635c-14.856.093-23.463-7.233-29.523-10.009-1.2-1.461.593-.481-8.012-1.482-9.562-1.084-16.433-4.038-21.623-12.245a23.385,23.385,0,0,1-1.671-3.3,17.227,17.227,0,0,1-1.319-7.318c.212-4.819,2.983-10.375,7.959-10.5a18.5,18.5,0,0,1,10.4,3.369h0c-2.626-5.008-4.673-10.231-3.477-15.794,1.741-6.42,5.565-8.87,9.215-8.857,4.487.047,7.993,3.655,10.769,7.169-.1-.347-.193-2.6-.212-2.831-.15-12.118,8.88-21.426,17.4-14.352a25.079,25.079,0,0,1,6.185,8.506,36.244,36.244,0,0,1,5.969-16.977c2.895-4.112,7.261-6.2,11.809-4.146,6.479,3.282,6,11.718,5.679,18.978a30.168,30.168,0,0,1,2.13-2.753c7.7-8.3,17.909-9.573,21.237.241a26.028,26.028,0,0,1,1.033,10.761,18.164,18.164,0,0,1,6.32-3.756C296.195,106.574,299.043,107.761,300.487,109.9ZM252.8,129.621c9.395.144,20.894,2.164,28.913,6.776a62.549,62.549,0,0,1,17.7,16.516,53.5,53.5,0,0,1,4.593,7.411,18.9,18.9,0,0,0,4.43,0,7.218,7.218,0,0,0,3.943-2.5l.032-.036.04-.072.013-.036.061-.106.013-.034.021-.034v-.034l.021-.036c.044-.14.072-.212.1-.3V157.1l.023-.066V157l.011-.032v-.07l.013-.034.015-.349v-.258c-.025-.129-.042-.212-.072-.349l-.017-.04v-.04h0v-.04l-.017-.042v-.04l-.07-.167c-.057-.313-.792-2.179-4.747-3.921a30.963,30.963,0,0,0-7.959-2.014,2.486,2.486,0,0,1-2.27-1.423,2.38,2.38,0,0,1,.741-2.909c.743-.468,1.829-.635,4.209-1.677,2.422-1.059,8.1-4.271,9.454-6.528a5.423,5.423,0,0,0-3.1-8.559,12.9,12.9,0,0,0-9.67,1.649,31.378,31.378,0,0,0-7.335,5.516,2.382,2.382,0,0,1-1.455.692,2.437,2.437,0,0,1-1.571-.394,2.384,2.384,0,0,1-.868-2.914c1.829-3.489,10.587-13.168,9.014-19.48l-.055-.045a1.139,1.139,0,0,0-.025-.112l-.017-.036v-.036l-.019-.036v-.036l-.019-.036v-.034c-.3-.582-.341-.635-.352-.652l-.019-.019v-.019l-.019-.015v-.017l-.019-.015v-.015l-.019-.015-.011-.013-.019-.013V112.4l-.019-.011v-.013h-.038v-.011h-.019v-.011l-.038-.019h0l-.076-.034h0a2.243,2.243,0,0,0-.891-.14,11.669,11.669,0,0,0-6.653,3.365c-7.93,7.923-7.366,12.935-11.112,11.87a2.393,2.393,0,0,1-1.529-2.541c.347-1.575,4.37-7.784,4.982-13.568.377-3.6.093-9.469-2.725-11.781-2.329-1.842-6.517.273-8.783,2.077-4.267,3.146-7.305,9.6-9.075,14.61-.919,2.56-.783,2.937-2.09,3.631a2.422,2.422,0,0,1-1.622.076c-3.716-1.505.1-5.531.03-22.635-.013-2.939-.5-7.237-3.176-8.5a3.36,3.36,0,0,0-1.98-.263,6.735,6.735,0,0,0-3.938,3.057c-5.014,7.424-5.293,15.353-5.954,24.937-.1,1.527-.057,2.092-.987,2.952a2.346,2.346,0,0,1-2.9-.015c-1.482-1.412-.57-2.717-3.6-10.7-.125-.269-.538-1.347-.915-2.041-1.338-2.842-4.529-7.436-7.692-7.508a5.573,5.573,0,0,0-4.15,2.753c-5.516,8.078-1.5,17.151,1.563,26.412a2.183,2.183,0,0,1-.515,2.619,2.143,2.143,0,0,1-2.678.11c-2.8-2.456-7.957-17.54-14.771-19.677a3.951,3.951,0,0,0-3.76.572c-9.952,9.039,6.409,26.256,6.788,28.921a1.865,1.865,0,0,1-2.609,1.861c-1.944-1.04-9.473-10.8-17.642-10.849a2.7,2.7,0,0,0-1.658.423c-5.363,4.11-3.519,14.748,3.532,20.583,5.759,5.338,14.345,5.791,21.981,6.464,1.1.1.675-.023,1.884.612l.233.716c7.993,4.273,14.671,8.067,22.792,8.851a47.815,47.815,0,0,0,24.037-4.212,53.044,53.044,0,0,0,14.237-9.28,2.041,2.041,0,0,1,2.562-.15c1.482,1.251.351,1.461,2.3,12.188a58.259,58.259,0,0,0,4.283,14.271c3.269,6.39,6.716,10.307,13.564,12.933h0a65.066,65.066,0,0,0-2.363-22.326,37.39,37.39,0,0,0-4.751-10.3c-8.239-11.8-22.889-19.289-41.469-17.934-12.878.987-16.279,5.1-22.707,7.529a7.292,7.292,0,0,1-5.929.258,5.121,5.121,0,0,1-1.628-1.16,4.527,4.527,0,0,1-1.152-2.638,10.6,10.6,0,0,1,1.431-5.334,15.061,15.061,0,0,1,6.24-5.929,55.073,55.073,0,0,1,13.293-5.98,45.937,45.937,0,0,1,14.244-1.876Z" transform="translate(195.043 79.578)" fill-rule="evenodd"/>
    <path id="Path_380" data-name="Path 380" d="M186.476,187.084c.656,1.368.423.447.737,3.5a173.5,173.5,0,0,1,.955,19.692c.514,25.773.716,23.785.9,41.958-.212,17.458,0,15.616-1.694,16.471h-.011l-1.025-.445c-.625-1.412-.453-.61-.7-3.6-1.539-18.47-1.364-20.962-1.724-32.053-.752-31.761-.794-31.17-.442-37.08.174-2.943.546-7.182.576-7.411h0l.485-1.033.966-.436h.019Z" transform="translate(199.185 198.076)" fill="#e8505b" fill-rule="evenodd"/>
    <path id="Path_381" data-name="Path 381" d="M251.551,184l.955.47.451,1.035c1.021,9.979.663,50.366.6,52.579a198.009,198.009,0,0,1-2.361,29.32c-.557,3.839-.464,3.176-1.124,4.311l-1.059.324h-.019c-1.925-1.15-1.118.5-.65-15.52,1.27-45.947-.443-50.32,1.461-69.112.29-2.446.087-1.694.745-3l.983-.407Z" transform="translate(271.264 195.101)" fill="#e8505b" fill-rule="evenodd"/>
    <path id="Path_382" data-name="Path 382" d="M219.328,218.8c1.33,2.541.779.991,1.323,7.462a12.966,12.966,0,0,1-.5,6.066h0l-.589,1.175-.813.51h-.019c-1.082-.553-.72-.212-1.552-1.542h0a14.555,14.555,0,0,1-1.188-4.54c-.025-.277-.534-6.291-.413-7.08a5.808,5.808,0,0,1,.487-1.364c.424-.883.028-.356,1.762-2.147C217.852,217.36,219.3,218.768,219.328,218.8Z" transform="translate(235.277 232.614)" fill-rule="evenodd"/>
    <path id="Path_383" data-name="Path 383" d="M131.5,213.936c5.177,5.649.716.69,8.743,11.131,12.366,14.261,11.7,12.751,11.112,14.767h0l-.982.423-1.167-.343c.925,0-5.293-1.694-15.315-15.233a34.127,34.127,0,0,1-3.7-5.732,25.69,25.69,0,0,1-1.239-3.587c.066-1.5-.212-.847.565-1.995h.019l.968-.044Z" transform="translate(138.504 228.116)" fill-rule="evenodd"/>
    <path id="Path_384" data-name="Path 384" d="M136.485,205.614a40.478,40.478,0,0,1,3.388,4.41c6.206,11.173,7.394,12.323,9.816,16.319,4.317,7.777,3.576,5.946,3.936,7.714l-.489.944h0l-1.044.212-1.069-.553h0c-.925-.955-3.206-3.278-4.478-4.925a154.015,154.015,0,0,1-10.913-17.549,33.454,33.454,0,0,1-1.724-5.226c.064-1.459-.152-.942.623-1.973h0l.976-.017Z" transform="translate(144.039 218.559)" fill-rule="evenodd"/>
    <path id="Path_385" data-name="Path 385" d="M156.2,223.9l-1.1-.5h0a48.043,48.043,0,0,1-5.027-5.116,63.458,63.458,0,0,1-7.5-12.931,15.34,15.34,0,0,1-1.694-7.644c0-.612-.072-.246.351-1.6l.75-.61H142l.936.227c.93,1.012.779.807,1.008,1.27.148.284,1.836,3.329,1.988,3.852,3.305,8.762,5.437,10.392,10.295,18.752,1.421,2.378,1.059,1.453,1.457,3.058l-.443.965h0v.011Z" transform="translate(151.81 207.655)" fill-rule="evenodd"/>
    <path id="Path_386" data-name="Path 386" d="M166.483,195.813h.019l.726.792c.042,5.156-14.292,32.062-12.6,73.846.135,6.439,1,15.832,1.3,19.5,2.668,25.58,3.648,23.954,3.087,26.544-.019,0-.91.635-.925.635s-1.078-.229-1.093-.233l-.663-.944a256.59,256.59,0,0,1-5.852-34.009,206.713,206.713,0,0,1,.563-39.574c.614-5.865,2.329-14.231,2.367-14.462a110.83,110.83,0,0,1,8.94-26.946c2.418-5.056,2.1-4.334,3.064-5.173Z" transform="translate(161.781 210.36)" fill-rule="evenodd"/>
    <path id="Path_387" data-name="Path 387" d="M135.974,228.818l.756.783c.061,3.659-.635-1.084-3.974,17.288-2.878,15.686-10.587,38.587-5.067,62.107a48.98,48.98,0,0,0,9,19.192,40.471,40.471,0,0,0,17.225,12.632,42.092,42.092,0,0,0,18.652,2.676,52.511,52.511,0,0,0,14.449-3.811c13.511-5.486,21.953-17.7,28.947-30.279,7.2-13.21,5.16-10.871,6.85-12.366l1.12.04.764.847c-.066,1.482.1.773-.807,2.831-4.578,10.223-11.116,23.675-19.092,31.791a49.864,49.864,0,0,1-38.92,15.787A46.322,46.322,0,0,1,125.1,316.972a80.3,80.3,0,0,1-3.811-33.3c1.959-20,4.33-24.039,6.657-33.893.574-2.194,3.049-14.123,6.1-20.191h0l.815-.775h1.093Z" transform="translate(129.52 247.265)" fill-rule="evenodd"/>
    <path id="Path_388" data-name="Path 388" d="M210.714,191.637l.523.98h0l-.356,1.059c-1.12.612-.87.538-1.531.635-9.043,1.289-18.982,7.879-26.224,13.471h0c-12.493,9.626-20.083,20.327-29.22,32.83-.017.015-.93.65-.946.663l-1.059-.1-.019-.011-.635-.847c.093-1.37.036-1.059.241-1.52a71.663,71.663,0,0,1,13.647-20.585A112.01,112.01,0,0,1,184.6,200.725a55.139,55.139,0,0,1,13.174-7.074c.227-.076,3.758-1.285,4.1-1.285a36.874,36.874,0,0,1,7.745-1.1Z" transform="translate(163.413 203.03)" fill-rule="evenodd"/>
    <path id="Path_389" data-name="Path 389" d="M254.467,193.068c14.11,3.837,29.245,9.861,40.669,19.313,9.541,7.695,16.156,15.792,22.957,31.039,13.435,28.619,18.337,57.834,20.661,89.354.392,6.884,1.8,14.4,3,24.714a79.481,79.481,0,0,1,.411,14.748l-.513,1.023-1.059.383h-.021l-1-.5-.392-1.059c.436-10.039-2.348-21.7-3.578-29.8-2.2-13.392-2.405-30.338-7.834-54.766a191.312,191.312,0,0,0-10.587-34.4c-3.96-9.225-9.439-21.25-16.259-28.7a71.178,71.178,0,0,0-6.166-6.083c-10.744-9.67-26.62-17.382-41.164-22.444h0l-.847-.739c0-.032-.11-1.078-.108-1.107l.709-.828Z" transform="translate(276.703 207.321)" fill-rule="evenodd"/>
    <path id="Path_390" data-name="Path 390" d="M268.126,296.442c-.94-1.084-.692-.515-2.359-4.309-1.059-2.443-.724-1.457-4.341-13.9h0a11.741,11.741,0,0,1-.515-5.183l1.014-1.808,1.81,1.014a22.988,22.988,0,0,1,1.857,3.252c.125.328,3.515,11.821,3.839,13.327.169.743.519,3.286.544,3.653.237,2.753.282,1.859-.047,3.481l-.771.7C269.13,296.66,268.154,296.449,268.126,296.442Z" transform="translate(285.85 294.666)" fill-rule="evenodd"/>
    <path id="Path_391" data-name="Path 391" d="M177.572,345.157c-4.565-38.748-12.67-79.046,6.007-115.43,18.811-4.341,132.777-4.828,169.815-1.694,12.994,39.627,4.163,79.972-3.509,119.673" transform="translate(186.426 244.139)" fill="#e8505b" fill-rule="evenodd"/>
    <path id="Path_392" data-name="Path 392" d="M352.551,226.739c2.706.174,2.717.188,3.4.567.991.766.953,1.283,1.561,3.14,11.872,38.848,3.477,77.073-4.542,116.948-.462,2.242-.212,1.618-1.021,2.823l-1.1.235h-.019l-.938-.635c-.33-1.584-.373-.383.455-4.859,6.888-37.827,5.8-35.5,6.026-35.5,3.888-28.43,4.408-51.19-3.521-77.905-.025,0-1.188-.093-8.912-.563-34.547-1.508-69.4-1.565-102.147-.97-7.21.133-48.488,1.1-55.351,3.079A104.971,104.971,0,0,0,176.4,268.143c-3.716,33.857,4.921,74.64,3.564,79.19l-.961.553h-.011l-1.059-.309-.563-.972h0c-5.484-39.4-13.729-80.063,4.891-115.821,1.139-2.329,1.239-2.09,6.86-2.93C223.3,223.961,323.015,224.241,352.551,226.739Z" transform="translate(185.183 242.878)" fill="#e8505b" fill-rule="evenodd"/>
    <path id="Path_393" data-name="Path 393" d="M126.9,112.678c.239.157.019.163,1.158-.169,8.188.7,17.1,11.118,15.076,18.936l-.025.127h0c-2.911,11.25-18.337,7.733-24.405-2.283h0a15.178,15.178,0,0,1-2.308-6.352,9.556,9.556,0,0,1,.6-4.77A8.442,8.442,0,0,1,126.9,112.678Zm-.362,2.907a5.344,5.344,0,0,0-2.492.54,5.717,5.717,0,0,0-2.863,4.6,1.5,1.5,0,0,1-.032.273c-.546,3.555,2.825,9.759,9.892,12.281a8.177,8.177,0,0,0,4.3.4,4.466,4.466,0,0,0,3.138-3.307h0a6.577,6.577,0,0,0-.243-3.83,19.527,19.527,0,0,0-1.906-4.063,14.822,14.822,0,0,0-8.954-7.186Z" transform="translate(124.379 112.274)" fill="#010000" fill-rule="evenodd"/>
    <path id="Path_394" data-name="Path 394" d="M135.588,106.818c4.182.089,8.561,5.042,8.334,10.223-.273,6.282-8.669,9.952-14.066,1.973a7.58,7.58,0,0,1-.555-7.847,6.4,6.4,0,0,1,.894-1.256c1.789-1.666,1.243-.781,1.671-1.639A5.211,5.211,0,0,1,135.588,106.818Zm-1.482,3.614-.142.311h0a3.631,3.631,0,0,0-.8,1.51v.049l-.021.047a3.083,3.083,0,0,0-.081.5l-.011.044v.843l.025.129v.044a.948.948,0,0,0,.023.116v.015l.015.089v.044c.028.152.038.212.08.39v.013c0,.057.038.212.047.277l.017.047.015.093.019.047v.049l.019.047v.047l.019.049v.047c.921,2.509,2.685,3.568,3.866,3.5a2.471,2.471,0,0,0,1.311-.527l.1-.089v-.019a1.44,1.44,0,0,0,.133-.15v-.021l.021-.019.021-.04.021-.021.064-.133.021-.023v-.025l.021-.025v-.051c.019-.049.025-.061.053-.136v-.03l.021-.059v-.036h0v-.032l.013-.032v-.034l.013-.034V117.2l.013-.034V117.1l.013-.034v-.754l-.015-.093v-.047c-.273-2.4-2.577-6.486-4.91-5.738Z" transform="translate(137.954 105.75)" fill="#010000" fill-rule="evenodd"/>
    <path id="Path_395" data-name="Path 395" d="M162.155,111.508a16.228,16.228,0,0,1,3.4.523,10.587,10.587,0,0,1,7.663,6.164c2.3,5.1-1.287,9.99-8.292,8.728a17.081,17.081,0,0,1-7.834-3.388C151.954,118.9,154.516,111.468,162.155,111.508Zm1.165,3.934h0a9.526,9.526,0,0,0-2.446.809h0a4.288,4.288,0,0,0-.438.227c-.847.476-.815.548-1.021.775h0a.9.9,0,0,0-.061.083h0l-.011.011v.015l-.021.023v.038l-.021.025v.051l-.011.013v.659l.017.055v.03l.017.059v.03c.023.08.049.184.068.265l.017.032.028.089.017.032.017.059.019.03v.03l.017.03v.028l.055.089v.03l.11.178.028.03.036.059.027.03.019.03.028.03.019.03.055.061.019.03c1.948,2.069,7.2,3.43,8.859,2.45h0l.08-.047v-.013l.04-.021.019-.021.021-.011c.083-.08.053-.049.1-.1h0l.019-.017h0l.019-.019h0v-.083h0v-.013h0v-.053l.011-.015v-.044l.021-.032v-.349a3.8,3.8,0,0,0-.33-1.823h0a8.046,8.046,0,0,0-3.326-4.023h-.019a7,7,0,0,0-2.1.14Z" transform="translate(166.952 111.129)" fill="#010000" fill-rule="evenodd"/>
    <path id="Path_396" data-name="Path 396" d="M186.458,182.982a24.124,24.124,0,0,1-10.261-6.731c-6.907,10.813-13.433,19.721-21.938,31.666-1.906,2.676-6.094,9.2-3.96,12.662,3.551,5.785,10.25-3.117,12.67-6.456,9.272-12.848,13.428-18.392,23.528-31.291" transform="translate(161.693 185.725)" fill-rule="evenodd"/>
    <path id="Path_397" data-name="Path 397" d="M177.858,175.271c.966.282,1.038.487,1.683,1.247a23.035,23.035,0,0,0,8.1,5.958h0l1.086.275h0l.532.989c-.2.716-.169.519-.144.86l-.127.127-.04.148h0c-21.953,30.279-22.912,32.608-26.791,36.732a12.211,12.211,0,0,1-7.3,4.392,5.668,5.668,0,0,1-5.082-2.674,8.175,8.175,0,0,1-.6-7.375c1.594-5.2,5.66-9.975,14.631-22.631C176.651,174.841,175.828,175.089,177.858,175.271Zm-23.95,41.639a6.422,6.422,0,0,0-.464,3.081v.04c.025.085.049.144.089.267h0l.011.019h0l.021.038h0v.019h0v.03a3.606,3.606,0,0,0,.294.409c.059.076.167.191.169.193h.021l.019.019.013.017h.04l.03.025h.021l.021.019h0l.021.019h.019l.04.017h.1l.235-.017.028-.013h.038l.03-.013h.076l.03-.013h.028l.087-.034h.028c.089-.03.047-.021.135-.049l.028-.021a3.869,3.869,0,0,0,.576-.277h0c3.244-1.923,6.729-7.216,9-10.346,6.047-8.383,14.1-18.112,20.34-25.62a25.276,25.276,0,0,1-3.231-1.448,22.91,22.91,0,0,1-3.917-2.583c-9.5,15.781-22.233,30.738-23.984,36.222Z" transform="translate(160.417 184.6)" fill="#010000" fill-rule="evenodd"/>
    <path id="Path_398" data-name="Path 398" d="M220.792,120.234h0a66.274,66.274,0,0,1,64.479,66.357,70.817,70.817,0,0,1-2.162,17.388v.03a68.246,68.246,0,0,1-73.262,50.817,64.818,64.818,0,0,1-16.581-3.864,68.294,68.294,0,0,1-44.5-62.633,66.524,66.524,0,0,1,6.46-29.8,67.8,67.8,0,0,1,11.724-17.185A66.954,66.954,0,0,1,220.792,120.234Zm-10.545,5.355a61.758,61.758,0,0,0-48.2,35.464,61.009,61.009,0,0,0-5.281,30.753A60.386,60.386,0,0,0,277.3,189.157a63.731,63.731,0,0,0-.538-10.695,59.483,59.483,0,0,0-6.327-19.592,62.48,62.48,0,0,0-27.071-27.1,54.925,54.925,0,0,0-33.105-6.179Zm10.545-5.349h0C219.871,120.222,219.867,120.219,220.792,120.241Z" transform="translate(160.627 121.814)" fill="#010000" fill-rule="evenodd"/>
    <ellipse id="Ellipse_5" data-name="Ellipse 5" cx="11.696" cy="8.772" rx="11.696" ry="8.772" transform="translate(380.359 312.628) rotate(-87.504)"/>
    <path id="Path_399" data-name="Path 399" d="M193.65,141.5a12.424,12.424,0,0,1,4.326.589c4.9,1.876,8.4,6.9,8.1,13.776a19.8,19.8,0,0,1-.955,5.577,14.186,14.186,0,0,1-9.3,9.556,10.953,10.953,0,0,1-10.337-2.772,15,15,0,0,1-3.7-5.645h0C178.051,152.912,184.107,141.089,193.65,141.5Zm.114,4.97c-4.73.847-6.079,7.534-4.91,12.186a6.049,6.049,0,0,0,3.746,4.709h.049l.038.013h.135l.049.013h.546a5.81,5.81,0,0,0,3.9-3.722c2.28-5.052-.474-12.325-3.549-13.236Zm.332-4.912Z" transform="translate(196.289 145.641)" fill="#010000" fill-rule="evenodd"/>
    <path id="Path_400" data-name="Path 400" d="M207.261,141.974l.3,1.116a110.88,110.88,0,0,1-1.107,13.128c-.864,6.85-.832,10.358-2.85,27.3a23.286,23.286,0,0,0-.745,5.7l.015.1v.049a2.687,2.687,0,0,0,.15.582l.019.019V190l.019.021v.03l.017.03.019.021c.263.44,1.033.786,2.314,1.059.741.14.294-.051,1.571.654l.375,1.021v.011l-.51.972c-1.2.455-.965.436-1.753.4a6.174,6.174,0,0,1-5.459-2.6h0a7.042,7.042,0,0,1-.847-3.072c-.262-5.757,1.582-18.133,2-23.452.288-2.647.03-2.649,1.306-12.537a50.421,50.421,0,0,1,2.594-10.043l.711-.9,1.006-.239C206.439,141.379,207.233,141.955,207.261,141.974Z" transform="translate(216.51 145.69)" fill="#010000" fill-rule="evenodd"/>
    <path id="Path_401" data-name="Path 401" d="M192.615,127.455a13.4,13.4,0,0,1,6.723,1.747h0a7.154,7.154,0,0,1,3.47,4.991c1.349,8.681-13.1,17.509-19.427,22.917-3.623,3.206-6.833,6.217-11.646,6.877-6.678.377-8.819-6.187-7.758-12.728a15.642,15.642,0,0,1,1.783-5.092,36.419,36.419,0,0,1,18.561-16.886c3.06-1.234,2.6-1.059,3.691-1.01l.5-.36a16.644,16.644,0,0,1,4.1-.455Zm-3.513,3.388-.648-.144a50.911,50.911,0,0,0-13.93,11.167,30.594,30.594,0,0,0-5.194,7.93,11.042,11.042,0,0,0,.049,8.518v.03l.028.03.036.061.019.019.036.061.019.019.019.03.036.042.019.03.019.019.028.021v.021l.03.019.074.083h.019l.036.04h.019l.019.021h.019l.019.019h.019l.019.021.057.032.017.019.191.106h.03a.4.4,0,0,0,.087.042h.019a.214.214,0,0,1,.049.021h.076a.216.216,0,0,0,.049.021h.057l.03.013h.087l.4.017h.214a8.513,8.513,0,0,0,2.833-.97,23.113,23.113,0,0,0,4.131-3c10.2-8.724,15.374-11.36,19.268-16.994a10.413,10.413,0,0,0,.847-1.552,4.769,4.769,0,0,0,.366-1.27l.013-.047V135.2l.013-.271v-.246l-.017-.078v-.038l-.017-.08v-.038c-.03-.14-.051-.231-.064-.3l-.019-.03-.017-.078-.017-.032v-.038l-.019-.03v-.04a.681.681,0,0,1-.036-.07v-.04a3.634,3.634,0,0,0-1.283-1.482h0a8.118,8.118,0,0,0-.711-.459l-.059-.023-.047-.03a12.529,12.529,0,0,0-7.335-.949Z" transform="translate(177.349 129.564)" fill="#010000" fill-rule="evenodd"/>
    <path id="Path_402" data-name="Path 402" d="M170.522,150.806c1.131.686.94.506,1.059.847.51-.044.188-.076.758.083a8.968,8.968,0,0,1,1.942.894,10.375,10.375,0,0,1,4.629,7.479,14.429,14.429,0,0,1-.864,7.5h0a10.358,10.358,0,0,1-15.976,5.069c-4.258-2.89-5.332-9.007-3.612-13.835a11.4,11.4,0,0,1,7.2-7.794A9.649,9.649,0,0,1,170.522,150.806Zm-.381,2.92a6.4,6.4,0,0,0-2.708.819h0a9.7,9.7,0,0,0-3.089,3.1h0a9.264,9.264,0,0,0-1.126,2.117,17.089,17.089,0,0,0-.491,1.656c-.726,2.945.121,6.613,2.888,7.794a6.032,6.032,0,0,0,4.324.423,6.579,6.579,0,0,0,3.72-3.907h0a11.687,11.687,0,0,0,.656-1.863,12.129,12.129,0,0,0,.377-3.066,8.259,8.259,0,0,0-.709-3.388,5.776,5.776,0,0,0-3-3h0l-.72-.7a.583.583,0,0,1-.119.019Z" transform="translate(170.595 156.067)" fill="#010000" fill-rule="evenodd"/>
    <path id="Path_403" data-name="Path 403" d="M35.707,134.563a52.681,52.681,0,0,1,17.3,3.5c7.523,2.714,6.2,2.117,7.309,3.1l.129,1.059-.011.019-.7.817-1.118.157h0A112.55,112.55,0,0,0,37.156,139.4a11.337,11.337,0,0,0-5.888.807l-.051.017a9.74,9.74,0,0,0-3.307,3.348H27.9a36.446,36.446,0,0,0-3.722,10.216,93.91,93.91,0,0,0-2.037,27.95c.394,5.59,1.319,12.56,5.63,16.092,5.293,4.351,15.906,3.176,22.745,2.094,5.842-.832,4.211-.957,6.083-.534l.635.925h0l-.243,1.093-.944.652a121.978,121.978,0,0,1-15.135,2.782c-6.693.7-14.667-.616-18.675-5.984-7.042-8.451-5.571-33.455-3.132-44.309,1.469-6.585,3.509-14.4,9.141-18.119a10.956,10.956,0,0,1,3.233-1.44A15.883,15.883,0,0,1,35.707,134.563Z" transform="translate(13.502 137.978)" fill="#010000" fill-rule="evenodd"/>
    <path id="Path_404" data-name="Path 404" d="M29.27,138.482a17.538,17.538,0,0,1,3.839,5.929h0c1.806,4.7,2.028,11.908,2.043,16.939a85.474,85.474,0,0,1-2.433,19.1v.019c-.68,2.615-.468,1.715-.7,2.585h0c-1.243,3.669-2.448,7.394-5.759,9.74h0l-1.114.284-.974-.521h0l-.267-1.046.515-1.042c1.906-1.709,2.916-5.941,3.354-8.47h0c1.891-10.375,3.356-17.786,2.272-28.883-.39-3.731-1.11-7.174-1.169-7.411h0a17.553,17.553,0,0,0-1.891-5.44h0l-.222-1.131.468-.917h0l1.016-.248Z" transform="translate(21.125 141.789)" fill="#010000" fill-rule="evenodd"/>
    <path id="Path_405" data-name="Path 405" d="M30.826,141.4c-5.433,8.245-6.221,16.662-6.678,25.434a39,39,0,0,0,.1,5.537c.161,1.694.2,7.013,1.844,8.258.237.186,1.27-.783,1.459-.989,4.211-4.538,4.493-21.993,4.508-28.212-.019-1.143.051-8.573-2.452-7.551" transform="translate(21.332 145.609)" fill-rule="evenodd"/>
    <path id="Path_406" data-name="Path 406" d="M32.871,140.911l.019.011.565.891c-.195,1.482-.051.893-.487,1.793h0c1.891,1.472,2.23,6.68,2.3,9.084.459,7.343.093,21.75-3.72,28.062-1.319,2-3.553,3.936-5.594,2.556-1.944-1.463-2.437-4.686-2.628-7.286h0a65.8,65.8,0,0,1-.339-7.663c.476-10.928,1.234-18.385,7.879-27.02v-.011l.972-.591Zm-4.8,22.072a70.673,70.673,0,0,0-.318,7.966c0,.358.322,5.262.445,5.882,2.477-6.464,3.434-25.434,3.091-29.277a63.359,63.359,0,0,0-3.218,15.429Z" transform="translate(20.084 144.875)" fill="#010000" fill-rule="evenodd"/>
    <path id="Path_407" data-name="Path 407" d="M77.911,134.271c.112.025,39.409,10.075,40.616,10.422,10.955,2.986,13.475,3.691,16.173,4.989a14.714,14.714,0,0,1,5.433,4.275c2.941,3.8,3.811,9.579,4.046,14.371a32.15,32.15,0,0,1-.612,8,85.133,85.133,0,0,1-3.068,9.719l-.739.847-1.088.119c-.015-.017-.83-.707-.847-.72-.235-2.041-.347.423,1.842-8.47a27.659,27.659,0,0,0,.635-4.675c.212-4.887-.906-13.6-4.178-16.727-2.312-3.811-24.206-8.393-47.43-14.4-8.5-2.2-21.2-6.064-29.959-5.355a7.489,7.489,0,0,0-4.624,2.257,33.4,33.4,0,0,0-2.964,3.354,44.14,44.14,0,0,0-5.421,9.316,66.486,66.486,0,0,0-4.944,20.77,62.674,62.674,0,0,0,1.535,20.28,19.692,19.692,0,0,0,3.672,7.76c5.941,7.18,21.36,5.26,30.6,4.347H76.6l1.1.33.563.972v.019l-.309,1.078-1,.572c-.974-.042-13.318,2.522-23.035.968-13-2.079-15.834-11.756-17.693-24.5a68.341,68.341,0,0,1,7.889-39.985,34.626,34.626,0,0,1,8.946-10.536,12.871,12.871,0,0,1,3.695-1.482C62.692,130.957,69.95,132.549,77.911,134.271Z" transform="translate(34.438 134.809)" fill="#010000" fill-rule="evenodd"/>
    <path id="Path_408" data-name="Path 408" d="M36.986,146.433v-.038l.057.032.068.021v-.038l.125.044v-.049a.527.527,0,0,0,.116.034v-.049h0l.087.023-.017-.051.1.025-.017-.051h.087l-.017-.049h.078l-.017-.049.028.011h.04l-.028-.051h.057l-.036-.051h.036a.537.537,0,0,0-.036-.051h0l-.019-.019h0l.019.019-.019-.019.019.019h0v-.011l.017.021h.019l.019.021h.019v.011l.076.042h.019a13.319,13.319,0,0,0,1.717.455c.489.212.557.351.932.538,1.031.822-.212-.385,2.223,2.058-1.853,1.4-2,1.666-3.6,2.048h0a2.063,2.063,0,0,1-.809-.034,7.119,7.119,0,0,1-4.548-2.384v-.011a2.378,2.378,0,0,1,.121-2.329l2.926-.212h0Z" transform="translate(31.877 150.736)" fill="#010000" fill-rule="evenodd"/>
    <path id="Path_409" data-name="Path 409" d="M41.417,156.077c.635.356.015-.188,1.916,1.743a9.074,9.074,0,0,1-2.935,2.164h0l-.3.133H40.09a2.131,2.131,0,0,0-.277.106,5.846,5.846,0,0,0-2.206.714l-.032.028-.03.019h-.011l-.049.028-.03.028-.061.036-.03.03-.03.017-.053.047h0l-.08.074-.032.019-.07.066h-.059l-.04.017h-.049s-.783.019-.822.021c-.529-.023.2.387-2.727-1.641V159.7c.076-1.749.311-1.844,1.251-2.56a8.456,8.456,0,0,1,2.395-1.2,4.916,4.916,0,0,1,4.368.135Z" transform="translate(31.735 161.543)" fill="#010000" fill-rule="evenodd"/>
    <path id="Path_410" data-name="Path 410" d="M52.853,136.228l.064.083h.019a22.821,22.821,0,0,1,4.853,8.171c.58,2.02.47,1.317.459,1.541.074.284.265,1.135.313,1.361a68.365,68.365,0,0,1,1.158,17.96,61.578,61.578,0,0,1-4.178,19.281c-1.906,4.584-4.311,10.949-9.259,11.434-1.27-.055-.758.169-2.139-.635l-.332-1.059v-.019l.548-.942,1.088-.371h.411l.089-.025h.03s.227-.078.286-.1l.021-.019a.25.25,0,0,0,.049-.017l.03-.019h.03a.473.473,0,0,0,.1-.053l.019-.019c.377-.108,1.171-.881,2.026-2.42v-.019a39.3,39.3,0,0,0,2.471-6.575,68.373,68.373,0,0,0,3.506-14.187,67.234,67.234,0,0,0,.1-16.628,61.368,61.368,0,0,0-1.306-7.169,29.644,29.644,0,0,0-2.793-7.779h0l-.212-1.131.5-.915h0l1.025-.229Z" transform="translate(43.366 139.257)" fill="#010000" fill-rule="evenodd"/>
    <path id="Path_411" data-name="Path 411" d="M54.669,139.2c-6.1,3.022-8.548,9.89-10,16.092-1.01,4.271-1.976,15.345-1.139,19.217.769,3.964,3.729,11.938,7.093,9.149,6.564-5.442,6.793-24.953,6.483-33.493-.116-3.35-.335-7.731-2.856-10.318" transform="translate(42.696 143.124)" fill-rule="evenodd"/>
    <path id="Path_412" data-name="Path 412" d="M57.249,139.244v.019L57.3,140.3a13.43,13.43,0,0,1,2.607,6.661,90.2,90.2,0,0,1,.682,9.2,70.3,70.3,0,0,1-2.081,20.911c-1.133,4.214-4,10.471-8.273,10.284-3.653-.161-5.8-5.029-6.937-8.508-1.23-4.281-1.541-5.433-.906-14.779.1-2.228.7-5.973.8-6.638h0c1.554-7.921,4.567-15.478,11.951-18.777.227-.085-.028-.047,1.27-.089ZM47.9,158.288h0a81.336,81.336,0,0,0-.978,10.113,45.4,45.4,0,0,0,.15,5.977,19.645,19.645,0,0,0,3.335,8.067l.03.021h0a6.538,6.538,0,0,0,.847-.891c4.889-5.581,5.823-31.217,4.79-36.267a10.247,10.247,0,0,0-.587-1.986,6.631,6.631,0,0,0-.485-.978C50.793,146.225,49.186,152.192,47.9,158.288Z" transform="translate(41.422 142.421)" fill="#010000" fill-rule="evenodd"/>
    <path id="Path_413" data-name="Path 413" d="M52.238,145.025a7.983,7.983,0,0,1-.69,3.756h0c-2.753,7.472-1.112,5.31-4,12.85h0l-.726,1-.942.339h-.019l-.828-.557A4.823,4.823,0,0,1,44.5,160.1a19.869,19.869,0,0,1,0-3.784,51.317,51.317,0,0,1,2.6-9.272h0a5.929,5.929,0,0,1,1.836-2.719c.87-.8.294-.506,2.67-1.27Z" transform="translate(44.03 147.369)" fill="#fff" fill-rule="evenodd"/>
    <path id="Path_414" data-name="Path 414" d="M29.7,154.324a11.491,11.491,0,0,1-1.086,4.567c-.453,1.04-.019.485-1.933,2.249-1.525-1.952-1.325-1.52-1.546-2.541a16.376,16.376,0,0,1,.066-7.119c.273-2.6.263-2.645.476-3.11a13.058,13.058,0,0,1,.972-1.469l1.626-1.285C30.734,148.7,30.361,148.088,29.7,154.324Z" transform="translate(22.094 150.275)" fill="#fff" fill-rule="evenodd"/>
    <path id="Path_415" data-name="Path 415" d="M90.6,149.452a6.526,6.526,0,0,1,4.389,1.351c3.428,2.5,4.023,7.834,3.449,11.946-.98,6.8-5.4,10.115-10.363,9.9a8.084,8.084,0,0,1-2.518-.618l-.847-.807c0-.015-.131-1.059-.129-1.059h0l.707-.779c2.162-.339,2.234-.013,3.4-.455h0a5.6,5.6,0,0,0,1.84-1.033h0a8.879,8.879,0,0,0,2.594-3.544c.946-2.287,1.1-7.856-.665-9.384v-.019l-.028-.021-.034-.068c-.013,0-.292-.252-.3-.256a3.809,3.809,0,0,1-.36-.241h-.019a7.529,7.529,0,0,0-.864-.536h0a5.7,5.7,0,0,0-1.186-.54h0c-.527-.212-1.6-.529-1.829-.6h0l-1.008-.62-.39-.9h0l.468-.858,1.059-.54h.049A12.214,12.214,0,0,1,90.6,149.452Z" transform="translate(88.924 154.723)" fill-rule="evenodd"/>
    <path id="Path_416" data-name="Path 416" d="M145.492,193h0c.322,1.834.754,1.122-6.049,6.954-3.1,2.693-18.354,14.29-27.018,19.817-.04.03-.548.392-.574.4h0l-1.107.351-.961-.324h0l-.358-.942.33-1.118v-.011c.212-.25-.038-.04,1.751-2.312a30.2,30.2,0,0,1,6.97-5.929c11.205-7.974,12.376-10.147,24.875-17.219h0l1.19-.212Z" transform="translate(116.68 204.172)" fill-rule="evenodd"/>
    <path id="Path_417" data-name="Path 417" d="M213.813,263.005a20.326,20.326,0,0,1,3.144,2.185c4.447,5.061,7.684,7.006,11.527,10.864,1.639,1.651.913.614,1.882,2.238l-.093,1.018h0l-.872.548-1.226-.1h0a26.808,26.808,0,0,1-5.785-2.935,69.913,69.913,0,0,1-7.271-6.619,11.685,11.685,0,0,1-3.506-5.293l-.019-.03.178-2.06Z" transform="translate(230.844 285.262)" fill-rule="evenodd"/>
  </g>
</svg>
