<svg xmlns="http://www.w3.org/2000/svg" width="613.078" height="558.802" viewBox="0 0 613.078 558.802">
  <g id="Social_Media" data-name="Social Media" transform="translate(-4.984 -21.01)">
    <path id="Path_1042" data-name="Path 1042" d="M316.729,83.469c8.9,8.7,28.167,471.066-1.122,486.573-62.736,33.2-240.726-63.605-243.317-78.976C69.532,474.714,45.08,83.335,71.124,32.161c1.017-2,6.067-5.906,7.221-6.815C100.932,7.637,289.377,56.745,316.729,83.469Z" transform="translate(169.873 0.64)" fill="#e8505b" fill-rule="evenodd"/>
    <path id="Path_1043" data-name="Path 1043" d="M78.146,24.977c-7.3,5.714-7.662,6.626-9.49,11.74C47.862,96.665,64.773,428.5,70.946,489.246a10.02,10.02,0,0,0,.881,4.263c9.948,19.261,171,104.625,237.955,81.579a47.93,47.93,0,0,0,7.594-3.4c29.948-20.864,9.381-474.805.522-487.785l.029-.011C292.4,57.763,101.871,6.38,78.146,24.977ZM99.2,23.5c38.167.173,106.145,17.232,144.621,29.243,16.779,5.246,60.062,19.5,73.006,31.87h0a27.469,27.469,0,0,1,1.857,8.283c5.686,40.29,9.54,159.645,10.592,204.25.538,23.531,6.1,259.77-13.647,272.015a44.346,44.346,0,0,1-4.046,1.915c-44.4,18.6-135.676-19.643-178.681-41.46-12.079-6.091-49.268-25.9-57.679-36.664a3.334,3.334,0,0,1-.947-2.079C71.146,467.511,48.609,99.492,71.154,37.254a28.656,28.656,0,0,1,1.785-4.1,43.248,43.248,0,0,1,6.794-6.191C84.079,23.742,93.9,23.5,99.2,23.5ZM317.927,83.9l-.029.011h0a1.633,1.633,0,0,0-.113-.145Z" transform="translate(169.369 0)" fill="#e8505b" fill-rule="evenodd"/>
    <path id="Path_1044" data-name="Path 1044" d="M309.417,86.069c8.364,8.668,23.391,464.122-1.056,485.03-25.1,21.465-226.185-63.4-228.62-78.726-2.694-16.936-23.368-440.065,5.7-464.247C106.652,10.477,283.717,59.43,309.417,86.069Z" transform="translate(156.314 3.753)" fill="#fff" fill-rule="evenodd"/>
    <path id="Path_1045" data-name="Path 1045" d="M86.778,26.871a10.931,10.931,0,0,0-4.153,4.66C58.382,76.6,74.5,425.236,77.773,477.221c1.075,17.067,1.106,16.683,2.523,18.572,10.619,13.55,97.07,51.625,157.8,69.71,15.758,4.65,52.536,15.086,68.081,9.6a10.811,10.811,0,0,0,7.2-7.557C329.387,526,322.556,283.464,321.044,238.4,315.585,79.512,310.3,86.649,310.935,86.475,287.028,60.393,112.888,11.161,86.778,26.871Zm18.584-.639c36.174.173,100.633,17.45,136.953,29.512,15.566,5.2,55.72,19.311,67.487,31.4h0c8.032,9.046,21.472,450.662-.815,482.47-5.18,7.081-29.469,2.7-37.816,1.046-40.966-8.324-98.516-30.571-136.652-47.883-11.217-5.118-41.526-19.264-50.636-27.8-1.921-1.874-1.772-2.141-1.933-3.657C78.5,456.867,60.022,62.437,86.186,30.609,89.72,26.464,99.92,26.232,105.362,26.232ZM310.929,86.475H310.9c-.043-.063-.066-.093-.1-.141Z" transform="translate(155.492 3.155)" fill="#e8505b" fill-rule="evenodd"/>
    <path id="Path_1046" data-name="Path 1046" d="M148.562,48.724c-25.2-5.51-45.941-7.322-51.672-2.075C74.871,66.8,90.536,419.51,92.575,433.637c1.844,12.773,154.194,83.515,173.212,65.623,18.522-17.422,7.136-397.079.8-404.3-7.406-8.445-34.612-23.182-59.177-29.328-4.126-1.034-1.758,10.786-5.178,12.267C191.489,82.54,150.089,64.61,148.385,61.42,147.611,59.956,147.927,54.664,148.562,48.724Z" transform="translate(170.545 25.081)" fill="#fff" fill-rule="evenodd"/>
    <path id="Path_1047" data-name="Path 1047" d="M207.069,65.032c-4.413.342-2.135,11.286-4.978,12.485-9.321,3.723-40.89-8.906-50.215-14.2-3.068-1.755-2.418-1.84-2.624-1.84-.8-1.685-.1-8.816.058-10.619.146-1.544.384-2.13-.33-2.36h0c-11.739-2.6-37.4-7.8-48.88-3.978a8.236,8.236,0,0,0-4.9,3.736c-20.1,33.123-6,378.889-3.714,386.531,2.62,8.509,45.355,28.929,53.106,32.607,22.578,10.632,94.47,42.242,117.8,35.908,4.846-1.394,6.239-3.667,7.673-8.255,14.5-46.893,4.978-366-1.391-397.623-.5-2.515-.662-2.737-3.181-5.025-11.011-9.759-32.927-19.577-47.057-24.244A97.371,97.371,0,0,0,207.069,65.032ZM134.036,46.979c6.237,1.034,13.592,2.565,14.14,2.7a78.077,78.077,0,0,0-.576,9.8c.126,2.726.512,3.114,2.408,4.355,9.014,5.759,40.3,18.216,51.292,15.776a3.748,3.748,0,0,0,3.095-2.053c1.461-2.911,1.126-9.28,2.418-10.493.32-.294.3-.235,3.253.566a178.217,178.217,0,0,1,31.171,12.137c7.105,3.554,19.416,10.325,24.8,16.331,5.638,11.9,16.579,379.725-.784,402.013-1.838,2.195-6.48,2.613-9.1,2.7-31.152.625-106.964-33.384-138.112-50.492-3.893-2.153-22.06-12.274-23.68-16.548-1.578-8.274-18.755-371.777,4.126-386.682,7.041-4.472,27.48-1.424,35.543-.1Z" transform="translate(170.272 24.683)" fill="#212121" fill-rule="evenodd"/>
    <path id="Path_1048" data-name="Path 1048" d="M234.67,96.059c.619-.763.825-3.036,1.256-3.909,1.281-2.562,2.441-5.112,3.482-7.788.864-2.23,3.489-6.75,1.8-9.714a3.731,3.731,0,0,0-4.555-1.093,8.49,8.49,0,0,0-3,2.725c-.144.194-.373,1.129-.5,1.216-.248.165.188-.717-.083-4.814-.235-3.617.107-7.9-.963-11.391-.262-.858-1.333-2.748-2.544-2.588-1.075.142-2.03,1.541-2.476,2.454a28.9,28.9,0,0,0-1.71,12.333c0,.15-.076.691.021.82A27.789,27.789,0,0,0,223.4,63.274c-.594-1.611-.9-2.748-2.614-3.142-3.8-.846-4.05,4.822-3.563,7.31.732,3.719,1.058,7.258,1.015,6.873a10.83,10.83,0,0,0-4.745-7.173c-1.032-.6-3.049-1.232-3.755.188-1.285,2.594.091,6.676,1.011,9.112a37.545,37.545,0,0,0,8.882,15.348,15.565,15.565,0,0,0,4.539,4.355C224.955,96.5,234.67,96.059,234.67,96.059Z" transform="translate(-55.999 41.982)" fill="#fff" fill-rule="evenodd"/>
    <path id="Path_1049" data-name="Path 1049" d="M220.714,59.254c-3.648.3-4.609,4.621-4.235,8.3-3.662-3.095-7.879-2.433-7.778,3.207a23.355,23.355,0,0,0,1.958,7.634,30.244,30.244,0,0,0,5.069,9.881,87.332,87.332,0,0,0,6.435,7.636,7.978,7.978,0,0,0,2.781,1.917,101.364,101.364,0,0,0,10.782-.349.631.631,0,0,0,.357-.226c-.574-.467-.728-.592,0,0a14.33,14.33,0,0,0,1.285-3.689c.128-.364,1.968-3.628,3.811-8.061.774-1.833,1.256-2.537,1.925-4.376.986-2.856,1.091-6.342-1.539-7.761a5.5,5.5,0,0,0-5.228.211c-1.075.683-.928.863-.943.471-.219-5.344.223-11.1-1.787-14.113-2.1-3.237-5.729-2.63-7.633,3-.32.968,0,.78-.825-1.057a4.441,4.441,0,0,0-4.434-2.63Zm11.681,8.71c.413,10.147.336,7.384.342,8.167,0,2.177-.206,2.313.223,2.977a1.317,1.317,0,0,0,1.428.5,1.637,1.637,0,0,0,1.093-1.226,3.969,3.969,0,0,1,.206-.6c1.225-1.626,2.406-2.865,4.355-2.465a1.767,1.767,0,0,1,1.469,1.609c.505,2.342-1.009,5.3-1.857,7.473-2.3,6.162-3.3,7.776-3.573,8.575-.32.985-.429,2.144-.776,3.114a.737.737,0,0,1-.058.14c-1.624.032-8.124.127-9.74-.1a6.042,6.042,0,0,1-1.857-1.429c-.736-.774-3.588-4.382-3.959-4.862a38.8,38.8,0,0,1-5.816-10.183c-.932-2.943-3.156-8.34-1.882-10.835h.021c1.985-.338,5.263,3.5,5.626,6.3a1.873,1.873,0,0,0,.322.975,1.508,1.508,0,0,0,1.906.471,1.586,1.586,0,0,0,.726-.767c.225-.672.177-1.08-.468-5.583a16.918,16.918,0,0,1-.551-4.89,4.226,4.226,0,0,1,.98-2.748,1.414,1.414,0,0,1,1.772.649,29.914,29.914,0,0,1,1.207,3.383,20.574,20.574,0,0,1,1.221,7.211c.029,1.156-.153,2.084.811,2.679a1.535,1.535,0,0,0,1.446.083,1.6,1.6,0,0,0,.9-1.166c.206-1.268-.652-6.917,1.093-11.839.646-1.71,1.318-2.387,1.638-2.52C232.081,62.055,232.306,66.114,232.4,67.964ZM225.414,96.11Zm0,0Zm0,0h-.033Zm7.318-18.441Zm.252-.085v-.017l-.017.04.017-.036Zm-21.012-8.775Zm0,0Zm0,0Zm0,0Zm0,0Zm0,0h0l.017-.013Zm0,0h0l.019-.015Zm0,0h0l.021-.017Zm0,0Zm0,0h0v-.017Zm0,0h0l.019-.017Zm0,0h0l.021-.023Zm0,0,.019-.019Zm0,0,.019-.023Zm0,0,.019-.023Zm18.568-7.792Z" transform="translate(-56.945 41.182)" fill="#212121" fill-rule="evenodd"/>
    <path id="Path_1050" data-name="Path 1050" d="M271.509,184.344c-4.745-.725-9.088-4.626-13.536-6.342a95.941,95.941,0,0,1-46.687-38.161c-7.4-11.737-12.273-24.878-17.536-37.66a109.6,109.6,0,0,1-6.167-17.836c-.481-2.163-.825-7.547-2.317-9.145-1.217-1.3-5.424-.317-7.037-.3-1.523.013-5.669-.748-6.821.317-1.943,1.8-1,6.355-.972,8.615.122,8.771.78,17.593,1.386,26.339,1.188,17.1,2.133,35.789,7.2,52.217,6.02,19.53,20.321,37.229,35.39,49.892,8,6.729,16.8,11.5,25.625,16.982,1.271.789,7.714,5.5,9.078,4.932,2.707-1.118,4.836-10.767,5.9-13.359C260.049,208.643,271.509,184.344,271.509,184.344Z" transform="translate(-4.358 63.557)" fill="#fff" fill-rule="evenodd"/>
    <path id="Path_1051" data-name="Path 1051" d="M272.839,184.529c-4.458-.74-8.378-4.3-13.144-6.357-24.332-9.761-41.185-26.409-52.4-49.784-4.246-8.847-13.633-32.2-15.333-37.455h0c-2.608-8.162-1.892-9.894-3.095-13.606-1.426-4.378-4.186-3.645-9-3.194-1.384.106-3.573-.4-5.814-.184a3.89,3.89,0,0,0-3.678,2.873,19.09,19.09,0,0,0-.258,7.346c.076,1.328-.019,2.778.305,9.613.264,5.573,1.886,30.614,2.831,39.985,1.256,12.382,3.278,25.107,7.941,36.6a112.107,112.107,0,0,0,25.45,36.5c12.6,12.262,20.055,15.765,34.018,24.25,2.4,1.543,6.926,4.8,9.177,5.074,3.625.279,5.746-9.3,7.031-13.293,1.778-5.414,16.453-37.436,16.494-37.649a.62.62,0,0,0-.235-.573h0l-.089-.059a.664.664,0,0,0-.206-.07C272.76,185.045,272.694,185.479,272.839,184.529ZM185.428,77.1c1.162,1.427,1.221,5.761,2.43,10.456,2.556,9.537,14.014,36.377,18.516,44.983a103.453,103.453,0,0,0,9.6,15.264c18.8,24.544,42.052,31.077,46.007,33.172a39.847,39.847,0,0,0,9.837,4.672c-19.929,41.52-16.263,35.9-19.174,43.651a12.5,12.5,0,0,1-2.542,4.566c-.485.351-4.689-2.444-5.129-2.736C230.4,221.32,215.1,215,197.215,191.73c-20.332-26.734-20.389-48.575-23.168-89.076-.357-5.361-.642-10.359-.782-15.587a78.32,78.32,0,0,1-.233-8.2,3.17,3.17,0,0,1,.569-1.6c.522-.583,5.034.106,6.5-.027A16.445,16.445,0,0,1,185.428,77.1Z" transform="translate(-5.618 62.706)" fill="#212121" fill-rule="evenodd"/>
    <path id="Path_1052" data-name="Path 1052" d="M282.9,188.133c-.062-15.549-37.961-56.591-87.291-62.961-16.895-2.182-60.182-3.4-77.444,32.576-3.134,6.53-6.49,13.815-6.136,21.314.442,9.257,5.218,16.566,9.575,24.312,11.706,20.8,24.744,36.442,42.087,53.217,14.151,13.693,37.189,20.929,56.307,16.479a153.088,153.088,0,0,0,41.433-17.424c12.609-7.773,30.352-25.821,33.366-41.662C297.275,200.946,282.922,195.021,282.9,188.133Z" transform="translate(94.373 122.433)" fill="#fff" fill-rule="evenodd"/>
    <path id="Path_1053" data-name="Path 1053" d="M140.264,133.551A55.883,55.883,0,0,0,117.032,159.7a64.491,64.491,0,0,0-4.493,11.773c-3.157,12.826,2.234,22.086,8.881,33.537a207.773,207.773,0,0,0,18.714,27.861c6.437,8.061,20.959,24.2,29.089,30.3,13.754,10.427,33.748,16.067,51.288,12.308a137.951,137.951,0,0,0,26.2-9.217c15.306-7.036,27.439-14.839,38.823-29.292a59.6,59.6,0,0,0,10.247-18.181c1.82-5.786,1.9-10.623-1.622-16.111-3.5-5.581-9.416-9.627-9.507-13.767h0c0-6.423-5.709-14.824-9.63-19.819a125.458,125.458,0,0,0-33.816-28.751C203.1,118.01,162.964,120.319,140.264,133.551Zm58.591-5.919c26.032,3.833,51.069,17.843,68.457,35.294,5.76,5.807,15.948,17.737,16.092,26h0c0,7.537,14.58,12.885,11.5,26.578-3.357,13.758-16.94,28.381-28.105,36.592-11.856,8.748-36.655,19.358-50.867,21.179a62.922,62.922,0,0,1-34.134-6.105c-11.506-5.594-17.1-11.712-26.3-21.426-16.071-17.107-23.971-29.227-34.292-47.429-6.086-10.9-8.653-18.46-4.444-30.111a89.711,89.711,0,0,1,7.1-14.769c15.473-24.324,47.306-29.882,74.989-25.809Z" transform="translate(93.221 121.658)" fill="#212121" fill-rule="evenodd"/>
    <path id="Path_1054" data-name="Path 1054" d="M182.633,77.362s21.743,10.228,28.984,32.848c2.7,8.444,11.553,16.843,20.111,14.841,4.283-1,5.874-3.249,11.372-3,7.858.366,14.926,20.7,1.168,22.322a28.9,28.9,0,0,1-6.228-.575,24.008,24.008,0,0,1-6.012,18.314c-1.32,1.4-11.815,6.355-12.7,8-1.556,2.892,4.745,7.023,5.469,9.319,1.283,4.032-4.04,11.279-6.459,13.646-4.1,4-9.857,5.074-13.905.082a11.746,11.746,0,0,1-2.344-10.621c.739-2.059,4.423-6.754,1.56-9.076-1.122-.911-3.92.114-5.205.027a40.092,40.092,0,0,1-9.923-2.423c-12.948-4.427-23.2-17.726-27.414-30.586-3.272-9.98-5.946-22.819-5.364-33.292.142-2.537-.677-7.885.84-9.968,1.776-2.442,6.412-2.9,8.884-4.475A62.54,62.54,0,0,0,182.633,77.362Z" transform="translate(46.055 66.53)" fill="#fff" fill-rule="evenodd"/>
    <path id="Path_1055" data-name="Path 1055" d="M183.262,77.124c-.65-.241-.654.127-1.879,1.691a66.538,66.538,0,0,1-16.108,13.579c-2.117,1.224-5.894,1.757-8.137,3.573-2.641,2.139-2.137,5.947-2.063,10.215a77.917,77.917,0,0,0,.666,15.655,115.961,115.961,0,0,0,4.986,20.978,56.424,56.424,0,0,0,11,18.5,41.622,41.622,0,0,0,24.148,13.708,10.763,10.763,0,0,0,4.539.239c2.03-.321,2.362-.29,2.657-.211.592.484.514,1.254.326,2-.918,3.383-3.043,4.4-2.971,9.029a13.358,13.358,0,0,0,7.565,11.75c7.382,2.759,14.006-4.163,17.5-11.416a9.7,9.7,0,0,0,.957-7.632c-1.145-2.287-5.354-5.581-5.457-7.315-.039-.6,3.6-2.6,4.287-2.987,7.84-4.452,7.5-4.027,9.307-6.209a24.529,24.529,0,0,0,5.374-16.411,18.672,18.672,0,0,0,3.592.423c7.5-.123,11.8-5.86,9.87-14.19-1.1-4.554-4.186-9.7-8.5-10.913a11.642,11.642,0,0,0-3.794-.165c-4.07.423-5.729,2.114-9.057,2.983-7.778,1.9-15.436-5.019-18.586-12.513a69.253,69.253,0,0,0-2.975-7.454,61.617,61.617,0,0,0-25.306-25.929c-.456-.254-1.473-.791-1.943-1C183.148,77.371,183.033,77.62,183.262,77.124Zm54.465,65.642h0c-1.151.721-.77,1.4-.753,3.723a21.34,21.34,0,0,1-4.951,14.056c-1,1.171-.891,1.12-6.329,4.12a50.151,50.151,0,0,0-6.515,4.034,3.413,3.413,0,0,0-1.277,2.676c-.078,3.454,4.6,6.708,5.709,8.718.7,1.321-.532,4.179-1.2,5.513-6.466,12.247-14.7,11.875-18.007,4.171-2.8-6.866,1.834-8.033,2.228-13.319a4.5,4.5,0,0,0-1.714-3.947,3.9,3.9,0,0,0-2.569-.668c-2.917.144-3.126,1.469-13.123-1.968-12.822-4.5-22.578-17.4-26.933-30.895a94.457,94.457,0,0,1-5.1-31.662c.056-2.444-.619-7.49.547-9.164,1.324-1.9,5.22-2.562,7.875-3.919A65.125,65.125,0,0,0,183.2,78.523a58.907,58.907,0,0,1,26.981,30.07,31.111,31.111,0,0,0,3.825,8.594c3.412,5.012,8.487,9.183,14.375,9.756,4.351.359,6.794-1.294,9.868-2.419a10.517,10.517,0,0,1,6.5-.393c5.589,2.476,10,16.238,1.413,18.731-4.054,1.156-6.81-.812-8.45-.1Z" transform="translate(45.687 66.188)" fill="#212121" fill-rule="evenodd"/>
    <path id="Path_1056" data-name="Path 1056" d="M213.963,185.3a27.479,27.479,0,0,0,7.7,1.871,13.241,13.241,0,0,0,3.342.423c3.369-.2,6.282-1.85,9.49-2.666,13.854-3.526,28.491-9.408,35.642-23.339a58.929,58.929,0,0,0,4.064-12.549,35.677,35.677,0,0,0,1.4-13.885c-1.716-10.993-11.465-20.016-12.706-30.787-5.17-44.848-51.164-52.255-84.656-45.228-14.246,2.989-48.47,27.4-41.686,51.814.322,1.152.757,9.3,2.269,9.19,3.949-.285,23.567-12.348,26.048-19.859,0,0,21.743,10.224,28.984,32.842,2.7,8.444,11.553,16.843,20.111,14.841,4.283-1,5.874-3.251,11.372-3,7.858.366,14.928,20.7,1.168,22.322a28.757,28.757,0,0,1-6.226-.575,24,24,0,0,1-6.014,18.314,2.362,2.362,0,0,1-.3.271Z" transform="translate(64.021 39.909)" fill="#212121" fill-rule="evenodd"/>
    <path id="Path_1057" data-name="Path 1057" d="M220.319,172.573a22.527,22.527,0,0,1-1.832,7.065,20.151,20.151,0,0,1-4.2,6.143.647.647,0,0,0-.083.511.631.631,0,0,0,.317.4l.037-.072-.041.08a19.834,19.834,0,0,0,6.33,1.736c3.586.556,4.588,1.427,9.75-.281,1.857-.619,2.387-.867,4.062-1.376,1.584-.459,4.042-.918,9.414-2.674,15.139-5.12,26.255-12.966,30.74-28.709,1.721-6.112,3.7-13.016,2.936-19.265-1.58-11.672-11.312-20.033-12.667-31.633-4.165-33.751-31.421-48.564-64.488-48.412-7.772.059-20.2,1.133-27.4,4.129a70.08,70.08,0,0,0-13.065,7.374c-14.671,10.465-28.819,26.9-24.2,44.657.413,2,.582,7.348,2.005,9.359.848,1.108,1.76,1.057,3,.715,6.237-1.843,21.869-12.219,25.5-19.134A61.728,61.728,0,0,1,188.6,123.908c4.78,7.765,4.275,10.782,7.4,15.794a23.579,23.579,0,0,0,11.176,9.638c8.271,2.96,11.584-1.989,17.3-2.448a5.713,5.713,0,0,1,4.72,1.283c5.909,4.9,8.459,18.623-2.732,19.179-2.441.042-4.916-.846-5.682-.51C219.791,167.833,220.762,167.806,220.319,172.573ZM224.748,62.3c20.866,5.941,34.268,19.722,37.389,41.548a32.852,32.852,0,0,0,4.512,13.6c3.144,5.816,7.078,11.678,8.341,17.661a30.733,30.733,0,0,1-.891,13.638c-1.6,6.619-2.542,11.133-6.018,16.475-10.093,15.088-27.915,17.743-36.811,21.064a12.943,12.943,0,0,1-7.809,1.184,44.522,44.522,0,0,1-7.545-1.539c.095-.1.559-.634.953-1.114a23.923,23.923,0,0,0,5.042-16.382,15.112,15.112,0,0,0,7.155.249c11.432-2.9,7.066-19.536-.361-23.282a10.661,10.661,0,0,0-6.315-.423c-3.854.814-6.307,3.034-10.278,2.96-7.151-.127-13.884-7.26-16.185-14.39-4.506-14.5-16.333-26.772-28.582-33.284-1-.535-2.063-1.205-2.928.133a10.956,10.956,0,0,1-2.063,3.442,66.838,66.838,0,0,1-21.963,15.376c-.26.082-.206.091-.252-.03-.664-2.1-.974-6.507-1.238-7.706a22.921,22.921,0,0,1-.825-5.313c-.357-10.054,6-19.661,12.936-26.73,9.335-9.568,21.206-16.183,27.911-17.786A98.135,98.135,0,0,1,224.748,62.3Z" transform="translate(63.165 39.081)" fill="#212121" fill-rule="evenodd"/>
    <path id="Path_1058" data-name="Path 1058" d="M243.883,158.993a73.048,73.048,0,0,0-9.575-6.712c-1.211-.727-3.229-1.158-4.029-2.444a17.448,17.448,0,0,1-1.4-5.122c-1.32-5.85-2.1-12.063-8.535-14.116-6.6-2.114-14.221-3.171-20.779-.361-3.66,1.56-6.668,7.547-3.284,10.93-1.471-.389-2.486,1.922-3.175,3.013a6.272,6.272,0,0,0,1.5,8.348c-3.907,2.239-2.682,10.148.93,12.486a22.656,22.656,0,0,0,12.42,2.5,27.777,27.777,0,0,1,5.158-.529c1.238.211,2.282,1.759,3.231,2.49,2.4,1.843,9.356,7.029,10.039,7.177C227.343,176.857,243.883,158.993,243.883,158.993Z" transform="translate(-22.319 125.922)" fill="#fff" fill-rule="evenodd"/>
    <path id="Path_1059" data-name="Path 1059" d="M209.341,127.82c-3.728.04-8.96.877-11.679,3.516a9.779,9.779,0,0,0-3.078,8.048c.474,2.989,1.091.748-.439,2.928a20.745,20.745,0,0,0-1.805,3.226,8.082,8.082,0,0,0,1.083,7.63c.111.142.116.074-.025.252a9.6,9.6,0,0,0-1.149,7.923,9.167,9.167,0,0,0,6.338,7.1,27.762,27.762,0,0,0,11.64,1.285,11.545,11.545,0,0,1,4.159-.412,19.871,19.871,0,0,1,2.15,1.9c.706.586,8.362,6.131,10.28,7.169a1.53,1.53,0,0,0,2-.245c2.967-2.359,14.048-14.834,16.575-17.69.264-.268.4-.423.349-.8h0a.637.637,0,0,0-.206-.351h0a66.853,66.853,0,0,0-7.058-5.4,27.96,27.96,0,0,0-5.118-2.943,2.948,2.948,0,0,1-1.512-2.262,69.961,69.961,0,0,0-3.037-12.473c-2.428-5.108-5.88-6.131-11.2-7.422a36.454,36.454,0,0,0-8.263-.983Zm17.934,48.522.029-.015-.033.021.027-.019-.031.017.025-.013Zm-13.847-10.088a38.773,38.773,0,0,1-7.048.529,18.1,18.1,0,0,1-9.051-2.507,7.808,7.808,0,0,1-1.63-8.655c.706-1.084,1.106-.677,1.605-1.691a1.621,1.621,0,0,0-.569-1.915,4.6,4.6,0,0,1-1.481-5.325,12.773,12.773,0,0,1,1.991-3.156,1.862,1.862,0,0,0,.45.023,1.572,1.572,0,0,0,1.382-1.457c0-1.528-1.279-1.326-1.463-3.461a6.742,6.742,0,0,1,1.912-4.774c2.009-2.114,6.34-2.856,9.222-2.974a35.283,35.283,0,0,1,10.594,1.347c3.577.968,5.874,1.852,7.685,6.245,1.4,3.4,2.42,9.883,3.095,11.61a4.49,4.49,0,0,0,2.476,2.683,33.731,33.731,0,0,1,8.046,4.526c1.139.772,2.307,1.6,3.534,2.567-2.779,2.848-13.358,13.653-16.443,16.147-.13.1-.08.1-.221,0-2.408-1.634-8.628-6.494-9.123-6.9C217.024,168,216.3,166.2,213.428,166.254Z" transform="translate(-23.595 125.119)" fill="#212121" fill-rule="evenodd"/>
    <path id="Path_1060" data-name="Path 1060" d="M104.355,156.028c19.447,5,12.461,36.2,5.261,48.3" transform="translate(290.909 158.122)" fill="#fff" fill-rule="evenodd"/>
    <path id="Path_1061" data-name="Path 1061" d="M103.58,156.2l.456.784a14.64,14.64,0,0,1,8.642,7.329,24.912,24.912,0,0,1,2.517,9.97,71.868,71.868,0,0,1-5.057,27.343c-1.37,3.382-1.333,2.2-1.011,3.577.953-.243.809-.146.951-.357,10.507-15.285,13.606-45.4-5.731-49.114Z" transform="translate(291.093 157.794)" fill="#212121" fill-rule="evenodd"/>
    <path id="Path_1062" data-name="Path 1062" d="M139.582,185.554a50.432,50.432,0,0,1-27.193,26.426" transform="translate(251.183 192.305)" fill="#fff" fill-rule="evenodd"/>
    <path id="Path_1063" data-name="Path 1063" d="M139.322,185.588a66.642,66.642,0,0,1-26.839,26.085l-.373.822.809.372a39.724,39.724,0,0,0,21.532-15.111,38.432,38.432,0,0,0,6.02-11.627l-.316-.846Z" transform="translate(250.873 192.01)" fill="#212121" fill-rule="evenodd"/>
    <path id="Path_1064" data-name="Path 1064" d="M197.279,205.5c-15.886,8.543-44.311,8.224-57.805-5.7" transform="translate(135.763 208.678)" fill="#fff" fill-rule="evenodd"/>
    <path id="Path_1065" data-name="Path 1065" d="M139.2,200.494c12.88,15.17,42,16.039,58.534,5.818l.266-.869-.85-.275c-15.415,6.938-40.269,6.554-54.465-3.48-3.373-2.414-1.894-2.093-3.48-2.1Z" transform="translate(135.597 208.457)" fill="#212121" fill-rule="evenodd"/>
    <path id="Path_1066" data-name="Path 1066" d="M184.516,78.033A26.89,26.89,0,0,0,194.2,101.5" transform="translate(44.48 66.626)" fill="#fff" fill-rule="evenodd"/>
    <path id="Path_1067" data-name="Path 1067" d="M184.74,78.321a22.641,22.641,0,0,0,2.391,16.392,18.868,18.868,0,0,0,7.541,7.623l.879-.108c-.161-1.254.118-.539-1.211-2.144a35.935,35.935,0,0,1-6.93-13.371A48.266,48.266,0,0,1,186,78.422l-.58-.693Z" transform="translate(43.617 66.278)" fill="#212121" fill-rule="evenodd"/>
    <path id="Path_1068" data-name="Path 1068" d="M195.843,80.334c.01-.634-2.61,3.53-3.22,4.615a15.988,15.988,0,0,0-1.143,12.911" transform="translate(29.728 69.203)" fill="#fff" fill-rule="evenodd"/>
    <path id="Path_1069" data-name="Path 1069" d="M197.368,81.176l-.027.023.023-.03-.029.023.012-.013-.025.017.012-.011-.031.021h0l-.039.023h0l-.054.023h0l-.07.023h-.047l.567-.6v-.04a.592.592,0,0,0-.019-.152,1.087,1.087,0,0,0-.037-.116c-.2-.364-.586-.662-1.324-.068a15.5,15.5,0,0,0-5.937,11.3,11.95,11.95,0,0,0,1.574,6.537c.192.359,0,.211.953.689.646-1.38.26-.19.26-2.729a19.826,19.826,0,0,1,.072-2.163,18.775,18.775,0,0,1,2.412-8.942c.342-.679,1.43-3.275,1.708-3.75l-.014.015Zm-.941-.495.59.583h-.039a.569.569,0,0,1-.413-.211l-.08-.114h0l-.045-.106h0l-.025-.087h0v-.07Z" transform="translate(28.496 68.851)" fill="#212121" fill-rule="evenodd"/>
    <path id="Path_1070" data-name="Path 1070" stroke="#000" d="M181.772,96.993c0,2.309.093,2.315.109,4.579" fill="#fff" transform="translate(62.479 88.635)" stroke-linecap="round" stroke-linejoin="round" stroke-width="2.126" fill-rule="evenodd"/>
    <path id="Path_1071" data-name="Path 1071" stroke="#000" d="M197.548,96.338c-.031,1.528-.023,1.74.033,3.535" fill="#fff" transform="translate(13.47 87.863)" stroke-linecap="round" stroke-linejoin="round" stroke-width="2.126" fill-rule="evenodd"/>
    <path id="Path_1072" data-name="Path 1072" d="M193.01,95.27c-.99,4.788-2.544,9.076-3.988,15.107a20.03,20.03,0,0,0,5.277,2.577" transform="translate(34.654 86.722)" fill="#fff" fill-rule="evenodd"/>
    <path id="Path_1073" data-name="Path 1073" d="M189.514,112.049a15.175,15.175,0,0,0,5.793,1.856l.757-.467-.464-.772a21.786,21.786,0,0,1-3.732-2.518,53.091,53.091,0,0,0,2.909-14.412l-.485-.765-.749.495a73.917,73.917,0,0,0-4.564,13.708C188.728,110.419,188.38,111.4,189.514,112.049Z" transform="translate(33.484 86.383)" fill="#212121" fill-rule="evenodd"/>
    <path id="Path_1074" data-name="Path 1074" d="M181.322,106.99s18.592,3.594,27.645,1.928c.592,4.549,1.364,9.592-1.329,13.68-2.95,4.478-10.6,5.306-14.974,3.068C185.815,122.161,180.655,115.467,181.322,106.99Z" transform="translate(35.449 100.428)" fill="#fff" fill-rule="evenodd"/>
    <path id="Path_1075" data-name="Path 1075" d="M180.807,107.406a18.723,18.723,0,0,0,5.354,15.044,19.914,19.914,0,0,0,8.6,5.446,15.172,15.172,0,0,0,9.793-.981c5.983-2.96,6.633-8.983,5.777-15.724-.312-2.442-.266-2.423-.6-2.831a1.164,1.164,0,0,0-1.2-.288c-6.808,1.182-20.493-.292-27.15-1.306H181.3C181.038,106.784,180.857,106.864,180.807,107.406Zm27.154,3.074c.483,4.067.922,8.274-1.327,11.7-2.168,3.218-7.014,4.207-10.8,3.575a13.2,13.2,0,0,1-5.667-2.588,18.449,18.449,0,0,1-8.329-13.251,17.937,17.937,0,0,1-.093-2.076C189.177,109.463,200.441,111.372,207.961,110.479Z" transform="translate(35.479 100.18)" fill="#212121" fill-rule="evenodd"/>
    <path id="Path_1076" data-name="Path 1076" d="M200.742,112.018a23.817,23.817,0,0,1,10.276-.664c7.926,1.8,14.442,11.761,10.823,19.79-2.007,4.456-9.4,9.188-16.523,8.814-.885-.049-2.713.076-3.249-.761-2.212-3.435-.483-10.543-.681-14.483C201.177,120.51,200.742,112.018,200.742,112.018Z" transform="translate(-18.985 105.284)" fill="#e8505b" fill-rule="evenodd"/>
    <path id="Path_1077" data-name="Path 1077" d="M208.911,110.58a34.438,34.438,0,0,0-7.776,1.355h0c-.732.192-.516.275-.435,9.617,0,.5.064,3.488.052,4.2-.148,4.262-1.927,11.139.633,14.942,1.048,1.425,3,1.345,4.854,1.4a20.667,20.667,0,0,0,13.142-4.564,12.916,12.916,0,0,0,4.995-6.917C226.953,121.653,219.29,110.58,208.911,110.58Zm3.714,2.839c5.789,2.4,10.371,9.416,8.974,15.72a9.128,9.128,0,0,1-3.322,5.215,18.4,18.4,0,0,1-8.855,4.315,17.5,17.5,0,0,1-5.657.11h0c-1.7-2.875-.413-9.627-.72-13.57-1.139-13.107-1.238-12.05-.994-12.1,3.825-.575,6.872-1.15,10.569.307Zm-8.8,25.462Z" transform="translate(-19.503 104.73)" fill="#e8505b" fill-rule="evenodd"/>
    <path id="Path_1078" data-name="Path 1078" d="M219.833,123.823a29.947,29.947,0,0,1,1.624,8.964,34.664,34.664,0,0,1,.266,7.945c-1.207,6.439-12.378,6.384-15.948,2.368-1.768-1.989-.848-8.456-.757-11.038.045-1.268-.491-6.131.481-6.883,1.122-.871,3.167-.387,4.44-.347C212.344,124.9,219.833,123.823,219.833,123.823Z" transform="translate(-26.237 120.112)" fill="#e8505b" fill-rule="evenodd"/>
    <path id="Path_1079" data-name="Path 1079" d="M220.618,123.526a82.247,82.247,0,0,1-10.225.423,9.588,9.588,0,0,0-3.581-.1,2.751,2.751,0,0,0-2.238,2.406,17.621,17.621,0,0,0-.235,3.664,25.824,25.824,0,0,1-.144,4.907c-.305,3.974-.594,8.065,1.875,10.27,4.262,3.805,14.014,3.839,17.095-1.495h0a11.676,11.676,0,0,0,.685-7.378,44.535,44.535,0,0,0-2.562-12.3C221.219,123.93,221.2,123.488,220.618,123.526Zm.582,8.291c.052.211.254,6.5.25,6.712a5.287,5.287,0,0,1-1.578,4.5,10.62,10.62,0,0,1-11.673-.281c-1.925-1.643-.642-7.095-.9-12.52a17.611,17.611,0,0,1,.035-3.731h0a14.724,14.724,0,0,1,4.006-.186,88.877,88.877,0,0,0,8.935-1.419,27.589,27.589,0,0,1,.926,6.928Zm-13.988-5.239.023-.021-.052.044.021-.021-.045.038.082-.07h0Zm.027-.023Z" transform="translate(-27.125 119.787)" fill="#e8505b" fill-rule="evenodd"/>
    <path id="Path_1080" data-name="Path 1080" d="M225.229,182.263c8.995-1.268,35.72-7.1,48.07-9.562,10.961-2.186,40.488-9.334,41.261-10.551,1.269-1.979.557-12.653.3-24.978-5.9-3.07-84.029-47.537-84.493-47.431C203.412,95.876,207.93,178.373,225.229,182.263Z" transform="translate(-137.392 80.875)" fill="#e8505b" fill-rule="evenodd"/>
    <path id="Path_1081" data-name="Path 1081" d="M230.515,89.01c-9.614,2.251-14.7,12.587-17.21,22.324-5.29,19.969-3.476,58.614,8.069,70.054a7.465,7.465,0,0,0,4.277,2.326v-.019c.068.393,50.615-8.93,76.033-15.249,13.746-3.446,14.118-3.892,14.648-5.05,1.252-2.856.7-13.2.52-18.3-.155-7.845-.078-7.27-.311-7.822-.392-.634-.338-.469-3.251-2.087C290.331,122.391,232.144,88.957,230.515,89.01ZM313.7,138.94l.132,6.245h.017c.136,3.336.683,13.8-.093,16.752-9.5,4.076-78.888,19.071-88.186,20.487a10.111,10.111,0,0,1-5.345-4.717c-7.043-11.2-8.3-34.692-7.07-49.139,1.174-12.911,5.236-33.062,17.39-36.379C233.931,93.919,302.749,133,313.7,138.94Z" transform="translate(-137.727 80.036)" fill="#e8505b" fill-rule="evenodd"/>
    <path id="Path_1082" data-name="Path 1082" d="M309.412,91.576A73.537,73.537,0,0,0,300.8,95.8c-1.25-1.788-4.464-7.437-5.82-8.79a1.99,1.99,0,0,0-1.595-.634,27.685,27.685,0,0,0-9.121,3c-1.124-1.624-2.269-3.526-3.662-5.5-3.507-4.951-4.237-4.75-6.28-3.729a41.75,41.75,0,0,0-7.59,5.074c-.206.211-.128.034-.165,1.04,1.632.055-.192.309,4.182-1.97a46.914,46.914,0,0,1,5.116-2.325,7.783,7.783,0,0,1,.778.928c3.8,5.266,5.259,10.427,7.646,9.841a53.983,53.983,0,0,1,8.591-3.131c.223-.023.14-.072.375.239,2.063,2.805,4.951,8.107,6.251,9.023,1.562.93,2.938-.75,9.859-4.583,1.075,1.48,4.83,7.611,5.76,9.323l.842.3c.328-.964.328-.774.243-.985-.559-1.33-1.97-4.306-2.7-5.818C311.036,92.03,310.578,91.432,309.412,91.576ZM300.1,96.117h.006Zm0,0Zm8.91-2.271Zm0,0-.039-.036.021.017-.039-.036.016.013-.023-.025a.618.618,0,0,1,.068.061Zm-24.3-3.877Zm0-.013ZM276.13,81.91Zm.06-.011h-.06a.262.262,0,0,0,.091-.013Z" transform="translate(-252.585 68.421)" fill="#212121" fill-rule="evenodd"/>
    <path id="Path_1083" data-name="Path 1083" d="M276.983,107.929c-1.675.541-7.285,7.317-8,9.122l.293.846c1.549-.571-.072.268,2.987-2.877a57.487,57.487,0,0,1,4.838-4.361c.413-.313.322-.277.534-.184a16.574,16.574,0,0,1,2.178,1.34c10.371,7.348,7.039,7.367,13.493,1.34a16.3,16.3,0,0,1,2.917-2.256c1.461.825,4.609,3.241,7.413,5.137,2.624,1.712,2.888,1.389,5.083-1.372,1.741-2.216,3.173-4.228,4.345-5.632,1.6,1.011,6.975,5.029,8.607,6.359.206.163,0,.11,1.017.059-.047-1.036.033-.829-.167-1.04a96.365,96.365,0,0,0-8.83-7.858,1.415,1.415,0,0,0-1.488-.089c-1.444.81-5.444,6.131-6.54,7.249a86.75,86.75,0,0,0-8.758-6,2,2,0,0,0-1.638.123,28.89,28.89,0,0,0-7.283,6.215C285.363,112.355,279.2,107.4,276.983,107.929Zm11.64,6.492Zm-.014,0Zm16.5-.125.027-.023Zm.029-.025ZM277.7,110.254h.023l-.041.019h.025l-.052.021h.021l-.031.011.087-.042Zm34.866-1.5Zm0,0-.049-.017h.025l-.047-.019h0l-.031-.015a.725.725,0,0,1,.116.044Z" transform="translate(-264 99.543)" fill="#212121" fill-rule="evenodd"/>
    <path id="Path_1084" data-name="Path 1084" d="M306.969,127.561a1.657,1.657,0,0,0-1.238.795c-1.149,1.524-3.969,7.4-4.409,8.112-2.476-.962-7.146-3.171-9.2-3.74-1.153-.3-1.671-.159-2.833.871a35.45,35.45,0,0,0-5.137,7.209c-2.36-.846-8.634-3.824-11.316-3.655a1.588,1.588,0,0,0-1.285.653,38.708,38.708,0,0,0-5.244,10.04c-.054.256-.107.089.433.964,1.279-.846.217-.061,2.063-3.106a53.265,53.265,0,0,1,4.3-6.063,26.02,26.02,0,0,1,4.691,1.75c5.931,2.613,7.241,3.7,8.523,1.808a46.366,46.366,0,0,1,4.91-7.074c.326-.307.245-.273.452-.211,2.247.729,7.761,3.281,9.515,3.723a1.786,1.786,0,0,0,1.8-.33c1.077-1.087,3.111-6.317,4.539-9.09,1.88.66,8.355,3.533,9.915,4.319l.856-.245-.237-.879C316.876,132.643,308.45,127.546,306.969,127.561Zm-22.108,13.462Zm-.017,0Zm-11.524-1.59h.021l-.037.027.023-.017-.045.034.019-.013-.027.017.074-.059Zm27.591-2.277.023-.03Zm.023-.032ZM307,130.058h-.014Zm0,0h-.091a.477.477,0,0,1,.087,0Z" transform="translate(-254.035 124.47)" fill="#212121" fill-rule="evenodd"/>
    <path id="Path_1085" data-name="Path 1085" d="M287.048,182.273c-2.566,17.107.091,44.535-53.128,63.8-61.527,22.265-108.633-72.876-107.631-76.271,1.052-3.556,4.8-6.575,6.845-9.513a131.044,131.044,0,0,1,9.9-12.128c1.011-1.137,2.736-3.727,4.087-4.277,1.184-.48,2.971.871,3.98,1.268,3.66,1.465,7.4,2.537,11.052,4.053,7.1,2.96,14.442,4.835,21.683,7.3,5.506,1.875,12.409,4.342,18.361,2.835,1.238-.313,8.046-18.166,11.776-22.935" transform="translate(72.368 136.124)" fill="#fff" fill-rule="evenodd"/>
    <path id="Path_1086" data-name="Path 1086" d="M143.367,147.227c-1.238,1.442-4.621,5.01-8.314,9.809-1.838,2.433-2.045,2.877-3.02,4.029-1.566,1.873-6.4,6.712-6.028,9.562a43.933,43.933,0,0,0,3.379,8.3,187.878,187.878,0,0,0,17.225,27.643c21.109,28.03,50.752,51.818,84.235,42.645a127.357,127.357,0,0,0,21.38-8.773c10.07-5.226,19.653-12.1,26.234-21.377,8.141-11.663,8.76-21.775,10.173-34.4.293-2.505.413-1.807-.27-2.774-.842.634-.693.361-.825,1.2-1.512,9.589-1.463,22.134-10.728,34.732-9.8,13.308-27.631,22.284-43.032,27.453a52.989,52.989,0,0,1-30.513,1.243c-28.155-7.321-52.231-35.675-66.936-61.208a105.093,105.093,0,0,1-7.078-14.264,4.87,4.87,0,0,1-.223-.765c1.032-3.036,4.062-5.346,6.942-9.439,2.205-3.1,4.316-5.651,6.765-8.509,5.7-6.585,4.852-6.01,6.113-6.864h0a6.779,6.779,0,0,1,2.185.886c2.129,1.091,7.693,2.64,11.836,4.33,6.354,2.575,11.939,4.029,19.118,6.264,5.413,1.691,10.571,3.761,16.16,4.055a17.416,17.416,0,0,0,5.764-.634c1.518-.994,5.044-10.706,9.055-18.684,3-5.881,2.775-3.871,2.591-5.513l-.875.106c-3.623,4.53-9.775,19.959-11.671,22.479a18.657,18.657,0,0,1-7.182.015c-3.241-.577-4.834-1.017-24.373-7.628-5.954-2.055-6.862-2.638-9.715-3.74-2.665-1.013-4.186-1.5-6.579-2.378a21.835,21.835,0,0,1-4.223-1.873C147.373,141.455,146.065,144.055,143.367,147.227Zm59.586,11.608.014-.013h0Zm0,0Zm.012,0Zm-54.129-13.348h.014Zm0,0h.014Zm0,0h.014Zm0,0Zm0,0Zm.021,0h0ZM148.857,145.487ZM148.857,145.487Z" transform="translate(71.128 135.885)" fill="#212121" fill-rule="evenodd"/>
    <path id="Path_1087" data-name="Path 1087" d="M203.846,86.436c-2.269-1.207-28.563-19.418-43.03-16.9-2.74.478-5.587.23-8.341.664a12.968,12.968,0,0,1-5.82.3c-5.215-1.9-3.612-13.194-1.634-16.912,6.024-11.312,16.989-15.608,29.071-16.223A36.431,36.431,0,0,1,188.781,38.8c7.567,2.6,13.579,8.541,18.266,14.879,3.945,5.33,6.963,11.915,6.177,18.792a34.208,34.208,0,0,1-2.381,7.556C210.024,82.31,207.338,88.295,203.846,86.436Z" transform="translate(111.741 17.993)" fill="#212121" fill-rule="evenodd"/>
    <path id="Path_1088" data-name="Path 1088" d="M179.137,36.454c-14.3.1-26.944,3.85-34.061,16.49-2.748,4.989-3.827,15.01.347,18.743,2.476,2.1,5.139,1.328,8.306.786,2.014-.33,4.235-.268,6.693-.5a24.477,24.477,0,0,1,6.243-.423C181.027,72.673,201.2,86.04,204.9,87.97v-.017c3.691,1.579,6.431-3.469,7.92-7.287,1.65-4.084,2.732-6.148,2.556-10.818-.413-8.866-6.292-17.488-12.585-23.637a31.173,31.173,0,0,0-23.659-9.756Zm25.737,51.5.031.013v.017C204.5,87.756,204.61,87.826,204.874,87.953ZM179.826,39.619A27.312,27.312,0,0,1,194.9,43.727a46.587,46.587,0,0,1,16.963,19.986c2.956,7.837.992,12.033-.885,17.16-.935,2.666-3.13,7.029-5.814,5.807h0A176.279,176.279,0,0,0,182.506,73.6c-15.131-6.79-19.824-4.541-23.845-4.389a47.541,47.541,0,0,0-5.24.319c-2.9.423-4.838,1.125-6.268-.34-2.094-2.385-1.551-7.928-.8-11.054a13.031,13.031,0,0,1,1.882-4.44C155.149,42.452,166.973,39.619,179.826,39.619Z" transform="translate(110.701 17.186)" fill="#212121" fill-rule="evenodd"/>
    <ellipse id="Ellipse_14" data-name="Ellipse 14" cx="17.963" cy="17.674" rx="17.963" ry="17.674" transform="translate(368.2 434.124)" fill="#e8505b"/>
    <path id="Path_1089" data-name="Path 1089" d="M129.737,214.633a15.654,15.654,0,0,1,11.154,12.5,15.973,15.973,0,0,1-6.31,15.659c-10.565,7.638-25.39.856-26.2-11.93C107.792,219.267,119.155,211.265,129.737,214.633Zm-11-3.036a18.766,18.766,0,0,0-12.075,11.08,19.48,19.48,0,0,0,.99,16.578,19.659,19.659,0,0,0,34.742-1.04c7.293-15.53-7.487-31.7-23.657-26.612Z" transform="translate(261.425 221.881)" fill="#e8505b" fill-rule="evenodd"/>
    <path id="Path_1090" data-name="Path 1090" d="M120.051,233.646s-13.319-4.862-9.855-14.35a5.179,5.179,0,0,1,10,.051,5.161,5.161,0,0,1,9.975,0C133.636,228.835,120.554,233.418,120.051,233.646Z" transform="translate(265.925 227.12)" fill="#fff" fill-rule="evenodd"/>
    <path id="Path_1091" data-name="Path 1091" d="M115.689,214.715c-4.869.146-7.347,5.391-6.73,9.871a11.2,11.2,0,0,0,3.111,6.07,23.588,23.588,0,0,0,8.252,5.357v0c.714.211.959.051,1.7-.249,5.079-2.087,10.4-5.835,11.054-11.38a10.421,10.421,0,0,0-1.933-7.158,6.63,6.63,0,0,0-10.132-.256A7.287,7.287,0,0,0,115.689,214.715Zm3.689,5.446c.227.634.305,1.526,1.626,1.649,1.372-.118,1.421-1.074,1.65-1.691a3.927,3.927,0,0,1,3.507-2.158c2.2.025,3.344,2.042,3.73,4.247.811,5.135-4.448,8.668-9.04,10.57-4.539-1.943-9.674-5.742-8.743-10.8C113.283,216.115,118.406,217.643,119.378,220.161Z" transform="translate(265.125 226.284)" fill="#e8505b" fill-rule="evenodd"/>
    <path id="Path_1092" data-name="Path 1092" d="M253.287,160.275c-24.757.33-43.395,22.747-37.715,47.031,6.944,28.3,42.1,37.495,63.786,18.944C305.672,202.968,289.007,160.207,253.287,160.275Zm10.8,6.357a34.427,34.427,0,0,1,12.506,6.976c22.3,19.53,10.522,56.57-20.528,60.088v.013a35.365,35.365,0,0,1-34.107-20.21C209.8,186.813,234.938,157.905,264.083,166.632Z" transform="translate(-121.234 163.558)" fill="#212121" fill-rule="evenodd"/>
    <path id="Path_1093" data-name="Path 1093" d="M225.96,182.264l.134,1.353c5.387,6.693,14.184,8,22.129,5.577a22.244,22.244,0,0,0,7.961-4.731l.043-.049.206-1.355c-2.593-.391.763-.315-6.905,1.355a29.13,29.13,0,0,1-13.449.583,24.459,24.459,0,0,1-8.791-2.854Z" transform="translate(-106.08 188.02)" fill="#212121" fill-rule="evenodd"/>
    <path id="Path_1094" data-name="Path 1094" d="M227.619,174.475c-1.333,2.816-.6.934-.825,5.575-.047.634-.144.091.456,2.218l1.562.892h.016l1.721-.512.871-1.6c.115-.349.1-4.651.1-4.651l-.6-1.727-1.613-.8h-.016Z" transform="translate(-82.341 178.378)" fill="#212121" fill-rule="evenodd"/>
    <path id="Path_1095" data-name="Path 1095" d="M238.8,174.253c-1.333,2.816-.6.932-.825,5.575-.047.634-.146.091.456,2.218l1.562.892h.016l1.721-.512.871-1.6c.153-.463.049-3.437.1-4.651h0l-.6-1.727-1.611-.8h-.016Z" transform="translate(-119.974 178.119)" fill="#212121" fill-rule="evenodd"/>
    <path id="Path_1096" data-name="Path 1096" d="M129.285,90.312c-17.757.235-30.228,16.547-26.257,32.73,4.916,19.872,29.4,26.049,44.416,13.2C165.682,120.112,154.225,90.244,129.285,90.312Zm7.553,4.292a24.12,24.12,0,0,1,8.752,4.89c15.562,13.634,7.427,39.533-14.367,42.015h0A24.693,24.693,0,0,1,107.367,127.4c-8.721-19.358,9.9-38.909,29.471-32.8Z" transform="translate(255.501 81.196)" fill="#212121" fill-rule="evenodd"/>
    <path id="Path_1097" data-name="Path 1097" d="M112.059,105.044c-5.8.383-2.247,12.528,8.225,12.748a17.588,17.588,0,0,0,7.479-.753h0c6.579-2.484,8.155-8.879,5.426-10.661-.619-.37-.233-.4-10.957-.947C121.565,105.4,112.715,105,112.059,105.044Zm19.55,4a5.786,5.786,0,0,1-1.254,3.19,11.532,11.532,0,0,1-8.966,4.27h0a10.018,10.018,0,0,1-9.078-6.976,2.976,2.976,0,0,1-.06-1.4h0C120.866,108.642,127.728,108.828,131.608,109.043ZM131.58,108.874Zm0,0h0v-.013Zm0-.019v-.013h0v.025h0l-.017-.021.014.019-.019-.032.014.023-.019-.032.014.025-.014-.03.014.027-.014-.03Zm-19.3-.78Zm0,0Zm0,0h0l.021-.019Zm.01-.013.019-.03-.019.03.019-.027-.021.03.021-.025-.025.032.021-.023-.025.027h0v-.015h0v-.015Z" transform="translate(262.892 98.091)" fill="#212121" fill-rule="evenodd"/>
    <path id="Path_1098" data-name="Path 1098" d="M112.44,101.3c-1.457.846-2.785,1.359-2.185,2.987.32.573.6.753,2.428,2.038a21.676,21.676,0,0,0,4.436,2.161l.869-.163-.169-.89a24.318,24.318,0,0,0-3.319-3.607c-.388-.2.177.038,2.711-2.431,1.18-1.131.881-.645,1.265-1.767l-.842-.3A17.191,17.191,0,0,0,112.44,101.3Z" transform="translate(277.299 91.394)" fill="#212121" fill-rule="evenodd"/>
    <path id="Path_1099" data-name="Path 1099" d="M116.42,99.185l.295.863c.658.59,1.479,1.421,2.269,2.1,1.463,1.224,1.714,1.082,1.4,1.241a25,25,0,0,0-3.322,3.607l-.169.89.871.163c.109-.034,1.18-.448,1.762-.708a13.4,13.4,0,0,0,2.67-1.448c.293-.3,1.966-1.205,2.432-2.042.6-1.63-.741-2.142-2.187-2.987a16.6,16.6,0,0,0-5.191-1.975Z" transform="translate(257.645 90.877)" fill="#212121" fill-rule="evenodd"/>
    <path id="Path_1100" data-name="Path 1100" d="M41.761,175.738c-17.718.049-31.421,16.712-27.2,33.9,6.34,25.637,42.326,27.751,52.953,4.306C75.655,195.477,61.543,175.489,41.761,175.738Zm7.858,4.334A24.829,24.829,0,0,1,64.974,193.6c7.027,16.12-4.2,33.51-21.2,35.244h0c-14.811.814-27.233-10.754-27.082-25.157.194-17.069,17.062-28.569,32.929-23.616Z" transform="translate(530.033 181.315)" fill="#212121" fill-rule="evenodd"/>
    <path id="Path_1101" data-name="Path 1101" d="M23.865,191.026a3.06,3.06,0,0,0-2.837,3.241c-.175,4.795,5.492,10.327,12.426,9.906,12.378,1.12,16.734-11.1,11.537-12.08C43.41,191.8,24.853,190.973,23.865,191.026Zm20.34,4.038a3.433,3.433,0,0,1-.194,1.292c-.961,3.046-4.652,6.289-10.466,6.532,0,.262-7.258-.742-9.311-6.634a4.076,4.076,0,0,1-.241-2.065v-.017h0l.021-.055h0c.212,0,19.977.932,20.191.947Zm-.031-.154Zm0,0h0l-.012-.015Zm0-.021h0l.01.023-.021-.027h0v.013l-.021-.032.014.023-.016-.032.016.03-.016-.032v.03l-.014-.03ZM24.05,194.083Zm0,0Zm0,0h0l.014-.013Zm0,0h0l.023-.017Zm0-.011.012-.013.01-.015-.023.032.023-.027-.027.032.025-.025-.027.027h0v-.015l.017-.021-.021.032.01-.019.012-.015Z" transform="translate(537.826 198.467)" fill="#212121" fill-rule="evenodd"/>
    <path id="Path_1102" data-name="Path 1102" d="M22.654,188.137a1.619,1.619,0,0,0-.687,1.8c.225.634.26.634,1.921,1.862a17.484,17.484,0,0,0,4.464,2.433c.984.4.619.347,1.65.15-.206-1.078-.031-.717-.708-1.524a21.519,21.519,0,0,0-2.938-3.087l-.188-.154A27.913,27.913,0,0,0,30,186.429c.283-.258.149,0,.5-1.057l-.84-.3A20.339,20.339,0,0,0,22.654,188.137Z" transform="translate(552.647 191.458)" fill="#212121" fill-rule="evenodd"/>
    <path id="Path_1103" data-name="Path 1103" d="M28.471,184.913l.293.86.021.021a30.418,30.418,0,0,0,4.017,3.357,24.382,24.382,0,0,0-3.546,3.742c-.186.211-.093.021-.287,1.023,1,.188.815.186,1.032.1a21.4,21.4,0,0,0,4.411-2.2c.144-.072,1.813-1.3,2.22-1.67a1.626,1.626,0,0,0,.219-1.922c-.279-.41-.3-.438-1.4-1.076a18.48,18.48,0,0,0-5.857-2.461C29.222,184.588,29.458,184.56,28.471,184.913Z" transform="translate(532.537 190.931)" fill="#212121" fill-rule="evenodd"/>
    <ellipse id="Ellipse_15" data-name="Ellipse 15" cx="45.538" cy="44.799" rx="45.538" ry="44.799" transform="translate(525.35 151.039)" fill="#e8505b"/>
    <path id="Path_1104" data-name="Path 1104" d="M65.418,85.277C98.875,95.7,107.43,139.526,78.4,161.032,50.46,181.287,10.67,163.888,8.176,128.939,6.707,97.676,36.749,76.358,65.418,85.277ZM37.541,82.292C.965,94.342-6.619,141.274,24.152,163.808c23.414,17.041,57.415,9.323,70.491-17.483C112.181,109.426,76.682,69.876,37.541,82.292Z" transform="translate(518.815 69.374)" fill="#e8505b" fill-rule="evenodd"/>
    <path id="Path_1105" data-name="Path 1105" d="M41.305,137.149S7.541,124.805,16.319,100.771c5.874-16.086,23.657-9.458,25.359.127,1.7-9.585,19.414-16.086,25.289,0C75.742,124.932,42.578,136.572,41.305,137.149Z" transform="translate(529.236 82.003)" fill="#fff" fill-rule="evenodd"/>
    <path id="Path_1106" data-name="Path 1106" d="M42.041,139.623c.479-.013.4,0,1.5-.446,11.5-4.552,24.551-13.154,26.923-25.58a24.042,24.042,0,0,0-3.02-16.2c-6.3-10.331-19.393-8.346-24.947.11a15.186,15.186,0,0,0-5.946-5.391c-9.8-5.061-20.092.442-22.192,14.044-1.388,9.875,3.567,17.8,11.174,24.071a58.3,58.3,0,0,0,16.513,9.391Zm-1.776-39.63a9.677,9.677,0,0,1,.761,2.34,1.559,1.559,0,0,0,1.737,1.017c1.729-.469.786-1.6,2.441-4.218,3.864-6.11,15.545-9.338,20.631,2.023,7.072,16.631-7.322,28.483-23.725,35.144-.206-.211-32.365-12.147-23.247-34.778C23.76,89.513,36.644,92.8,40.265,99.993Z" transform="translate(528.422 81.114)" fill="#e8505b" fill-rule="evenodd"/>
    <ellipse id="Ellipse_16" data-name="Ellipse 16" cx="21.813" cy="21.46" rx="21.813" ry="21.46" transform="translate(136.223 31.276)" fill="#e8505b"/>
    <path id="Path_1107" data-name="Path 1107" d="M240.6,29.269a19.36,19.36,0,0,1,13.771,15.46,19.754,19.754,0,0,1-7.788,19.35c-13.092,9.524-31.565.793-32.347-14.743C213.4,35.778,226.782,24.982,240.6,29.269Zm-13.358-3.027A22.458,22.458,0,0,0,212.8,39.5a23.313,23.313,0,0,0,1.176,19.834,23.534,23.534,0,0,0,41.6-1.245c8.764-18.671-9.131-37.941-28.326-31.842Z" transform="translate(-76.438 4.548)" fill="#e8505b" fill-rule="evenodd"/>
    <path id="Path_1108" data-name="Path 1108" d="M228.917,52.863s-16.175-5.919-11.966-17.426A6.29,6.29,0,0,1,229.1,35.5a6.266,6.266,0,0,1,12.112,0C245.414,47.012,229.528,52.586,228.917,52.863Z" transform="translate(-70.925 10.917)" fill="#fff" fill-rule="evenodd"/>
    <path id="Path_1109" data-name="Path 1109" d="M229.636,55.33c.4-.011.363.011,1.368-.4,4.623-1.917,9.591-5,11.966-9.5a11.547,11.547,0,0,0-2.488-13.932,7.91,7.91,0,0,0-10.573,1.431,8.55,8.55,0,0,0-6.3-2.9c-4.066.053-6.592,2.9-7.693,6.907-1.83,7.027,2.641,12.424,8.782,16.09a23.8,23.8,0,0,0,4.941,2.3Zm-5.983-22.083a5.28,5.28,0,0,1,4.39,2.505c.534,1,.142,1.33,1.089,2A1.54,1.54,0,0,0,231.1,37.4c.5-.719.206-.634.574-1.448a5,5,0,0,1,6.348-2.239,7.781,7.781,0,0,1,3.055,7.592c-.8,5.173-6.6,8.737-11.347,10.7-4.611-1.936-10.249-5.757-11.021-10.835a9.107,9.107,0,0,1,1.238-5.807A4.194,4.194,0,0,1,223.653,33.246Z" transform="translate(-71.757 10.055)" fill="#e8505b" fill-rule="evenodd"/>
    <ellipse id="Ellipse_17" data-name="Ellipse 17" cx="21.813" cy="21.46" rx="21.813" ry="21.46" transform="translate(152.786 440.533)" fill="#e8505b"/>
    <path id="Path_1110" data-name="Path 1110" d="M232.78,217.707a19.359,19.359,0,0,1,13.771,15.46,19.753,19.753,0,0,1-7.788,19.35c-13.057,9.5-31.565.846-32.345-14.743C205.579,224.205,218.958,213.409,232.78,217.707Zm-13.358-3.027a22.458,22.458,0,0,0-14.446,13.254,23.313,23.313,0,0,0,1.176,19.833,23.535,23.535,0,0,0,41.6-1.245c8.762-18.682-9.135-37.952-28.328-31.852Z" transform="translate(-52.046 225.405)" fill="#e8505b" fill-rule="evenodd"/>
    <path id="Path_1111" data-name="Path 1111" d="M221.1,241.291s-16.172-5.919-11.966-17.426a6.288,6.288,0,0,1,12.147.061,6.268,6.268,0,0,1,12.114,0C237.592,235.44,221.709,241.014,221.1,241.291Z" transform="translate(-46.553 231.578)" fill="#fff" fill-rule="evenodd"/>
    <path id="Path_1112" data-name="Path 1112" d="M221.8,243.755c.4,0,.363.013,1.366-.393,4.623-1.917,9.591-5,11.966-9.5a11.545,11.545,0,0,0-2.476-13.932,7.91,7.91,0,0,0-10.573,1.431,8.542,8.542,0,0,0-6.3-2.9c-4.068.053-6.6,2.9-7.7,6.9-1.83,7.029,2.643,12.426,8.785,16.092A23.588,23.588,0,0,0,221.8,243.755Zm-6-22.081a5.278,5.278,0,0,1,4.39,2.505c.536,1,.144,1.33,1.089,2a1.544,1.544,0,0,0,1.97-.353c.5-.719.206-.634.571-1.45a5,5,0,0,1,6.348-2.237,7.776,7.776,0,0,1,3.057,7.592c-.8,5.173-6.6,8.737-11.347,10.7-4.611-1.936-10.247-5.757-11.021-10.835a9.094,9.094,0,0,1,1.25-5.807,4.194,4.194,0,0,1,3.691-2.114Z" transform="translate(-47.358 230.742)" fill="#e8505b" fill-rule="evenodd"/>
    <path id="Path_1113" data-name="Path 1113" d="M265.751,92.184c.759.975,3.34,10.854,2.822,27.567-.7,22.358-4.856,53-6.323,53.063C247.1,173.535,247.031,92.852,265.751,92.184Z" transform="translate(-173.396 83.636)" fill="#fff" fill-rule="evenodd"/>
    <path id="Path_1114" data-name="Path 1114" d="M266.366,91.894c-5.8.3-9.416,7.835-11.25,13.475-4.588,14.113-5.319,33.738-3.3,48.4,1.032,7.315,3.664,20.506,10.879,20.984a1.934,1.934,0,0,0,1.857-.634c2.459-3.108,8.252-48.771,5.284-70.965-.307-2.38-1.463-9.5-2.6-11.012h0C266.945,91.833,266.729,91.875,266.366,91.894Zm1.471,8.847a130,130,0,0,1,.268,23.565c-.675,10.617-3.534,40.25-5.762,47.173-11.514-2.97-12.684-75.8,3.9-78.271l.1-.013a41.394,41.394,0,0,1,1.49,7.545Z" transform="translate(-174.359 83.301)" fill="#e8505b" fill-rule="evenodd"/>
    <path id="Path_1115" data-name="Path 1115" d="M219.025,101.124l-1.091,1.454v.015l.243,1.818c1.816,1.433,1,.989,3.3,1.617,12.8,3.514,26.49,9.765,43.252,17.113a72.55,72.55,0,0,1,8.527,4.294c4.8,2.936,2.663,2.594,4.923,2.4l-.118-1.351a35.53,35.53,0,0,0-3.639-2.913c-6-4.194-25.219-13.473-30-15.7a154.1,154.1,0,0,0-23.614-9Z" transform="translate(-111.468 93.362)" fill="#fff" fill-rule="evenodd"/>
  </g>
</svg>
