<svg xmlns="http://www.w3.org/2000/svg" width="641.259" height="618.784" viewBox="0 0 641.259 618.784">
  <g id="Virtual_reality_VR_1" data-name="Virtual reality VR_1" transform="translate(-5 -10.078)">
    <path id="Path_523" data-name="Path 523" d="M275,10.107a12.772,12.772,0,0,1,6.59,1.327c1.356,1.095,1.426,2.556,1.736,5.382,2.278,21.228,6.6,176.608,5.891,178.385-.942,1.581-1.811,1.528-3.638,1.809-39.582,6.2-89.963,20.344-128.7,33.494C54.8,265.336,25.919,293.03,22.191,294.583a2.676,2.676,0,0,1-3.439-2.083C15.188,280.587,5.706,110.519,5.02,95.745a3.646,3.646,0,0,1,1.187-3.1C22.248,75.244,234.371,10.162,275,10.107ZM22.845,288.183c59.8-43.956,187.226-85.094,260.837-96.719-5.177-196.5-5.645-166.031-6.048-175.646a48.936,48.936,0,0,0-11.006.4c-38.29,4.613-129.083,30.765-168.45,43.1-9.338,2.93-85.833,26.927-90.746,35.566C7.074,95.524,19.031,262.922,22.845,288.183ZM5.642,96.161l.022-.015h0Z" transform="translate(0)" fill-rule="evenodd"/>
    <path id="Path_524" data-name="Path 524" d="M19.27,69.66c.135,3.2,9.345,124.181,9.951,123.818,13.694-8.137,71.143-28.853,79.042-33.2,1.311-.723-5.931-110.926-7.364-115.871C99.05,38.032,19.257,69.313,19.27,69.66Z" transform="translate(17.285 40.542)" fill="#e8505b" fill-rule="evenodd"/>
    <path id="Path_525" data-name="Path 525" d="M99.394,42.465a4.56,4.56,0,0,1,4.175,1.855c2.432,4.343,7.671,95.012,8.146,106.643.462,11.587.663,12.138-2.158,13.573-5.137,2.554-20.344,8.4-33.775,13.663-44.977,17.619-42.7,18.272-44.933,19.147a2.729,2.729,0,0,1-3.655-1.906c-1.5-6.342-8.6-124.366-8.443-124.38a1.165,1.165,0,0,1,.663-1.106C22.378,68.37,85.711,42.386,99.394,42.465ZM21.131,71.718c.086,1.037,10.554,115.274,10.91,118.816,17.586-8.914,63.313-25.713,74.12-30.779.144-12.348-5.721-103.317-6.855-112.425C89.581,46.616,31.024,67.7,21.131,71.718Zm78.885-24.3-.044-.015Zm-.049-.015.051.013Zm.031.011-.033-.013h0Zm0,0-.044-.013Zm-.042,0ZM99.956,47.418Z" transform="translate(16.654 39.199)" fill="#212121" fill-rule="evenodd"/>
    <path id="Path_526" data-name="Path 526" d="M68.417,57.113c-.119-1.192,1.079-2.041,2.123-2.654,12.728-7.518,91.892-27.939,102.7-27.7a3.354,3.354,0,0,1,3.507,2.709c1.484,5.236,4.955,39.964,3.943,44.761a3.2,3.2,0,0,1-1.833,2.351,14.289,14.289,0,0,1-2.614.484C161.675,79.752,82.922,100.551,72.751,98.78a2.636,2.636,0,0,1-2.37-2.045c-.77-3.96-1.221-20.978-1.769-35.2C68.463,57.511,68.4,57.164,68.417,57.113Zm103.143-24.58C160.5,33.746,76.768,51.788,70.763,57.162c.511,4.325,2.406,31.4,3.383,37.607C84.835,94.446,158.2,74.586,175.1,71.4c.13-7.275-3.08-38.912-3.542-38.865Zm1.548-.1Z" transform="translate(76.805 20.197)" fill="#212121" fill-rule="evenodd"/>
    <path id="Path_527" data-name="Path 527" d="M179.768,58.946l.4.765v.015l-.276.82c-1.61.849.884-.062-8.861,1.51C149.124,65.624,110.92,75.818,90.5,82.4,72.2,88.345,78.374,87.708,73.68,87.96l-1.656-1.468v-.015L71.9,84.265c1.749-1.975,1.3-1.581,1.99-1.9C92.67,74.188,155,59.655,178.943,58.656Z" transform="translate(81.037 58.841)" fill="#212121" fill-rule="evenodd"/>
    <path id="Path_528" data-name="Path 528" d="M180.611,72.207l.4.763v.015l-.276.82c-1.61.849.885-.062-8.861,1.51-21.909,3.569-60.113,13.763-80.537,20.344-18.911,6.145-11.892,5.292-16.817,5.559L72.866,99.75v-.013l-.119-2.211c1.749-1.972,1.3-1.579,1.99-1.9,18.778-8.182,81.109-22.714,105.051-23.714Z" transform="translate(82.06 74.904)" fill="#212121" fill-rule="evenodd"/>
    <path id="Path_529" data-name="Path 529" d="M449.237,77.5c.6,1,.5-.055.595,14.457.066,10.758,1.026,174.5-1.849,184.926a2.6,2.6,0,0,1-3.759,1.873,244.382,244.382,0,0,0-23.734-13.652c-64.762-33.138-177.932-61.352-246.1-67.55a2.89,2.89,0,0,1-1.67-.728,2.972,2.972,0,0,1-.909-1.583c-.241-2.1-6.192-165.845-4.518-180.219a3.772,3.772,0,0,1,3.063-3.746C193.873,2.8,438.625,60.822,449.237,77.5Zm-1.855,1.446a1.365,1.365,0,0,0,.02.164h.022a.828.828,0,0,0-.141-.374l.013.02C440.574,68.3,329.435,42.714,317.322,39.965c-18.71-4.232-125.892-27.756-144.584-23.632.186,9.491-2.019-17.109,4.706,175.688,60.783,5.816,159.229,29.483,224.743,58.614,32.762,14.652,41.448,22.776,41.541,21.715,2.62-30.073,3.434-193.4,3.655-193.4Zm1.745.931h.007C448.963,79.6,447.9,77.78,449.127,79.879Z" transform="translate(196.22 0.438)" fill-rule="evenodd"/>
    <path id="Path_530" data-name="Path 530" d="M327.1,60.669c.062,3.2-1.734,124.521-2.364,124.2-14.168-7.284-72.773-24.446-80.933-28.3-1.353-.641-.862-111.081.265-116.092C245.532,33.983,327.09,60.315,327.1,60.669Z" transform="translate(288.261 35.567)" fill="#e8505b" fill-rule="evenodd"/>
    <path id="Path_531" data-name="Path 531" d="M248.774,38.345c14.524.221,74.86,20.178,80.24,22.555a1.19,1.19,0,0,1,.787,1.106c-.221,0-.944.011.015,0,.172,6.517.261,118.3-.836,124.665a2.715,2.715,0,0,1-1.278,1.862,2.958,2.958,0,0,1-1.274.394c-1.488.029-.4-.265-10.066-3.96-20.169-7.64-56.237-18.354-69.226-23.218a10.952,10.952,0,0,1-3.938-1.911c-.993-1.269-1.314-1.077-1.479-26.977-.082-14.19.08-82.135,1.435-91.188C243.593,38.933,246.032,38.314,248.774,38.345Zm-.823,4.882c-.6,9.584-.865,98.242.013,112.417.091,1.3,55.644,17.659,75.878,26.4.21-5.367,3.587-117.4,3.626-119.26-10.729-3.613-69.573-20.782-79.522-19.561Zm-.7.139.044-.02Zm0,0,.049-.02h0Zm.051-.02-.031.015.033-.015Zm-.04.013.044-.015Zm.053-.018Zm0,0Z" transform="translate(286.711 34.237)" fill="#212121" fill-rule="evenodd"/>
    <path id="Path_532" data-name="Path 532" d="M186.944,26.381c15.559.305,95.706,15.85,104.193,22.164a2.107,2.107,0,0,1,1.039,1.8h0c-.082,2.638.829,28.574.612,37.012-.073,2.393.033,3.874-1.846,4.644C282.92,95.021,206.819,79.8,187.3,77.028c-5.1-.7-6.331.409-6.607-7.4-.31-9.471.429-29.616,1.267-37.519C182.391,28.066,182.734,26.342,186.944,26.381Zm-.394,44.71c16.611,2.092,91.655,17.509,102.2,17.151.542-5.676.849-32.437,1.057-37.37.243-4.451-91.9-18.4-102.105-18.8a383.792,383.792,0,0,0-1.148,39.016ZM186.161,32.082Z" transform="translate(212.719 19.747)" fill="#212121" fill-rule="evenodd"/>
    <path id="Path_533" data-name="Path 533" d="M185.847,59.376c15.558.305,95.708,15.85,104.193,22.164a2.107,2.107,0,0,1,1.039,1.8h0c-.082,2.638.829,28.572.613,37.012-.073,2.393.033,3.874-1.846,4.633-8.023,3.018-84.123-12.2-103.647-14.975-5.086-.7-6.331.411-6.607-7.4-.31-9.471.429-29.618,1.267-37.519C181.294,61.061,181.637,59.337,185.847,59.376Zm-.4,44.721c16.611,2.092,91.655,17.509,102.2,17.151.542-5.676.849-32.437,1.057-37.37.243-4.451-91.9-18.4-102.105-18.8a383.765,383.765,0,0,0-1.148,39.016ZM185.058,65.088Z" transform="translate(211.391 59.713)" fill="#212121" fill-rule="evenodd"/>
    <path id="Path_534" data-name="Path 534" d="M156.719,196.248c22.245.1,23.218,28.362,23.218,28.362s-16.688,67.424-22.292,66.867c-13.119-1.3-29.492-4.683-43.978-37.47-11.041-24.987-12.8-102.554-14.3-106.194-1.791-4.356-6.616-8.065-9.035-12.341-4.029-7.118-4.212-17.885,1.7-22.977a19.806,19.806,0,0,1,7.532-2.676,109.9,109.9,0,0,1-5.7-15.333c-1.006-2.817-2.32-5.464-1.019-8.195a4.358,4.358,0,0,1,6.9-1.327c2.623,2.432,9.648,15.89,10.382,18.957.208.873,9.592,9.623,11.2,15.95.369,1.462,7.552,12.509,8.872,14.563,8.264,12.881,12.706,28.258,18.5,42.35,1.948,4.714,5.555,16.616,8.014,19.459a132.035,132.035,0,0,1,10.19,13.823" transform="translate(99.848 89.297)" fill="#fff" fill-rule="evenodd"/>
    <path id="Path_535" data-name="Path 535" d="M101.922,84.015c2.921,2.043,8.1,12.452,9.6,15.638,2.859,6.143,1.03,3.7,3.107,6.061,10.411,11.782,8.686,12.746,10.687,16.337,6.046,10.782,10.041,14.358,16.39,30,1.875,4.622,10.738,28.6,10.818,28.826,1.435,4.224,4.339,13.1,6.2,15.662,11.4.252,17.98,7.476,21.755,18.239a47.88,47.88,0,0,1,2.165,10.935c.071,1.7-9.581,39.109-15.342,55.653h0a68.632,68.632,0,0,1-4.321,10.161c-2.136,3.589-3.255,3.337-5.816,3.1A52.443,52.443,0,0,1,145.5,292.2a42.635,42.635,0,0,1-17.648-11.9,89.627,89.627,0,0,1-17.734-31.931c-6.877-24.017-9.183-65.81-10.895-90.134-.632-8.752-.621-8.356-1.723-10.088-1.751-2.729-4.9-5.687-7.094-8.916-5.115-7.633-5.871-20.016.663-26.6a13.009,13.009,0,0,1,6.413-3.233,106,106,0,0,1-3.573-10.1c-1.214-3.861-1.479-4.239-1.99-5.875C89.282,84.778,96.69,80.472,101.922,84.015Zm56.52,206.811.022-.015h0Zm.035-.024-.027.024.02-.015h0Zm-.02.016h.013Zm.013-.013ZM97.915,87.323c-.82.015-1.495.422-1.882,1.61a9.374,9.374,0,0,0,1.092,5.477,121.765,121.765,0,0,0,5.783,15.532,2.34,2.34,0,0,1-.48,2.853c-.924.708-.885.442-3.133.977a13.057,13.057,0,0,0-4.385,1.7c-4.2,3.37-5.42,12.717-1.165,20.158a31.432,31.432,0,0,0,3.458,4.54c6.355,7.326,6.026,7.715,6.634,15.91,1.451,19.614,2.906,47.883,6.751,72.176,2.634,16.474,4.975,25.447,13.2,39.139,5.086,8.1,10.293,14.373,18.7,18.875a44.63,44.63,0,0,0,16.169,4.363,49.618,49.618,0,0,0,4.955-10.594h0c5.9-16.512,10.966-34.772,15.479-51.64.842-3.228.763-2.256.579-4.423-1.289-10.53-5.247-21.025-15.324-24.5a20.672,20.672,0,0,0-3.952-.869,142.8,142.8,0,0,1,8.58,12.182l-.272,1.327-1.327-.287c-14.577-21.509-8.219-6.07-18.093-31.818-.756-1.917-1.855-4.4-3.045-7.474-2.937-7.381-5.238-13.763-8.354-20.85-6.468-13.989-6.972-13.011-14.51-25.127a27.079,27.079,0,0,1-2.749-5.073c-1.459-5.046-8.359-11.824-10.512-14.417-1.187-1.462-.108-.842-3.759-7.994a96.74,96.74,0,0,0-5.495-9.482C100.042,88.38,99.394,87.3,97.915,87.323Zm26.63,33.24v-.015Zm0,0v-.031Zm-11.22-16.374Zm0,0-.02-.031Z" transform="translate(98.555 88.052)" fill="#212121" fill-rule="evenodd"/>
    <path id="Path_536" data-name="Path 536" d="M92.322,98.512a5.493,5.493,0,0,0-6.063,1.13c-2.143,2.014-1.625,5.48-.721,8.045a34.826,34.826,0,0,0,8.241,11.622c1.74,1.3,6.15.559,6.729-2.037.663-2.952-.573-5.349-1.864-8.047C97.061,105.913,95.124,100.915,92.322,98.512Z" transform="translate(96.605 106.561)" fill="#fff" fill-rule="evenodd"/>
    <path id="Path_537" data-name="Path 537" d="M90.86,97.515a5.415,5.415,0,0,1,3.24.993h0a19.368,19.368,0,0,1,4.285,4.953c1.187,1.891,3.814,6.612,4.376,7.781a11.4,11.4,0,0,1,1.3,5.778,5.59,5.59,0,0,1-3.41,5.188,7.819,7.819,0,0,1-6.446.144,23.845,23.845,0,0,1-6.373-7.012c-2.351-3.607-4.407-7.485-3.87-11.757a6.7,6.7,0,0,1,6.9-6.068Zm-1.448,3.038a3.377,3.377,0,0,0-1.645,2.393,9.891,9.891,0,0,0,.884,4.677,36.572,36.572,0,0,0,7.543,10.36,3.012,3.012,0,0,0,3.06-.493,6.539,6.539,0,0,0-.5-4.524c-.084-.221-3.01-7.837-3.1-8.058A17.116,17.116,0,0,0,92.8,99.919h0l-.024-.015.049.035-.027-.015.04.027-.031-.015.033.022-.035-.016a4.288,4.288,0,0,0-3.39.613ZM94.1,98.508Z" transform="translate(95.536 105.906)" fill="#212121" fill-rule="evenodd"/>
    <path id="Path_538" data-name="Path 538" d="M96.578,95.979a5.5,5.5,0,0,0-6.063,1.132c-2.143,2.014-1.625,5.48-.723,8.045a34.888,34.888,0,0,0,8.241,11.622c1.74,1.3,6.152.559,6.731-2.039.663-2.95-.573-5.347-1.864-8.045C101.316,103.382,99.381,98.385,96.578,95.979Z" transform="translate(101.759 103.495)" fill="#fff" fill-rule="evenodd"/>
    <path id="Path_539" data-name="Path 539" d="M95.111,94.984a5.415,5.415,0,0,1,3.239.993h0a19.4,19.4,0,0,1,4.285,4.951c1.187,1.893,3.812,6.614,4.376,7.784a11.4,11.4,0,0,1,1.3,5.778,5.592,5.592,0,0,1-3.41,5.188,7.824,7.824,0,0,1-6.448.144,23.866,23.866,0,0,1-6.371-7.012c-2.351-3.607-4.407-7.485-3.87-11.757a6.7,6.7,0,0,1,6.895-6.068Zm-1.448,3.038a3.377,3.377,0,0,0-1.645,2.393,9.891,9.891,0,0,0,.884,4.677,36.6,36.6,0,0,0,7.54,10.36,3.018,3.018,0,0,0,3.063-.493,6.53,6.53,0,0,0-.509-4.524c-.082-.221-3.01-7.837-3.1-8.06a17.1,17.1,0,0,0-2.837-4.993h0l-.024-.016.049.035-.029-.015.04.027-.031-.016.035.022-.035-.018a4.31,4.31,0,0,0-3.405.621Zm4.688-2.045Z" transform="translate(100.693 102.84)" fill="#212121" fill-rule="evenodd"/>
    <path id="Path_540" data-name="Path 540" d="M113.915,104.332a5.482,5.482,0,0,0-1.59-5.953c-2.174-1.99-5.592-1.2-8.084-.108a34.92,34.92,0,0,0-10.977,9.095c-1.168,1.831-.091,6.167,2.545,6.548,3,.442,5.3-.977,7.89-2.468C106.885,109.612,111.725,107.3,113.915,104.332Z" transform="translate(106.344 105.473)" fill="#fff" fill-rule="evenodd"/>
    <path id="Path_541" data-name="Path 541" d="M109.76,96.3a6.634,6.634,0,0,1,5.617,2.773,6.508,6.508,0,0,1,.548,6.952h0a20.282,20.282,0,0,1-5.318,5.152,79.371,79.371,0,0,1-8.317,5.245,10.477,10.477,0,0,1-4.526.92,5.575,5.575,0,0,1-5.177-3.337,7.607,7.607,0,0,1-.287-6.444c1.36-2.709,6.083-6.455,8.785-8.257A15.229,15.229,0,0,1,109.76,96.3Zm.885,3.741a13.544,13.544,0,0,0-7.058,3.058,34.152,34.152,0,0,0-7.014,6.579c-.265.456.044,2.576.851,2.948h0a7.739,7.739,0,0,0,4.63-.991c6.441-3.1,10.112-4.458,12.357-6.806h0l.013-.024a4,4,0,0,0-.126-1.663,3.843,3.843,0,0,0-3.644-3.1Zm5.272,5.984Z" transform="translate(105.041 104.436)" fill="#212121" fill-rule="evenodd"/>
    <path id="Path_542" data-name="Path 542" d="M144.919,187.805s2.742-21.186-19.9-33.762c-5.347-2.97,51.366-33.3,115.4-35.537,86.582-3.034,109.728,78.783,109.237,99.658a109.622,109.622,0,0,1-45.024,87.155l-10.661-6.981-155.554,22.2s-12.965-39.011-23.818-45.758c-2.932-1.824,11.746-24.052,11.746-24.052C135.835,198.052,144.919,187.805,144.919,187.805Z" transform="translate(132.289 131.236)" fill="#e8505b" fill-rule="evenodd"/>
    <path id="Path_543" data-name="Path 543" d="M143.747,190.241c1.349-2.158,1.092-1.344,1.154-2.3a33.583,33.583,0,0,0-10.614-25.171c-5.851-5.528-9.225-6.021-9.856-7.386-3.255-7.176,52.186-31.9,104.038-36.928,17.836-1.692,33.366-1.548,50.742,3.68C318.2,134,343.69,169.428,351.363,205.969a58.3,58.3,0,0,1,1.382,17.248A112.4,112.4,0,0,1,336.21,276.7c-9.186,14.815-21.449,26.648-29.264,31.657a2.386,2.386,0,0,1-2.735.084h0l-9.913-6.5c.237,0-154.311,22.022-155.733,21.571-1.168-.577-.913-.719-2.581-5.409-3.151-9.124-13.166-35.3-21.164-40.656a2.492,2.492,0,0,1-1.134-1.238c-.765-2.01.849-5.528,1.9-7.613a170.736,170.736,0,0,1,10.258-17.275C126.1,251.307,133.2,208.028,143.747,190.241Zm76.388-66.917a274.041,274.041,0,0,0-67.813,17.5c-5.588,2.291-21.2,9.009-25.273,13.54,11.264,6.663,17.341,15.751,19.251,26.02a30.374,30.374,0,0,1,.442,8.648,48.082,48.082,0,0,0-4.918,9.951c-8.4,21.35-12.713,52.518-13.389,53.654h0c-2.9,4.352-10.373,16.5-11.691,21.945-.046.473-.042-.283,2.775,2.576,8.206,8.792,17.182,31.015,21.093,42.3,1.888-.27,150.809-22.283,154.913-22.283a2.236,2.236,0,0,1,.615.285c10.041,6.565,9.208,6.192,9.429,6.03a94.563,94.563,0,0,0,13.047-11.658A107.689,107.689,0,0,0,346.7,235.07c2.211-14.984,2.273-22.816-2.78-38.905a123.573,123.573,0,0,0-7-17.361C311.908,129.93,272.894,116.946,220.136,123.323Z" transform="translate(131.406 130.11)" fill="#212121" fill-rule="evenodd"/>
    <path id="Path_544" data-name="Path 544" d="M336.158,226.775S256.691,177,256.079,177.123c-92.993,18.623-123.928,38.845-128.519,39.538-7.532,1.141-15.7,1.141-23.627,2.344-3.828.582-24.266,1.455-24.1,6.072.471,12.878,23.61,1.665,26,12.461a11.519,11.519,0,0,0,10.192,8c10.495.484,16.049-4.436,18.84-5.866,1.081-.546,20.432,5.192,41.444,9.469C305.315,275.4,335.388,226.523,336.158,226.775Z" transform="translate(90.638 202.337)" fill="#fff" fill-rule="evenodd"/>
    <path id="Path_545" data-name="Path 545" d="M337.955,228.585h0c-.17.248-2.26,2.634-3.445,3.81a72.234,72.234,0,0,1-16.379,12.029c-70.5,36.486-178.335-3.317-181.751-1.145a30.456,30.456,0,0,1-17.6,5.679,13.69,13.69,0,0,1-6.53-1.327,13.376,13.376,0,0,1-7.211-7.713,5.389,5.389,0,0,0-.951-2.377c-4.016-4.345-18.391.931-23.725-6.26a9.15,9.15,0,0,1-1.6-5.11c-.073-3.735,4.325-5.19,7.9-6.085a136.73,136.73,0,0,1,17.664-2.335c9.152-1.287,12.414-1.106,20.361-1.915,3.925-.407,3.317-.46,3.85-.482,11.74-4.6,37.592-20,117.836-36.928,12.31-2.481,11.005-2.286,11.961-1.9,20.359,12.383,64.569,40.831,79.646,50.439-.367.586-.94,1.5,0,.013l.135.1a.968.968,0,0,1-.155,1.51Zm-201.226,9.707c8.3.584,122.637,38.29,183.978,1.93a62.475,62.475,0,0,0,15.233-12.25c-1.183-.721-71.236-43.6-78.812-47.9-28.609,6.074-60.733,13.931-88.4,23.8A365.191,365.191,0,0,0,132.568,218.8c-2.817,1.265-3.043,1.274-9.615,1.933-9.639.781-10.508.754-15.552,1.369-6.271.884-16.872,1.327-22.4,3.454h0a6.281,6.281,0,0,0-1.448.758,3.647,3.647,0,0,0,1.433,2.888c3.523,2.611,13.8.345,19.954,3.136,4.248,2.169,4.235,5.172,4.909,6.809a9.612,9.612,0,0,0,6.994,4.969,24.3,24.3,0,0,0,15.269-3.759c2.715-1.619,3.182-2.156,4.615-2.059Zm200.752-9.564h.035Z" transform="translate(89.338 201.332)" fill="#212121" fill-rule="evenodd"/>
    <path id="Path_546" data-name="Path 546" d="M206.814,146.652l-.133,1.342c-9.73,9.862-22.21,27.117-29.332,37.6-1.749,2.572-15.89,23.678-16.094,27.188v-.022l-.011.064v.184l-.783,1.106c-1.415-.991-1.039-.681-1.161-1-.383-9.192,23.714-50.709,46.174-66.586Z" transform="translate(186.895 165.278)" fill="#212121" fill-rule="evenodd"/>
    <path id="Path_547" data-name="Path 547" d="M480.474,179.65C373.63,190.3,150.364,186.739,44.352,157.4L32.665,402.993C78.9,442.742,389.6,460.647,470.276,437.232,471.176,436.962,482.935,179.409,480.474,179.65Z" transform="translate(33.51 178.447)" fill="rgba(255,255,255,0.38)" fill-rule="evenodd"/>
    <path id="Path_548" data-name="Path 548" d="M482.418,180.021c1.013.442,1,1.2,1.106,3.923.679,31.281-7.008,219.281-9.066,251.99-.25,3.01-.013,3.98-1.712,4.949-47.688,13.7-153.608,11.828-203.083,9-51.726-2.127-182.454-13.1-228.161-37.191a43.563,43.563,0,0,1-9.442-6.335,2.874,2.874,0,0,1-.7-2.025c12.6-263.082,11.589-245.971,12.474-247.22a2.771,2.771,0,0,1,1.5-.911C49.274,155.642,95,174.033,246.416,182,407.894,189.833,479.3,179.378,482.418,180.021ZM37.716,403.539c31.513,24.324,160.587,35.915,200.427,38.748,55.2,3.927,177.945,8.96,231.571-5.422,0-.221,12.624-225.5,11.415-254.469-1.285.1-14.225,1.5-33.4,2.769-104.617,6.9-299.012,4.137-399.205-22.752C37.32,406.365,36.732,402.815,37.716,403.539Zm431.861,34.624Z" transform="translate(31.926 176.972)" fill="#212121" fill-rule="evenodd"/>
    <path id="Path_549" data-name="Path 549" d="M182.471,198.375c-24.545-.272-67.983-2.355-104.989-10.758L67.867,315.849c19.519,9.849,73.253,16.806,106.656,11.344C174.523,327.192,183.039,198.377,182.471,198.375Z" transform="translate(76.149 215.048)" fill="rgba(255,255,255,0.38)" fill-rule="evenodd"/>
    <path id="Path_550" data-name="Path 550" d="M103.384,191.244a593.03,593.03,0,0,0,60.626,6.464c20.492,1.137,19.835.548,20.647,1.059h0c.358.292.077.073.292.3,1.09,1.844-5.893,124.362-6.119,128.19-.111,1.826-.04,3.012-1.915,3.828h0c-15.037,3.759-59.684,3.191-92.6-5.541a82.782,82.782,0,0,1-16.64-6.03h0A2.85,2.85,0,0,1,66.62,318c-.272-.75,6.119-83.157,9.65-126.648.263-3.138.179-2.968.643-3.795C78.835,185.179,78.384,187.074,103.384,191.244ZM80.075,210.226C73,309.545,72.254,315.352,72.495,315.458c19.8,8.918,69.9,15.189,101.006,10.7,3.317-45.738,8.98-116.855,9.329-125.286-2.6.108-16.943-.206-19.7-.285-25.989-.747-56.345-3.279-81.6-8.551C81.238,191.981,81.468,189.984,80.075,210.226Z" transform="translate(74.628 213.714)" fill="#212121" fill-rule="evenodd"/>
    <path id="Path_551" data-name="Path 551" d="M264.542,198.581c-34.193,4.6-75.557,2.448-112.795-4.847l-5.78,128.459c19.8,9.263,81.255,11.839,114.48,5.384C260.447,327.578,265.106,198.508,264.542,198.581Z" transform="translate(170.749 222.457)" fill="rgba(255,255,255,0.38)" fill-rule="evenodd"/>
    <path id="Path_552" data-name="Path 552" d="M188.407,198.136a371.335,371.335,0,0,0,58.128,2.256c19.048-.851,19.654-2.359,20.565-1.008.69,1.314-.9,69.655-.933,71.165-1.42,62.995-1.289,58.988-2.123,60.158a2.728,2.728,0,0,1-1.528.885c.221,0-6.43,1.258-12.012,1.891-26.314,3.2-66.212,2.49-91.925-3.33a54.851,54.851,0,0,1-12.688-4.2,2.861,2.861,0,0,1-1.216-1.957c-.13-.628,5.844-127.256,6.141-129.435a2.578,2.578,0,0,1,.918-1.455C154.312,191.455,153.673,193.983,188.407,198.136Zm-37.833,123.61c23.068,9.13,81.224,9.745,108.859,4.962,1.548-37.592,5.23-111.468,5.55-125.392-35.3,4.962-73.89,3.029-109.237-3.167C152.753,275.278,150.338,321.642,150.575,321.746Z" transform="translate(169.182 221.076)" fill="#212121" fill-rule="evenodd"/>
    <path id="Path_553" data-name="Path 553" d="M68.753,256.558c21.719,10.7,69.447,15.563,96.21,13.71,10.649-.732,7.817-1.21,9.836-.7l.462.73v.015c-.312,1.247.279,1.247-6.236,2.178-35.787,5.086-83.316-1.5-102.382-10.51-.376.018-.931-.743-1.941-1.917l.153-2.211v-.015l1.676-1.442Z" transform="translate(72.316 298.356)" fill="#212121" fill-rule="evenodd"/>
    <path id="Path_554" data-name="Path 554" d="M148.6,263.637c23.1,9.542,83.332,10.97,111.629,5.112h0l.867.159.511.7v.015c-.237,1.307.188,1.205-4.878,2.32-36.362,7.978-90.49,4.883-109.6-2.636-.971-.38-.491-.018-2.333-1.891v-2.227l1.577-1.548Z" transform="translate(169.342 307.129)" fill="#212121" fill-rule="evenodd"/>
    <path id="Path_555" data-name="Path 555" d="M71.454,208.253l.577.608v.016l-.071.829-.637.65c-.307.013-6.245,3.14-6.466,3.255a83.336,83.336,0,0,0-18.09,12.345c2.249,2.861,20.191,21.007,20.414,21.193l-.033-.02h.011l.027.02-.038-.02.015.013-.035-.02h.013l-.055-.026H67.1l-.084-.033h0l-.137-.038h0l.677.442.239.856v.013a1.29,1.29,0,0,1-.119.347h0a.884.884,0,0,1-.161.221h0l-.1.1h0a1.461,1.461,0,0,1-.329.2h0l-.188.058h0a1.448,1.448,0,0,1-.343.022h0a2.034,2.034,0,0,1-.955-.409,133.085,133.085,0,0,1-14.961-10.917,66.41,66.41,0,0,1-8.991-9.265c-3.021-4.381-.088-5.822,2.494-8.118,7.076-5.727,12.874-9.42,26.407-12.469ZM66.24,247.11c-.391.234-.259.111-.593.526-.177.526-.221.484.4-.4.871-.221.885-.179.577-.221Z" transform="translate(42.831 239.862)" fill="#212121" fill-rule="evenodd"/>
    <path id="Path_556" data-name="Path 556" d="M218.182,216.72c12,4.891,18.548,9.612,26.29,19.435A3.385,3.385,0,0,1,245,239.2c-2.129,6.634-28.032,18.8-29.631,18.8a1.221,1.221,0,0,1-.8-.413h0a.979.979,0,0,1-.208-.369h0a1.247,1.247,0,0,1-.062-.36v-.015l.376-.8.741-.334h0l-.144.016h0l-.086.02h.013l-.057.018h.015l-.04.013h.018l-.042.013.029-.016h.013l-.035.016c1.106-.615,11.043-8.257,16.324-11.963,2.032-1.486,5.135-3.635,7.3-5.6-1.5-1.893-3.268-3.918-4.009-4.686a120.54,120.54,0,0,0-17.65-14.723l-.524-.747.069-.831v-.013l.663-.5ZM216.2,256.014c.511,1.072.4.909.325.442-.248-.442-.13-.305-.5-.615-.427-.168-.3-.139-.559-.155Z" transform="translate(253.51 250.289)" fill="#212121" fill-rule="evenodd"/>
    <path id="Path_557" data-name="Path 557" d="M237.1,88.243C219.122,70.527,178.136,54.216,154.445,82c0,0-12.082,20.742-3.284,66.84a42.837,42.837,0,0,0,5.712,14.641c5.126,7.025,17.54,8.876,25.823,8.531,3.193-.133,6.326-.8,9.409-.927.486-.02,2.419-.681,2.835-.3,2.125,1.948,3.589,14.911,4.2,15.479a18.917,18.917,0,0,0,17.874,4.33c4.323-.909,12.363-3.589,14.011-7.268.739-1.641-1.915-17.69-1.249-18.449,11.51-13.086,8.2-25.054,10.094-27.112.237-.261,5.086-.94,6.346-1.51,4.887-2.194,8.261-10.464,7.014-15.6a8.606,8.606,0,0,0-5.97-6.512c-2.081-.6-8.578,3.56-8.578,3.56Z" transform="translate(173.153 69.046)" fill="#fff" fill-rule="evenodd"/>
    <path id="Path_558" data-name="Path 558" d="M248.283,113.449a9.287,9.287,0,0,1,5.97,3.783c3.478,4.741,2.311,11.165-.482,16.125-3.722,6.017-6.634,5.822-11.238,6.873A82.685,82.685,0,0,1,240.926,152a37.442,37.442,0,0,1-7.788,14.683c-.091,1.179,1.382,11.7,1.535,15.3a6.021,6.021,0,0,1-2.189,5.7,22.2,22.2,0,0,1-5.97,3.615c-10.039,4.124-18.917,4.734-27.093-1.851-1.364-1.185-1.44-1.274-2.191-5.327-2.262-11.974-2.324-9.177-2.359-10.05a34.638,34.638,0,0,1-4.447.526,54.558,54.558,0,0,1-10.059.677,43.133,43.133,0,0,1-16.688-3.622A19.068,19.068,0,0,1,153.5,160.922c-3.18-7.178-3.98-13.334-5.117-21.248a142.4,142.4,0,0,1-.595-35.986,71.315,71.315,0,0,1,5.477-20.755,6.919,6.919,0,0,1,1.687-2.432,45.1,45.1,0,0,1,7.591-6.651c22.5-15.826,58.143-4.423,76.455,14.568h0c.352.407.288.65.334,1.389,1.924,28.594,1.506,26.555,2.225,26.148A15.7,15.7,0,0,1,248.283,113.449ZM175.415,71.782A39.181,39.181,0,0,0,158.621,82.71c-1.327,1.484-1.17,1.269-1.475,1.933-3.62,7.417-5.446,20.538-5.625,29.56-.456,11.45,1.572,37.983,7.93,47.885a12.438,12.438,0,0,0,4.062,4.042c5.123,3.317,13.064,4.489,19.2,4.392a76.872,76.872,0,0,0,8.056-.767,27.854,27.854,0,0,0,2.828-.287c2.382-.548,3.6-.593,4.993,1.4,1.957,3.4,2.749,9.968,3.81,14.888a15.373,15.373,0,0,0,8.6,3.839c7.142.829,17.177-3.447,18.922-5.917.221-.307.175-.237.192-.621-.245-5.9-1.2-11.145-1.411-16.217.049-2.4.316-1.955,1.99-4.131a34.483,34.483,0,0,0,5.106-8.589,47.019,47.019,0,0,0,2.76-13.989c.546-3.171,1.6-3.352,3.262-3.688,4.752-.907,4.88-.725,6.674-2.2a15.211,15.211,0,0,0,4.546-11.191,7.755,7.755,0,0,0-2.282-5.02,6.317,6.317,0,0,0-.752-.613,7.181,7.181,0,0,0-1.944-.951h0a21.247,21.247,0,0,0-6.612,2.8c-1.052.621-.966.619-1.475.679a1.362,1.362,0,0,1-1.375-1.068c-.038-.36.1,2.932-1.187-28.968-.018-.442.04-.318-.181-.529C221.657,75.072,195.719,65.126,175.415,71.782Zm66.46,68.616.049-.018Zm.02,0h.022Zm6.225-23.91h-.029Zm0,0h-.042Zm-.051,0h0Zm0,0Z" transform="translate(171.914 68.187)" fill="#212121" fill-rule="evenodd"/>
    <path id="Path_559" data-name="Path 559" d="M156.781,113.032c.593-1.311-3.04.285-4.312-.4-2.572-1.4-5.276-3.339-6.817-10.154-1.3-5.729,4.073-11.406,3.876-11.58-7.165-6.583-7.565-16.186-.245-24.136,4.06-4.4,9.287-2.676,13.876-2.875.7-.029,1.937-4.613,2.57-5.444a17.546,17.546,0,0,1,11.167-6.822,12.4,12.4,0,0,1,10.057,3.14c1.495,1.141,4.708,3.107,4.708,3.107a34.987,34.987,0,0,1,5.882-5.329,27.769,27.769,0,0,1,13.621-2.855c7.739.057,13.763,9.084,15.388,9.015.442-.018,12.673-7.333,23.605-1.495,6.072,3.248,11.7,7.255,13.743,14.373a38.536,38.536,0,0,1,.493,15.8s17.082.82,16.892,20.644c-.091,9.508-9.066,14.532-9.066,14.612.13,3.144,4.88,5.672,2.233,10.835-3.421,6.68-9.066,4.182-10.172,6.017-.462.756,3.253,7.784-5.833,10.172-.517.135,2.875-13.117-6.7-16.129-7.872-2.472-17.328-7.432-19.663-15.32-.924-3.142.1-10.172-3.538-11.8-1.393-.626-3.439,2.939-4.7,3.246-11.291,2.749-15.258,1.055-25.129-4.544-2.017-1.145-3.582-4.385-5.8-4.84-4.025-.829-8.83,7.629-13.135,8.427-3.649.677-11.532-3.489-12.839-2.769-2.068,1.145-2.225,4.865-4.327,6.028-1.875,1.037-7.24-.754-7.151-.719" transform="translate(168.332 47.934)" fill="#212121" fill-rule="evenodd"/>
    <path id="Path_560" data-name="Path 560" d="M241.555,54.231a22.171,22.171,0,0,1,12.078,3.7,31.607,31.607,0,0,1,7.883,6.227c5.347,5.889,6.088,14.816,5.031,22.663A19.4,19.4,0,0,1,280.4,96.28a24.766,24.766,0,0,1,2.822,12.2,19.108,19.108,0,0,1-8.916,15.5h0c.869,2.713,5.63,6.006.57,12.936a9.427,9.427,0,0,1-5.367,3.4c-1.99.456-2.9.374-3.29.551a9.424,9.424,0,0,1-.387,6.218,9.084,9.084,0,0,1-6.207,4.515,1.51,1.51,0,0,1-1.718-.281c-.723-.854-.354-1.351-.241-3.861.265-3.887-.38-8.8-3.675-10.908-1.882-1.338-15.2-4.23-20.916-13.5a15.112,15.112,0,0,1-1.769-4.08c-.685-2.468-.188-8.361-2.034-10.265h0a2.353,2.353,0,0,0-.617-.473c-.511.022-2.136,2.229-3.492,3.018a29.849,29.849,0,0,1-4.471.991c-7.759,1.2-11.136.175-18.046-3.394-4.964-2.749-4.5-2.364-6.634-4.708-.885-1-2.028-2.344-3.244-2.315-3.432.053-8.164,7.934-12.772,8.4-3.735.305-10.439-3.036-12.162-3-.153,0-.349.186-.469.281-1.616,1.712-1.8,4.186-3.6,5.468-1.616,1.106-4.049.462-5.97.069a.849.849,0,0,1,.066.728c-.058.221,0,.157-.836.482-.288-.734.186-.484-2.432-.186a3.122,3.122,0,0,1-2.432-.478,12.679,12.679,0,0,1-6.063-7.879,11.321,11.321,0,0,1-.325-7.974,22.471,22.471,0,0,1,3.2-6.01,18.537,18.537,0,0,1-4.268-6.174,16.118,16.118,0,0,1-.312-11.125,20.179,20.179,0,0,1,2.928-5.59,11.609,11.609,0,0,1,6.6-5.086,38.012,38.012,0,0,1,9.254-.276c.694-1.3,1.252-3.538,2.012-4.88a18.7,18.7,0,0,1,12.8-7.611c5.866-.624,8.936,2.773,13.931,5.9a35,35,0,0,1,4.708-4.339,26.756,26.756,0,0,1,19.139-2.8c5.495,1.955,9.769,7.14,11.253,8.122a32.813,32.813,0,0,1,14.533-3.646Zm-12.668,51.607a4.909,4.909,0,0,1,3.4,3.264c1.236,2.769.783,7.7,1.769,10.172,2.512,6.293,9.192,10.094,15.479,12.553,3.385,1.285,4.975,1.389,7.1,3.3,3.569,3.246,4.126,8.381,3.792,13.217a6.854,6.854,0,0,0,1.99-1.283,4.737,4.737,0,0,0,1.229-4.5c-.257-1.86-.719-2.6.334-3.662,1.939-1.667,5.055-.4,7.817-2.859a8.109,8.109,0,0,0,2.508-4.5c.177-3.251-3.1-5.331-3.01-8.367a1.383,1.383,0,0,1,.179-.579c-.024-.608,3.523-1.787,6.583-6.492a14.049,14.049,0,0,0,2.249-6.537c.292-8.9-2.852-16.142-11.233-19.13-4-1.426-4.617-.42-5.449-1.712-.542-1.252.688-2.634.389-9.78a25.633,25.633,0,0,0-1.495-7.786,17.849,17.849,0,0,0-.949-2.037c-.756-.621-1.229-4.358-11.578-9.988a17.953,17.953,0,0,0-7.644-2.074,32.207,32.207,0,0,0-14.866,3.642c-2.377.617-4.767-4.1-10.274-7.3a11.744,11.744,0,0,0-7.257-1.681A26.093,26.093,0,0,0,199.4,54a21.556,21.556,0,0,0-5.687,4.772c-.785.84-.719.818-1.156,1h0c-.679.159-.778.071-2.185-.82-4.392-2.835-7.3-6.048-12.2-5.528a16.319,16.319,0,0,0-11.041,6.393h0c-.648.988-1.515,4.836-2.815,5.663-1.42.785-7.594-1.05-11.565.922a17.248,17.248,0,0,0-6.53,8.624h0a13.887,13.887,0,0,0-.478,7.892,15.636,15.636,0,0,0,4.219,7.434c.752.756.838.736.884,1.159.027.6-.363.761-1.63,2.707a12.226,12.226,0,0,0-2.413,8.52,19.52,19.52,0,0,0,2.379,6.384,10.867,10.867,0,0,0,4.075,3.622,8.4,8.4,0,0,0,3.025-.144l-.48-.148.1.018.046-.142-.265.073h0a.573.573,0,0,1-.168-.856c.36-.369.429-.221,1.853.148a10.952,10.952,0,0,0,5.393.4c2.03-1.07,2.366-6.192,5.108-6.282,2.114,0,6.866,2.353,10.645,2.784a5.241,5.241,0,0,0,4.56-1.652c5.378-4.438,8.646-10.134,13.661-4.865a13.4,13.4,0,0,0,5.778,4.4c8.182,4.319,11.735,5.121,21.542,2.733C225.959,107.575,227.106,105.729,228.886,105.837Zm-72.11,7.726.018.057v.016l-.031-.086Zm67.28-4.339Zm.016,0Zm-56.925-49.4Z" transform="translate(167.827 47.246)" fill="#212121" fill-rule="evenodd"/>
    <path id="Path_561" data-name="Path 561" d="M163.491,116.007v0l-.015-.051.015.02-.024-.049.016.02-.024-.049.016.02-.024-.046.015.02-.022-.046.013.02-.031-.044.024.02-.031-.042.022.018-.031-.038.016.018-.031-.035.022.015-.029-.031.022.016-.031-.031.022.015-.029-.027.022.013-.031-.027.029.013-.035-.022.029.013-.031-.02h.031l-.031-.018h.031l-.031-.015h.031l-.031-.013h.029l-.022-.015h.038l-.022-.011h.115a7.587,7.587,0,0,0,2.609-.854l.042-.024-.042.016.055-.044-.049.022.027-.031-.071.038.035-.029-.077.049.027-.029-.055.038a5.023,5.023,0,0,0,.8-1.2v-.04h0a8.374,8.374,0,0,0,.827-2.985v-.029a5.557,5.557,0,0,0-2.543-5.61c-1.106-.663-2.178-.551-1.807-.617h-.038l.057-.016a7.8,7.8,0,0,0-2.89,1.088v-.018l-.042.042v-.018l-.042.04.013-.022-.042.04.015-.024-.015.018-.02.02.013-.027-.029.033.013-.027-.027.031v-.031l-.013.031v-.033l-.013.031.013-.033-.02.031.013-.035-.013.031V105.4l-.013.031v-.049l-.013.031V105.3l-.016-.046v.033l-.018-.044v.031l-.016-.042v.029l-.024-.04v.031l-.016-.04h0v.022l-.022-.04.015.033-.307,1.327-1.327-.31a1.671,1.671,0,0,1-.31-1.351,5.835,5.835,0,0,1,2.041-2.941,6.192,6.192,0,0,1,6.912-1.008c6.789,2.945,6.793,13.318,1.47,16.585a6.983,6.983,0,0,1-6.136.1h0a1.605,1.605,0,0,1-.884-1.548l.962-.938h0l.935.973v0h0v-.077Z" transform="translate(185.452 109.301)" fill="#212121" fill-rule="evenodd"/>
    <path id="Path_562" data-name="Path 562" d="M142.54,85.7c.394.206,9.323-8.732,9.323-8.732,6.035-.776,72.364-5.25,86.5,3.812,4.986,3.2,4.051,29.671,2.636,37.55-.873,4.847-11.14,9.73-11.14,9.73s-35.082,7.158-88.6-2.777C139.728,124.99,142.54,85.7,142.54,85.7Z" transform="translate(164.497 78.855)" fill="#fff" fill-rule="evenodd"/>
    <path id="Path_563" data-name="Path 563" d="M238.664,78.922a7.246,7.246,0,0,1,4.487,4.6c3.3,8.317,2.306,30.569,1.077,36.4a7.894,7.894,0,0,1-1.4,3.113,29.662,29.662,0,0,1-9.847,7.644,7.3,7.3,0,0,1-3.443,1.106c-19.6,3.217-50.6,3.4-83.949-2.994-4.423-.842-5.345-.453-5.5-4.1-.21-5.017.608-16.122.988-21.053,1.468-18.926,1.3-17.235,2.034-17.748a77.586,77.586,0,0,0,7.412-7.275c1.922-1.97,1.145-1.687,4.248-2.021C171.609,74.8,223.358,71.475,238.664,78.922ZM186.8,78.162c-3.279,0-32.9.469-33.558,1.132h0c-1.347,1.283-7.282,6.966-8.867,8.091-.513,11.174-1.3,27.066-.865,37.463,24.89,4.3,61.951,6.413,86.5,2.014a29.248,29.248,0,0,0,8.611-6.138,4.3,4.3,0,0,0,.9-1.53c1.256-5.376,2.225-31.157-1.417-35.325l-.053-.051h0a13.1,13.1,0,0,0-3.224-1.495C223.274,78.42,199.356,78.162,186.8,78.162ZM143.63,125.593l-.015-.044v-.007Zm-.024-.053.018.035v-.033h0Zm-.442-39.668a.953.953,0,0,1,.626.024h0a.942.942,0,0,0-.626-.024Zm-.064.024Z" transform="translate(163.598 77.772)" fill="#212121" fill-rule="evenodd"/>
    <path id="Path_564" data-name="Path 564" d="M143.379,79.936s-6.4,36.8-1.278,39.582c16.558,8.969,87.971,7.908,89.01,1.82,1.8-10.563,2.565-37.917-1.351-37.37C218.317,85.519,154.084,84.849,143.379,79.936Z" transform="translate(163.661 84.617)" fill="#fff" fill-rule="evenodd"/>
    <path id="Path_565" data-name="Path 565" d="M143.328,80.294a.957.957,0,0,1,1.327-.705c9.922,4,56.894,3.587,67.683,3.405a156.593,156.593,0,0,0,18.61-.854c2.784.208,3.56,3.257,4.086,5.8a136.786,136.786,0,0,1-.511,33.227,4.175,4.175,0,0,1-1.99,3.629c-8.239,5.5-64.147,5.88-85.556-1.139a17.523,17.523,0,0,1-5.787-2.835c-4.606-5.285.9-33.045,2.129-40.53C143.551,80.333,143.894,80.391,143.328,80.294Zm57.345,43.911c5.471-.119,24.209-.781,29.067-3.29a146.74,146.74,0,0,0,1.294-16.142,90.183,90.183,0,0,0-.736-16.633,10.149,10.149,0,0,0-.329-1.252c-12.467,1.245-40.234.139-54.218-.823-6.561-.462-24.525-1.891-30.706-4.266-1.106,7.821-2.976,23.882-2.311,31.665a11.277,11.277,0,0,0,1.07,4.938v.018l-.015-.022.015.022h.015l.016.018h0C154.625,123.986,187.706,124.475,200.673,124.205ZM143.888,118.5l-.022-.024h.015l-.022-.022h.015l-.029-.022h.013l-.031-.024h.015l-.029-.018.022.024-.016-.024.031.033-.022-.024.029.027-.029-.022Zm-.029-.024-.015-.016h0Zm-.015-.016h.022l-.022-.013Zm0,0Z" transform="translate(162.774 84.098)" fill="#212121" fill-rule="evenodd"/>
    <path id="Path_566" data-name="Path 566" d="M182.1,101.34c2.744,1.367,49.4-26.77,51.868-28.636,3.149-2.375,3.392,12.3.425,16.023-4.484,5.621-50.9,31.148-52.217,27.922C182.014,116.246,182.1,101.34,182.1,101.34Z" transform="translate(214.49 75.544)" fill="#fff" fill-rule="evenodd"/>
    <path id="Path_567" data-name="Path 567" d="M183.272,101.72h.022l-.053-.015h.022l-.042-.013h0l-.038-.011h-.022a10.584,10.584,0,0,0,1.975-.71c6.618-2.875,44.539-26.478,46.6-27.8h0c1.946-1.247,1.468-.975,1.875-1.247a3.346,3.346,0,0,1,5,1.813c1.7,3.412,1.311,13.387-1.139,17.146-4.2,6.331-44.933,28.065-53.331,28.837a2.89,2.89,0,0,1-1.833-.347c-1.183-.8-.913-1.548-.716-7.857.013-.338.305-8.078.363-8.922a.942.942,0,0,1,1.349-.856h.022Zm1.2,15.97v0Zm13.991-20.5a100.156,100.156,0,0,1-14.594,6.366c.08,2.459.307,9.192.5,12.947a30.075,30.075,0,0,0,3.98-1.526c5.988-2.678,42.943-22.52,45.285-27.015a19.827,19.827,0,0,0,1.256-6.855,22.075,22.075,0,0,0-.25-4.263C224.2,83.415,208.543,92.132,198.464,97.194ZM236.142,75.859Z" transform="translate(213.696 74.274)" fill="#212121" fill-rule="evenodd"/>
    <path id="Path_568" data-name="Path 568" d="M212.881,88.726v.018l-.254.818-.774.442a228.916,228.916,0,0,1-31,2.171c-6.82.073-27.322-.268-33.647-2.51l-1.612-1.517-.077-2.211v-.015l1.51-1.61c3.317-.119,1.19-.2,4.358.515,8.288,1.707,25.352,2.614,33.782,2.963,25.374,1.015,24.68-.613,27.278.188Z" transform="translate(170.202 89.824)" fill="#212121" fill-rule="evenodd"/>
    <path id="Path_569" data-name="Path 569" d="M162.891,134.625a227.9,227.9,0,0,0-39.672,86.582c-2.344,10.426-1.137,8.343-2.822,9.677l-.829-1.068a157.221,157.221,0,0,1,41.846-96.427l1.355-.119Z" transform="translate(138.773 149.218)" fill="#212121" fill-rule="evenodd"/>
  </g>
</svg>
